<svg width="19" height="32" viewBox="0 0 19 32" fill="none" xmlns="http://www.w3.org/2000/svg">
<path d="M4.6605 30.7263C4.65137 30.7851 4.46816 30.6914 4.42081 30.7229C4.22101 30.853 4.06492 30.8162 3.8593 30.9082C3.55428 31.0445 3.06058 31.8758 2.12234 30.9028C2.12231 30.9028 2.12229 30.9028 2.12227 30.9028C2.11307 30.8932 2.10383 30.8835 2.09454 30.8736C1.91815 30.686 1.78011 30.4286 1.58644 30.2108C1.39267 29.9929 0.0808142 28.6452 0.0885075 28.4909C0.109354 28.2772 0.726115 28.3524 0.773985 28.2765C0.806629 28.2246 0.740722 28.0506 0.774465 27.9759C0.883282 27.7351 1.06255 27.7359 0.899392 27.248C1.13298 27.3628 1.36656 27.4776 1.60014 27.5923C1.60447 27.4305 1.95447 27.5414 1.99262 27.4799C2.02389 27.4295 1.91381 27.2667 1.95074 27.2186C1.99139 27.1639 2.21076 27.2426 2.27698 27.135C2.38623 26.9593 2.06145 26.5711 2.10357 26.4414C2.14734 26.3071 2.47752 26.3699 2.46882 26.1315C2.44464 26.0776 2.42046 26.0238 2.39629 25.9699C2.2988 25.8894 2.2013 25.809 2.10381 25.7285C2.12096 25.6307 2.32448 25.7921 2.38076 25.7443C2.44708 25.6881 2.30952 25.4817 2.3523 25.442C2.3875 25.4097 2.56998 25.5056 2.60609 25.4537C2.65942 25.3789 2.44906 25.1892 2.44737 25.1174C2.44708 25.0891 2.59703 24.7279 2.61004 24.7122C2.71308 24.5974 2.99119 24.8665 3.103 24.8057C3.41202 24.6358 3.44661 24.1683 3.59125 23.8648C3.65577 23.7292 3.77696 23.6435 3.9208 23.5908C4.44893 24.4565 5.33536 24.6719 4.12872 23.6838C4.39393 23.7341 4.18331 23.3564 4.33881 23.3047C4.43965 23.2715 4.63637 23.3801 4.73075 23.2813C4.89728 23.105 4.66432 22.4816 5.48037 23.2275C5.55009 22.89 6.00523 23.0071 5.40291 22.2348C5.4144 22.1411 5.95242 22.4283 6.06634 22.4279C6.17387 22.4273 6.78539 22.2016 6.86583 22.1443C6.94627 22.0871 7.08036 21.9799 7.08025 21.8613C7.08123 21.7134 6.43202 20.9362 7.38426 21.6587C7.47189 21.4414 7.5502 21.4128 7.78864 21.3735C7.83179 21.3664 7.95644 21.4898 7.97169 21.4753C8.00289 21.4452 7.96603 21.3007 8.01075 21.2357C8.08438 21.1287 8.39275 21.3439 7.99137 20.9481C7.98616 20.8219 7.98096 20.6956 7.97575 20.5694C8.07243 20.6272 8.16911 20.6851 8.26579 20.743C8.2158 20.6265 8.16581 20.5101 8.11581 20.3936C8.64395 21.0172 8.53712 20.4517 8.13854 20.186C8.37269 20.1946 8.60684 20.2032 8.84099 20.2117C9.46799 20.8946 9.17223 20.0409 8.79942 19.7003C8.81332 19.688 8.82723 19.6756 8.84113 19.6632C9.12937 19.7274 9.09719 19.4786 9.35488 19.4598C9.61256 19.441 9.66179 19.5189 10.0012 19.7839C10.0178 19.7339 10.0345 19.6839 10.0512 19.6339C9.41643 18.6224 10.7898 20.1091 10.4697 19.1723C11.0761 19.608 11.0462 19.1008 11.0494 18.7883C11.0498 18.752 10.9512 18.649 10.9451 18.5938C10.9315 18.4601 11.2113 18.4449 10.8869 18.1189C11.032 18.1637 11.1772 18.2086 11.3224 18.2534C11.3075 18.1516 11.2926 18.0498 11.2777 17.948C11.1779 17.8449 11.078 17.7417 10.9781 17.6386C11.4047 17.907 11.4107 17.6399 11.5593 17.6592C11.5892 17.6633 11.7295 17.8031 11.8087 17.8018C11.9019 17.801 11.952 17.6713 12.053 17.6598C11.9233 17.4802 11.7936 17.3005 11.6639 17.1208C11.6851 16.9351 12.1235 17.3167 12.2156 17.2903C12.2321 17.2854 12.4034 17.0624 12.4056 17.0431C12.4259 16.8874 12.0585 16.5564 12.3872 16.3862C12.446 16.3561 12.6013 16.4435 12.6471 16.4088C12.7283 16.3476 12.6785 15.858 12.4474 15.5839C12.8462 15.8212 12.9549 15.4622 13.1141 15.4884C13.1626 15.4968 13.3653 15.6975 13.4718 15.6791C13.5584 15.6644 13.5344 15.3704 13.6271 15.3341C13.7263 15.2962 13.9176 15.4445 13.9609 15.4263C14.0016 15.4089 13.8948 15.2433 13.9361 15.205C14.0673 15.0878 14.398 15.2014 14.502 15.109C14.5036 15.1076 14.5051 15.1062 14.5066 15.1047L14.5066 17.1418C14.3617 17.0064 13.8444 17.2899 13.55 17.3555C13.5458 17.2998 13.6015 17.1829 13.5708 17.1517C13.1937 16.763 12.8273 16.2632 12.5216 15.7981C12.3793 15.5826 12.4675 14.5881 11.6879 15.6377C11.4672 15.7403 11.3716 14.9219 11.2899 14.8322C11.2081 14.7425 10.9776 14.8432 10.9067 14.7796C10.6929 14.5875 10.6636 14.3265 10.2713 14.2295C10.1696 14.2049 9.90869 14.336 9.87241 14.2966C9.82916 14.2486 9.96419 14.0087 9.91586 13.9386C9.7992 13.773 9.4715 13.5788 9.36612 13.4131C9.34728 13.3824 9.50084 13.2055 9.51572 13.1183C9.57432 12.778 9.40052 12.6448 8.9098 13.2091C9.02506 12.7312 8.59094 12.8499 8.40855 12.707C8.02409 12.4034 7.50595 11.6616 6.98244 11.5928C6.65228 11.5494 6.4247 11.7953 6.34157 11.3136C6.32308 11.2067 6.32039 11.084 6.29707 10.9553C6.24292 10.653 6.50817 10.0492 5.85406 10.4543C5.78941 10.1233 5.53581 10.0693 5.8309 9.46793C5.70733 9.56126 5.58376 9.65459 5.4602 9.74792C5.43319 9.72713 5.40617 9.70634 5.37916 9.68555C5.47281 9.57321 5.56646 9.46086 5.66011 9.34852C5.51269 9.1518 4.87489 9.36968 4.73006 9.22394C4.48682 8.98002 4.00996 8.19661 3.91151 7.82822C3.85926 7.63262 3.63568 7.85105 4.01002 7.31984C3.95109 7.32509 3.89216 7.33033 3.83323 7.33557C3.71815 7.41996 3.60307 7.50434 3.48799 7.58872C3.32396 7.43837 3.28566 7.098 3.13157 6.95251C2.85049 6.68772 2.16444 6.56384 2.06177 6.11169C2.03628 5.99806 2.15009 5.70494 2.07928 5.64121C1.9764 5.54826 1.6181 5.87131 1.48527 5.75572C1.25695 5.55587 1.23873 4.76163 1.00285 4.59355C0.933004 4.5434 0.780131 4.64475 0.724566 4.61773C0.490234 4.50584 0.354763 4.35495 -0.00735391 4.39017C0.130185 3.88213 0.559158 3.46883 0.919511 2.98189C1.19131 2.6142 1.78909 1.73113 2.04603 1.42732C2.22654 1.21388 2.52457 1.00278 2.71933 0.764037C3.10829 0.798464 3.01282 1.0814 2.89062 1.5636C3.2306 1.86753 3.57058 2.17145 3.91055 2.47538C3.82406 2.6248 3.73756 2.77423 3.65107 2.92365C3.65081 2.92392 3.65056 2.92418 3.6503 2.92444C3.64202 3.18516 3.99502 2.92593 4.13096 2.92092C5.43256 2.87282 6.20309 4.63581 6.84574 5.4024C6.98444 5.56738 7.64314 5.88881 7.56007 6.18685C7.53827 6.26432 7.3665 6.45771 7.38786 6.49392C7.75509 6.63454 8.12232 6.77516 8.48956 6.91577C8.74662 7.7215 9.53073 8.0169 10.1136 8.49296C11.6906 9.78082 13.278 11.0286 14.6719 12.4586C14.9409 12.7352 15.4277 12.9356 15.6129 13.2876C15.6904 13.4343 15.4496 13.7786 15.8133 13.6997C15.7373 13.7817 15.6612 13.8637 15.5852 13.9457C15.8089 13.9739 16.0687 13.8709 16.2324 13.9929C16.3701 14.096 16.7065 14.3973 16.7853 14.5327C16.8268 14.6023 16.6608 14.7325 16.714 14.7824C16.7247 14.7921 16.7394 14.8005 16.7573 14.8078L18.0629 15.7348L16.7573 17.4387C16.697 17.573 16.691 17.8923 16.5814 17.9979C16.4691 18.1062 16.1128 18.1155 16.0506 18.2238C15.8256 18.6127 15.7346 19.1961 15.3369 19.4468C15.2266 19.5156 14.9208 19.4341 14.8974 19.4672C14.8523 19.5325 15.0183 19.738 15.0042 19.7986C14.9318 20.1059 14.417 20.1679 14.2211 20.3396C13.5828 20.8988 13.0161 21.6048 12.375 22.1558C11.9701 22.5041 11.3644 23.1525 10.8726 23.3517C10.7665 23.3947 10.5868 23.1675 10.5226 23.2294C10.4515 23.298 10.5482 23.4754 10.5258 23.5188C10.3722 23.82 10.0008 24.4517 9.64535 24.5179C9.57743 24.5303 9.3906 24.3966 9.36639 24.4211C9.35385 24.4332 9.43252 24.5715 9.40409 24.6208C9.15324 25.0564 8.83733 25.2362 8.45997 25.5266C7.73804 26.0837 7.18113 27.0192 6.38798 27.5684C6.21522 27.6881 5.80265 27.4652 5.78478 27.4887C5.74495 27.5396 5.92407 27.7844 5.88227 27.9278C5.74133 28.4027 5.10079 28.5748 4.91022 28.9679C4.81593 29.1619 4.88037 29.6298 4.79547 29.8289C4.7277 29.988 4.35314 30.1413 4.41862 30.3109C4.45795 30.4135 4.66927 30.6613 4.6605 30.7263ZM5.00959 23.3609C5.3499 23.7547 5.26469 23.2369 4.99056 23.1137C4.92883 23.086 4.92123 23.2587 5.00959 23.3609ZM13.681 15.9938C13.58 16.1025 13.4789 16.2113 13.3778 16.32C13.4489 16.3027 13.5199 16.2854 13.591 16.2681C13.6371 16.1886 13.6832 16.1091 13.7293 16.0296C13.7132 16.0177 13.6971 16.0057 13.681 15.9938Z" fill="white"/>
</svg>
