<svg width="300" height="16" viewBox="0 0 204 16" preserveAspectRatio="none" fill="none" xmlns="http://www.w3.org/2000/svg">
<path d="M187.062 14.067C187.523 14.7429 185.984 14.3012 187.006 15.3103C186.793 15.3788 186.579 15.4494 186.366 15.5179C186.312 15.1438 186.256 14.7706 186.202 14.3966C186.488 14.2861 186.774 14.1756 187.062 14.0652C187.062 14.0658 187.062 14.0664 187.062 14.067ZM187.451 9.38114C187.189 10.4485 186.356 10.7339 187.257 11.7177C187.328 11.3514 187.401 10.9851 187.473 10.6188C187.785 10.9025 188.1 11.1862 188.412 11.4683C188.524 11.3286 188.637 11.1887 188.749 11.0505C188.892 11.6867 189.034 12.3247 189.177 12.9625C189.05 12.8695 188.922 12.7748 188.795 12.6818C188.292 13.1992 187.846 13.341 187.164 13.4379C187.224 13.5885 187.284 13.7377 187.344 13.8882C186.997 13.6324 186.651 13.376 186.307 13.1203C186.606 12.8685 186.941 12.5886 187.218 12.354C186.774 11.3566 185.991 11.9128 185.584 12.1213C185.029 12.406 185.154 11.9314 184.742 12.1305C184.677 12.1616 184.669 12.5335 184.539 12.5399C183.884 12.5701 182.61 12.3744 183.355 11.5058C184.434 11.6164 185.354 10.9186 186.413 11.172C186.133 10.1689 186.69 9.82687 187.451 9.38114ZM167.627 12.5974C167.954 12.1098 168.62 12.3057 169.071 12.6435C169.072 12.6435 169.072 12.6435 169.073 12.6435C169.172 12.7179 169.397 13.3653 169.073 13.3393C168.544 13.2946 168.289 12.2754 168.011 12.9678C167.887 12.8391 167.757 12.7246 167.627 12.5974ZM166.478 12.6591C166.154 12.4095 166.301 11.6412 166.707 11.8486C166.707 11.848 166.707 11.8474 166.707 11.8468C166.876 11.9336 166.544 12.5411 167.151 11.9242C167.275 12.4035 167.398 12.8396 167.52 13.3034C167.372 13.3113 167.236 13.324 167.08 13.3304C167.185 12.5422 166.802 12.9067 166.478 12.6591ZM182.807 11.9403C182.756 12.6494 182.97 12.6447 183.333 13.1363C182.99 13.1134 182.647 13.0889 182.305 13.066C182.473 12.6903 182.639 12.316 182.807 11.9403ZM190.868 12.0415C190.869 12.0415 190.869 12.0415 190.87 12.0415C190.982 11.9296 191.095 11.8173 191.206 11.707C191.273 11.96 191.34 12.2118 191.407 12.4648C191.804 12.2269 192.203 11.989 192.6 11.7495C192.552 12.5225 191.839 12.3975 191.447 12.9381C190.863 12.7058 190.581 12.2575 190.543 11.6024C190.651 11.7482 190.759 11.8958 190.868 12.0415ZM95.3406 9.06248C95.2078 9.27679 95.0767 9.49127 94.9439 9.70558C95.1206 9.80313 95.2958 9.87755 95.4739 9.99064C95.9395 9.05883 95.9835 9.88259 96.5937 9.82465C98.4643 9.64568 97.9676 8.19973 99.6576 10.3166C98.3012 10.2173 98.8227 11.2123 98.0052 11.98C97.8356 11.3965 98.6456 10.0792 98.0964 9.80656C97.1504 10.4253 96.2408 11.0017 95.1911 11.4017C95.2217 11.5026 95.2523 11.6038 95.283 11.7046C95.4494 11.6408 95.6145 11.5766 95.781 11.5128C95.6014 11.7831 95.4259 12.051 95.2434 12.3245C95.474 11.7111 94.8861 12.0543 94.9646 11.3498C94.9995 11.0361 95.2593 10.6008 95.4125 10.3011C95.0168 10.1385 94.611 9.98966 94.2109 9.83178C94.4181 9.58173 94.6251 9.33139 94.8309 9.08134C95.0002 9.0734 95.1682 9.06768 95.3375 9.05974C95.3385 9.06065 95.3396 9.06157 95.3406 9.06248ZM10.1787 12.4139C10.6809 11.6837 11.5937 11.562 12.0744 12.3734C11.4421 12.3865 10.811 12.4008 10.1787 12.4139ZM190.505 11.0623C190.561 11.1863 190.617 11.309 190.674 11.4329C190.422 11.6629 190.17 11.8913 189.919 12.1213C189.871 11.7629 189.821 11.4044 189.771 11.0476C190.015 11.052 190.261 11.058 190.505 11.0623ZM174.438 11.4787C174.622 11.4568 174.638 11.4686 174.867 11.5195C174.867 11.5192 174.866 11.5189 174.866 11.5186C174.957 11.5376 175.716 11.7461 175.631 12.0222C175.254 12.0272 174.853 12.023 174.467 12.0234C174.455 11.8419 174.453 11.6618 174.438 11.4787ZM178.873 11.6351C178.874 11.6357 178.874 11.6363 178.875 11.6369C179.012 11.6787 179.142 11.7639 179.283 11.7793C178.774 12.2142 178.693 11.435 178.23 11.6559C177.767 11.8784 177.482 12.3087 177.089 11.2415C177.234 11.0815 177.392 10.8526 177.542 10.6661C178.199 11.0923 178.376 10.6904 178.903 10.2692C178.893 10.7255 178.883 11.1788 178.873 11.6351ZM103.669 11.2132C103.795 10.6853 103.935 11.203 103.95 11.2092C103.949 11.2098 103.949 11.2104 103.949 11.211C105.061 10.7211 103.804 11.5033 104.854 11.5845C104.698 11.7166 104.544 11.856 104.39 11.9896C104.15 11.7354 103.903 11.4472 103.669 11.2132ZM139.811 11.2238C139.822 11.3775 139.834 11.5315 139.844 11.6852C139.213 11.6502 139.053 12.2554 138.528 11.7049C138.956 11.5431 139.384 11.3823 139.811 11.222C139.811 11.2226 139.811 11.2232 139.811 11.2238ZM171.258 10.3643C171.957 10.0702 172.475 9.94036 173.147 10.4053C173.147 10.406 173.148 10.4066 173.148 10.4072C173.187 10.4358 173 10.7575 173.05 10.8385C173.189 10.7902 173.332 10.7161 173.472 10.6586C173.491 10.916 173.509 11.1734 173.528 11.4294C173.134 11.3568 172.74 11.2844 172.344 11.2118C172.402 11.3623 172.462 11.5115 172.521 11.6621C172.185 11.74 171.85 11.8177 171.514 11.8957C171.631 11.4734 171.747 11.0511 171.863 10.6274C171.661 10.5391 171.459 10.4541 171.258 10.3643ZM129.308 9.55336C129.419 9.7209 129.214 10.0023 129.386 10.1465C129.559 10.2889 129.876 9.97566 129.802 10.4491C129.57 10.5129 129.326 10.5861 129.09 10.6531C129.851 11.5058 130.61 10.7327 130.622 11.7866C129.891 11.5142 129.291 11.6418 128.584 11.9344C128.613 11.0977 129.32 10.3736 128.875 9.58862C129.018 9.5776 129.168 9.56156 129.307 9.5552C129.307 9.55459 129.308 9.55398 129.308 9.55336ZM200.721 0.559966C201.153 0.62315 202.144 0.280635 202.69 0.767499C202.824 0.88748 203.272 2.44307 203.27 2.64819C203.257 3.339 202.711 3.43361 203.296 3.88315C203.099 3.88804 202.908 3.91418 202.713 3.9268C202.748 4.39093 202.783 4.85382 202.816 5.31639C203.054 5.24628 203.293 5.17582 203.531 5.10415C203.542 5.25783 203.554 5.41184 203.566 5.56552C202.71 5.56954 203.215 6.16217 202.772 6.7153C203.181 6.99423 203.592 7.2718 204 7.55073C203.765 7.51684 203.487 7.49184 203.28 7.45172C203.252 8.23873 203.747 8.05057 203.832 8.19633C204.31 9.02007 201.879 8.60667 201.68 9.75221C202.068 9.87906 202.476 10.0028 202.873 10.1281C202.759 10.2695 202.644 10.411 202.53 10.5523C201.629 9.76336 200.618 9.4846 199.568 8.99371C199.474 9.02638 199.379 9.05993 199.285 9.09105C199.313 9.44638 199.339 9.80035 199.367 10.1557C199.224 10.1977 199.079 10.2395 198.936 10.2816C199.358 9.11072 198.773 9.1273 198.068 8.41399C198.443 8.00228 198.906 8.25114 198.874 7.48482C197.586 8.07582 196.078 7.24417 194.825 7.9112C194.514 8.07606 194.515 9.06467 193.784 8.97428C193.809 8.86558 193.813 8.6694 193.829 8.52656C192.565 9.00139 191.797 9.28526 190.483 8.80388C190.559 9.15912 190.634 9.51585 190.71 9.87109C190.989 9.69382 191.268 9.51373 191.545 9.33646C191.735 9.92301 191.455 10.1823 192.287 10.1752C192.969 10.1698 192.563 9.91114 192.749 9.73707C193 9.49944 193.22 9.96615 193.49 9.70057C193.699 9.49698 193.473 9.0131 194.018 9.13515C193.799 9.76255 193.575 10.4104 193.355 11.0456C193.222 10.9044 193.09 10.7611 192.957 10.6185C193.092 10.4507 193.224 10.2851 193.358 10.1173C192.885 10.4189 192.438 10.7034 191.949 11.0159C192.108 10.1092 191.602 10.4496 191.328 10.557C190.9 10.725 191.266 10.1006 190.986 10.2049C190.706 10.3109 190.403 11.0082 189.897 10.8598C190.168 10.4559 189.799 10.0944 189.87 9.72185C189.941 9.34928 190.477 9.26622 189.962 8.86028C188.972 9.17026 190.047 10.5877 189.378 10.8182C188.575 11.0954 188.384 8.78321 188.623 8.28588C188.811 7.89448 189.459 7.97246 189.649 7.5826C188.488 6.88066 188.478 8.26887 188.28 8.54075C187.559 9.53031 188.043 6.89066 187.189 7.84616C187.205 7.35261 187.217 6.90871 187.233 6.43535C187.086 6.52553 186.988 6.64528 186.81 6.71686C187.335 7.6779 186.906 7.63714 186.685 7.63888C186.337 7.64236 186.874 8.11082 186.782 8.23201C186.534 8.5563 186.142 8.40959 186.383 8.83299C186.275 8.63596 186.157 8.43835 186.046 8.24287C185.64 8.48896 184.687 10.5499 185.595 10.1329C185.51 10.8983 185.216 10.5308 184.987 10.4146C184.758 10.2985 184.762 10.7859 184.561 10.6961C183.759 10.3368 184.283 9.50251 184.41 8.84884C183.351 9.30014 184.388 9.59687 182.862 9.89965C182.715 10.4323 183.42 10.9997 182.833 11.3077C182.725 10.3828 182.292 9.71872 181.45 9.41229C181.368 9.62506 181.287 9.83971 181.205 10.0525C180.745 9.19916 180.979 8.31106 180.128 9.37068C180.585 7.422 180.271 8.66869 179.509 7.87637C179.354 7.71664 179.711 7.31206 179.495 7.10738C179.397 7.01507 179.159 7.32043 178.92 7.08511C178.803 6.96881 178.257 6.2182 177.879 6.57538C178.156 7.51894 177.438 8.32265 178.054 9.10284C176.915 8.91157 176.118 9.36559 177.394 8.07729C177.105 7.79196 176.816 7.50786 176.526 7.22408C176.325 7.44939 176.122 7.67293 175.919 7.8967C175.888 7.12099 175.919 6.90335 175.125 7.04066C175.469 6.85719 175.812 6.6707 176.158 6.48568C176.17 6.32902 176.218 6.16616 176.206 6.01416C175.783 6.31255 174.59 6.44206 174.301 6.6488C174.011 6.85558 174.57 6.91148 174.487 7.11183C173.794 8.76392 173.848 7.54593 173.351 7.82987C173.059 7.99784 173.756 8.17915 173.6 8.25073C173.021 8.51307 172.752 7.63572 172.238 7.62508C172.42 8.12305 172.602 8.62876 172.78 9.13139C172.241 9.10557 171.64 9.10179 171.139 9.26223C170.943 9.32486 171.091 9.6952 171.059 9.72005C170.9 9.84753 170.252 10.0499 170.183 10.0515C169.667 10.055 169.652 9.54185 169.15 9.51429C169.347 9.47063 169.532 9.43127 169.725 9.38917C169.812 8.5571 169.901 7.72507 169.989 6.89145C169.497 6.83144 169.004 6.77269 168.511 6.71268C168.871 6.99013 169.234 7.26625 169.594 7.54369C169.031 8.21646 168.467 8.89075 167.904 9.56506C167.61 9.15246 167.318 8.73996 167.024 8.32736C166.227 8.43714 166.388 10.1131 166.009 8.6452C165.774 8.76959 165.539 8.8939 165.304 9.01673C165.338 8.80719 165.371 8.59722 165.405 8.38769C165.121 8.51684 164.838 8.64514 164.555 8.77585C164.853 9.51748 165.145 10.2979 165.44 11.0178C164.883 11.1797 164.872 10.5502 164.789 10.3933C164.568 9.97745 164.131 10.5391 163.955 10.1543C163.896 10.0222 164.442 9.60724 164.254 9.12955C164.217 9.03695 163.485 7.28103 163.018 7.68716C163.027 8.00539 163.064 8.39556 163.083 8.74172C162.455 8.93569 162.134 7.27487 162.217 6.80915C161.883 7.13549 161.394 7.16325 161.326 7.67249C161.155 7.68509 160.986 7.69706 160.815 7.70966C160.992 6.4694 160.28 6.69691 160.233 7.76338C160.527 7.78946 160.821 7.81692 161.114 7.843C160.893 9.15033 161.785 9.93833 159.929 8.72954C159.573 8.04998 160.559 8.8215 160.27 8.31263C159.768 8.01681 159.296 8.26528 158.819 7.79236C158.224 7.20158 158.955 6.63197 157.571 7.38631C160.625 9.26915 157.153 8.66091 155.719 9.24764C155.324 7.3852 154.113 6.79645 152.445 7.35245C152.619 7.87072 153.144 7.60304 153.446 7.77341C153.748 7.94382 153.421 8.25176 153.798 8.49352C154.175 8.73521 154.975 9.06348 155.356 9.4293C155.033 9.72308 153.439 10.4185 154.493 9.58402C153.706 9.07114 153.337 8.54363 152.361 8.44837C152.069 9.25744 152.091 9.76102 151.141 9.78536C151.703 8.66092 150.622 7.88101 150.86 6.71972C151.534 6.98941 151.157 8.11827 151.547 8.65797C151.587 8.71191 152.215 8.42835 152.361 8.44837C151.727 7.43534 151.508 7.05826 151.898 5.85164C151.449 5.95769 151.17 5.80655 151.13 6.38253C151.036 6.13277 150.942 5.88281 150.85 5.63305C150.704 5.63943 150.573 5.6627 150.418 5.65823C150.631 6.52677 150.218 5.9924 149.925 6.38657C149.632 6.78119 150.026 7.46657 149.219 7.47675C149.488 7.67982 149.734 7.85405 149.994 8.04626C149.474 8.27033 148.953 8.49583 148.433 8.7199C148.798 9.25034 149.59 10.038 149.568 10.7364C149.329 10.473 148.509 10.9373 148.419 10.9564C148.071 11.0282 148.261 10.5876 148.234 10.5767C147.688 10.3633 147.239 10.5137 147.031 9.84653C146.621 10.1481 146.311 9.97675 145.876 9.99425C145.637 10.0038 145.683 10.494 145.543 10.4011C144.611 9.78117 145.499 9.14675 143.702 10.3545C143.92 10.6958 144.134 11.0449 144.352 11.3892C144.149 11.5183 143.947 11.6481 143.744 11.7771C143.609 11.7152 143.474 11.6528 143.338 11.5908C143.341 10.8504 143.344 10.1084 143.347 9.36803C143.198 9.32782 143.048 9.28878 142.899 9.24858C143.155 9.17534 143.411 9.10219 143.667 9.02895C143.69 8.89865 143.712 8.76828 143.735 8.63797C143.355 8.43657 142.977 8.23335 142.597 8.0304C142.59 8.28797 142.583 8.54734 142.576 8.80492C141.72 8.44724 141.699 8.22922 140.886 8.93947C140.26 8.93238 139.75 10.0098 139.388 10.4635C139.258 10.3193 139.128 10.1733 138.996 10.0291C138.913 10.2434 138.829 10.4568 138.746 10.6711C138.581 10.3733 138.413 10.0754 138.248 9.77905C138.157 10.4556 138.109 10.6669 138.753 10.9036C138.533 11.7452 137.399 11.3753 136.937 11.0933C136.587 10.8792 136.975 10.177 136.932 10.0917C136.785 9.80188 136.208 10.0527 136.087 10.0047C135.575 9.80506 135.216 9.8405 134.753 9.68576C134.662 9.65479 134.41 9.2103 134.389 9.19637C134.223 9.12048 133.812 8.90475 133.765 8.89859C131.354 8.56918 133.93 10.496 131.689 10.2951C131.756 10.5495 131.818 10.8022 131.884 11.0566C131.714 11.0723 131.543 11.0872 131.374 11.1029C131.159 10.8905 131.419 10.5034 130.993 10.8158C131.02 10.5022 131.048 10.1885 131.077 9.87646C130.892 10.0459 130.713 10.2139 130.523 10.3833C130.225 9.29546 129.137 9.0495 129.214 7.77194C129.241 7.33724 130.012 6.8904 129.604 6.42668C129.273 6.33566 129.497 6.85455 129.362 6.88193C128.387 7.07237 128.443 6.34465 128.044 6.53912C127.982 6.85105 127.916 7.16908 127.852 7.48411C127.701 7.39273 127.551 7.30133 127.399 7.20995C127.364 7.41956 127.327 7.62939 127.292 7.839C127.434 7.85282 127.593 7.86682 127.723 7.88065C127.542 8.69255 125.878 9.05895 126.513 8.36624C126.771 8.08501 127.244 8.20387 126.945 7.24522C126.5 7.38385 125.994 7.52555 125.526 7.66421C125.511 7.45775 125.497 7.25092 125.483 7.04447C124.851 7.1788 125.426 8.00368 125.425 8.44613C125.28 8.4587 125.134 8.46974 124.99 8.48231C124.928 8.28232 124.87 8.07299 124.806 7.8792C124.8 8.19757 124.719 8.93765 124.289 8.66341C124.012 8.48491 124.448 7.68123 123.92 7.79318C123.959 8.2898 124.15 8.89451 123.562 9.0551C123.503 8.5368 123.423 8.062 123.377 7.51729C122.646 8.01606 122.313 7.21592 121.454 7.79582C120.91 8.16279 120.164 9.46412 119.811 7.46069C119.413 7.40837 119.539 7.90724 119.422 8.01955C118.865 8.55106 118.451 7.60134 118.348 7.54557C117.686 7.18804 117.39 7.51726 116.851 7.06929C116.88 7.44028 116.896 7.79147 116.92 8.15315C117.413 7.59686 117.663 7.62268 118.355 7.74147C118.123 7.81622 117.891 7.89268 117.659 7.96743C117.697 8.26847 117.735 8.56957 117.771 8.86906C119.912 7.68074 119.413 9.55513 117.618 9.96689C117.463 9.40985 117.303 8.8543 117.149 8.29572C116.113 9.14129 115.625 8.40873 114.452 8.23453C114.313 8.21461 113.805 8.53613 113.587 8.55221C113.591 8.55434 113.594 8.55648 113.598 8.55861C113.462 9.08493 113.646 9.3269 113.668 9.79718C113.55 9.85628 113.432 9.91515 113.313 9.97425C113.049 9.61603 113.142 9.32147 112.622 9.40739C112.692 9.76432 112.762 10.1213 112.832 10.4783C112.262 10.4913 111.889 10.1038 111.359 10.272C111.448 10.1369 111.536 10.0014 111.625 9.8662C110.472 9.52281 111.389 7.42284 110.518 8.46853C110.462 8.28548 110.408 8.10064 110.353 7.91759C110.712 7.87219 111.071 7.82817 111.429 7.78278C111.436 7.52362 111.444 7.26558 111.45 7.00643C111.065 7.08446 110.68 7.16491 110.296 7.24294C110.576 7.06877 110.858 6.89438 111.138 6.72021C110.693 6.59652 110.247 6.47274 109.802 6.34905C110.275 7.30147 109.662 7.41867 109.778 8.36222C108.989 7.57755 108.369 6.54277 107.147 7.20695C106.905 7.33926 107.036 7.99857 106.349 7.19682C106.515 8.24591 105.654 8.73921 105.765 9.737C106.004 9.68863 106.252 9.6581 106.485 9.5989C106.22 9.25303 106.176 8.3008 106.578 8.01777C107.09 7.65708 107.838 8.31626 107.807 7.25934C108.011 7.30878 108.201 7.33787 108.4 7.37955C108.318 7.64183 108.238 7.90576 108.158 8.16804C108.723 7.75637 109.078 7.88967 109.35 8.55035C108.677 8.70318 108.005 8.8544 107.332 9.00568C107.431 9.05052 107.532 9.09572 107.631 9.13902C107.121 9.81485 107.647 10.4539 106.697 10.5993C106.702 10.2904 106.707 9.98138 106.713 9.67098C106.367 10.4972 105.419 10.4938 105.722 11.4435C105.435 11.152 105.377 10.9675 105.215 11.4797C104.46 10.7587 103.975 9.84638 104.243 8.75632C103.963 8.932 103.682 9.10794 103.404 9.28362C103.566 9.58144 103.728 9.87787 103.89 10.1757C103.402 10.1576 102.911 10.1398 102.425 10.1233C102.378 9.24168 103.364 9.85477 103.079 9.067C103.022 8.90887 102.76 9.248 102.691 9.15896C101.963 8.1958 103.105 8.891 102.89 8.15263C101.807 7.9256 102.674 6.68707 101.181 7.72877C101.142 7.47428 101.099 7.21466 101.063 6.96172C100.545 6.947 100.587 7.52189 100.142 7.63101C99.8629 7.6989 99.5125 6.6897 99.2047 7.37751C99.1498 7.50432 99.6683 8.73772 98.5794 8.68458C97.7343 8.64339 98.0858 7.771 97.6289 7.46251C97.1717 7.15408 96.1264 8.36433 95.8179 6.9939C96.0573 7.1752 96.3623 7.27282 96.6281 7.42147C96.7361 7.15439 96.8412 6.89019 96.9477 6.62466C96.3403 6.96992 95.7122 6.56444 95.3035 7.20135C94.4928 6.22888 93.5866 7.1331 93.8322 8.23193C94.099 8.07318 93.8086 7.59423 94.1792 7.89924C94.2173 8.15534 94.2573 8.41018 94.2954 8.66629C93.6645 8.63591 93.2264 8.64357 93.5139 7.86242C93.416 7.84389 93.3191 7.82541 93.2213 7.80688C93.2039 8.37197 93.1885 8.93915 93.1711 9.50424C93.0543 9.56801 92.937 9.63127 92.8202 9.69504C92.6903 9.57106 92.5601 9.44564 92.4287 9.32011C92.6051 8.42575 92.9061 8.39589 91.91 7.89709C91.9072 8.20602 91.903 8.51373 91.9001 8.82266C91.0662 8.43082 91.044 7.6825 89.9971 7.71147C90.8 6.63805 91.24 8.53884 91.2365 6.38727C91.438 6.52832 91.6412 6.67127 91.8428 6.81232C91.8734 6.50026 91.9037 6.18775 91.9328 5.87568C90.8508 6.04143 89.054 8.09543 88.3292 6.73553C88.2417 6.90167 88.1537 7.0461 88.0648 7.22468C87.3548 6.40422 87.0488 8.24823 86.3286 7.18717C86.2543 7.07582 86.4092 5.34349 85.4721 5.40656C85.4955 5.63167 85.5078 6.01056 85.5268 6.29452C85.3239 6.15663 85.122 6.01231 84.9205 5.8713C84.884 6.07928 84.8458 6.28717 84.8094 6.4967C85.1555 6.57705 85.5006 6.65875 85.8468 6.7391C85.5592 6.81079 85.2698 6.88256 84.9822 6.95425C85.3575 7.2937 85.5268 7.29713 85.3008 7.84193C84.9751 7.87488 84.649 7.90982 84.3234 7.94277C84.2899 8.08233 84.2566 8.22352 84.2231 8.36308C84.3809 8.77891 84.5403 9.18558 84.6981 9.60763C83.8496 9.26858 83.112 9.25091 82.4605 8.43363C82.3495 8.2956 82.7418 7.7532 81.9858 8.2428C81.974 7.95578 81.9536 7.72271 81.9404 7.45737C81.0148 8.2625 80.7106 8.0228 79.7451 7.44325C80.3703 7.98436 79.8125 7.63259 79.6534 7.92306C79.5444 8.12317 79.9701 8.09317 79.922 8.30269C79.8739 8.51075 79.3209 9.35125 79.7939 9.45176C80.9529 7.72892 81.2694 9.7869 82.7587 8.95788C82.5295 9.18012 82.2986 9.40286 82.0694 9.62509C82.1774 9.77544 82.2741 9.91184 82.3909 10.0715C81.56 9.73559 81.9642 9.95396 81.6229 10.2197C81.2812 10.4855 80.6602 10.7117 80.2441 10.7851C80.113 10.8082 80.2511 10.4219 79.9552 10.3863C79.7537 10.3617 79.2032 10.9347 79.0758 10.26C78.9925 9.82079 79.8769 8.61021 78.6536 8.6144C78.4232 8.18399 79.0098 8.31711 79.0224 8.26521C79.1288 7.75281 78.3767 7.36844 78.0293 7.76001C78.0011 7.79379 78.2757 8.19269 77.9773 8.34964C77.2691 8.72452 76.8599 8.26715 76.4013 7.64824C76.3518 8.37481 75.756 9.24311 75.0141 8.97534C74.9762 9.18329 74.9401 9.39307 74.9022 9.60257C75.0173 9.4924 75.1324 9.38371 75.2476 9.27354C75.3732 9.40381 75.5063 9.49859 75.629 9.65214C74.883 9.8316 74.7778 10.833 74.4201 11.1997C73.1962 12.4524 73.9375 9.80447 74.1582 9.34795C74.3174 9.53251 74.4714 9.73856 74.6291 9.93244C74.6115 9.67942 74.5937 9.42447 74.5776 9.1699C72.7449 9.1796 74.298 7.52763 73.3677 7.05826C73.1285 8.30345 72.4454 8.42417 71.5749 7.63511C71.4785 7.64142 71.3818 7.64312 71.2854 7.65098C71.2694 7.83252 71.2697 8.10998 71.2435 8.22961C70.195 8.44186 70.0077 6.52484 69.9084 6.34332C69.4672 5.53824 69.1241 6.65319 68.9941 6.66289C68.4465 6.70228 68.2872 6.20755 67.766 6.42069C67.2054 6.65099 67.5889 7.03032 67.4184 7.37041C67.2817 7.6405 66.8394 7.68905 66.6567 7.96904C66.7293 7.74012 66.8099 7.51563 66.8822 7.28585C66.3011 6.9745 65.8261 6.67093 65.1661 6.59559C64.4219 8.2708 63.7875 5.44695 64.0451 7.73748C64.6701 7.8936 65.0197 8.15427 65.3543 8.73761C64.944 8.81255 64.5335 8.88554 64.1232 8.96048C64.0034 8.70919 63.9184 8.46425 63.7767 8.20832C63.4702 8.74257 62.7594 8.51422 62.4804 8.67112C61.1736 9.40679 61.5781 10.3171 60.3847 8.7878C61.2445 8.63775 61.243 7.89438 62.0957 7.9959C61.9116 7.4652 61.4783 7.57566 61.7585 6.93888C60.9335 7.09654 61.2004 7.6645 60.8795 8.16932C60.6027 8.60452 60.045 8.62947 60.0766 9.19461C60.0195 8.88393 59.9754 8.58316 59.9184 8.27288C59.3841 8.27656 58.8497 8.27734 58.3153 8.28101C58.543 7.95637 58.7706 7.63113 58.9983 7.30804C58.8261 7.1857 58.6537 7.06382 58.4815 6.94148C57.1675 7.95193 54.9006 6.10506 55.2633 8.63949C54.6296 8.72089 54.5503 8.40305 54.2056 7.92381C54.1677 8.11628 54.1308 8.27639 54.0929 8.49061C53.684 8.2896 53.3704 9.01243 53.0097 8.82501C52.6491 8.63903 52.5594 7.95669 52.5071 9.10385C52.2734 8.77506 52.041 8.50197 51.8088 8.19644C51.6688 8.45719 51.5289 8.71494 51.3904 8.97414C51.1713 8.83778 50.9517 8.70198 50.7327 8.56562C50.6157 9.11332 49.7544 8.87822 49.3749 9.24637C49.0143 8.6565 49.0237 6.79804 48.1759 7.13197C48.1979 7.59288 48.2196 8.05246 48.2416 8.51336C48.0474 8.41735 47.8528 8.32163 47.6571 8.22562C47.6454 8.07519 47.6353 7.92475 47.6235 7.77432C47.7228 7.82077 47.8208 7.86698 47.9201 7.91499C47.8339 7.66049 47.7494 7.40716 47.6646 7.15266C47.3683 7.53015 47.0716 7.90767 46.7739 8.28515C47.1755 8.57029 47.5772 8.85561 47.9788 9.14075C47.4751 9.47971 47.1243 9.14253 46.6863 9.52023C46.305 8.88427 46.4457 8.51743 46.6002 7.82668C46.4587 7.8858 46.3154 7.94288 46.1738 8.002C46.267 7.31121 46.0274 6.89993 46.8552 6.95487C46.7983 6.75793 46.7402 6.57017 46.6847 6.36548C46.5489 6.39667 46.4608 6.23025 46.3119 6.30638C45.906 6.51483 45.595 7.72832 45.6229 8.15364C45.6379 8.37644 46.0381 7.9499 46.0222 8.2649C45.9827 9.03306 45.0644 8.68918 46.389 9.45921C45.9496 9.94868 45.8513 9.58001 45.3664 9.43926C45.4045 9.69517 45.4414 9.94947 45.4779 10.2054C45.2531 10.0877 45.028 9.97043 44.8031 9.85274C45.1153 8.5376 43.4577 8.04554 44.9494 6.89375C44.5085 6.83524 44.069 6.77642 43.6296 6.71481C43.72 6.57969 43.8105 6.44592 43.901 6.31079C44.0996 6.38198 44.297 6.452 44.4956 6.52163C44.262 6.27513 44.0279 6.03009 43.7943 5.78359C43.2424 6.09 43.0261 6.56058 42.7737 7.14143C43.4162 7.56442 43.2061 6.98592 43.7066 6.87036C43.6892 7.23806 43.7125 7.57623 43.6688 7.96257C43.4099 7.20126 42.5664 7.75623 42.3707 7.79369C41.7753 7.90745 42.242 7.15865 41.8437 7.14334C41.445 7.12825 40.9749 7.57414 40.6491 6.83245C40.655 7.24835 40.6812 7.67863 40.7047 8.0573C40.0841 8.19458 40.2078 7.70311 40.1435 7.63953C39.1181 6.59436 38.562 7.47827 37.3894 7.58664C37.5384 7.7153 37.6889 7.83144 37.8393 7.95235C36.9549 8.83635 37.5508 8.56533 38.3189 8.85633C37.599 8.76861 37.1869 9.5211 36.6787 9.74519C36.1707 9.9689 35.2991 9.58358 34.9806 9.28286C35.7092 8.79774 36.4952 9.1163 37.3042 8.98192C37.2121 8.55833 37.1226 8.19985 37.0276 7.73442C36.5358 8.62419 36.2505 8.02991 36.0884 7.91211C35.6123 7.56661 35.6275 8.32984 35.3396 7.50919C35.3514 7.7916 35.36 8.02904 35.3718 8.29281C34.389 8.17589 33.3288 7.67774 32.6894 8.72138C32.6308 8.04312 32.5866 7.38965 32.5192 6.69744C32.1032 7.20849 31.7467 6.68599 31.3963 6.80575C31.0473 6.92566 31.1804 7.4737 30.7701 7.68529C30.6942 7.72418 30.5359 7.38123 30.3491 7.63447C30.1604 7.88905 29.4648 9.78117 29.3811 8.12895C29.0292 8.12156 28.6962 8.0615 28.3516 8.03393C28.6874 7.94044 29.0233 7.84987 29.3577 7.75638C29.0714 7.35622 28.7869 6.95726 28.5006 6.5571C28.4642 6.91419 28.4277 7.27773 28.3927 7.63016C27.6218 8.06565 27.0621 7.48248 26.2838 7.62144C26.1538 7.64486 26.4606 8.35045 25.8839 8.17116C25.3071 7.99171 24.8787 6.6746 23.8962 7.18457C23.8465 7.21101 23.5558 8.2204 23.2037 7.52221C23.1235 7.36397 23.4605 7.12933 23.2766 6.92157C23.0926 6.71375 22.2715 6.54358 22.2072 6.04843C22.216 6.22379 22.2672 6.40545 22.2921 6.5839C22.152 6.66785 22.0104 6.75188 21.8689 6.83428C21.8556 6.52541 21.8414 6.21609 21.8281 5.90877C21.0223 6.62836 20.606 7.80124 19.4115 7.41459C19.7474 7.86282 20.0835 8.31286 20.418 8.7611C20.51 8.44586 20.602 8.12851 20.6925 7.81328C21.243 7.93841 21.795 8.06264 22.3455 8.18777C22.4359 7.82907 22.5248 7.4714 22.6152 7.1127C22.7612 7.15911 22.9058 7.20407 23.0518 7.25047C23.0154 7.50974 22.9787 7.76765 22.9408 8.02692C23.2298 7.96298 23.5192 7.89768 23.8068 7.83374C23.2217 9.36455 22.1716 7.70534 22.2476 8.98526C22.1177 8.7868 21.9876 8.58696 21.8576 8.38695C21.8008 9.00767 21.5366 8.82932 21.0709 8.73202C21.1776 9.03772 21.2954 9.33925 21.3934 9.64807C20.9405 9.21704 20.1375 9.25981 19.6687 9.09422C19.4628 9.02149 19.6683 8.57128 19.6071 8.51845C19.293 8.24246 18.6932 9.02828 18.5675 8.96632C17.8169 8.59759 17.3287 7.10954 16.5098 8.09149C17.3554 8.33276 16.8953 8.23097 17.1963 8.77554C17.2905 8.94627 18.383 9.30149 17.0151 9.14467C16.8547 9.12504 14.3725 8.0992 15.1882 7.31017C14.7866 7.56209 14.4723 7.85322 14.1044 8.12062C13.2042 6.04449 13.5161 7.99544 13.7778 9.06941C13.6303 9.07423 13.49 9.08528 13.3381 9.08545C13.6605 7.95651 12.0163 7.8882 11.4586 8.45853C11.2717 8.64812 11.7945 9.0088 11.3623 9.18003C11.1564 9.1011 10.9229 8.99888 10.7054 8.91067C11.021 9.62437 10.4021 9.90021 10.4109 10.6266C10.015 9.97974 9.71198 8.60806 9.92926 7.86419C9.60229 8.16564 9.27361 8.46673 8.94664 8.76974C9.09856 8.94189 9.25244 9.11252 9.40436 9.28466C8.33527 8.82941 6.96107 9.86942 6.73722 8.34366C6.59558 8.35468 6.45243 8.36423 6.31078 8.37525C6.26704 8.63299 6.22477 8.89123 6.18103 9.14897C5.54003 8.92617 4.90048 8.70187 4.25948 8.47907C4.83013 8.31853 4.96589 7.95159 5.56445 8.2488C5.33374 7.95267 5.09873 7.65491 4.8724 7.35877C3.9716 8.15765 3.84883 8.6822 2.49218 8.44617C2.43085 8.43537 1.40567 7.76734 1.3706 7.70217C1.20995 7.40431 1.45357 6.97108 1.38203 6.82055C1.18331 6.39852 -0.0238098 5.33958 -0.000487769 5.17966C0.293973 3.21713 4.3544 3.18676 5.45255 3.08468C16.8428 2.02621 27.9829 3.41401 39.3018 3.16281C39.4182 3.15898 39.3673 2.86937 39.4169 2.85691C39.725 2.78383 40.0276 3.23495 40.1415 3.25345C40.3849 3.29158 40.2508 2.87463 40.4286 2.87414C42.2657 2.87682 43.9993 3.12023 45.8379 3.04685C45.9576 3.04207 45.8354 3.37591 46.0457 3.3167C46.1543 3.28428 46.4939 2.77193 46.7389 2.76392C47.5947 2.73662 48.3135 2.89999 49.216 2.89126C49.7096 2.8861 50.4501 2.92882 51.0019 2.92047C51.2457 2.91691 51.4996 2.68241 51.7404 2.67433C52.0821 2.6631 52.0125 3.13799 52.065 3.16743C52.2958 3.296 52.3276 2.77482 52.5466 2.78698C52.9541 2.81139 52.9761 3.15931 53.493 3.12927C53.8625 3.10715 54.708 2.83152 55.1738 2.75029C56.2633 3.15271 57.636 2.99101 58.6524 2.85642C59.254 2.77663 59.3099 3.26374 59.5552 3.26193C60.4196 3.25156 61.0754 2.62865 61.8873 2.6076C62.9647 2.58016 63.9197 2.99055 64.9636 3.01901C65.1329 3.02349 65.0939 2.57716 65.26 2.56553C65.8748 2.52296 66.6609 2.44088 67.2086 2.50394C67.8189 2.57323 68.0442 3.22089 68.6414 3.08831C68.8165 3.04894 68.8676 2.4808 69.161 2.40755C69.6297 2.29235 70.1438 2.79276 70.4709 2.84832C70.9192 2.92235 70.5292 2.34402 71.1338 2.42099C71.1586 2.42432 71.2492 2.83793 71.379 2.81805C71.7572 2.76176 71.7196 2.43601 72.2731 2.46646C72.3262 2.47069 73.0601 2.8641 73.1331 2.8656C73.5624 2.87135 74.4268 3.00844 74.6809 2.92437C75.5892 2.62533 74.8739 2.00386 75.6468 3.35361C75.9868 3.02267 76.3241 2.68725 76.6846 2.3656C76.444 2.66547 77.4209 3.09676 77.4895 3.06875C78.0572 2.84299 77.7188 2.31785 78.4387 2.404C77.4883 3.61899 79.3675 2.55948 79.7866 2.52798C81.8046 2.37528 83.6391 2.67625 85.6674 2.66632C86.3465 2.66241 87.2563 2.40481 87.9747 2.41025C88.1422 2.41044 88.0157 2.69787 88.1631 2.70392C88.3102 2.70802 88.147 2.38568 88.3148 2.40256C89.3589 2.51326 90.1771 3.12092 91.1334 2.35926C91.18 2.46919 91.1786 2.55609 91.2557 2.6768C92.0383 1.99453 93.5459 2.9093 94.1125 3.03444C94.9988 3.22897 95.2251 2.76812 95.8689 2.86044C96.7203 2.98372 97.9988 3.88219 97.4275 2.39737C98.0115 2.35019 98.5737 2.33673 99.1637 2.47424C99.2293 2.48982 99.1842 2.86743 99.2105 2.87517C99.3769 2.92919 99.431 2.59109 99.5435 2.57545C99.8483 2.53337 99.3509 2.93866 99.7855 2.82511C100.015 2.76433 100.145 2.46935 100.782 2.46243C104.619 2.42571 108.786 2.52684 112.72 2.5723C112.99 2.57511 112.812 2.21019 113.151 2.23311C114.328 2.31264 116.435 2.92485 117.45 2.84004C118.465 2.75513 118.236 2.22144 118.871 1.99719C118.993 1.95359 118.893 2.25799 119.004 2.26253C119.75 2.2897 120.64 2.76338 121.244 2.83414C121.644 2.88156 121.612 2.40287 121.889 2.36838C122.303 2.31826 122.728 2.80146 122.949 2.81675C123.985 2.88383 124.698 2.49351 125.666 2.69116C125.628 2.58584 125.603 2.48834 125.571 2.38457C126.717 2.40042 127.862 2.41631 129.008 2.43215C128.954 2.33596 128.902 2.23894 128.848 2.1412C130.193 2.19258 130.04 3.2359 129.921 1.03323C130.019 0.955524 130.122 0.865462 130.216 0.793974C130.178 1.92873 130.992 2.75826 132.027 3.04595C132.103 3.0676 132.612 1.96067 132.557 3.26784C132.69 2.94792 132.769 2.7274 132.881 2.44631C133.101 2.84181 133.323 3.23262 133.542 3.62657C133.66 3.56747 133.78 3.51043 133.898 3.45133C133.915 3.19517 133.902 2.92923 133.94 2.6777C134.489 2.63831 135.615 2.95376 136.049 2.92079C137.126 2.83736 138.224 2.14366 139.062 2.89101C139.47 2.81428 139.065 2.31198 139.672 2.37494C139.741 2.62939 139.805 2.87328 139.877 3.13548C140.373 1.99772 140.477 2.68942 141.157 2.9263C141.617 3.08724 141.918 2.80897 142.356 2.86276C142.467 2.87661 142.451 3.21042 142.527 3.19947C142.782 3.16478 143.507 2.70457 143.687 2.69197C145.313 2.56916 146.711 2.61919 148.26 2.74016C148.427 2.7524 148.211 2.42321 148.383 2.437C148.66 2.45864 148.497 2.965 148.658 2.98966C149.106 3.0556 149.109 2.52183 149.734 2.49323C151.792 2.39949 154.157 2.79792 156.307 2.83131C156.374 2.83124 156.37 2.51851 156.443 2.51533C156.919 2.49953 157.401 2.92175 157.833 2.91665C158.55 2.90967 159.089 2.46974 159.797 2.47053C161.181 2.4706 162.418 2.69424 163.842 2.70513C165.007 2.71475 166.019 2.67195 167.297 2.67213C172.879 2.67235 178.574 1.67357 184.193 2.19535C184.336 2.20916 184.278 2.48553 184.322 2.47352C184.736 2.35355 184.773 1.98069 184.921 2.76125C185.449 2.60682 185.616 2.02009 186.254 2.06131C186.594 2.08292 186.34 2.9923 186.916 2.52292C187.435 2.0986 186.862 1.60099 188.406 2.10844C188.447 2.12239 188.649 2.67631 188.97 2.5317C189.293 2.38854 188.919 1.99214 189.696 1.87178C191.52 1.59042 193.828 2.06694 195.949 1.91725C196.082 1.9078 197.361 1.61017 197.614 1.47329C198.103 1.20732 198 0.795635 198.635 0.694032C199.126 0.615886 199.531 1.08192 200.108 0.988153C200.175 0.976761 200.287 0.496827 200.721 0.559966ZM93.2234 9.99488C93.1038 10.4658 92.8881 12.1988 92.1639 11.6723C92.0953 11.6227 92.4655 10.4306 92.0655 10.2415C92.4568 10.1153 92.8379 10.0742 93.2234 9.99305C93.2234 9.99366 93.2234 9.99427 93.2234 9.99488ZM203.862 11.6055C203.321 11.5192 202.777 11.4337 202.235 11.3473C202.609 11.1373 202.983 10.9278 203.356 10.7162C203.525 11.0125 203.693 11.3093 203.862 11.6055ZM136.419 10.8549C136.42 10.8549 136.42 10.8549 136.421 10.8549C135.851 11.079 135.281 11.3036 134.712 11.5278C134.772 11.3631 134.832 11.1978 134.891 11.0332C135.341 10.7735 135.791 10.5142 136.239 10.2545C136.299 10.4547 136.359 10.6547 136.419 10.8549ZM140.918 9.10789C141.282 9.3031 141.193 9.63307 141.393 9.9542C141.393 9.95359 141.393 9.95298 141.393 9.95237C141.446 10.036 141.692 10.1089 141.787 10.1213C141.752 9.91488 141.706 9.71111 141.668 9.50623C142.517 9.00545 144.176 10.78 142.028 11.4979C142.06 11.2372 142.091 10.9777 142.123 10.7169C141.056 10.791 139.866 10.2267 140.918 9.10789ZM84.6401 10.7548C83.7291 11.6096 83.4369 11.7899 82.3313 11.2058C82.4874 10.9637 82.6435 10.7215 82.7996 10.4794C82.9822 10.726 83.1635 10.9709 83.3461 11.2176C83.3466 11.2176 83.3471 11.2176 83.3476 11.2176C83.3841 10.9583 83.4206 10.6986 83.4556 10.4393C83.8499 10.5444 84.2458 10.6497 84.6401 10.7548ZM175.8 9.6875C176.055 11.3925 175.981 10.4014 175.256 10.7867C175.005 10.9204 175.249 11.2185 175.093 11.2684C174.249 11.5406 174.182 10.3982 174.37 9.80347C174.847 9.7626 175.33 9.72527 175.799 9.68751C175.799 9.68751 175.8 9.68751 175.8 9.6875ZM197.693 9.30973C197.694 9.30973 197.694 9.30973 197.695 9.30973C197.717 9.72564 197.376 9.83788 197.76 10.2315C197.468 10.2303 197.177 10.2273 196.883 10.2261C196.969 10.1872 197.057 10.1502 197.143 10.1114C197.067 9.96863 196.991 9.82407 196.915 9.68133C196.811 10.1595 196.715 9.88173 196.408 9.72216C196.493 10.2328 196.578 10.7438 196.663 11.2544C196.306 11.1027 195.949 10.9504 195.592 10.7987C195.588 10.67 195.583 10.5411 195.579 10.4124C195.445 10.577 195.312 10.7435 195.178 10.9081C195.141 10.7545 195.106 10.6023 195.069 10.4487C194.907 10.5652 194.745 10.6817 194.583 10.7998C194.534 10.4277 194.891 10.2664 194.258 10.3616C194.452 9.9796 194.645 9.59871 194.841 9.21666C195.792 9.24669 196.742 9.27815 197.693 9.30973ZM169.2 10.2192C170.247 10.1466 169.953 10.4167 169.71 11.2613C169.541 10.9139 169.37 10.5666 169.2 10.2192ZM115.257 9.52541C114.954 10.1017 114.649 10.6722 114.338 11.2283C113.719 11.5503 113.099 10.5012 113.565 10.0893C114.125 9.59513 114.711 10.1469 115.257 9.52541ZM101.155 9.79687C101.912 10.0631 101.2 10.7482 101.029 11.1473C100.819 10.5064 100.527 10.5633 100.058 10.4892C100.498 10.4472 101.029 9.75166 101.155 9.79504C101.155 9.79565 101.155 9.79626 101.155 9.79687ZM127.449 10.1596C127.752 10.142 128.054 9.98086 128.326 10.176C128.244 10.7268 127.701 10.2264 128.089 11.0423C127.895 11.0565 127.701 11.0703 127.508 11.086C127.63 10.7476 127.466 10.495 127.449 10.1614C127.449 10.1608 127.449 10.1602 127.449 10.1596ZM159.056 10.8791C158.46 10.2278 158.347 10.5069 157.747 10.9592C157.662 10.4285 158.378 9.5385 158.826 9.34227C158.902 9.85443 158.978 10.367 159.056 10.8791ZM18.1268 10.7584C18.2697 10.0816 19.3251 9.99221 19.8496 10.1917C19.7871 10.2921 19.7245 10.3939 19.6621 10.4958C19.151 10.5833 18.6379 10.6709 18.1268 10.7584ZM99.8343 10.4437C99.9129 10.4634 99.9873 10.4781 100.058 10.4892C99.9795 10.4967 99.904 10.4852 99.8343 10.4437ZM68.1111 7.54087C68.3605 6.90264 67.6185 6.6891 68.5195 6.93804C68.5195 6.93743 68.5195 6.93682 68.5195 6.93621C69.1153 7.10012 69.2469 7.14392 69.7989 7.193C69.6004 8.01275 68.4806 8.30689 70.0241 8.47444C70.0445 8.47516 70.0039 7.98755 70.2505 8.05399C70.3266 8.07464 70.5704 8.4746 70.9409 8.59063C71.0606 8.62776 71.9605 8.75022 70.7339 8.7593C70.7706 9.33054 70.7049 9.90885 70.7079 10.463C70.2292 10.6246 69.8609 9.50638 69.3544 9.53437C68.6023 9.57864 68.2199 10.7102 68.075 9.22631C68.7073 8.86101 69.7931 8.85107 69.935 9.74339C70.5468 9.7536 70.7223 9.02221 70.2289 8.66097C68.1159 9.12275 69.6485 7.57623 67.7984 8.1619C67.7766 8.36832 67.7005 8.59053 67.7122 8.78452C67.1473 8.05878 68.0221 7.76914 68.1111 7.54087ZM72.5301 9.11442C72.1652 9.55103 71.8014 9.99114 71.4379 10.4293C71.4377 9.71833 71.638 9.08011 72.2133 8.67899C72.3184 8.82468 72.425 8.97027 72.5301 9.11442ZM41.8194 9.33412C41.7669 9.7207 41.6269 10.0751 41.5248 10.4431C41.4137 10.1172 38.7849 9.80729 40.1222 9.48608C40.3164 9.4393 41.5013 10.1215 41.8194 9.33412ZM163.193 10.2924C162.883 10.0335 162.575 9.77418 162.266 9.51526C162.741 9.3503 163.215 9.18103 163.69 9.01297C163.524 9.43935 163.359 9.86605 163.193 10.2924ZM110.217 8.85244C110.348 8.86682 109.914 9.39887 110.429 9.31453C110.045 9.65492 109.686 9.94306 109.31 10.2633C109.198 10.0119 109.084 9.76155 108.972 9.51018C108.884 9.67172 108.795 9.8323 108.707 9.99384C108.76 9.62742 108.806 9.26956 108.862 8.89692C109.494 9.68175 109.639 8.79097 110.217 8.85244ZM129.019 7.39955C129.133 8.19564 128.217 8.67012 129.118 8.79646C128.947 9.31976 128.673 9.59445 128.146 9.64158C128.061 9.44161 127.977 9.2431 127.892 9.04313C127.88 9.57849 127.745 9.77762 127.449 10.1596C127.448 10.159 127.448 10.1584 127.448 10.1577C126.646 10.1974 126.694 10.0188 126.501 9.13892C127.35 9.63477 127.375 8.83063 127.953 8.35187C128.35 8.02266 128.869 8.17101 129.019 7.39955ZM44.6201 9.32196C44.0203 9.99472 44.5589 10.6211 43.4942 9.90816C43.5628 9.73732 43.6317 9.56794 43.7003 9.3971C44.0069 9.37039 44.3135 9.34557 44.6201 9.32196ZM131.981 10.1254C131.912 8.89298 131.347 7.93417 131.251 9.93944C131.801 10.3471 131.532 9.21161 131.981 10.1254ZM101.413 7.86676C102.471 7.92313 102.271 9.31445 101.836 10.0104C101.769 9.7574 101.702 9.50397 101.636 9.25256C101.451 9.36763 101.265 9.48294 101.08 9.59646C101.191 9.02041 101.302 8.44281 101.413 7.86676ZM150.644 8.7514C149.835 9.63247 151.517 9.23999 150.952 9.79014C150.501 10.2299 149.906 9.34364 150.131 8.78766C150.287 8.77197 150.461 8.76091 150.642 8.7514C150.643 8.7514 150.643 8.7514 150.644 8.7514ZM145.962 9.00818C146.095 9.94848 145.904 9.67456 146.543 9.50467C146.726 9.45635 148.176 9.80799 147.567 9.02935C147.049 9.0299 146.501 9.01692 145.962 9.00818ZM89.1758 9.25585C89.1659 8.84632 90.2826 7.94585 90.4261 8.17058C90.4261 8.16997 90.4261 8.16936 90.4261 8.16875C90.8132 8.78152 89.635 8.86991 90.1463 9.71072C89.0144 8.97158 88.6763 10.7627 88.7546 8.40308C89.4212 8.29885 89.1057 8.78559 89.1758 9.25585ZM4.26814 8.84525C4.26762 8.84525 4.2671 8.84525 4.26658 8.84525C4.34159 8.86443 4.95979 9.46482 4.88469 9.6731C4.14142 9.49539 4.27376 9.09961 3.58201 9.75048C3.54402 9.54113 3.51147 9.33806 3.47056 9.12716C3.74507 9.00267 3.89719 8.75095 4.26814 8.84525ZM38.9772 8.5114C39.2503 8.40399 39.7487 8.84731 40.0598 8.82059C39.0701 10.5261 37.8866 8.93796 38.9772 8.5114ZM187.454 9.3793C187.453 9.37991 187.452 9.38053 187.451 9.38114C187.451 9.38021 187.452 9.37932 187.452 9.37839C187.453 9.37869 187.453 9.379 187.454 9.3793ZM60.139 9.5113C60.1037 9.40069 60.0838 9.3046 60.0766 9.22024C60.0766 9.2123 60.0766 9.20437 60.0766 9.19644C60.0957 9.30001 60.116 9.40477 60.139 9.5113ZM86.8545 9.38193C86.3891 8.81127 87.9388 7.90158 88.4401 8.11778C88.4051 8.37851 88.3997 8.61486 88.3181 8.91438C87.9134 8.23973 86.9319 9.4781 86.8545 9.38193ZM122.192 9.13438C120.967 9.12017 122.561 6.8633 122.627 8.66244C122.625 8.6973 122.224 9.13128 122.192 9.13438ZM96.5165 9.13538C96.8285 8.45227 96.2011 8.27163 97.2042 8.38852C97.2626 8.56531 97.321 8.74252 97.3795 8.91931C97.0919 8.99101 96.8041 9.06368 96.5165 9.13538ZM114.165 6.18232C112.623 6.5643 111.149 7.23683 112.154 9.1186C112.27 9.058 112.389 8.99939 112.505 8.93879C112.523 8.02018 112.953 8.52115 113.584 8.55038C113.674 8.1856 114.023 8.1009 114.089 7.79091C114.215 7.19171 113.813 6.77096 114.165 6.18232ZM179.269 7.60747C179.244 7.76429 179.22 7.92193 179.195 8.07719C178.951 8.25443 178.707 8.43081 178.463 8.60804C178.502 8.3071 178.542 8.00619 178.581 7.70525C178.81 7.67242 179.038 7.63939 179.267 7.60656C179.268 7.60686 179.268 7.60717 179.269 7.60747ZM74.0323 7.17473C73.8927 8.90066 74.3821 8.58228 75.3748 7.70885C74.9279 7.53081 74.4792 7.35277 74.0323 7.17473ZM138.945 6.85517C138.977 7.34542 139.009 7.83417 139.042 8.32442C139.569 7.81311 139.471 7.25175 139.219 6.60312C139.127 6.68696 139.037 6.77133 138.945 6.85517ZM146.538 6.6383C146.32 6.53625 146.431 6.93199 146.408 6.92407C145.855 6.71664 145.777 6.53514 145.098 6.83392C145.015 6.938 144.933 7.04743 144.85 7.15461C145.164 8.18162 145.392 7.62145 146.056 8.22443C145.936 7.87216 145.817 7.51942 145.697 7.1656C146.067 7.2397 146.435 7.31278 146.804 7.38688C146.848 7.27816 146.892 7.17045 146.935 7.06174C146.804 6.92221 146.668 6.7654 146.538 6.6383ZM182.089 8.05029C182.448 8.09026 182.809 8.13183 183.168 8.1718C183.182 7.91877 183.194 7.66403 183.207 7.411C182.835 7.62402 182.461 7.83726 182.089 8.05029ZM66.6567 7.96904C66.6283 8.05883 66.6006 8.14916 66.5759 8.24102C66.5783 8.12909 66.6094 8.04169 66.6567 7.96904ZM3.31992 7.4584C2.91251 7.28189 2.32552 7.3987 1.87867 7.36199C1.91397 7.9967 3.04962 7.82003 3.44852 8.20438C3.51258 8.09041 3.49213 7.53267 3.31992 7.4584ZM102.877 7.92103C102.979 7.60428 103.081 7.28902 103.182 6.97227C103.429 7.00615 103.676 7.04195 103.924 7.07583C103.932 6.81658 103.939 6.55508 103.946 6.29582C102.852 6.6338 103.104 5.88596 102.563 5.14929C102.668 6.07267 102.772 6.9961 102.877 7.92103ZM193.519 6.39382C192.729 6.57008 192.449 6.89802 192.894 7.67525C193.173 7.49649 193.453 7.31756 193.732 7.13879C193.661 6.89055 193.589 6.64206 193.519 6.39382ZM52.2685 7.39857C51.6075 7.68987 51.5962 6.64615 50.9502 7.2297C51.2963 7.42178 51.6423 7.61601 51.9869 7.80809C52.08 7.67191 52.1754 7.53475 52.2685 7.39857ZM84.6921 4.49741C84.4131 4.13462 83.8921 5.86114 83.1077 4.58791C82.9209 4.96837 82.8039 5.33171 82.6434 5.70438C82.5499 5.29931 82.4435 4.88908 82.3544 4.4871C82.3539 4.4871 82.3533 4.4871 82.3528 4.4871C81.6417 4.62448 82.1029 5.13214 82.087 5.56216C82.0795 5.74043 81.5516 5.44301 81.7166 5.8308C82.0016 6.49647 83.0655 6.11237 83.0686 6.92426C82.6947 6.65932 81.9648 6.88183 82.1809 7.42324C82.4176 8.0175 83.1053 7.02043 83.5435 7.51333C82.9154 6.21636 84.2121 6.6158 84.3599 7.61224C85.1205 6.84611 84.4211 6.53466 83.6413 6.57119C84.1172 5.80692 83.4165 6.22031 83.301 5.58558C83.7918 5.20183 85.4765 5.51947 84.6921 4.49741ZM120.588 5.866C120.062 5.91581 119.24 5.48015 118.88 6.12508C118.671 6.50084 119.494 6.79074 118.927 7.38108C119.439 7.32303 119.556 7.09254 119.468 6.57579C119.585 6.5136 119.703 6.45295 119.82 6.39231C119.874 6.4931 119.929 6.59255 119.983 6.69333C120.044 6.48061 120.106 6.26959 120.166 6.05688C120.29 6.09862 120.415 6.14043 120.539 6.18373C120.554 6.07678 120.579 5.9837 120.588 5.866ZM33.286 7.45097C33.4319 7.44461 33.5765 7.43828 33.7225 7.43036C33.7064 7.3045 33.6872 7.17344 33.6687 7.04409C33.6555 6.94187 33.6422 6.83966 33.6289 6.73744C33.7137 7.10259 34.4094 7.7089 34.7022 7.31854C34.8495 7.1227 34.5141 6.42839 35.1385 6.30646C34.686 6.34267 34.2668 6.43793 33.8273 6.49737C33.8667 6.29086 33.9045 6.08215 33.9439 5.87564C33.9436 5.87533 33.9434 5.87503 33.9431 5.87472C33.7971 5.82832 33.6494 5.77969 33.5034 5.73329C33.4305 6.3062 33.3588 6.87806 33.286 7.45097ZM138.516 5.88614C138.019 6.29184 137.852 6.50243 138.087 7.15729C138.088 7.15759 138.088 7.1579 138.089 7.1582C138.274 6.86776 138.46 6.57742 138.645 6.28698C138.603 6.15352 138.56 6.01959 138.516 5.88614ZM62.3667 5.81127C61.3087 8.3008 63.6925 6.77282 63.2384 5.92569C63.2179 5.8869 62.4661 6.08594 62.3667 5.81127ZM101.218 7.10163C101.508 7.08113 101.8 7.06259 102.092 7.0421C102.024 6.73635 101.956 6.43167 101.888 6.12592C101.665 6.45061 101.441 6.77694 101.218 7.10163ZM190.079 5.2678C189.773 4.58507 188.988 4.33845 188.604 5.08171C188.806 5.16843 189.007 5.25526 189.209 5.34198C188.828 5.42773 188.451 5.52209 188.067 5.6032C188.047 6.55483 188.489 6.00228 189.155 6.26392C189.259 6.30612 189.918 7.48664 190.145 6.5961C190.191 6.41306 189.49 6.28938 189.977 5.75678C189.764 5.71514 189.58 5.72462 189.379 5.70158C189.364 5.47495 189.349 5.24806 189.333 5.02142C189.582 5.10322 189.83 5.18601 190.079 5.2678ZM117.526 5.94344C116.804 5.8917 116.715 6.27203 116.565 6.94418C116.9 6.86775 117.236 6.79249 117.572 6.71606C117.556 6.45905 117.542 6.20199 117.526 5.94344ZM183.623 5.05684C183.227 4.94735 183.397 5.49415 183.238 5.59831C182.636 5.99009 182.226 5.59961 181.632 5.84538C181.671 5.73978 181.707 5.64107 181.745 5.53857C181.745 5.53857 181.744 5.53857 181.744 5.53857C178.93 5.08059 180.408 6.31948 182.092 6.11587C182.131 6.31919 182.169 6.52277 182.209 6.72454C182.962 6.36825 183.657 6.02545 183.623 5.05684ZM71.7728 5.71604C71.7406 5.58879 72.0135 4.77955 71.501 5.15881C71.0955 6.34034 71.761 5.7534 71.9278 6.20749C71.7891 6.32096 71.6472 6.43137 71.51 6.54484C72.3395 6.87771 72.4605 6.59674 72.158 5.73394C72.1364 5.67596 71.805 5.8429 71.7728 5.71604ZM66.3214 5.13964C66.2079 6.87999 67.2545 6.09634 67.2164 5.55614C67.0719 5.53476 66.9596 5.82953 66.8063 5.6994C66.6515 5.56919 66.6119 5.16274 66.3214 5.13964ZM96.3124 5.53317C96.2817 5.52545 95.9734 4.79438 96.0042 5.36689C96.3857 6.72171 97.1534 5.84857 97.019 5.37678C96.765 5.4004 96.5957 5.60394 96.3124 5.53134C96.3124 5.53195 96.3124 5.53256 96.3124 5.53317ZM194.843 4.85256C194.828 4.80402 194.06 4.51087 193.96 4.78393C193.879 5.09133 193.838 5.42074 193.777 5.73897C194.2 5.44356 195.058 5.66733 194.841 4.85256C194.842 4.85256 194.842 4.85256 194.843 4.85256Z" fill="black" />
</svg>
