<svg width="19" height="32" viewBox="0 0 19 32" fill="none" xmlns="http://www.w3.org/2000/svg">
<path d="M14.3395 1.18585C14.3486 1.12705 14.5318 1.22067 14.5792 1.18924C14.779 1.05908 14.9351 1.09592 15.1407 1.00391C15.4457 0.867615 15.9394 0.0363138 16.8777 1.00928C16.8777 1.0093 16.8777 1.00932 16.8777 1.00935C16.8869 1.01889 16.8962 1.0286 16.9055 1.03849C17.0818 1.22612 17.2199 1.48353 17.4136 1.70133C17.6073 1.9192 18.9192 3.26695 18.9115 3.42125C18.8906 3.63492 18.2739 3.55973 18.226 3.63557C18.1934 3.68751 18.2593 3.86148 18.2255 3.93619C18.1167 4.17705 17.9374 4.17622 18.1006 4.66409C17.867 4.54933 17.6334 4.43456 17.3999 4.31979C17.3955 4.48161 17.0455 4.3707 17.0074 4.43219C16.9761 4.48265 17.0862 4.64537 17.0493 4.69348C17.0086 4.74822 16.7892 4.66953 16.723 4.7771C16.6138 4.95276 16.9386 5.34098 16.8964 5.47067C16.8527 5.60505 16.5225 5.54223 16.5312 5.78065C16.5554 5.83449 16.5795 5.88834 16.6037 5.94218C16.7012 6.02267 16.7987 6.10316 16.8962 6.18365C16.879 6.28141 16.6755 6.12004 16.6192 6.16784C16.5529 6.22399 16.6905 6.43037 16.6477 6.47006C16.6125 6.50242 16.43 6.40654 16.3939 6.45838C16.3406 6.53325 16.5509 6.72293 16.5526 6.79474C16.5529 6.82298 16.403 7.1842 16.39 7.19986C16.2869 7.3147 16.0088 7.04561 15.897 7.10645C15.588 7.2763 15.5534 7.74378 15.4087 8.04733C15.3442 8.18295 15.223 8.26859 15.0792 8.32136C14.5511 7.45559 13.6646 7.24024 14.8713 8.22832C14.6061 8.17796 14.8167 8.5557 14.6612 8.60743C14.5603 8.64061 14.3636 8.53196 14.2692 8.63079C14.1027 8.80714 14.3357 9.43052 13.5196 8.68464C13.4499 9.02208 12.9948 8.90497 13.5971 9.67728C13.5856 9.77102 13.0476 9.48385 12.9337 9.48421C12.8261 9.48477 12.2146 9.71053 12.1342 9.76778C12.0537 9.82504 11.9196 9.93225 11.9198 10.0509C11.9188 10.1987 12.568 10.976 11.6157 10.2535C11.5281 10.4707 11.4498 10.4993 11.2114 10.5386C11.1682 10.5457 11.0436 10.4223 11.0283 10.4368C10.9971 10.4669 11.034 10.6114 10.9892 10.6765C10.9156 10.7834 10.6072 10.5682 11.0086 10.964C11.0138 11.0903 11.019 11.2165 11.0242 11.3427C10.9276 11.2849 10.8309 11.227 10.7342 11.1691C10.7842 11.2856 10.8342 11.402 10.8842 11.5185C10.3561 10.8949 10.4629 11.4604 10.8615 11.7261C10.6273 11.7175 10.3932 11.709 10.159 11.7004C9.53201 11.0175 9.82777 11.8712 10.2006 12.2118C10.1867 12.2242 10.1728 12.2365 10.1589 12.2489C9.87063 12.1847 9.90281 12.4335 9.64512 12.4523C9.38744 12.4711 9.33821 12.3932 8.99884 12.1282C8.98216 12.1782 8.96548 12.2282 8.9488 12.2782C9.58357 13.2897 8.21022 11.8031 8.53033 12.7398C7.92394 12.3041 7.95377 12.8113 7.95057 13.1238C7.95017 13.1601 8.04882 13.2631 8.05488 13.3183C8.06848 13.4521 7.78871 13.4672 8.11314 13.7932C7.96797 13.7484 7.8228 13.7035 7.67763 13.6587C7.69251 13.7605 7.70739 13.8623 7.72227 13.9641C7.82213 14.0672 7.922 14.1704 8.02186 14.2735C7.59533 14.0051 7.58927 14.2722 7.4407 14.2529C7.41083 14.2488 7.27048 14.109 7.19131 14.1103C7.09809 14.1111 7.048 14.2409 6.94702 14.2523C7.07672 14.432 7.20642 14.6116 7.33612 14.7913C7.31491 14.977 6.87653 14.5954 6.78435 14.6218C6.76795 14.6268 6.59661 14.8498 6.59441 14.8691C6.5741 15.0248 6.94152 15.3557 6.61276 15.5259C6.55401 15.556 6.39875 15.4687 6.35288 15.5034C6.27166 15.5645 6.32153 16.0541 6.55261 16.3282C6.15378 16.0909 6.04512 16.4499 5.88592 16.4237C5.83736 16.4153 5.63469 16.2146 5.52817 16.233C5.44161 16.2477 5.46564 16.5417 5.3729 16.5781C5.27374 16.6159 5.08236 16.4676 5.03911 16.4858C4.99843 16.5032 5.10523 16.6688 5.06392 16.7071C4.93267 16.8243 4.60201 16.7108 4.498 16.8031C4.4964 16.8045 4.49485 16.8059 4.49335 16.8074L4.49335 14.7703C4.63833 14.9057 5.15561 14.6222 5.44997 14.5566C5.45424 14.6123 5.39846 14.7292 5.42918 14.7604C5.80634 15.1491 6.17268 15.6489 6.47839 16.114C6.62074 16.3295 6.53246 17.324 7.31215 16.2744C7.53283 16.1718 7.62838 16.9902 7.71012 17.0799C7.79189 17.1696 8.0224 17.0689 8.0933 17.1325C8.30712 17.3246 8.33644 17.5856 8.72869 17.6826C8.83044 17.7072 9.09131 17.5761 9.12759 17.6155C9.17084 17.6635 9.03581 17.9034 9.08414 17.9735C9.20079 18.1391 9.5285 18.3333 9.63388 18.499C9.65272 18.5297 9.49915 18.7066 9.48428 18.7938C9.42568 19.1342 9.59948 19.2673 10.0902 18.703C9.97494 19.1809 10.4091 19.0622 10.5915 19.2051C10.9759 19.5087 11.494 20.2505 12.0176 20.3193C12.3477 20.3627 12.5753 20.1168 12.6584 20.5985C12.6769 20.7054 12.6796 20.8281 12.7029 20.9568C12.7571 21.2591 12.4918 21.8629 13.1459 21.4578C13.2106 21.7888 13.4642 21.8428 13.1691 22.4442C13.2927 22.3508 13.4162 22.2575 13.5398 22.1642C13.5668 22.185 13.5938 22.2058 13.6208 22.2266C13.5272 22.3389 13.4335 22.4512 13.3399 22.5636C13.4873 22.7603 14.1251 22.5424 14.2699 22.6882C14.5132 22.9321 14.99 23.7155 15.0885 24.0839C15.1407 24.2795 15.3643 24.0611 14.99 24.5923C15.0489 24.587 15.1078 24.5818 15.1668 24.5765C15.2818 24.4922 15.3969 24.4078 15.512 24.3234C15.676 24.4737 15.7143 24.8141 15.8684 24.9596C16.1495 25.2244 16.8356 25.3483 16.9382 25.8004C16.9637 25.9141 16.8499 26.2072 16.9207 26.2709C17.0236 26.3639 17.3819 26.0408 17.5147 26.1564C17.743 26.3562 17.7613 27.1505 17.9972 27.3186C18.067 27.3687 18.2199 27.2674 18.2754 27.2944C18.5098 27.4063 18.6452 27.5572 19.0074 27.5219C18.8698 28.03 18.4408 28.4433 18.0805 28.9302C17.8087 29.2979 17.2109 30.181 16.954 30.4848C16.7735 30.6982 16.4754 30.9093 16.2807 31.1481C15.8917 31.1136 15.9872 30.8307 16.1094 30.3485C15.7694 30.0446 15.4294 29.7407 15.0894 29.4367C15.1759 29.2873 15.2624 29.1379 15.3489 28.9885C15.3492 28.9882 15.3494 28.9879 15.3497 28.9877C15.358 28.727 15.005 28.9862 14.869 28.9912C13.5674 29.0393 12.7969 27.2763 12.1543 26.5097C12.0156 26.3447 11.3569 26.0233 11.4399 25.7253C11.4617 25.6478 11.6335 25.4544 11.6121 25.4182C11.2449 25.2776 10.8777 25.137 10.5104 24.9963C10.2534 24.1906 9.46927 23.8952 8.88644 23.4191C7.30944 22.1313 5.72195 20.8835 4.32814 19.4535C4.05906 19.1769 3.57229 18.9765 3.38713 18.6245C3.30961 18.4778 3.55042 18.1335 3.18667 18.2124C3.26272 18.1304 3.33877 18.0484 3.41482 17.9664C3.19106 17.9382 2.93134 18.0412 2.76756 17.9192C2.62993 17.8161 2.29352 17.5148 2.21467 17.3794C2.17322 17.3098 2.33922 17.1796 2.28602 17.1297C2.27531 17.12 2.26056 17.1116 2.24265 17.1044L0.937051 16.1773L2.24265 14.4734C2.30299 14.3392 2.30902 14.0198 2.41858 13.9142C2.53087 13.8059 2.88724 13.7966 2.94937 13.6883C3.17441 13.2994 3.26543 12.716 3.66313 12.4653C3.77344 12.3965 4.07921 12.478 4.10263 12.4449C4.14769 12.3796 3.98169 12.1741 3.99582 12.1135C4.06818 11.8062 4.58304 11.7442 4.77891 11.5725C5.41719 11.0133 5.98386 10.3073 6.62498 9.75627C7.02989 9.408 7.6356 8.75959 8.12738 8.56037C8.23347 8.51745 8.41323 8.74463 8.47739 8.68276C8.5485 8.61411 8.45184 8.43675 8.47415 8.39336C8.62778 8.09208 8.99917 7.46045 9.35464 7.39424C9.42257 7.38184 9.6094 7.51551 9.63361 7.49102C9.64615 7.47892 9.56747 7.34063 9.59591 7.29132C9.84676 6.85566 10.1627 6.67594 10.54 6.38549C11.262 5.8284 11.8189 4.89296 12.612 4.34376C12.7848 4.22404 13.1973 4.44694 13.2152 4.42345C13.255 4.37253 13.0759 4.12775 13.1177 3.98431C13.2587 3.50942 13.8992 3.33728 14.0898 2.94421C14.1841 2.75017 14.1196 2.28231 14.2045 2.08317C14.2723 1.92408 14.6469 1.7708 14.5814 1.60124C14.542 1.49859 14.3307 1.25083 14.3395 1.18585ZM13.9904 8.55118C13.6501 8.15742 13.7353 8.67521 14.0094 8.79839C14.0712 8.82612 14.0788 8.65338 13.9904 8.55118ZM5.31896 15.9183C5.42003 15.8096 5.5211 15.7008 5.62217 15.5921C5.55113 15.6094 5.48008 15.6267 5.40904 15.644C5.36293 15.7235 5.31682 15.803 5.27071 15.8825C5.28679 15.8944 5.30288 15.9064 5.31896 15.9183Z" fill="white"/>
</svg>
