<svg width="212" height="45" viewBox="0 0 212 45" fill="none" xmlns="http://www.w3.org/2000/svg">
<g clip-path="url(#clip0_4369_3284)">
<path d="M61.6456 31.8138C61.5819 31.6533 61.3909 31.1105 60.8789 31.1105C60.6878 31.1105 60.4968 31.1742 60.2726 31.3347C59.3785 31.9106 58.3264 32.2292 57.1444 32.2929C56.9203 32.3235 56.6987 32.3235 56.4745 32.3235C56.0593 32.3235 55.6135 32.2929 55.2288 32.1961C54.3984 32.0355 53.6979 31.6201 53.1859 30.9193C52.9617 30.6645 52.7707 30.3765 52.6764 30.0249C52.5796 29.77 52.4522 29.5126 52.3249 29.2578C52.2612 29.0667 52.1975 28.9061 52.1338 28.7481C51.8791 28.1416 51.688 27.4714 51.5912 26.8318C51.5581 26.577 51.5581 26.3196 51.5912 26.0342C51.5912 25.8736 51.6244 25.6825 51.6244 25.4914C51.6575 24.5969 51.9122 23.7661 52.2001 22.9685C52.4242 22.2983 52.8394 21.7224 53.4126 21.2764C53.5731 21.149 53.6673 21.0521 53.7641 20.9247C53.9883 20.7336 54.1793 20.5425 54.4035 20.3819C55.3919 19.5843 56.5407 19.1358 57.8195 18.9778C57.98 18.9446 58.1379 18.9141 58.2984 18.9141C58.6805 18.9141 59.1288 18.9778 59.544 19.0746L59.7988 19.1077C59.8625 19.1077 59.9261 19.1409 59.9898 19.1409C60.2446 19.174 60.4687 19.2377 60.7235 19.332C60.7871 19.3651 60.8203 19.3651 60.8839 19.3651C60.9476 19.3651 61.0113 19.3651 61.075 19.332C61.2024 19.2683 61.266 19.1409 61.2992 19.0135C61.396 18.2464 61.396 17.5762 61.396 16.906C61.4291 16.4906 61.4596 16.0752 61.4928 15.693C61.5564 14.9896 61.6201 14.2888 61.5896 13.5855V13.5523C61.5896 13.4886 61.6227 13.3281 61.5259 13.2007C61.3985 12.7216 61.4291 12.2119 61.4622 11.6691C61.4953 11.4143 61.4953 11.19 61.4953 10.9352C61.5284 10.8078 61.5284 10.7441 61.5284 10.7109H62.6442C62.741 10.7109 62.8352 10.7109 62.932 10.7441C62.9651 10.7441 63.1231 10.8078 63.1562 10.8078V10.9989C63.2199 11.3812 63.253 11.7022 63.2835 12.0845C63.4109 13.0095 63.5383 13.9677 63.4746 14.8928C63.4415 15.3082 63.4415 15.7235 63.4746 16.1058V16.6792C63.4746 17.0945 63.4415 17.5099 63.4415 17.9253C63.4084 18.3407 63.4084 18.7561 63.4084 19.1383C63.3752 19.936 63.4084 20.703 63.472 21.5006C63.5052 21.7249 63.5052 21.916 63.5357 22.1403C63.6325 23.417 63.5994 24.7269 63.5688 26.0673V26.0979C63.5052 27.3746 63.5688 28.6844 63.7293 30.0886C63.8261 30.6008 63.793 31.1105 63.7624 31.6533V32.4203H63.602C63.3141 32.4203 63.0263 32.4509 62.7078 32.5171H62.5805C62.1653 32.5171 61.7832 32.1986 61.6558 31.8138H61.6456ZM57.3686 21.149C55.9319 21.6586 54.8467 22.5225 54.0494 23.7355C53.8889 23.9598 53.8253 24.2146 53.8253 24.4389C53.8584 24.7574 53.7921 25.0148 53.7285 25.3334C53.6953 25.5576 53.6648 25.7487 53.6317 26.0036C53.568 26.5795 53.5349 27.2166 53.8558 27.7925C53.9195 27.8894 54.0469 28.1442 54.0469 28.1442C54.2074 28.399 54.3653 28.6564 54.5258 28.9418C54.8442 29.5177 55.3868 29.9 56.1204 30.0911C56.6961 30.2185 57.2056 30.2185 57.6845 30.2185C57.9087 30.2185 58.0997 30.2185 58.3239 30.2517C58.5149 30.2517 58.6754 30.188 58.7697 30.1243C58.7917 30.1022 58.813 30.0911 58.8333 30.0911C59.4727 29.8032 59.9185 29.3878 60.3337 28.9418C61.131 28.1111 61.5157 27.1529 61.5794 26.0036V24.5994C61.5794 23.705 61.5157 22.8105 61.452 21.9492C61.452 21.8217 61.3883 21.7249 61.2915 21.6306C61.0037 21.4395 60.7489 21.3426 60.4942 21.2789C59.7275 21.0878 58.9633 21.0547 58.2271 21.0241H58.0666C57.8119 21.0241 57.5877 21.0572 57.3635 21.1515L57.3686 21.149Z" fill="black" stroke="black" stroke-miterlimit="10"/>
<path d="M75.9412 32.5477C75.6533 32.484 75.4623 32.1961 75.3655 31.9412C75.3655 31.9081 75.3655 31.8775 75.3323 31.8444V31.7807C75.2992 31.717 75.2687 31.6201 75.205 31.4927C75.1413 31.3653 75.0139 31.2685 74.8534 31.2685C74.7898 31.2685 74.7261 31.2685 74.6624 31.299C73.5135 31.875 72.2679 32.2241 70.8006 32.4178H70.7038C70.4491 32.4178 70.1612 32.3541 69.8734 32.3209C69.746 32.2903 69.5855 32.2572 69.4582 32.2241C69.1703 32.1604 68.9156 32.0967 68.6914 31.9693C67.861 31.6176 67.5731 30.9474 67.3184 30.0223C67.1579 29.4795 67.0942 28.9698 67.1579 28.427C67.191 27.7568 67.4763 27.1172 67.9552 26.5107C68.2431 26.159 68.5615 25.8405 68.8799 25.5219C69.2315 25.2034 69.6467 25.0123 70.0925 24.8823C70.7318 24.7549 71.3381 24.5638 71.9444 24.4032C72.5838 24.2121 73.2537 23.9878 73.9237 23.8604C74.0205 23.8604 74.1147 23.7636 74.1784 23.6999C74.3058 23.4756 74.3058 23.3176 74.3058 23.2208V23.1876L74.2727 22.9328C74.1759 22.3569 74.0816 21.7835 73.9542 21.2076C73.7938 20.3462 73.2843 19.9309 72.3596 19.834C72.2322 19.8009 72.0717 19.8009 71.8807 19.8009C71.3381 19.8009 70.8286 19.9283 70.4134 20.0557C69.6467 20.3106 69.2009 20.9171 69.0735 21.8752C69.0098 22.1938 68.9462 22.2906 68.5946 22.3849C68.4036 22.3849 68.1794 22.418 67.9884 22.418H67.7642C67.5731 22.3849 67.4458 22.2906 67.3821 22.0995C67.2853 21.8447 67.349 21.5236 67.4152 21.205C67.4152 21.1082 67.4152 21.0445 67.4483 20.9502C67.5451 20.4711 67.7999 20.0251 68.2151 19.6403C68.7245 19.225 69.3002 18.8733 69.8428 18.5242C70.2886 18.2362 70.8006 18.1419 71.3738 18.0145L71.5979 17.9814C71.7253 17.9814 71.8858 17.9482 72.0768 17.9482C72.4284 17.9482 72.8105 18.012 73.1926 18.0757C73.3199 18.0757 73.4473 18.1088 73.5747 18.1088C73.7352 18.1419 73.8625 18.2056 74.0205 18.2693C74.2115 18.333 74.4357 18.4299 74.6598 18.4605L74.7235 18.4936C75.7756 19.3549 76.3513 20.4099 76.415 21.7172C76.4481 22.0052 76.5118 22.2932 76.5754 22.5786C76.6086 22.7697 76.6391 22.994 76.6722 23.1851C76.6722 23.4731 76.7054 23.7916 76.7359 24.1101C76.7996 24.7498 76.8327 25.3563 76.8633 25.9934C76.927 28.004 77.118 29.9535 77.4059 31.7399V31.931C77.439 31.9947 77.439 32.0584 77.4696 32.1222C77.4696 32.377 77.4364 32.377 77.1817 32.4407C76.8939 32.5044 76.5754 32.5375 76.257 32.5375H75.9386L75.9412 32.5477ZM73.6103 25.2365C73.2282 25.3639 72.8436 25.4608 72.4946 25.5551C71.9189 25.6825 71.3458 25.843 70.8032 26.0673C69.9422 26.3552 69.3996 26.898 69.1449 27.5988C68.9844 28.1111 68.7933 28.9087 69.178 29.6732C69.6569 30.504 70.8057 31.1105 71.8578 31.1105C72.0819 31.1105 72.273 31.1105 72.4335 31.0773C72.9429 30.9499 73.3913 30.6951 73.7734 30.4708C73.8702 30.4071 73.9644 30.374 74.0281 30.3103C74.2828 30.1829 74.6344 29.9586 74.5707 29.3521C74.507 28.873 74.4739 28.427 74.4433 27.9785C74.4102 27.7237 74.4102 27.4994 74.3796 27.2752C74.316 26.7324 74.316 26.1896 74.316 25.6799C74.316 25.4557 74.1249 25.2645 73.9007 25.2645C73.8676 25.2645 73.8039 25.2314 73.7403 25.2314H73.6129L73.6103 25.2365Z" fill="black" stroke="black" stroke-miterlimit="10"/>
<path d="M83.6011 32.5477C83.0585 32.5477 82.549 32.2597 82.037 31.6863C81.6549 31.2072 81.3671 30.7613 81.2066 30.3128L81.1429 30.0885C80.9187 29.482 80.664 28.8424 80.6334 28.1416C80.6334 27.9173 80.6003 27.6625 80.6003 27.4076C80.5366 26.3857 80.4729 25.3639 80.5035 24.3751V23.4169C80.5035 22.9073 80.5035 22.3645 80.5672 21.8854C80.6946 20.5755 80.6946 19.3319 80.664 18.1826C80.664 18.0552 80.664 17.9584 80.6971 17.8309C80.7302 17.6704 80.7608 17.4793 80.7302 17.2881C80.6665 16.5848 80.6971 15.8203 80.7302 15.117C80.7633 14.7016 80.827 14.2225 81.0817 13.9345C81.2091 13.8071 81.2728 13.774 81.3365 13.7434C81.6549 13.7103 81.9427 13.6797 82.2306 13.6797C82.4853 13.6797 82.7095 13.7128 82.9337 13.7765C83.1247 13.8097 83.1578 13.8402 83.1578 13.8402V14.0008C83.1247 14.5436 83.1578 15.0864 83.1578 15.596C83.191 16.33 83.2215 17.0002 83.1247 17.6398V17.6729C83.1247 17.8004 83.1247 17.9609 83.1884 18.1189C83.2215 18.2157 83.2521 18.2795 83.3489 18.3432C83.5094 18.44 83.7004 18.5037 83.8915 18.5037H84.0825C84.3067 18.5037 84.5614 18.5368 84.8161 18.5368C85.104 18.57 85.3587 18.6005 85.6466 18.6005C85.8376 18.6005 85.9981 18.6005 86.1561 18.5674H86.2197C86.5382 18.5674 86.7292 18.8223 86.7292 19.0134C86.7292 19.3651 86.5382 19.6199 86.1535 19.6836C85.8351 19.6836 85.5141 19.7167 85.1957 19.7167C84.941 19.6836 84.6862 19.653 84.4621 19.653C84.0469 19.653 83.6648 19.6861 83.3132 19.7804C83.1859 19.8136 83.0585 19.9078 82.9948 20.0353C82.898 20.4506 82.8343 20.8329 82.8343 21.3757V25.3027C82.8343 25.7487 82.8343 26.1972 82.8674 26.6431C82.8674 27.0585 82.9006 27.5045 82.9006 27.9199C82.9006 28.5264 83.0916 29.0692 83.2827 29.5814L83.3463 29.7419C83.5374 30.1879 84.4315 30.509 84.8136 30.509H85.0047C85.132 30.4784 85.2288 30.4453 85.3868 30.4121C85.5472 30.3816 85.6746 30.3816 85.8325 30.3153H85.8657C86.1841 30.2516 86.663 30.1879 87.0145 29.8362C87.0782 29.8056 87.2387 29.7394 87.366 29.7088C87.4297 29.7088 87.4934 29.6757 87.5571 29.6451C87.8118 30.1879 87.9086 30.5064 87.3966 30.9855C87.0145 31.3678 86.7267 31.6557 86.3446 31.9437C85.9625 32.1348 85.5778 32.3259 85.132 32.3591C84.6531 32.4228 84.1437 32.5196 83.6316 32.5502H83.5985L83.6011 32.5477Z" fill="black" stroke="black" stroke-miterlimit="10"/>
<path d="M99.3335 32.5477C99.0456 32.484 98.8546 32.1961 98.7578 31.9412C98.7578 31.9081 98.7578 31.8775 98.7247 31.8444V31.7807C98.6916 31.717 98.661 31.6201 98.5973 31.4927C98.5336 31.3653 98.4063 31.2685 98.2458 31.2685C98.1821 31.2685 98.1184 31.2685 98.0547 31.299C96.9059 31.875 95.6602 32.2241 94.193 32.4178H94.0962C93.8414 32.4178 93.5536 32.3541 93.2657 32.3209C93.1384 32.2903 92.9779 32.2572 92.8505 32.2241C92.5627 32.1604 92.3079 32.0967 92.0838 31.9693C91.2533 31.6176 90.9655 30.9474 90.7107 30.0223C90.5503 29.4795 90.4866 28.9698 90.5503 28.427C90.5834 27.7568 90.8687 27.1172 91.3476 26.5107C91.6354 26.159 91.9538 25.8405 92.2723 25.5219C92.6238 25.2034 93.039 25.0123 93.4848 24.8823C94.1242 24.7549 94.7305 24.5638 95.3367 24.4032C95.9761 24.2121 96.646 23.9878 97.316 23.8604C97.4128 23.8604 97.5071 23.7636 97.5707 23.6999C97.6981 23.4756 97.6981 23.3176 97.6981 23.2208V23.1876L97.665 22.9328C97.5682 22.3569 97.4739 21.7835 97.3466 21.2076C97.1861 20.3462 96.6766 19.9309 95.7519 19.834C95.6246 19.8009 95.4641 19.8009 95.273 19.8009C94.7305 19.8009 94.221 19.9283 93.8058 20.0557C93.039 20.3106 92.5932 20.9171 92.4659 21.8752C92.4022 22.1938 92.3385 22.2906 91.987 22.3849C91.7959 22.3849 91.5717 22.418 91.3807 22.418H91.1565C90.9655 22.3849 90.8381 22.2906 90.7744 22.0995C90.6776 21.8447 90.7413 21.5236 90.8075 21.205C90.8075 21.1082 90.8075 21.0445 90.8407 20.9502C90.9375 20.4711 91.1922 20.0251 91.6074 19.6403C92.1169 19.225 92.6926 18.8733 93.2352 18.5242C93.6809 18.2362 94.193 18.1419 94.7661 18.0145L94.9903 17.9814C95.1176 17.9814 95.2781 17.9482 95.4692 17.9482C95.8207 17.9482 96.2028 18.012 96.5849 18.0757C96.7123 18.0757 96.8396 18.1088 96.967 18.1088C97.1275 18.1419 97.2549 18.2056 97.4128 18.2693C97.6039 18.333 97.828 18.4299 98.0522 18.4605L98.1159 18.4936C99.1679 19.3549 99.7436 20.4099 99.8073 21.7172C99.8404 22.0052 99.9041 22.2932 99.9678 22.5786C100.001 22.7697 100.031 22.994 100.065 23.1851C100.065 23.4731 100.098 23.7916 100.128 24.1101C100.192 24.7498 100.225 25.3563 100.256 25.9934C100.319 28.004 100.51 29.9535 100.798 31.7399V31.931C100.831 31.9947 100.831 32.0584 100.862 32.1222C100.862 32.377 100.829 32.377 100.574 32.4407C100.286 32.5044 99.9678 32.5375 99.6494 32.5375H99.3309L99.3335 32.5477ZM97.0027 25.2365C96.6206 25.3639 96.2359 25.4608 95.8869 25.5551C95.3112 25.6825 94.7381 25.843 94.1955 26.0673C93.3345 26.3552 92.7919 26.898 92.5372 27.5988C92.3767 28.1111 92.1857 28.9087 92.5703 29.6732C93.0492 30.504 94.1981 31.1105 95.2501 31.1105C95.4743 31.1105 95.6653 31.1105 95.8258 31.0773C96.3353 30.9499 96.7836 30.6951 97.1657 30.4708C97.2625 30.4071 97.3568 30.374 97.4204 30.3103C97.6752 30.1829 98.0267 29.9586 97.963 29.3521C97.8993 28.873 97.8662 28.427 97.8357 27.9785C97.8025 27.7237 97.8025 27.4994 97.772 27.2752C97.7083 26.7324 97.7083 26.1896 97.7083 25.6799C97.7083 25.4557 97.5172 25.2645 97.2931 25.2645C97.26 25.2645 97.1963 25.2314 97.1326 25.2314H97.0052L97.0027 25.2365Z" fill="black" stroke="black" stroke-miterlimit="10"/>
<path d="M112.152 32.5147V32.3873C112.182 31.5896 112.152 30.792 112.119 29.9918C112.086 29.2248 112.086 28.4271 112.119 27.6601C112.119 27.2447 112.086 26.8293 112.086 26.4139C112.055 26.126 112.022 25.8074 112.022 25.5195C112.086 25.0404 112.086 24.5307 112.086 23.9879C112.086 23.254 112.022 22.5201 112.022 21.8167V20.7642C112.022 20.6037 111.925 20.4763 111.798 20.4126C111.637 20.3157 111.416 20.252 111.222 20.252C111.095 20.252 110.998 20.2851 110.904 20.2851C110.649 20.3183 110.328 20.3489 110.073 20.3489C109.722 20.3489 109.658 20.2214 109.627 19.9666C109.594 19.8392 109.594 19.7118 109.564 19.5844C109.533 19.3295 109.5 19.0747 109.533 18.8173C109.533 18.4351 109.597 18.3713 109.979 18.3382C110.139 18.3051 110.297 18.2745 110.458 18.2745C110.746 18.2108 111 18.1777 111.225 18.1777H111.512C111.545 18.2108 111.576 18.2108 111.576 18.2108C111.703 18.2108 111.8 18.1471 111.894 18.0834C112.182 17.7954 112.182 17.5406 112.182 17.3495C112.182 16.5187 112.246 15.7542 112.406 15.0177C112.567 14.2201 112.789 13.2925 113.237 12.528C113.588 12.0183 114.067 11.5061 114.704 11.0601C115.344 10.6448 115.95 10.3262 116.62 10.1657C117.195 10.0051 117.705 9.94141 118.184 9.94141C118.375 9.94141 118.599 9.94141 118.76 9.97454C119.205 10.0382 119.684 10.102 120.163 10.1988C120.739 10.3593 120.994 10.6142 121.024 11.1875C121.055 11.3787 121.055 11.5698 121.055 11.7635C121.055 11.8909 120.958 11.9877 120.831 11.9877C120.788 11.9877 120.756 11.9767 120.734 11.9546C120.67 11.9546 120.637 11.9215 120.573 11.8909C120.543 11.8909 120.51 11.8578 120.476 11.8578C119.998 11.4424 119.455 11.2513 118.849 11.2513C118.433 11.2513 117.988 11.3481 117.539 11.5392C116.742 11.8578 116.008 12.37 115.305 13.0071C114.954 13.3587 114.793 13.7741 114.666 14.1895C114.602 14.5412 114.505 14.8597 114.411 15.1783C114.314 15.5299 114.22 15.9122 114.22 16.3607V17.7343C114.22 17.8948 114.317 18.0528 114.475 18.1165C114.699 18.1802 114.89 18.2133 115.145 18.2133C115.305 18.2133 115.433 18.2133 115.56 18.1802H115.912C116.23 18.1802 116.582 18.2771 116.933 18.3713L116.997 18.4045C117.03 18.4045 117.03 18.4376 117.03 18.4376C117.157 18.9473 117.285 19.4901 117.285 19.9692C117.285 20.0966 117.221 20.1297 117.157 20.1603C116.966 20.2571 116.806 20.3208 116.615 20.3208C116.584 20.3208 116.551 20.2877 116.518 20.2877C116.23 20.2546 115.942 20.2546 115.56 20.2546H114.635C114.539 20.2546 114.411 20.3183 114.348 20.382C114.093 20.6062 114.123 20.9248 114.157 21.0216V21.0548C114.19 21.8524 114.19 22.6194 114.157 23.3865V25.2391C114.157 25.9731 114.156 26.6433 114.19 27.3772C114.22 27.92 114.19 28.4934 114.157 28.9725C114.123 29.5153 114.157 30.0886 114.157 30.6314V31.4622C114.123 31.8445 113.996 32.3567 113.423 32.5478C113.262 32.6115 113.135 32.6115 112.944 32.6115C112.72 32.6115 112.432 32.5784 112.147 32.5147H112.152Z" fill="black" stroke="black" stroke-miterlimit="10"/>
<path d="M124.534 32.1965C124.247 32.0997 123.959 32.0054 123.64 31.9722C123.289 31.9085 122.937 31.748 122.491 31.4294C122.013 31.1109 121.534 30.6955 121.118 30.2496C120.64 29.7373 120.288 29.164 120.033 28.4937C119.97 28.2695 119.873 28.0147 119.779 27.7904C119.651 27.4387 119.554 27.1202 119.46 26.8016C119.142 25.6523 119.172 24.6305 119.557 23.736C119.748 23.2569 119.972 22.7472 120.163 22.2681C120.26 22.0133 120.354 21.7585 120.451 21.5342C120.642 21.1188 120.963 20.7672 121.248 20.418C122.43 19.2687 123.834 18.5985 125.365 18.3743C125.589 18.3411 125.844 18.3105 126.098 18.3105C126.386 18.3105 126.608 18.3437 126.865 18.438C127.12 18.5017 127.344 18.5348 127.535 18.5348H127.95C128.845 18.5348 129.642 19.0139 130.409 19.493C130.984 19.9389 131.557 20.5454 132.1 21.3456C132.355 21.6642 132.482 22.1127 132.609 22.5281C132.673 22.6555 132.706 22.816 132.737 22.9434C132.992 23.7105 132.992 24.5387 132.992 25.4026V25.9454C132.992 26.1059 132.958 26.3277 132.992 26.5519C133.025 27.1915 132.864 27.8286 132.48 28.6263C132.034 29.4876 131.428 30.2547 130.597 30.958C130.182 31.3097 129.672 31.7556 129.002 32.0436C128.236 32.3621 127.375 32.5227 126.162 32.5227C125.62 32.5227 125.013 32.4896 124.534 32.2041V32.1965ZM124.534 20.6066C123.449 21.0526 122.652 21.5648 122.109 22.523V22.5561C122.087 22.5986 122.066 22.6308 122.046 22.6529C122.015 22.7166 121.982 22.7498 121.949 22.7498C121.373 23.5474 121.152 24.475 121.246 25.4943C121.343 26.004 121.501 26.4525 121.661 26.8679C121.725 27.0922 121.821 27.2833 121.885 27.4744C122.173 28.5269 122.907 29.1665 123.673 29.7424C123.992 29.9336 124.313 30.0304 124.568 30.0941C125.174 30.2852 125.877 30.3489 126.641 30.3489H126.705C126.768 30.3489 126.832 30.3821 126.865 30.3821C126.929 30.3821 126.993 30.3489 127.056 30.3489C127.217 30.3489 127.375 30.3489 127.535 30.3158C129.002 29.9336 130.057 28.9754 130.694 27.5075C130.949 26.9647 131.045 26.3914 131.14 25.8791L131.173 25.7823C131.364 24.7935 131.206 23.8991 130.661 22.9078L130.564 22.7472C130.467 22.5561 130.34 22.365 130.276 22.2044C130.021 21.5011 129.446 21.152 128.967 20.8946C128.042 20.4792 127.148 20.3518 126.414 20.2881H126.096C125.52 20.2881 124.978 20.3849 124.532 20.6066H124.534Z" fill="black" stroke="black" stroke-miterlimit="10"/>
<path d="M137.523 32.0359C137.396 32.0027 137.269 32.0027 137.172 31.9721C137.075 31.9721 136.981 31.9721 136.917 31.939C136.629 31.7785 136.502 31.5873 136.535 31.3631C136.632 30.1807 136.599 29.0008 136.565 27.8515C136.535 27.2118 136.502 26.5416 136.502 25.9045L136.405 20.7314V20.2523C136.372 19.9643 136.372 19.6764 136.405 19.4215C136.405 19.2304 136.469 19.0699 136.502 18.9119C136.535 18.815 136.565 18.7207 136.599 18.6239C136.632 18.5908 136.662 18.4965 136.726 18.4634C136.853 18.3665 137.014 18.3359 137.172 18.3359C137.426 18.3359 137.714 18.4328 137.811 18.5908C138.002 18.815 138.13 18.973 138.257 19.1973C138.384 19.4215 138.545 19.5795 138.705 19.7069C138.802 19.7707 138.833 19.8038 138.896 19.8675C138.96 19.9643 139.057 19.9949 139.184 19.9949C139.281 19.9949 139.345 19.9618 139.408 19.9312C139.79 19.6432 140.142 19.4521 140.493 19.2916C140.685 19.1947 140.876 19.131 141.036 19.1004C141.26 19.0673 141.482 19.0036 141.706 18.9399C141.897 18.9068 142.088 18.8431 142.282 18.8125C142.57 18.7793 142.794 18.7793 143.048 18.7793C143.815 18.7793 144.421 18.9705 144.9 19.419C145.155 19.6101 145.252 19.8649 145.219 20.1529C145.186 20.4715 145.091 20.6957 144.964 20.8868C144.933 20.92 144.9 20.92 144.9 20.9505C144.9 20.9505 144.867 20.9174 144.804 20.9174C144.292 20.6932 143.782 20.5657 143.239 20.5657C142.697 20.5657 142.121 20.6932 141.484 20.9174C140.845 21.1085 140.111 21.2997 139.505 21.8425C139.057 22.2578 138.802 22.6401 138.738 23.1192C138.578 23.6951 138.514 24.3959 138.514 25.1298C138.45 26.3097 138.417 27.5253 138.417 28.7052C138.417 29.1205 138.45 29.5359 138.481 29.9182C138.514 30.1093 138.514 30.3004 138.545 30.4916C138.545 30.5247 138.512 30.5884 138.512 30.6521C138.512 30.8126 138.512 30.9706 138.545 31.1643C138.545 31.3554 138.448 31.5797 138.29 31.7708C138.13 31.962 137.908 32.0588 137.684 32.0588C137.62 32.0588 137.587 32.0588 137.523 32.0257V32.0359Z" fill="black" stroke="black" stroke-miterlimit="10"/>
<path d="M153.727 40.9119C153.503 40.8151 153.281 40.7514 153.057 40.7208L152.96 40.6571C152.29 40.4659 151.811 40.3054 151.396 39.9231C150.693 39.3472 150.28 38.8376 150.023 38.231C149.863 37.7214 149.959 37.1455 150.056 36.7301C150.247 35.8356 150.759 35.038 151.269 34.304C151.557 33.7944 152.002 33.4096 152.578 33.091C152.609 33.0579 152.642 33.0273 152.675 32.9942C152.708 32.9611 152.772 32.9305 152.802 32.8974C152.866 32.8336 152.866 32.8005 152.93 32.7062C153.057 32.5457 153.026 32.3546 152.93 32.2271C152.866 32.1634 152.802 32.0666 152.739 32.0029C152.356 31.4932 152.005 31.0778 152.069 30.5019C152.102 29.8623 152.484 29.3526 152.963 28.8098C153.06 28.6493 153.09 28.4913 152.996 28.3307C152.869 28.1065 152.677 28.0122 152.55 27.979C152.517 27.9459 152.486 27.9459 152.486 27.9153C152.423 27.8848 152.359 27.8516 152.295 27.8185C152.265 27.8185 152.232 27.7854 152.199 27.7854C152.102 27.6248 151.974 27.4974 151.88 27.3394C151.625 27.0514 151.434 26.8297 151.304 26.5086C151.144 26.157 151.017 25.9021 150.826 25.5836C150.698 25.3288 150.698 25.0077 150.698 24.6585V24.2432C150.668 23.3487 151.017 22.5179 151.368 21.784C151.75 20.9864 152.326 20.2193 153.029 19.5822C153.605 19.0726 154.369 18.7515 155.103 18.4329L155.199 18.3998C155.487 18.2724 155.869 18.2393 156.348 18.2393C156.636 18.2393 156.954 18.2393 157.179 18.2724C157.849 18.3361 158.552 18.5272 159.158 18.7821C159.382 18.9095 159.637 19.07 159.892 19.2611C160.019 19.358 160.146 19.4217 160.274 19.516L160.307 19.5491C160.531 19.6765 160.689 19.8039 160.913 19.8039C161.231 19.8039 161.425 19.516 161.583 19.2943C161.935 18.8483 162.38 18.6241 162.796 18.4635C162.892 18.4304 162.987 18.3998 163.114 18.3998C163.338 18.3998 163.593 18.5272 163.817 18.6546C163.817 18.6878 163.848 18.7821 163.848 18.8789C163.881 18.912 163.881 19.0063 163.911 19.07C164.039 19.4523 164.072 19.8039 163.944 20.2193C163.881 20.3162 163.881 20.3467 163.848 20.3467C163.751 20.3799 163.623 20.4105 163.529 20.4436C163.499 20.4436 163.465 20.4767 163.432 20.4767C163.241 20.5098 162.953 20.6678 162.826 20.9558C162.762 21.0832 162.699 21.1801 162.666 21.2743C162.505 21.626 162.314 22.0414 162.378 22.5511C162.411 22.997 162.314 23.5092 162.154 24.0826C161.899 24.8803 161.547 25.6779 161.229 26.3506C160.877 27.0209 160.271 27.5 159.698 27.8822C158.804 28.4887 157.815 28.7767 156.442 28.7767C156.251 28.7767 156.06 28.7435 155.867 28.7435H155.77C155.003 28.7435 154.397 29.1258 154.078 29.8597C153.918 30.2751 153.982 30.5631 154.078 30.7211C154.206 30.9759 154.461 31.1364 154.782 31.2002C154.973 31.2002 155.164 31.2639 155.388 31.2639C155.452 31.2639 155.548 31.2307 155.612 31.2307H155.676C156.155 31.2307 156.633 31.2307 157.112 31.2639C157.558 31.2944 158.007 31.3276 158.452 31.3607C158.898 31.3938 159.346 31.4244 159.792 31.4575C160.686 31.5212 161.517 31.7761 162.217 32.2246C162.569 32.4488 162.857 32.7674 163.078 33.2133C163.175 33.4045 163.269 33.6287 163.366 33.8199C163.876 34.7449 164.005 35.6725 163.812 36.725C163.621 37.492 163.269 38.226 162.663 39.0236C162.472 39.2147 162.281 39.3421 161.993 39.5027C161.929 39.5358 161.866 39.5664 161.802 39.6301C161.484 39.8212 161.163 39.9818 160.781 40.1092C160.365 40.1729 160.014 40.364 159.729 40.6188C159.441 40.9068 159.025 41.0648 158.483 41.0648C157.78 41.0648 157.046 41.0648 156.313 41.0979H156.279C155.928 41.1311 155.609 41.1311 155.258 41.1616H155.003C154.524 41.1616 154.109 41.0648 153.727 40.9068V40.9119ZM156.758 26.6412C157.268 26.6412 157.78 26.5443 158.353 26.3863V26.3532C158.608 26.2258 158.896 26.0984 159.087 25.8104C159.629 24.9159 160.011 24.1489 160.139 23.1932C160.266 22.3625 159.978 21.7254 159.308 21.2769C158.99 21.0858 158.732 20.9583 158.447 20.8309C158.287 20.7672 158.159 20.7035 158.032 20.6398C157.489 20.4155 157.044 20.3213 156.595 20.3213C156.086 20.3213 155.637 20.4181 155.159 20.6729C154.552 21.0246 154.073 21.4706 153.658 22.0134C153.243 22.5562 153.019 23.1627 152.861 23.7055C152.509 24.9822 153.116 25.5887 153.722 25.9072C154.361 26.2258 155.159 26.6412 156.083 26.6412H156.753H156.758ZM157.237 39.2835C157.716 39.2835 158.259 39.1561 158.768 38.965C159.408 38.7101 159.917 38.3585 160.429 38.0399C160.59 37.9431 160.781 37.8157 160.938 37.7214C161.226 37.5303 161.451 37.2092 161.481 36.8269C161.578 35.9019 161.384 35.2316 160.811 34.6888C160.141 34.146 159.311 33.8275 158.259 33.7944C157.334 33.7612 156.407 33.7307 155.449 33.6338C155.352 33.6007 155.258 33.6007 155.161 33.6007C154.906 33.6007 154.682 33.6644 154.491 33.7918C153.979 34.1741 153.533 34.5895 153.309 35.2291C153.279 35.3565 153.246 35.4839 153.182 35.6113C153.118 35.7719 153.054 35.8993 153.021 36.0267C152.925 36.2178 152.861 36.409 152.861 36.6332C152.861 36.6332 152.861 36.6664 152.894 36.6664C153.085 38.0068 153.819 38.8707 154.904 39.0287C155.48 39.1561 156.086 39.2835 156.786 39.2835H157.232H157.237Z" fill="black" stroke="black" stroke-miterlimit="10"/>
<path d="M171.023 32.1965C170.736 32.0997 170.448 32.0054 170.129 31.9722C169.778 31.9085 169.426 31.748 168.98 31.4294C168.502 31.1109 168.023 30.6955 167.607 30.2496C167.129 29.7373 166.777 29.164 166.522 28.4937C166.459 28.2695 166.362 28.0147 166.268 27.7904C166.14 27.4387 166.043 27.1202 165.949 26.8016C165.631 25.6523 165.661 24.6305 166.046 23.736C166.237 23.2569 166.461 22.7472 166.652 22.2681C166.749 22.0133 166.843 21.7585 166.94 21.5342C167.131 21.1188 167.452 20.7672 167.737 20.418C168.919 19.2687 170.323 18.5985 171.854 18.3743C172.078 18.3411 172.333 18.3105 172.587 18.3105C172.875 18.3105 173.097 18.3437 173.354 18.438C173.609 18.5017 173.833 18.5348 174.024 18.5348H174.439C175.333 18.5348 176.131 19.0139 176.898 19.493C177.473 19.9389 178.046 20.5454 178.589 21.3456C178.844 21.6642 178.971 22.1127 179.098 22.5281C179.162 22.6555 179.195 22.816 179.226 22.9434C179.481 23.7105 179.481 24.5387 179.481 25.4026V25.9454C179.481 26.1059 179.447 26.3277 179.481 26.5519C179.514 27.1915 179.353 27.8286 178.969 28.6263C178.523 29.4876 177.917 30.2547 177.086 30.958C176.671 31.3097 176.161 31.7556 175.491 32.0436C174.725 32.3621 173.864 32.5227 172.651 32.5227C172.109 32.5227 171.502 32.4896 171.023 32.2041V32.1965ZM171.023 20.6066C169.938 21.0526 169.141 21.5648 168.598 22.523V22.5561C168.576 22.5986 168.555 22.6308 168.535 22.6529C168.504 22.7166 168.471 22.7498 168.438 22.7498C167.862 23.5474 167.641 24.475 167.735 25.4943C167.832 26.004 167.99 26.4525 168.15 26.8679C168.214 27.0922 168.31 27.2833 168.374 27.4744C168.662 28.5269 169.396 29.1665 170.162 29.7424C170.481 29.9336 170.802 30.0304 171.057 30.0941C171.663 30.2852 172.366 30.3489 173.13 30.3489H173.194C173.257 30.3489 173.321 30.3821 173.354 30.3821C173.418 30.3821 173.482 30.3489 173.545 30.3489C173.706 30.3489 173.864 30.3489 174.024 30.3158C175.491 29.9336 176.546 28.9754 177.183 27.5075C177.438 26.9647 177.534 26.3914 177.629 25.8791L177.662 25.7823C177.853 24.7935 177.695 23.8991 177.15 22.9078L177.053 22.7472C176.956 22.5561 176.829 22.365 176.765 22.2044C176.51 21.5011 175.935 21.152 175.456 20.8946C174.531 20.4792 173.637 20.3518 172.903 20.2881H172.585C172.009 20.2881 171.467 20.3849 171.021 20.6066H171.023Z" fill="black" stroke="black" stroke-miterlimit="10"/>
<path d="M187.971 32.1965C187.683 32.0997 187.395 32.0054 187.077 31.9722C186.725 31.9085 186.374 31.748 185.928 31.4294C185.449 31.1109 184.97 30.6955 184.555 30.2496C184.076 29.7373 183.724 29.164 183.47 28.4937C183.406 28.2695 183.309 28.0147 183.215 27.7904C183.088 27.4387 182.991 27.1202 182.897 26.8016C182.578 25.6523 182.609 24.6305 182.993 23.736C183.184 23.2569 183.409 22.7472 183.6 22.2681C183.696 22.0133 183.791 21.7585 183.888 21.5342C184.079 21.1188 184.4 20.7672 184.685 20.418C185.867 19.2687 187.27 18.5985 188.801 18.3743C189.026 18.3411 189.28 18.3105 189.535 18.3105C189.823 18.3105 190.044 18.3437 190.302 18.438C190.556 18.5017 190.781 18.5348 190.972 18.5348H191.387C192.281 18.5348 193.078 19.0139 193.845 19.493C194.421 19.9389 194.994 20.5454 195.537 21.3456C195.791 21.6642 195.919 22.1127 196.046 22.5281C196.11 22.6555 196.143 22.816 196.173 22.9434C196.428 23.7105 196.428 24.5387 196.428 25.4026V25.9454C196.428 26.1059 196.395 26.3277 196.428 26.5519C196.461 27.1915 196.301 27.8286 195.916 28.6263C195.47 29.4876 194.864 30.2547 194.034 30.958C193.618 31.3097 193.109 31.7556 192.439 32.0436C191.672 32.3621 190.811 32.5227 189.599 32.5227C189.056 32.5227 188.45 32.4896 187.971 32.2041V32.1965ZM187.971 20.6066C186.886 21.0526 186.088 21.5648 185.546 22.523V22.5561C185.524 22.5986 185.503 22.6308 185.482 22.6529C185.452 22.7166 185.418 22.7498 185.385 22.7498C184.81 23.5474 184.588 24.475 184.682 25.4943C184.779 26.004 184.937 26.4525 185.098 26.8679C185.161 27.0922 185.258 27.2833 185.322 27.4744C185.61 28.5269 186.343 29.1665 187.11 29.7424C187.428 29.9336 187.749 30.0304 188.004 30.0941C188.61 30.2852 189.313 30.3489 190.078 30.3489H190.141C190.205 30.3489 190.269 30.3821 190.302 30.3821C190.365 30.3821 190.429 30.3489 190.493 30.3489C190.653 30.3489 190.811 30.3489 190.972 30.3158C192.439 29.9336 193.494 28.9754 194.13 27.5075C194.385 26.9647 194.482 26.3914 194.576 25.8791L194.609 25.7823C194.8 24.7935 194.642 23.8991 194.097 22.9078L194 22.7472C193.904 22.5561 193.776 22.365 193.713 22.2044C193.458 21.5011 192.882 21.152 192.403 20.8946C191.479 20.4792 190.584 20.3518 189.851 20.2881H189.532C188.957 20.2881 188.414 20.3849 187.968 20.6066H187.971Z" fill="black" stroke="black" stroke-miterlimit="10"/>
<path d="M209.735 31.8138C209.672 31.6533 209.481 31.1105 208.969 31.1105C208.778 31.1105 208.586 31.1742 208.362 31.3347C207.468 31.9106 206.416 32.2292 205.234 32.2929C205.01 32.3235 204.788 32.3235 204.564 32.3235C204.149 32.3235 203.703 32.2929 203.319 32.1961C202.488 32.0355 201.788 31.6201 201.276 30.9193C201.051 30.6645 200.86 30.3765 200.764 30.0249C200.667 29.77 200.539 29.5126 200.412 29.2578C200.348 29.0667 200.285 28.9061 200.221 28.7481C199.966 28.1416 199.775 27.4714 199.678 26.8318C199.645 26.577 199.645 26.3196 199.678 26.0342C199.678 25.8736 199.709 25.6825 199.709 25.4914C199.742 24.5969 199.997 23.7661 200.285 22.9685C200.509 22.2983 200.924 21.7224 201.497 21.2764C201.658 21.149 201.752 21.0521 201.849 20.9247C202.073 20.7336 202.264 20.5425 202.488 20.3819C203.476 19.5843 204.625 19.1358 205.904 18.9778C206.065 18.9446 206.223 18.9141 206.383 18.9141C206.765 18.9141 207.213 18.9778 207.629 19.0746L207.883 19.1077C207.947 19.1077 208.011 19.1409 208.074 19.1409C208.329 19.174 208.553 19.2377 208.808 19.332C208.872 19.3651 208.905 19.3651 208.969 19.3651C209.032 19.3651 209.096 19.3651 209.16 19.332C209.287 19.2683 209.351 19.1409 209.384 19.0135C209.481 18.2464 209.481 17.5762 209.481 16.906C209.514 16.4906 209.544 16.0752 209.577 15.693C209.641 14.9896 209.705 14.2888 209.674 13.5855V13.5523C209.674 13.4886 209.705 13.3281 209.61 13.2007C209.483 12.7216 209.514 12.2119 209.547 11.6691C209.58 11.4143 209.58 11.19 209.58 10.9352C209.61 10.8078 209.61 10.7441 209.61 10.7109H210.726C210.823 10.7109 210.917 10.7109 211.014 10.7441C211.047 10.7441 211.205 10.8078 211.238 10.8078V10.9989C211.302 11.3812 211.335 11.7022 211.366 12.0845C211.493 13.0095 211.62 13.9677 211.557 14.8928C211.524 15.3082 211.524 15.7235 211.557 16.1058V16.6792C211.557 17.0945 211.524 17.5099 211.524 17.9253C211.493 18.3407 211.493 18.7561 211.493 19.1383C211.46 19.936 211.493 20.703 211.557 21.5006C211.59 21.7249 211.59 21.916 211.62 22.1403C211.717 23.417 211.684 24.7269 211.651 26.0673V26.0979C211.587 27.3746 211.651 28.6844 211.811 30.0886C211.908 30.6008 211.875 31.1105 211.845 31.6533V32.4203H211.684C211.396 32.4203 211.108 32.4509 210.79 32.5171H210.663C210.247 32.5171 209.865 32.1986 209.738 31.8138H209.735ZM205.458 21.149C204.022 21.6586 202.936 22.5225 202.139 23.7355C201.979 23.9598 201.915 24.2146 201.915 24.4389C201.948 24.7574 201.882 25.0148 201.818 25.3334C201.785 25.5576 201.754 25.7487 201.721 26.0036C201.658 26.5795 201.625 27.2166 201.946 27.7925C202.009 27.8894 202.137 28.1442 202.137 28.1442C202.297 28.399 202.455 28.6564 202.615 28.9418C202.934 29.5177 203.476 29.9 204.21 30.0911C204.786 30.2185 205.295 30.2185 205.774 30.2185C205.998 30.2185 206.189 30.2185 206.414 30.2517C206.605 30.2517 206.765 30.188 206.862 30.1243C206.882 30.1022 206.904 30.0911 206.926 30.0911C207.565 29.8032 208.011 29.3878 208.426 28.9418C209.223 28.1111 209.605 27.1529 209.672 26.0036V24.5994C209.672 23.705 209.608 22.8105 209.544 21.9492C209.544 21.8217 209.481 21.7249 209.384 21.6306C209.096 21.4395 208.841 21.3426 208.586 21.2789C207.82 21.0878 207.056 21.0547 206.319 21.0241H206.159C205.904 21.0241 205.68 21.0572 205.456 21.1515L205.458 21.149Z" fill="black" stroke="black" stroke-miterlimit="10"/>
<path d="M28.2908 43.7561C29.3098 43.2438 35.3903 39.6532 37.5963 37.905C42.3038 32.9205 41.807 17.819 37.4816 12.9618C33.1563 8.10467 22.8777 4.78672 16.517 2.23073C15.1007 1.66244 4.17514 2.48556 2.01245 6.96046C0.282804 10.5383 -0.191001 25.2092 0.063733 32.923C-0.0636341 34.0723 0.26752 37.217 2.60853 40.591C4.15731 42.8234 16.3311 44.23 17.4774 44.2683C18.6211 44.3065 27.2744 44.2683 28.2908 43.7561Z" fill="black"/>
<path d="M29.4981 42.408C30.517 41.8958 36.5976 38.3052 38.8036 36.557C43.511 31.5724 43.0143 16.4709 38.6889 11.6138C34.3635 6.75663 31.0291 4.6415 17.7243 0.88014C16.308 0.311858 5.38242 1.13497 3.21973 5.60987C1.49008 9.18775 1.01627 23.8586 1.27101 31.5724C1.14364 32.7217 1.4748 35.8664 3.8158 39.2404C5.36459 41.4728 17.5383 42.8795 18.6846 42.9177C19.8284 42.9559 28.4817 42.9177 29.4981 42.4055V42.408Z" fill="#CCE03D"/>
<path d="M10.6326 31.7529C10.6686 31.7708 10.6686 31.7912 10.6326 31.809V31.7529Z" fill="#35C3D6"/>
<path d="M41.6568 35.705C40.0927 27.8841 32.2673 18.5342 34.6669 15.0404C33.8441 15.0761 32.6545 14.7117 32.5653 13.5904C37.3951 9.0773 38.1109 10.9249 30.4332 7.89232C26.9357 6.79398 23.7846 6.16454 21.008 5.96067C17.4902 5.70329 14.5734 6.12377 12.3165 7.12782C8.85212 8.66957 7.35173 11.1313 7.20653 15.0761C7.04605 19.444 9.05336 25.0733 13.5214 31.4926C10.6098 34.0791 4.15991 39.7441 4.15991 39.7441C5.22725 40.9852 15.0498 43.1462 19.2656 43.3602C21.4258 43.4698 26.0569 43.5055 30.6115 42.8633C32.6698 42.5728 41.9472 36.1408 41.6568 35.7024V35.705Z" fill="#010201"/>
<path d="M18.1398 28.3298C15.5211 27.5041 13.9698 26.1356 12.3879 23.4191C10.8646 20.8019 13.2132 18.3198 15.572 16.7118C18.4302 14.7649 21.3978 14.1762 24.7017 15.4555C28.673 16.9947 27.7254 22.7871 25.5373 25.4985C23.9401 27.4786 20.761 29.1554 18.1423 28.3298H18.1398Z" fill="#010201"/>
<path d="M22.9975 18.6206C23.7159 18.5594 24.5106 18.6333 24.0546 19.5558C23.8076 20.0553 21.9582 21.1485 21.3876 21.49C20.091 22.2672 17.1819 23.9695 15.7096 23.7606C14.6015 23.6026 14.9326 22.1526 15.5236 21.5333C16.6674 20.3356 21.3264 18.7658 22.995 18.6231L22.9975 18.6206Z" fill="#010201"/>
<path d="M9.54744 24.8717C9.54744 24.8717 14.5326 25.4884 16.8685 27.0327C19.207 28.577 19.8209 28.5464 19.8209 28.5464C19.8209 28.5464 12.2807 33.7833 10.8262 34.7083C9.37167 35.6334 8.22537 36.4565 8.22537 36.4565L6.26392 35.613L9.54744 24.8691V24.8717Z" fill="#010201"/>
<path d="M43.6616 34.6175C42.0975 26.7966 36.0501 17.6761 38.4497 14.1823C38.4497 14.1823 36.6462 13.3949 36.0705 13.1783C35.3878 12.9209 34.8452 13.0661 35.1866 12.5361C35.8641 11.4811 39.247 10.4261 39.247 10.4261C35.2451 6.07858 25.8225 4.07812 23.0383 4.07812C18.7613 4.07812 16.5808 5.03885 14.3238 6.0429C7.0206 9.29204 6.61557 18.6445 15.116 30.8613C12.2044 33.4478 6.16724 38.6618 6.16724 38.6618C7.23457 39.9028 17.0571 42.0638 21.273 42.2779C23.4331 42.3874 28.0642 42.4231 32.6188 41.7809C34.6771 41.4904 43.9545 35.0584 43.6641 34.6201L43.6616 34.6175Z" fill="#35C4D7"/>
<path d="M23.6469 18.0249C24.3653 17.9637 25.16 18.0376 24.7041 18.9601C24.457 19.4596 22.6076 20.5528 22.037 20.8943C20.7404 21.6715 17.8313 23.3738 16.359 23.1649C15.2509 23.0069 15.582 21.5569 16.173 20.9376C17.3168 19.7399 21.9759 18.1701 23.6444 18.0274L23.6469 18.0249Z" fill="#010201"/>
<path d="M20.2387 26.908C17.62 26.0824 16.0687 24.7139 14.4868 21.9974C12.9635 19.3802 15.9872 16.312 17.671 15.2901C19.3548 14.2682 26.2453 12.2703 26.7624 12.5838C31.1311 15.2468 29.8243 21.3628 27.6362 24.0768C26.039 26.0569 22.8599 27.7337 20.2412 26.908H20.2387Z" fill="#FAA211"/>
<path d="M25.685 17.7853C26.4034 17.7242 27.1879 18.0351 27.1879 18.0351C26.9409 18.5345 24.6457 20.3107 24.0751 20.6522C22.7785 21.4295 19.3447 23.1165 17.8723 22.9075C17.8723 22.9075 17.6201 21.3148 18.2111 20.6955C19.3549 19.4978 24.014 17.928 25.6825 17.7853H25.685Z" fill="#020100"/>
<path d="M10.5511 22.4717C10.5511 22.4717 15.8547 23.0705 18.6211 25.0175C21.3875 26.9644 20.2412 26.9109 20.2412 26.9109C20.2412 26.9109 13.4372 32.8282 11.7152 33.9979C9.99322 35.165 8.39094 36.8979 8.39094 36.8979L6.07031 35.8352L10.5536 22.4717H10.5511Z" fill="#010201"/>
</g>
<defs>
<clipPath id="clip0_4369_3284">
<rect width="212" height="43.5564" fill="white" transform="translate(0 0.72168)"/>
</clipPath>
</defs>
</svg>
