<svg width="550" height="114" viewBox="0 0 550 114" fill="none" xmlns="http://www.w3.org/2000/svg">
<g clip-path="url(#clip0_4316_6391)">
<g clip-path="url(#clip1_4316_6391)">
<path d="M73.3959 112.145C76.0394 110.816 91.8143 101.501 97.5374 96.9652C109.75 84.0335 108.461 44.8551 97.24 32.254C86.0184 19.6529 59.3525 11.045 42.8506 4.41388C39.1762 2.93956 10.8316 5.075 5.22084 16.6844C0.733554 25.9666 -0.495659 64.0278 0.165208 84.0401C-0.165226 87.0218 0.693902 95.1801 6.76727 103.933C10.7853 109.725 42.3682 113.374 45.3421 113.474C48.3094 113.573 70.759 113.474 73.3959 112.145Z" fill="black"/>
<path d="M76.5284 108.647C79.1719 107.318 94.9468 98.0032 100.67 93.4678C112.883 80.5362 111.594 41.3577 100.372 28.7566C89.151 16.1555 80.5002 10.6682 45.9831 0.909909C42.3087 -0.564407 13.9641 1.57104 8.35335 13.1804C3.86606 22.4627 2.63685 60.5238 3.29772 80.5362C2.96728 83.5179 3.82641 91.6762 9.89978 100.43C13.9178 106.221 45.5007 109.87 48.4746 109.97C51.4419 110.069 73.8915 109.97 76.5284 108.641V108.647Z" fill="#CCE03D"/>
<path d="M27.5846 81.0056C27.678 81.0518 27.678 81.1047 27.5846 81.151V81.0056Z" fill="#35C3D6"/>
<path d="M108.072 91.2597C104.014 70.9696 83.712 46.7129 89.9374 37.6488C87.8028 37.7414 84.7166 36.7959 84.4852 33.887C97.0153 22.1784 98.8723 26.9716 78.9538 19.1042C69.8801 16.2547 61.7052 14.6217 54.5017 14.0928C45.3751 13.4251 37.8082 14.5159 31.9529 17.1208C22.9651 21.1206 19.0726 27.5071 18.6959 37.7414C18.2796 49.0731 23.4872 63.6774 35.0788 80.3312C27.5251 87.0417 10.792 101.739 10.792 101.739C13.561 104.958 39.044 110.565 49.9814 111.12C55.5855 111.404 67.6001 111.497 79.4164 109.831C84.7562 109.077 108.825 92.3902 108.072 91.2531V91.2597Z" fill="#010201"/>
<path d="M47.0603 72.1266C40.2666 69.9846 36.2419 66.4343 32.138 59.3867C28.186 52.5969 34.2792 46.1575 40.3988 41.9858C47.8137 36.9348 55.5128 35.4076 64.0843 38.7264C74.3872 42.7196 71.9288 57.7471 66.2519 64.7815C62.1083 69.9184 53.8607 74.2687 47.0669 72.1266H47.0603Z" fill="#010201"/>
<path d="M59.6631 46.9376C61.5267 46.779 63.5886 46.9707 62.4057 49.364C61.7646 50.6598 56.9667 53.496 55.4864 54.3819C52.1226 56.3984 44.5755 60.8147 40.7557 60.2726C37.8809 59.8627 38.74 56.1009 40.2732 54.4943C43.2405 51.387 55.3278 47.3145 59.6565 46.9442L59.6631 46.9376Z" fill="#010201"/>
<path d="M24.7693 63.1551C24.7693 63.1551 37.7025 64.755 43.7626 68.7615C49.8294 72.7679 51.4221 72.6886 51.4221 72.6886C51.4221 72.6886 31.8604 86.2748 28.0869 88.6746C24.3133 91.0745 21.3394 93.21 21.3394 93.21L16.2507 91.0217L24.7693 63.1485V63.1551Z" fill="#010201"/>
<path d="M113.273 88.4366C109.215 68.1466 93.5259 44.4848 99.7513 35.4208C99.7513 35.4208 95.0723 33.3779 93.5788 32.8159C91.8077 32.1482 90.4 32.525 91.2856 31.1499C93.0435 28.4128 101.82 25.6758 101.82 25.6758C91.4376 14.3969 66.9921 9.20706 59.7688 9.20706C48.6729 9.20706 43.0158 11.6995 37.1606 14.3044C18.2135 22.7337 17.1627 46.9971 39.2159 78.6916C31.6622 85.4021 15.9996 98.9287 15.9996 98.9287C18.7686 102.148 44.2517 107.755 55.189 108.31C60.7932 108.594 72.8077 108.687 84.624 107.021C89.9638 106.267 114.033 89.5804 113.279 88.4432L113.273 88.4366Z" fill="#35C4D7"/>
<path d="M61.3483 45.3906C63.212 45.2319 65.2739 45.4237 64.0909 47.8169C63.4499 49.1128 58.652 51.949 57.1716 52.8349C53.8078 54.8514 46.2607 59.2677 42.4409 58.7256C39.5661 58.3157 40.4253 54.5538 41.9585 52.9473C44.9258 49.84 57.013 45.7675 61.3417 45.3972L61.3483 45.3906Z" fill="#010201"/>
<path d="M52.5059 68.4375C45.7122 66.2955 41.6875 62.7452 37.5835 55.6976C33.6315 48.9078 41.476 40.9478 45.8444 38.2967C50.2127 35.6456 68.0891 30.4623 69.4307 31.2755C80.7646 38.1843 77.3743 54.0514 71.6975 61.0924C67.5538 66.2294 59.3062 70.5796 52.5125 68.4375H52.5059Z" fill="#FAA211"/>
<path d="M66.6352 44.7692C68.4989 44.6105 70.5344 45.4171 70.5344 45.4171C69.8933 46.7129 63.9389 51.3209 62.4586 52.2068C59.0947 54.2233 50.1863 58.5999 46.3664 58.0578C46.3664 58.0578 45.7122 53.9258 47.2454 52.3192C50.2127 49.2119 62.2999 45.1394 66.6286 44.7692H66.6352Z" fill="#020100"/>
<path d="M27.3731 56.9273C27.3731 56.9273 41.1324 58.4809 48.3094 63.5319C55.4864 68.583 52.5125 68.4441 52.5125 68.4441C52.5125 68.4441 34.8608 83.7955 30.3933 86.8301C25.9258 89.8581 21.769 94.3537 21.769 94.3537L15.7485 91.5968L27.3797 56.9273H27.3731Z" fill="#010201"/>
<path d="M152.492 48.924C152.711 47.318 152.711 45.858 152.711 44.398C152.784 41.989 153.222 39.58 153.076 37.098C153.076 36.952 153.149 36.733 153.076 36.587C152.492 34.762 152.93 33.01 152.93 31.258C153.003 30.09 153.295 29.798 154.39 29.871C155.339 30.017 156.215 29.725 157.164 29.944C158.113 30.236 158.332 30.382 158.405 31.331C158.697 34.251 159.281 37.098 159.062 40.091C158.989 41.332 159.062 42.646 159.062 43.96C159.062 45.785 158.916 47.61 158.916 49.362C158.843 51.552 159.062 53.669 159.208 55.859C159.427 58.779 159.354 61.699 159.281 64.692C159.135 67.612 159.281 70.459 159.646 73.306C159.938 74.985 159.719 76.737 159.719 78.416C159.719 79.438 159.573 79.511 158.478 79.511C157.894 79.511 157.237 79.584 156.58 79.657C155.193 79.876 153.733 78.927 153.295 77.54C152.93 76.518 152.492 76.372 151.616 76.956C149.353 78.416 146.871 79.073 144.316 79.219C142.783 79.365 141.25 79.292 139.863 79C137.819 78.562 136.14 77.54 134.826 75.861C134.315 75.204 133.804 74.474 133.512 73.598C133.22 72.649 132.709 71.773 132.344 70.824C131.76 69.437 131.322 67.904 131.103 66.371C130.957 65.349 131.176 64.327 131.176 63.305C131.249 61.261 131.833 59.363 132.49 57.465C133.074 55.786 134.096 54.399 135.483 53.304C136.213 52.647 136.87 51.917 137.673 51.333C140.009 49.508 142.71 48.413 145.63 48.048C147.163 47.829 148.696 48.121 150.229 48.34C150.959 48.486 151.689 48.559 152.492 48.924ZM152.857 55.567C152.346 55.202 151.908 55.056 151.397 54.91C149.791 54.545 148.185 54.472 146.579 54.399C146.068 54.326 145.484 54.472 144.973 54.618C142.126 55.64 139.863 57.392 138.257 59.947C138.038 60.239 137.819 60.604 137.819 60.969C137.965 62.137 137.527 63.305 137.454 64.473C137.308 65.641 137.235 66.882 137.819 67.904C138.33 68.78 138.768 69.583 139.279 70.386C139.936 71.554 140.958 72.211 142.272 72.576C143.805 72.941 145.338 72.795 146.871 72.868C147.163 72.868 147.455 72.649 147.674 72.576C148.842 72.065 149.718 71.262 150.594 70.313C152.2 68.634 153.003 66.736 153.076 64.4C153.076 63.378 153.076 62.356 153.076 61.334C153.076 59.436 153.003 57.465 152.857 55.567Z" fill="black"/>
<path d="M185.488 76.956C182.641 78.343 179.721 79.073 176.655 79.438C175.633 79.511 174.538 79.219 173.516 79.073C172.786 78.927 172.129 78.781 171.472 78.416C169.355 77.467 168.552 75.569 168.041 73.525C167.676 72.284 167.53 71.043 167.603 69.729C167.749 67.977 168.479 66.371 169.574 64.984C170.231 64.181 170.961 63.451 171.691 62.721C172.64 61.918 173.662 61.407 174.83 61.115C177.677 60.458 180.451 59.436 183.225 58.852C183.371 58.633 183.371 58.487 183.371 58.341C183.152 56.954 182.933 55.494 182.641 54.107C182.349 52.574 181.546 51.917 179.94 51.771C178.553 51.552 177.312 51.844 175.998 52.282C174.465 52.793 173.881 54.034 173.662 55.494C173.516 56.589 173.078 57.1 171.91 57.392C171.18 57.465 170.45 57.538 169.793 57.465C168.99 57.392 168.479 56.954 168.187 56.224C167.822 55.202 168.114 54.18 168.26 53.231C168.552 51.917 169.209 50.749 170.231 49.8C171.399 48.851 172.64 48.048 173.954 47.245C175.195 46.442 176.655 46.223 178.115 45.931C179.721 45.639 181.254 46.004 182.787 46.223C183.663 46.296 184.393 46.88 185.342 46.953C185.488 46.953 185.634 47.099 185.78 47.245C188.262 49.216 189.649 51.771 189.868 54.983C189.941 56.005 190.233 57.027 190.379 58.122C190.525 60.239 190.744 62.283 190.817 64.4C190.963 68.561 191.328 72.795 191.985 76.956C192.058 77.248 192.058 77.54 192.131 77.832C192.131 78.854 191.839 79.292 190.817 79.511C189.868 79.73 188.846 79.803 187.824 79.73C186.802 79.584 186.145 78.781 185.78 77.832C185.634 77.613 185.634 77.248 185.488 76.956ZM183.371 63.743C183.152 63.743 183.079 63.67 183.006 63.67C180.962 64.327 178.845 64.619 176.874 65.422C175.487 65.933 174.319 66.809 173.808 68.269C173.37 69.51 173.151 70.824 173.808 72.065C174.903 74.036 177.896 75.204 179.94 74.693C181.181 74.474 182.203 73.744 183.225 73.16C183.809 72.868 184.028 72.576 183.955 71.919C183.736 70.386 183.663 68.853 183.517 67.32C183.371 66.152 183.371 64.911 183.371 63.743Z" fill="black"/>
<path d="M206.706 46.807C206.925 46.953 207.144 47.026 207.436 47.026C209.042 46.953 210.648 47.391 212.254 47.172C213.568 47.026 214.517 48.048 214.59 48.997C214.59 50.311 213.787 51.26 212.473 51.406C211.743 51.479 211.013 51.479 210.283 51.479C208.969 51.333 207.655 51.333 206.341 51.625C206.049 52.501 205.976 53.377 205.976 54.253C205.976 57.1 205.976 60.02 205.976 62.867C205.976 64.838 206.122 66.809 206.122 68.707C206.122 70.021 206.633 71.189 207.071 72.357C207.29 72.868 209.042 73.598 209.626 73.452C210.21 73.306 210.867 73.233 211.451 73.087C212.181 72.941 213.057 72.795 213.714 72.211C214.152 71.846 214.809 71.773 215.393 71.554C215.758 71.408 216.123 71.627 216.269 71.992C216.926 73.306 217.364 74.62 215.758 76.08C214.955 76.883 214.225 77.613 213.276 78.27C212.327 78.781 211.378 79.219 210.283 79.365C209.188 79.511 208.093 79.657 206.925 79.73C205.173 79.803 203.786 78.854 202.618 77.54C201.815 76.591 201.085 75.496 200.647 74.255C200.063 72.649 199.406 71.043 199.333 69.218C199.187 66.444 198.968 63.597 199.041 60.823C199.114 58.998 198.968 57.1 199.187 55.275C199.479 52.574 199.479 49.946 199.406 47.245C199.333 46.588 199.625 46.004 199.552 45.347C199.406 43.741 199.479 42.062 199.552 40.456C199.625 39.288 199.771 38.12 200.574 37.244C200.866 36.879 201.158 36.66 201.669 36.587C202.983 36.441 204.224 36.295 205.538 36.66C206.487 36.879 206.779 37.171 206.706 38.12C206.56 40.821 206.998 43.522 206.633 46.15C206.633 46.369 206.633 46.588 206.706 46.807Z" fill="black"/>
<path d="M241.165 76.956C238.318 78.343 235.398 79.073 232.332 79.438C231.31 79.511 230.215 79.219 229.193 79.073C228.463 78.927 227.806 78.781 227.149 78.416C225.032 77.467 224.229 75.569 223.718 73.525C223.353 72.284 223.207 71.043 223.28 69.729C223.426 67.977 224.156 66.371 225.251 64.984C225.908 64.181 226.638 63.451 227.368 62.721C228.317 61.918 229.339 61.407 230.507 61.115C233.354 60.458 236.128 59.436 238.902 58.852C239.048 58.633 239.048 58.487 239.048 58.341C238.829 56.954 238.61 55.494 238.318 54.107C238.026 52.574 237.223 51.917 235.617 51.771C234.23 51.552 232.989 51.844 231.675 52.282C230.142 52.793 229.558 54.034 229.339 55.494C229.193 56.589 228.755 57.1 227.587 57.392C226.857 57.465 226.127 57.538 225.47 57.465C224.667 57.392 224.156 56.954 223.864 56.224C223.499 55.202 223.791 54.18 223.937 53.231C224.229 51.917 224.886 50.749 225.908 49.8C227.076 48.851 228.317 48.048 229.631 47.245C230.872 46.442 232.332 46.223 233.792 45.931C235.398 45.639 236.931 46.004 238.464 46.223C239.34 46.296 240.07 46.88 241.019 46.953C241.165 46.953 241.311 47.099 241.457 47.245C243.939 49.216 245.326 51.771 245.545 54.983C245.618 56.005 245.91 57.027 246.056 58.122C246.202 60.239 246.421 62.283 246.494 64.4C246.64 68.561 247.005 72.795 247.662 76.956C247.735 77.248 247.735 77.54 247.808 77.832C247.808 78.854 247.516 79.292 246.494 79.511C245.545 79.73 244.523 79.803 243.501 79.73C242.479 79.584 241.822 78.781 241.457 77.832C241.311 77.613 241.311 77.248 241.165 76.956ZM239.048 63.743C238.829 63.743 238.756 63.67 238.683 63.67C236.639 64.327 234.522 64.619 232.551 65.422C231.164 65.933 229.996 66.809 229.485 68.269C229.047 69.51 228.828 70.824 229.485 72.065C230.58 74.036 233.573 75.204 235.617 74.693C236.858 74.474 237.88 73.744 238.902 73.16C239.486 72.868 239.705 72.576 239.632 71.919C239.413 70.386 239.34 68.853 239.194 67.32C239.048 66.152 239.048 64.911 239.048 63.743Z" fill="black"/>
<path d="M271.503 52.939C270.992 52.647 270.554 52.72 270.116 52.793C269.459 52.866 268.802 52.939 268.145 52.939C266.977 52.866 266.393 52.355 266.247 51.26C266.174 50.384 265.955 49.508 266.028 48.559C266.101 47.318 266.539 46.807 267.853 46.661C269.094 46.515 270.335 46.15 271.503 46.369C271.868 46.004 271.868 45.712 271.868 45.42C271.868 43.595 272.014 41.843 272.379 40.091C272.817 38.047 273.328 36.076 274.35 34.324C275.226 32.937 276.467 31.769 277.854 30.82C279.241 29.871 280.701 29.141 282.307 28.703C283.986 28.265 285.665 28.046 287.417 28.265C288.439 28.411 289.461 28.557 290.556 28.776C292.235 29.214 293.038 30.09 293.184 31.769C293.257 32.207 293.257 32.645 293.257 33.083C293.184 34.178 292.235 34.762 291.213 34.397C290.994 34.251 290.775 34.178 290.556 34.032C288.804 32.572 286.833 32.645 284.935 33.448C283.183 34.178 281.65 35.273 280.336 36.514C279.679 37.098 279.387 37.901 279.168 38.704C279.022 39.434 278.803 40.164 278.584 40.894C278.365 41.697 278.219 42.427 278.219 43.23C278.219 44.252 278.219 45.201 278.219 46.223C279.168 46.588 280.117 46.296 280.993 46.296C281.942 46.296 282.818 46.588 283.767 46.88C284.059 47.026 284.278 47.172 284.351 47.464C284.643 48.705 284.935 49.946 284.935 51.187C284.935 51.771 284.643 52.209 284.132 52.428C283.548 52.72 282.891 52.866 282.234 52.793C280.92 52.647 279.533 52.72 278.219 52.72C277.927 53.012 278.073 53.304 278.073 53.596C278.219 56.662 278 59.728 278.073 62.721C278.073 64.327 278.073 65.86 278.146 67.466C278.219 68.634 278.146 69.875 278.073 71.043C278 72.795 278.073 74.62 278.073 76.445C278 77.978 277.27 79.219 275.81 79.73C274.715 80.095 273.547 79.876 272.452 79.657C272.087 79.511 271.795 79.146 271.795 78.635C271.795 78.562 271.795 78.489 271.795 78.489C271.941 74.985 271.576 71.554 271.722 68.05C271.795 66.517 271.576 64.984 271.576 63.378C271.649 62.283 271.649 61.188 271.649 60.02C271.649 58.414 271.576 56.808 271.503 55.202C271.503 54.472 271.503 53.669 271.503 52.939Z" fill="black"/>
<path d="M321.244 63.743C321.244 64.327 321.171 64.911 321.244 65.568C321.317 67.393 320.806 68.999 320.003 70.605C318.908 72.722 317.448 74.474 315.696 76.007C314.528 77.029 313.36 77.905 311.9 78.562C309.783 79.438 307.593 79.657 305.33 79.657C303.943 79.657 302.483 79.584 301.242 78.927C300.731 78.708 300.147 78.562 299.636 78.489C298.541 78.27 297.592 77.759 296.716 77.175C295.548 76.372 294.453 75.423 293.504 74.401C292.336 73.16 291.533 71.773 290.949 70.24C290.511 68.926 290 67.685 289.635 66.444C288.978 63.962 288.905 61.48 289.927 59.071C290.584 57.538 291.241 55.859 291.898 54.253C292.336 53.231 293.066 52.355 293.796 51.552C296.497 48.924 299.709 47.245 303.432 46.734C304.673 46.588 305.841 46.515 307.082 46.88C307.52 47.026 308.104 47.172 308.615 47.099C311.097 46.88 313.141 48.048 315.112 49.362C316.718 50.53 318.032 52.063 319.127 53.669C319.93 54.764 320.222 56.151 320.66 57.392C321.317 59.436 321.244 61.553 321.244 63.743ZM306.352 73.087C306.571 73.087 306.863 73.16 307.155 73.087C307.52 73.087 307.812 73.087 308.104 73.014C311.17 72.211 313.214 70.24 314.455 67.393C314.966 66.225 315.185 64.984 315.404 63.816C315.842 61.699 315.404 59.874 314.382 58.049C314.09 57.538 313.725 56.954 313.506 56.37C313.068 55.129 312.046 54.545 311.024 54.034C309.345 53.231 307.593 52.939 305.768 52.793C304.527 52.72 303.213 52.866 302.045 53.377C300.074 54.253 298.249 55.275 297.154 57.246C297.081 57.465 296.935 57.611 296.789 57.83C295.621 59.436 295.183 61.261 295.402 63.232C295.621 64.692 296.278 66.006 296.716 67.393C297.3 69.437 298.76 70.751 300.366 71.919C300.804 72.211 301.388 72.43 301.972 72.576C303.359 72.941 304.819 73.087 306.352 73.087Z" fill="black"/>
<path d="M336.055 50.311C336.858 49.727 337.734 49.216 338.61 48.851C339.048 48.632 339.486 48.413 339.997 48.34C340.946 48.194 341.822 47.902 342.771 47.756C345.107 47.464 347.37 47.61 349.268 49.289C350.071 49.946 350.363 50.749 350.217 51.698C350.144 52.428 349.925 53.158 349.487 53.742C349.049 54.253 348.757 54.326 348.1 54.107C345.837 53.085 343.574 53.377 341.384 54.107C339.924 54.545 338.537 54.983 337.369 56.005C336.639 56.662 336.128 57.392 335.982 58.268C335.617 59.655 335.471 61.115 335.471 62.575C335.398 65.203 335.325 67.831 335.325 70.459C335.325 71.773 335.471 73.014 335.544 74.328C335.544 74.766 335.471 75.204 335.544 75.642C335.69 77.467 333.938 79.073 332.186 78.635C331.675 78.489 331.164 78.562 330.653 78.343C329.777 77.832 329.266 77.102 329.339 76.153C329.631 72.211 329.266 68.269 329.266 64.254C329.193 60.531 329.12 56.662 329.047 52.866C329.047 51.844 328.901 50.822 329.047 49.8C329.12 49.143 329.339 48.559 329.485 47.902C329.631 47.61 329.85 47.318 330.142 47.099C331.164 46.296 333.062 46.588 333.792 47.61C334.157 48.048 334.522 48.486 334.814 48.997C335.106 49.508 335.617 49.873 336.055 50.311Z" fill="black"/>
<path d="M368.334 78.708C367.312 77.394 366.071 76.153 366.217 74.328C366.363 72.576 367.385 71.262 368.407 70.021C368.188 69.656 367.823 69.656 367.531 69.437C367.312 69.291 366.947 69.218 366.728 68.926C365.998 67.904 365.049 67.101 364.611 65.86C364.319 65.203 364.027 64.619 363.662 63.962C363.078 62.94 363.297 61.699 363.224 60.604C363.151 58.487 363.954 56.516 364.83 54.764C365.706 52.866 367.02 51.114 368.626 49.654C370.086 48.34 371.911 47.61 373.663 46.88C375.123 46.296 376.875 46.369 378.481 46.515C380.087 46.661 381.693 47.099 383.153 47.756C384.029 48.194 384.832 48.851 385.708 49.435C386.657 50.019 386.73 50.092 387.387 49.143C388.19 48.048 389.285 47.464 390.453 47.026C391.548 46.588 392.497 46.953 393.446 47.464C393.957 47.756 393.957 48.413 394.103 48.924C394.468 49.946 394.468 50.968 394.176 52.063C393.957 52.501 393.738 52.866 393.227 52.939C392.935 52.939 392.716 53.085 392.424 53.158C392.132 53.231 391.767 53.45 391.621 53.742C391.256 54.691 390.599 55.567 390.745 56.735C390.891 57.976 390.599 59.217 390.234 60.458C389.723 62.21 388.993 63.889 388.19 65.568C387.314 67.247 386 68.342 384.467 69.364C381.693 71.262 378.7 71.554 375.488 71.408C374.028 71.335 373.006 72.065 372.422 73.306C372.057 74.182 372.422 74.839 373.298 74.985C373.809 75.058 374.393 75.131 374.904 75.058C375.999 75.058 377.167 75.058 378.335 75.131C380.306 75.35 382.277 75.35 384.248 75.569C386.292 75.715 388.263 76.299 390.015 77.394C390.964 77.978 391.694 78.854 392.205 79.876C392.424 80.387 392.643 80.825 392.862 81.263C394.103 83.526 394.395 85.789 393.884 88.271C393.446 90.315 392.424 92.067 391.183 93.673C390.599 94.403 389.796 94.768 389.066 95.206C388.263 95.717 387.46 96.082 386.584 96.374C385.854 96.52 385.197 96.812 384.613 97.323C383.737 98.199 382.569 98.491 381.328 98.491C378.992 98.491 376.583 98.637 374.247 98.71C372.933 98.783 371.692 98.637 370.451 98.126C369.94 97.907 369.356 97.761 368.845 97.615C367.458 97.177 366.144 96.739 365.049 95.717C363.662 94.622 362.494 93.381 361.837 91.702C361.399 90.388 361.545 89.074 361.837 87.833C362.275 85.716 363.443 83.964 364.611 82.212C365.414 80.898 366.509 79.949 367.823 79.219C367.896 79.146 368.042 79.073 368.115 79C368.188 78.927 368.188 78.927 368.334 78.708ZM378.116 92.724C379.211 92.797 380.452 92.578 381.62 92.14C383.299 91.41 384.686 90.388 386.219 89.439C386.73 89.147 386.949 88.636 387.022 88.125C387.168 86.665 386.949 85.351 385.781 84.256C384.321 83.015 382.569 82.577 380.744 82.504C378.627 82.431 376.583 82.358 374.539 82.139C374.028 82.066 373.444 82.066 373.006 82.358C372.057 83.088 371.181 83.818 370.816 85.059C370.597 85.643 370.305 86.3 370.086 86.884C369.94 87.176 369.867 87.468 369.867 87.833C370.159 89.658 371.108 91.848 373.517 92.213C374.977 92.505 376.437 92.797 378.116 92.724ZM376.656 64.911C377.97 65.057 379.357 64.838 380.671 64.4C381.109 64.181 381.547 63.962 381.839 63.524C382.861 61.845 383.737 60.166 384.029 58.122C384.248 56.589 383.737 55.567 382.569 54.764C381.693 54.253 380.744 53.888 379.868 53.45C377.97 52.647 376.218 52.574 374.393 53.523C373.152 54.253 372.203 55.129 371.4 56.224C370.597 57.246 370.159 58.487 369.794 59.655C369.356 61.188 369.575 62.575 371.181 63.378C372.86 64.254 374.612 65.13 376.656 64.911Z" fill="black"/>
<path d="M430.352 63.743C430.352 64.327 430.279 64.911 430.352 65.568C430.425 67.393 429.914 68.999 429.111 70.605C428.016 72.722 426.556 74.474 424.804 76.007C423.636 77.029 422.468 77.905 421.008 78.562C418.891 79.438 416.701 79.657 414.438 79.657C413.051 79.657 411.591 79.584 410.35 78.927C409.839 78.708 409.255 78.562 408.744 78.489C407.649 78.27 406.7 77.759 405.824 77.175C404.656 76.372 403.561 75.423 402.612 74.401C401.444 73.16 400.641 71.773 400.057 70.24C399.619 68.926 399.108 67.685 398.743 66.444C398.086 63.962 398.013 61.48 399.035 59.071C399.692 57.538 400.349 55.859 401.006 54.253C401.444 53.231 402.174 52.355 402.904 51.552C405.605 48.924 408.817 47.245 412.54 46.734C413.781 46.588 414.949 46.515 416.19 46.88C416.628 47.026 417.212 47.172 417.723 47.099C420.205 46.88 422.249 48.048 424.22 49.362C425.826 50.53 427.14 52.063 428.235 53.669C429.038 54.764 429.33 56.151 429.768 57.392C430.425 59.436 430.352 61.553 430.352 63.743ZM415.46 73.087C415.679 73.087 415.971 73.16 416.263 73.087C416.628 73.087 416.92 73.087 417.212 73.014C420.278 72.211 422.322 70.24 423.563 67.393C424.074 66.225 424.293 64.984 424.512 63.816C424.95 61.699 424.512 59.874 423.49 58.049C423.198 57.538 422.833 56.954 422.614 56.37C422.176 55.129 421.154 54.545 420.132 54.034C418.453 53.231 416.701 52.939 414.876 52.793C413.635 52.72 412.321 52.866 411.153 53.377C409.182 54.253 407.357 55.275 406.262 57.246C406.189 57.465 406.043 57.611 405.897 57.83C404.729 59.436 404.291 61.261 404.51 63.232C404.729 64.692 405.386 66.006 405.824 67.393C406.408 69.437 407.868 70.751 409.474 71.919C409.912 72.211 410.496 72.43 411.08 72.576C412.467 72.941 413.927 73.087 415.46 73.087Z" fill="black"/>
<path d="M469.775 63.743C469.775 64.327 469.702 64.911 469.775 65.568C469.848 67.393 469.337 68.999 468.534 70.605C467.439 72.722 465.979 74.474 464.227 76.007C463.059 77.029 461.891 77.905 460.431 78.562C458.314 79.438 456.124 79.657 453.861 79.657C452.474 79.657 451.014 79.584 449.773 78.927C449.262 78.708 448.678 78.562 448.167 78.489C447.072 78.27 446.123 77.759 445.247 77.175C444.079 76.372 442.984 75.423 442.035 74.401C440.867 73.16 440.064 71.773 439.48 70.24C439.042 68.926 438.531 67.685 438.166 66.444C437.509 63.962 437.436 61.48 438.458 59.071C439.115 57.538 439.772 55.859 440.429 54.253C440.867 53.231 441.597 52.355 442.327 51.552C445.028 48.924 448.24 47.245 451.963 46.734C453.204 46.588 454.372 46.515 455.613 46.88C456.051 47.026 456.635 47.172 457.146 47.099C459.628 46.88 461.672 48.048 463.643 49.362C465.249 50.53 466.563 52.063 467.658 53.669C468.461 54.764 468.753 56.151 469.191 57.392C469.848 59.436 469.775 61.553 469.775 63.743ZM454.883 73.087C455.102 73.087 455.394 73.16 455.686 73.087C456.051 73.087 456.343 73.087 456.635 73.014C459.701 72.211 461.745 70.24 462.986 67.393C463.497 66.225 463.716 64.984 463.935 63.816C464.373 61.699 463.935 59.874 462.913 58.049C462.621 57.538 462.256 56.954 462.037 56.37C461.599 55.129 460.577 54.545 459.555 54.034C457.876 53.231 456.124 52.939 454.299 52.793C453.058 52.72 451.744 52.866 450.576 53.377C448.605 54.253 446.78 55.275 445.685 57.246C445.612 57.465 445.466 57.611 445.32 57.83C444.152 59.436 443.714 61.261 443.933 63.232C444.152 64.692 444.809 66.006 445.247 67.393C445.831 69.437 447.291 70.751 448.897 71.919C449.335 72.211 449.919 72.43 450.503 72.576C451.89 72.941 453.35 73.087 454.883 73.087Z" fill="black"/>
<path d="M498.611 48.924C498.83 47.318 498.83 45.858 498.83 44.398C498.903 41.989 499.341 39.58 499.195 37.098C499.195 36.952 499.268 36.733 499.195 36.587C498.611 34.762 499.049 33.01 499.049 31.258C499.122 30.09 499.414 29.798 500.509 29.871C501.458 30.017 502.334 29.725 503.283 29.944C504.232 30.236 504.451 30.382 504.524 31.331C504.816 34.251 505.4 37.098 505.181 40.091C505.108 41.332 505.181 42.646 505.181 43.96C505.181 45.785 505.035 47.61 505.035 49.362C504.962 51.552 505.181 53.669 505.327 55.859C505.546 58.779 505.473 61.699 505.4 64.692C505.254 67.612 505.4 70.459 505.765 73.306C506.057 74.985 505.838 76.737 505.838 78.416C505.838 79.438 505.692 79.511 504.597 79.511C504.013 79.511 503.356 79.584 502.699 79.657C501.312 79.876 499.852 78.927 499.414 77.54C499.049 76.518 498.611 76.372 497.735 76.956C495.472 78.416 492.99 79.073 490.435 79.219C488.902 79.365 487.369 79.292 485.982 79C483.938 78.562 482.259 77.54 480.945 75.861C480.434 75.204 479.923 74.474 479.631 73.598C479.339 72.649 478.828 71.773 478.463 70.824C477.879 69.437 477.441 67.904 477.222 66.371C477.076 65.349 477.295 64.327 477.295 63.305C477.368 61.261 477.952 59.363 478.609 57.465C479.193 55.786 480.215 54.399 481.602 53.304C482.332 52.647 482.989 51.917 483.792 51.333C486.128 49.508 488.829 48.413 491.749 48.048C493.282 47.829 494.815 48.121 496.348 48.34C497.078 48.486 497.808 48.559 498.611 48.924ZM498.976 55.567C498.465 55.202 498.027 55.056 497.516 54.91C495.91 54.545 494.304 54.472 492.698 54.399C492.187 54.326 491.603 54.472 491.092 54.618C488.245 55.64 485.982 57.392 484.376 59.947C484.157 60.239 483.938 60.604 483.938 60.969C484.084 62.137 483.646 63.305 483.573 64.473C483.427 65.641 483.354 66.882 483.938 67.904C484.449 68.78 484.887 69.583 485.398 70.386C486.055 71.554 487.077 72.211 488.391 72.576C489.924 72.941 491.457 72.795 492.99 72.868C493.282 72.868 493.574 72.649 493.793 72.576C494.961 72.065 495.837 71.262 496.713 70.313C498.319 68.634 499.122 66.736 499.195 64.4C499.195 63.378 499.195 62.356 499.195 61.334C499.195 59.436 499.122 57.465 498.976 55.567Z" fill="black"/>
</g>
</g>
<defs>
<clipPath id="clip0_4316_6391">
<rect width="550" height="114" fill="white"/>
</clipPath>
<clipPath id="clip1_4316_6391">
<rect width="550" height="113" fill="white" transform="translate(0 0.5)"/>
</clipPath>
</defs>
</svg>
