<svg width="62" height="70" viewBox="0 0 62 70" fill="none" xmlns="http://www.w3.org/2000/svg">
<path d="M4.2515 15.6243C4.99551 13.7819 8.50299 9.18323 16.5808 5.52695C20.3718 3.68463 28.4638 0 30.5045 0H37.2006C39.2555 0.531437 44.0243 1.93443 46.6602 3.29491C49.2961 4.65539 54.2774 8.46756 56.4386 10.2036L61.4341 20.3009V31.1422C61.4341 34.9686 57.3244 48.2545 55.2695 54.4192C54.1003 56.4741 51.6132 60.8814 51.018 62.0719C50.4228 63.2623 45.1013 66.9611 42.515 68.6617L38.1572 69.9371L28.3787 68.6617L22.0015 65.4731L15.518 61.1153L1.59431 41.8772L0 38.7949V29.8668L4.2515 15.6243Z" fill="#35C4D7"/>
</svg>
