<svg width="1686" height="773" viewBox="0 0 1686 773" fill="none" xmlns="http://www.w3.org/2000/svg">
<g clip-path="url(#clip0_5285_15013)">
<path d="M94.6107 0.925781C102.175 0.0476609 109.953 -0.421146 117.991 0.507812C121.938 0.966869 125.9 0.989437 129.829 0.886719C135.356 0.73808 140.853 0.991001 146.312 1.98047C147.34 2.15998 148.409 2.3309 149.449 2.35449C153.426 2.43471 157.304 2.75398 161.211 3.46777C164.353 4.04439 167.519 3.78287 170.638 3.5957C172.444 3.48734 174.219 3.26419 176.102 3.47559C179.605 3.87811 182.899 3.53644 186.197 3.16113C195.345 2.13525 204.575 1.65306 214.234 2.75098C220.511 3.46676 226.852 3.87403 233.183 4.42578C235.841 4.66281 238.335 5.16793 240.676 6.06445C242.483 6.74069 244.484 7.27417 246.449 7.76074C248.954 8.37841 251.396 9.02558 253.677 9.90625C254.788 10.3387 256.017 10.8251 257.271 10.9883C263.117 11.7272 267.983 14.0611 273.788 14.7969C276.783 15.1717 279.386 15.8416 281.575 17.1299C282.316 17.5789 283.186 17.9595 284.055 18.3398C292.372 22.0027 291.153 21.6514 299.916 22.4453C304.358 22.8525 308.758 23.5481 313.222 23.9346C317.178 24.2822 321.142 24.5403 325.077 24.3818C328.273 24.2566 331.405 24.6985 334.543 25.0508C335.556 25.1619 336.64 25.4243 337.47 25.7793C341.8 27.635 346.89 28.9209 350.067 31.1592C353.148 31.4622 355.883 31.4924 358.333 32.0273C360.483 32.4945 362.56 32.586 364.53 32.4678C366.397 32.3529 368.172 32.3994 369.997 32.5615C376.467 33.1687 382.644 32.8008 388.438 31.5742C390.681 31.0959 392.821 30.8896 395.269 31.2002C396.563 31.3665 397.909 31.4021 399.227 31.5254C401.923 31.7878 404.541 31.7422 406.86 31.0791C409.199 30.4064 411.718 30.3294 414.41 30.3896C418.366 30.4683 422.277 30.3536 426.238 30.3877C428.34 30.4029 430.459 30.4749 432.569 30.6699C440.479 31.3986 448.365 32.1707 456.271 32.9551C457.568 33.088 458.902 33.2793 460.169 33.5332C464.857 34.4636 465.368 34.4586 469.26 34.3193C472.845 34.1901 474.847 33.132 475.901 31.3857C476.299 30.7215 476.476 30.0064 476.914 29.3564C477.053 29.143 477.622 28.9289 478.073 28.9072C479.079 28.8385 480.165 28.798 481.178 28.9092C487.229 29.6413 491.937 28.4663 496.075 26.4629C496.647 26.1929 497.141 25.8721 497.596 25.5371C498.722 24.7154 500.307 24.2869 502.173 24.1943C505.802 24.0237 509.401 23.7166 513.136 24.0137C514.984 24.1551 516.893 24.3009 518.659 24.1895C521.8 23.9816 524.916 24.0972 528.101 24.3857C529.156 24.4777 530.271 24.5851 531.259 24.4814C536.61 23.9607 542.11 23.9112 547.506 23.5957C548.779 23.5138 550.136 23.3935 551.223 23.0732C556.158 21.5904 561.799 21.0352 567.069 19.9814C571.572 19.0708 576.322 18.3918 581.286 18.1328C582.844 18.0504 584.518 18.0671 585.87 17.7559C591.298 16.5013 597.616 16.6814 602.971 15.3203C606.722 14.3633 610.774 14.001 615.099 14.332C615.363 14.3522 615.627 14.3728 615.892 14.3818C617.713 14.3419 619.664 14.4795 621.338 14.2266C627.539 13.289 634.538 14.1721 640.422 12.5713C642.029 12.1339 643.761 11.9197 645.588 11.8018C649.489 11.5511 653.172 10.9355 656.35 9.72168C658.729 8.80535 661.392 8.44855 664.418 8.66895C665.21 8.72956 666.046 8.76078 666.769 8.65918C673.539 7.7539 680.684 7.80711 687.557 7.15625C694.183 6.5313 700.665 5.63734 707.202 4.84863C710.274 4.47852 712.966 3.732 715.624 2.9043C717.445 2.33753 719.379 2.16055 721.579 2.23926C724.472 2.34853 727.341 2.23223 730.221 2.22852C731.528 2.2277 732.836 2.22675 734.14 2.27051C735.199 2.30677 736.286 2.51259 737.311 2.46777C742.54 2.20668 747.827 2.79066 753.068 2.90039C754.944 2.94309 756.731 3.06944 758.571 3.32227C760.127 3.53108 761.748 3.7105 763.301 3.70605C765.956 3.70754 768.512 3.93665 771.153 4.39648C773.189 4.74287 775.362 4.90974 777.424 4.92188C781.896 4.95025 786.32 4.79537 790.826 5.17383C791.861 5.25309 792.962 5.28141 793.97 5.19043C796.582 4.96441 799.202 5.15361 801.84 5.37793C804.763 5.62402 807.664 5.62258 810.415 5.17188C812.898 4.76783 815.461 4.63875 818.096 4.63867C819.403 4.63786 820.793 4.63218 821.974 4.41992C826.677 3.56936 831.851 4.00951 836.668 3.52637C837.657 3.42269 838.768 3.5864 839.807 3.62109C841.396 3.67547 843.018 3.84417 844.537 3.73633C848.173 3.47661 851.827 3.49851 855.532 3.66992C856.325 3.70825 857.123 3.70253 857.901 3.68359C858.677 3.67581 859.532 3.71852 860.237 3.58203C865.816 2.48472 872.172 2.98205 877.751 1.88477C884.43 0.568967 891.453 0.635507 898.66 1.47852C901.798 1.84197 904.967 2.06255 908.108 2.39258C911.512 2.74281 914.923 3.28424 918.339 3.47852C922.589 3.72535 926.758 4.24602 931.177 4.9541C935.676 7.53998 941.202 9.5102 947.078 11.1816C949.017 11.7335 950.907 12.3934 952.604 13.1621C954.381 13.9594 956.348 14.4121 958.377 14.8477C958.88 14.9534 959.403 15.0608 959.93 15.1123C973.314 16.3832 973.288 16.4487 980.552 17.8789C983.329 18.4277 986.266 18.7531 989.148 18.9961C998.625 19.7999 1008.06 20.8361 1017.53 21.7959C1020.91 22.1446 1024.22 22.9255 1027.57 23.54C1028.03 23.6315 1028.5 23.8688 1028.83 24.0957C1029.96 24.8655 1031.36 25.2306 1033.03 25.2578C1033.54 25.2632 1034.11 25.307 1034.59 25.4111C1037.79 26.1151 1040.61 27.4074 1044.17 27.5791C1047.59 27.7399 1051.02 27.9799 1054.43 28.2744C1055.57 28.3614 1056.57 28.3153 1057.39 27.9971C1059.04 27.3717 1061.51 27.5952 1062.81 26.6299C1065.59 26.394 1068.29 26.0174 1071.2 26.2285C1073.57 26.3993 1076.12 26.9979 1078.24 26.499C1080.34 26.0099 1082.94 26.5331 1084.83 25.5684C1085.62 25.1692 1087.3 25.3316 1088.54 25.1797C1090.46 24.9566 1092.17 25.1777 1093.75 25.9482C1094.89 26.5174 1096.29 26.6699 1097.47 26.4131C1100.11 25.8417 1103.18 26.3558 1105.76 25.7129C1111.56 26.011 1117.36 26.2532 1123.15 26.6182C1125.53 26.7666 1127.85 26.8552 1130.24 26.9033C1134.6 27.0019 1138.44 26.2417 1142.28 25.5264C1145.74 24.8834 1149.14 24.416 1152.9 24.748C1154.09 24.8509 1154.92 24.7015 1155.66 24.3438C1156.6 23.8884 1157.28 23.2007 1158.71 23.2314C1160.81 23.269 1161.25 21.8904 1163.23 21.874C1164.8 21.86 1166.48 22.0445 1167.93 21.8525C1173.48 21.1006 1179.36 21.4382 1184.99 20.9727C1186.49 20.841 1188.12 20.8983 1189.69 21.0068C1192.92 21.2205 1196.02 21.0543 1198.98 20.5635C1201.46 20.1483 1203.95 19.9011 1206.61 19.8691C1208.16 19.8535 1209.82 19.7788 1211.18 19.4453C1216.32 18.1801 1222.4 18.2979 1227.42 16.9453C1230.62 16.08 1233.81 15.2591 1237.3 14.7529C1238.76 14.5401 1240.2 14.1691 1241.42 13.7021C1247.99 11.2009 1255.88 10.3359 1263.47 9.1123C1264.19 8.99962 1265.02 8.93903 1265.79 8.99805C1268.49 9.20476 1270.99 9.13864 1273.29 8.38477C1274.11 8.12232 1275.27 8.13275 1276.3 8.08789C1278.37 7.98859 1280.56 8.10097 1282.53 7.8252C1286.33 7.27552 1290.3 7.45513 1294.17 7.23633C1298.03 7.0271 1301.65 6.18412 1305.71 6.47266C1306.22 6.5115 1306.76 6.44032 1307.25 6.36621C1312.92 5.48839 1318.91 5.13992 1324.54 4.22559C1330.47 3.24538 1336.51 2.64214 1342.81 2.53027C1344.63 2.50145 1346.45 2.38323 1348.19 2.15723C1352.77 1.54403 1357.43 1.51907 1362.22 2.22168C1363 2.33799 1363.79 2.43219 1364.59 2.44824C1373.71 2.5747 1382.3 4.5659 1391.02 6.11914C1392.03 6.29712 1392.96 6.65996 1393.9 6.98926C1400.16 9.19481 1406.52 11.2727 1413.41 12.7529C1415.88 13.2784 1418.01 14.3162 1420.77 14.4941C1421.73 14.5561 1422.71 15.0341 1423.58 15.4033C1425.1 16.0578 1426.67 16.7051 1428.02 17.4697C1429.8 18.4691 1431.7 19.2977 1434.01 19.833C1435.11 20.0857 1435.52 20.6328 1435.98 21.1953C1436.3 21.5671 1436.98 22.0226 1437.61 22.1377C1439.95 22.5297 1441.94 23.1085 1443.89 24.0312C1445.83 24.9411 1448.47 25.0653 1450.7 24.5742C1452.9 24.0927 1455.16 24.1424 1457.5 24.041C1462.7 23.8341 1467.94 24.2458 1473.15 24.2744C1476.11 24.2881 1478.93 24.7848 1481.35 25.9453C1483.5 26.9727 1485.93 27.5057 1488.64 27.8477C1492.99 28.4046 1493.18 28.6103 1495.94 31.209C1498.27 31.7681 1500.7 32.4703 1503.22 32.9209C1508.9 33.9386 1509.27 33.9555 1511.83 35.7539C1512.58 36.2825 1513.25 36.7024 1514.35 36.6973C1517.17 36.6778 1519.4 37.7231 1521.87 38.3154C1522.77 38.5303 1523.44 39.1411 1524.14 39.5869C1524.9 40.0709 1525.84 40.4914 1526.89 40.4258C1531.32 40.1487 1535.79 41.1063 1540.23 40.9756C1542.79 40.9024 1545.43 41.3738 1548.02 41.9531C1554.42 43.3738 1561.07 43.8374 1567.59 43.4736C1572.74 43.184 1577.95 42.9434 1582.91 42.1465C1586.45 41.5766 1590.17 42.2763 1593.8 42.4639C1597.74 42.6651 1601.69 43.1242 1605.64 43.4941C1606.74 43.6003 1607.76 43.6339 1608.57 43.2363C1609.75 42.6548 1611.22 42.5081 1612.82 42.4287C1619.56 42.1155 1626.45 42.3629 1633.22 42.1865C1633.73 42.1697 1634.28 42.1781 1634.79 42.2393C1639.59 42.7636 1644.22 42.6467 1648.89 42.1973C1651.36 41.9603 1654.19 42.0984 1656.73 42.4502C1661.74 43.1476 1666.64 43.4663 1671.71 43.4395C1675.61 43.4132 1679.63 43.7429 1683.54 44.21C1687.22 44.66 1690.87 45.0068 1694.57 45.2451C1697.46 45.4324 1700.33 46.0563 1703.22 46.2324C1706.92 46.4596 1710.57 46.7945 1714.25 47.2891C1716.58 47.5903 1719.03 47.7457 1721.35 47.665C1728.25 47.42 1735.02 48.3967 1741.82 49.1641C1742.86 49.2767 1743.9 49.4808 1744.91 49.7256C1748.91 50.7161 1752.96 51.5301 1757.25 51.8135C1758.55 51.9018 1759.83 52.2344 1761.12 52.4453C1762.67 52.6987 1764.24 53.0764 1765.78 53.1611C1771.33 53.4851 1776.82 54.3431 1782.33 54.7197C1788.45 55.1318 1794.42 55.857 1800.24 57.1768C1801.24 57.4105 1802.27 57.6568 1803.3 57.7695C1806.97 58.1623 1810.5 58.9487 1814.09 59.5039C1816.17 59.82 1818.27 60.1938 1820.34 60.3301C1822.74 60.4912 1825.05 60.7568 1827.36 61.2363C1829.11 61.5944 1830.98 61.7601 1832.82 61.9795C1834.44 62.1707 1835.71 62.5821 1836.97 63.2832C1839.28 64.592 1841.99 65.6185 1845.09 66.2812C1847.68 66.8272 1849.97 67.5962 1851.67 68.9141C1852.13 69.2744 1852.8 69.6503 1853.5 69.7939C1856.03 70.3352 1857.16 71.6213 1858.63 72.6865C1860.12 73.7756 1861.29 74.9637 1860.94 76.3936C1860.78 77.0766 1861.31 77.8465 1861.46 78.5752C1861.73 79.8955 1862.02 81.2063 1860.96 82.4033C1860.74 82.6551 1860.41 82.9661 1860.53 83.2109C1861.64 85.2907 1858.67 86.6557 1858.39 88.4834C1856.8 89.5049 1857.65 90.6235 1858.55 91.7344C1858.66 91.8663 1858.69 92.0147 1858.67 92.002C1857.93 92.8642 1857.18 93.591 1856.67 94.3701C1856.32 94.9262 1855.91 95.4222 1854.95 95.6738C1854.18 95.8726 1853.73 96.219 1853.86 96.666C1854.24 98.0291 1853.74 99.2794 1852.87 100.457C1851.7 102.049 1851.15 103.71 1851.07 105.476C1851.03 106.055 1850.88 106.626 1850.65 107.181C1849.9 109.006 1848.95 110.76 1846.31 111.858C1845.54 113.38 1847.22 114.877 1846.36 116.29C1846.1 116.73 1846.82 117.39 1847.07 117.958C1847.24 118.375 1847.68 118.924 1847.4 119.205C1846.07 120.516 1846.79 122.017 1846.6 123.426C1846.39 125.18 1845.4 126.775 1844.42 128.37C1843.7 129.559 1842.43 130.627 1841.42 131.761C1840.75 132.527 1840.02 133.245 1838.58 133.65C1836.2 134.309 1835.18 135.665 1833.55 136.706C1833.1 136.985 1832.93 137.488 1832.96 137.905C1832.99 138.558 1832.5 138.924 1831.61 139.271C1830.18 139.822 1828.71 140.382 1827.53 141.088C1826.54 141.685 1825.85 142.45 1825.22 143.209C1824.93 143.545 1824.85 144.077 1825.76 144.383C1827.02 144.793 1827.98 145.292 1827.63 146.14C1826.81 148.072 1826.2 150.065 1825 151.912C1824.35 152.916 1822.66 153.672 1821.25 154.663C1822.79 157.438 1820.06 159.481 1817.49 161.549C1817.23 161.764 1816.71 161.915 1816.25 162.003C1814.88 162.257 1814.25 162.836 1814.17 163.592C1813.98 165.203 1812.55 166.573 1812.06 168.094C1811.58 169.659 1811.11 171.192 1809.94 172.604C1809.55 176.049 1806.58 178.804 1803.29 181.455C1802.14 182.398 1801.56 183.453 1800.99 184.552C1799.34 187.698 1798.37 190.942 1798.03 194.268C1797.92 195.425 1797.73 196.565 1796.84 197.605C1795.96 198.659 1795.81 199.824 1796.39 201.001C1796.93 202.096 1796.82 203.141 1796.55 204.167C1797.78 204.395 1799.02 204.645 1800.24 204.923C1801.24 205.157 1802.27 205.403 1803.3 205.516C1806.97 205.908 1810.5 206.695 1814.09 207.25C1816.17 207.566 1818.27 207.94 1820.34 208.076C1822.74 208.237 1825.05 208.503 1827.36 208.982C1829.11 209.34 1830.98 209.506 1832.82 209.726C1834.44 209.917 1835.71 210.328 1836.97 211.029C1839.28 212.338 1841.99 213.365 1845.09 214.027C1847.68 214.573 1849.97 215.342 1851.67 216.66C1852.13 217.021 1852.8 217.396 1853.5 217.54C1856.03 218.081 1857.16 219.367 1858.63 220.433C1860.12 221.522 1861.29 222.71 1860.94 224.14C1860.78 224.823 1861.31 225.593 1861.46 226.321C1861.73 227.642 1862.02 228.952 1860.96 230.149C1860.74 230.401 1860.41 230.712 1860.53 230.957C1861.64 233.037 1858.67 234.402 1858.39 236.229C1856.8 237.251 1857.65 238.37 1858.55 239.48C1858.66 239.612 1858.69 239.761 1858.67 239.748C1857.93 240.61 1857.18 241.337 1856.67 242.116C1856.32 242.672 1855.91 243.168 1854.95 243.42C1854.18 243.619 1853.73 243.965 1853.86 244.412C1854.24 245.775 1853.74 247.025 1852.87 248.203C1851.7 249.795 1851.15 251.457 1851.07 253.222C1851.03 253.801 1850.88 254.373 1850.65 254.927C1849.9 256.752 1848.95 258.506 1846.31 259.604C1845.54 261.126 1847.22 262.623 1846.36 264.036C1846.1 264.476 1846.82 265.136 1847.07 265.704C1847.24 266.121 1847.68 266.671 1847.4 266.951C1846.07 268.262 1846.79 269.763 1846.6 271.172C1846.39 272.926 1845.4 274.521 1844.42 276.116C1843.7 277.305 1842.43 278.373 1841.42 279.507C1840.75 280.274 1840.02 280.991 1838.58 281.396C1836.2 282.055 1835.18 283.411 1833.55 284.452C1833.1 284.731 1832.93 285.235 1832.96 285.651C1832.99 286.304 1832.5 286.67 1831.61 287.017C1830.18 287.568 1828.71 288.128 1827.53 288.834C1826.54 289.431 1825.85 290.196 1825.22 290.955C1824.93 291.291 1824.85 291.823 1825.76 292.129C1827.02 292.539 1827.98 293.038 1827.63 293.886C1826.81 295.818 1826.2 297.811 1825 299.658C1824.35 300.662 1822.66 301.418 1821.25 302.409C1822.79 305.184 1820.06 307.228 1817.49 309.295C1817.23 309.51 1816.71 309.661 1816.25 309.749C1814.88 310.003 1814.25 310.582 1814.17 311.338C1813.98 312.949 1812.55 314.319 1812.06 315.84C1811.58 317.405 1811.11 318.938 1809.94 320.351C1809.55 323.795 1806.58 326.55 1803.29 329.201C1802.14 330.144 1801.56 331.199 1800.99 332.298C1799.34 335.444 1798.37 338.688 1798.03 342.014C1797.92 343.171 1797.73 344.311 1796.84 345.352C1795.96 346.405 1795.81 347.57 1796.39 348.747C1797.06 350.099 1796.74 351.375 1796.34 352.633C1795.69 354.601 1794.85 356.543 1794.06 358.489C1793.96 358.761 1793.82 359.053 1793.56 359.279C1792.73 359.967 1791.52 360.547 1791.07 361.309C1790.71 361.943 1790.9 362.685 1790.2 363.315C1789.56 363.883 1788.89 364.617 1789.03 365.266C1789.3 366.721 1789.01 368.123 1788.84 369.533C1788.82 369.812 1788.71 370.151 1788.94 370.393C1791 372.501 1790.42 374.709 1790.85 376.871C1791.1 378.168 1791.97 379.557 1790.65 380.712C1789.38 381.814 1790.62 383.276 1789.08 384.392C1788.09 385.111 1787.86 386.237 1787.72 387.213C1787.63 387.889 1788.41 388.633 1788.54 389.349C1788.65 389.985 1789.16 390.495 1789.89 390.942C1790.88 391.556 1791.12 392.191 1791.04 392.97C1790.69 396.149 1790.67 399.353 1789.43 402.43C1789.15 403.126 1789.13 403.865 1789.08 404.578C1788.94 406.383 1787.81 407.989 1785.68 409.193C1782.62 410.91 1780.72 413.04 1778.58 415.084C1777.7 415.947 1776.86 416.801 1775.42 417.397C1773.52 418.194 1772.87 419.456 1771.91 420.581C1771.62 420.917 1771.74 421.42 1771.87 421.834C1772.05 422.43 1772.23 422.994 1771.54 423.479C1771.24 423.702 1770.74 423.887 1770.65 424.139C1770.18 425.581 1768.48 426.64 1767.42 427.893C1766.5 428.976 1766.78 430.421 1765.95 431.613C1765.73 431.935 1765.49 432.256 1765.25 432.576C1766.2 432.584 1767.14 432.59 1768.08 432.573C1769.88 432.543 1771.11 433.025 1771.93 433.929C1772.29 434.322 1772.59 434.756 1773.1 435.091C1773.35 435.264 1774.08 435.367 1774.47 435.291C1775.18 435.168 1775.83 434.918 1776.43 434.677C1777.29 434.34 1778.18 434.128 1779.3 434.2C1781.41 434.336 1783.51 434.471 1785.63 434.562C1786.7 434.608 1787.72 434.695 1788.63 435.067C1790.7 435.906 1793.08 436.115 1795.45 436.379C1797.8 436.642 1800.24 436.809 1802.45 437.31C1806.73 438.268 1810.76 437.909 1814.81 437.441C1816.31 437.269 1817.74 436.88 1819.28 436.821C1823.2 436.67 1827.09 436.482 1830.86 435.951C1833.73 435.552 1836.21 436.294 1838.06 437.409C1840.06 438.613 1841.85 439.994 1842.87 441.56C1843.54 442.577 1843.62 443.578 1842.5 444.47C1841.49 445.278 1840.41 446.06 1839.48 446.896C1839.11 447.231 1838.86 447.686 1838.94 448.071C1839.14 449.047 1838.18 449.714 1837.42 450.427C1835.05 452.638 1833.67 455.013 1833.23 457.661C1832.61 461.395 1831.69 465.099 1830.88 468.81C1830.12 472.3 1830.98 475.793 1832.86 479.229C1834.03 481.375 1834.7 483.546 1835.36 485.727C1835.71 486.903 1835.64 488.063 1834.91 489.147C1833.6 491.146 1832.29 493.145 1832.59 495.382C1831.25 498.129 1829.87 500.874 1828.59 503.636C1827.88 505.147 1827.06 506.674 1826.8 508.236C1826.11 512.548 1825.26 516.85 1825.47 521.23C1825.6 523.882 1825.01 526.398 1822.54 528.669C1820.59 530.47 1819.34 533.963 1818.83 537.368C1818.35 540.686 1817.93 543.996 1817.52 547.317C1817.27 549.205 1816.69 551.004 1815.61 552.783C1814.65 554.39 1814.45 556.158 1813.57 557.781C1812.69 559.405 1811.11 560.894 1810.31 562.533C1809.51 564.173 1808.99 565.876 1807.99 567.491C1807.42 568.418 1807.35 569.466 1807.2 570.464C1806.76 573.493 1806.34 576.512 1806 579.548C1805.8 581.327 1805.21 582.913 1802.72 584.164C1801.27 584.899 1800.06 585.886 1799.24 586.897C1797.62 588.876 1794.92 590.316 1792.31 591.828C1791.1 592.534 1789.53 593.094 1788.58 593.896C1787.27 595.009 1785.64 595.779 1783.43 596.264C1781.52 596.679 1779.73 597.214 1778.77 598.294C1772.13 601.272 1767.95 605.271 1764.29 609.493C1763.29 610.639 1762.14 611.73 1761.07 612.849C1760.59 613.344 1759.72 613.815 1759.71 614.329C1759.62 616.328 1757.61 617.811 1756.13 619.43C1752.35 623.611 1749.8 628.039 1747.95 632.668C1745.61 638.532 1743.41 644.405 1741.86 650.387C1741.46 651.951 1740.73 653.471 1739.97 654.979C1739.72 655.489 1739.09 655.999 1738.38 656.345C1736.88 657.066 1736.61 658.034 1736.65 659.056C1736.69 660.066 1736.99 661.082 1737.19 662.103C1737.31 662.704 1737.03 663.223 1736.55 663.741C1736.11 664.217 1735.73 664.764 1735.61 665.305C1735.06 667.576 1733.68 669.705 1732.52 671.859C1732.24 672.401 1731.49 672.868 1731.35 673.408C1730.1 677.953 1727.88 682.346 1727.41 687.009C1726.62 694.819 1725.43 702.593 1724.39 710.377C1724.12 712.397 1723.91 714.411 1722.98 716.367C1722.46 717.454 1722.49 718.654 1722.29 719.795C1721.27 725.541 1720.28 731.279 1719.2 737.021C1719.07 737.719 1718.87 738.568 1718.09 739.011C1716.41 739.978 1716.16 741.306 1715.23 742.434C1713.53 744.486 1711.95 746.545 1708.39 747.852C1706.64 748.5 1705.89 749.573 1705.03 750.615C1704.23 751.605 1702.59 752.048 1700.6 751.909C1698.22 751.757 1695.87 751.494 1693.52 751.198C1687.88 750.489 1682.46 750.611 1677.29 751.713C1676.81 751.817 1676.28 751.85 1675.8 751.965C1669.4 753.48 1662.66 754.359 1655.47 754.446C1652.88 754.481 1650.17 754.688 1647.89 755.236C1645.28 755.864 1642.1 755.234 1639.79 756.262C1637.19 756.375 1634.58 756.533 1631.97 756.589C1630.91 756.61 1630.1 756.189 1629.25 755.742C1627.37 754.76 1626.92 754.798 1625.21 755.427C1622.86 756.296 1621.92 756.326 1619.7 755.354C1618.63 754.883 1617.73 754.321 1616.26 754.327C1614.68 754.338 1613 754.23 1611.85 754.896C1610.52 755.661 1608.89 755.904 1606.95 755.892C1604.58 755.885 1602.23 756.014 1599.86 755.952C1590.02 755.702 1580.49 756.333 1571.23 757.777C1568.97 758.136 1566.69 758.314 1564.26 758.046C1562.94 757.905 1561.62 757.866 1560.3 757.703C1554.67 757.028 1549.36 757.326 1543.95 758.021C1536.4 758.992 1528.63 759.557 1520.58 758.728C1516.63 758.317 1512.66 758.343 1508.74 758.494C1503.21 758.711 1497.71 758.526 1492.24 757.604C1491.21 757.437 1490.14 757.278 1489.1 757.268C1485.12 757.236 1481.24 756.965 1477.33 756.3C1474.18 755.762 1471.01 756.062 1467.9 756.288C1466.09 756.419 1464.32 756.664 1462.44 756.476C1458.93 756.116 1455.64 756.498 1452.35 756.914C1443.21 758.053 1433.99 758.649 1424.32 757.67C1418.03 757.032 1411.68 756.702 1405.35 756.229C1402.69 756.024 1400.19 755.55 1397.83 754.683C1396.02 754.029 1394.01 753.52 1392.04 753.058C1389.53 752.471 1387.08 751.854 1384.79 751.002C1383.67 750.583 1382.43 750.112 1381.18 749.964C1375.32 749.297 1370.43 747.024 1364.62 746.359C1361.62 746.021 1359.01 745.383 1356.8 744.122C1356.05 743.682 1355.18 743.313 1354.31 742.943C1345.94 739.383 1347.17 739.719 1338.39 739.033C1333.95 738.681 1329.54 738.039 1325.07 737.708C1321.11 737.409 1317.14 737.199 1313.21 737.406C1310.02 737.571 1306.88 737.168 1303.74 736.854C1302.72 736.756 1301.64 736.507 1300.8 736.162C1296.45 734.36 1291.34 733.136 1288.14 730.938C1285.06 730.672 1282.32 730.677 1279.86 730.172C1277.71 729.731 1275.63 729.665 1273.66 729.808C1271.8 729.945 1270.02 729.921 1268.19 729.781C1261.72 729.254 1255.55 729.698 1249.77 730.996C1247.53 731.502 1245.39 731.735 1242.94 731.454C1241.64 731.304 1240.3 731.285 1238.98 731.178C1236.28 730.949 1233.66 731.026 1231.35 731.718C1229.02 732.419 1226.5 732.527 1223.81 732.5C1219.85 732.47 1215.94 732.634 1211.98 732.648C1209.88 732.659 1207.76 732.612 1205.65 732.443C1197.73 731.812 1189.84 731.138 1181.92 730.451C1180.62 730.334 1179.29 730.159 1178.02 729.921C1173.32 729.048 1172.81 729.06 1168.92 729.247C1165.33 729.42 1163.35 730.503 1162.31 732.262C1161.92 732.931 1161.75 733.648 1161.32 734.304C1161.19 734.519 1160.62 734.74 1160.17 734.768C1159.17 734.849 1158.08 734.901 1157.07 734.803C1151.01 734.145 1146.31 735.379 1142.2 737.434C1141.63 737.711 1141.14 738.037 1140.69 738.378C1139.58 739.213 1138 739.661 1136.13 739.776C1132.51 739.992 1128.91 740.344 1125.17 740.093C1123.32 739.974 1121.41 739.851 1119.65 739.984C1116.51 740.231 1113.39 740.155 1110.2 739.905C1109.15 739.826 1108.03 739.732 1107.04 739.848C1101.7 740.434 1096.2 740.552 1090.81 740.934C1089.54 741.031 1088.18 741.168 1087.1 741.502C1082.18 743.046 1076.55 743.67 1071.29 744.789C1066.8 745.755 1062.06 746.492 1057.1 746.812C1055.54 746.914 1053.87 746.918 1052.52 747.246C1047.11 748.568 1040.79 748.465 1035.45 749.892C1031.71 750.895 1027.67 751.307 1023.34 751.029C1023.07 751.012 1022.81 750.996 1022.54 750.99C1020.72 751.053 1018.77 750.938 1017.1 751.212C1010.91 752.226 1003.9 751.429 998.037 753.103C996.436 753.56 994.707 753.796 992.881 753.937C988.984 754.235 985.309 754.895 982.146 756.147C979.778 757.093 977.12 757.483 974.091 757.3C973.299 757.249 972.463 757.229 971.742 757.34C964.984 758.328 957.838 758.362 950.974 759.098C944.357 759.804 937.885 760.778 931.359 761.647C928.292 762.055 925.609 762.835 922.961 763.695C921.148 764.284 919.216 764.485 917.015 764.434C914.122 764.36 911.255 764.513 908.374 764.552C907.067 764.569 905.76 764.585 904.455 764.558C903.396 764.534 902.306 764.342 901.282 764.399C896.056 764.725 890.763 764.205 885.521 764.16C883.645 764.141 881.855 764.038 880.013 763.808C878.454 763.618 876.831 763.458 875.279 763.481C872.623 763.513 870.064 763.315 867.418 762.888C865.378 762.566 863.203 762.426 861.141 762.439C856.67 762.466 852.248 762.675 847.738 762.353C846.701 762.286 845.6 762.272 844.593 762.375C841.984 762.633 839.362 762.476 836.721 762.284C833.796 762.074 830.895 762.112 828.15 762.597C825.673 763.031 823.111 763.192 820.476 763.225C819.169 763.242 817.779 763.264 816.601 763.491C811.909 764.4 806.729 764.022 801.918 764.564C800.931 764.68 799.819 764.531 798.78 764.509C797.19 764.474 795.567 764.326 794.048 764.452C790.416 764.757 786.761 764.78 783.055 764.654C782.261 764.626 781.463 764.641 780.686 764.67C779.909 764.687 779.054 764.655 778.351 764.8C772.785 765.966 766.424 765.547 760.859 766.713C754.197 768.111 747.175 768.131 739.958 767.377C736.816 767.052 733.643 766.87 730.498 766.579C727.09 766.271 723.673 765.772 720.254 765.62C716.001 765.426 711.827 764.956 707.4 764.303C702.869 761.772 697.319 759.87 691.422 758.271C689.477 757.744 687.579 757.107 685.872 756.359C684.086 755.584 682.113 755.155 680.078 754.744C679.575 754.645 679.05 754.544 678.523 754.499C665.124 753.393 665.149 753.328 657.868 751.987C655.084 751.473 652.144 751.183 649.259 750.976C639.773 750.289 630.322 749.368 620.845 748.525C617.457 748.218 614.136 747.48 610.786 746.906C610.322 746.82 609.847 746.588 609.515 746.365C608.38 745.609 606.973 745.261 605.3 745.255C604.79 745.256 604.221 745.219 603.738 745.121C600.536 744.457 597.698 743.2 594.135 743.072C590.714 742.954 587.278 742.755 583.866 742.503C582.727 742.43 581.723 742.488 580.906 742.816C579.272 743.462 576.795 743.27 575.507 744.251C572.734 744.521 570.034 744.93 567.126 744.755C564.748 744.613 562.192 744.046 560.077 744.571C557.982 745.086 555.382 744.595 553.501 745.583C552.72 745.992 551.035 745.85 549.799 746.018C547.885 746.264 546.164 746.064 544.579 745.312C543.432 744.757 542.032 744.623 540.851 744.895C538.22 745.498 535.149 745.022 532.575 745.696C526.773 745.47 520.967 745.298 515.169 745.005C512.789 744.886 510.466 744.827 508.079 744.809C503.715 744.764 499.887 745.571 496.062 746.333C492.609 747.019 489.209 747.528 485.452 747.242C484.253 747.154 483.426 747.314 482.688 747.681C481.76 748.147 481.082 748.843 479.655 748.83C477.553 748.818 477.137 750.203 475.155 750.244C473.581 750.278 471.898 750.113 470.455 750.323C464.912 751.143 459.031 750.878 453.405 751.413C451.905 751.563 450.274 751.526 448.708 751.437C445.475 751.263 442.38 751.468 439.427 751.995C436.949 752.441 434.461 752.718 431.804 752.782C430.251 752.817 428.592 752.913 427.243 753.263C422.116 754.591 416.036 754.548 411.026 755.963C407.845 756.867 404.667 757.727 401.182 758.276C399.718 758.507 398.285 758.897 397.07 759.379C390.535 761.961 382.656 762.922 375.08 764.239C374.358 764.361 373.537 764.431 372.765 764.382C370.062 764.208 367.565 764.306 365.27 765.088C364.456 765.36 363.293 765.364 362.269 765.422C360.2 765.547 358.001 765.462 356.042 765.762C352.248 766.358 348.277 766.227 344.403 766.493C340.549 766.75 336.941 767.639 332.874 767.4C332.366 767.368 331.83 767.445 331.335 767.525C325.682 768.473 319.695 768.895 314.08 769.879C308.155 770.932 302.131 771.609 295.832 771.799C294.013 771.85 292.187 771.991 290.456 772.238C285.882 772.908 281.224 772.989 276.429 772.346C275.64 772.239 274.849 772.156 274.054 772.149C264.932 772.135 256.318 770.249 247.575 768.804C246.565 768.638 245.628 768.287 244.69 767.97C238.399 765.842 232.017 763.841 225.107 762.446C222.629 761.951 220.49 760.941 217.724 760.797C216.768 760.747 215.778 760.28 214.903 759.922C213.372 759.286 211.801 758.659 210.441 757.911C208.647 756.934 206.739 756.128 204.425 755.621C203.318 755.382 202.904 754.841 202.43 754.284C202.107 753.916 201.422 753.469 200.796 753.361C198.452 752.998 196.447 752.444 194.485 751.546C192.542 750.66 189.894 750.568 187.677 751.087C185.481 751.596 183.216 751.573 180.881 751.703C175.68 751.974 170.436 751.627 165.23 751.662C162.269 751.685 159.442 751.223 157.005 750.093C154.846 749.092 152.408 748.589 149.694 748.28C145.338 747.777 145.147 747.574 142.354 745.01C140.021 744.479 137.574 743.807 135.05 743.388C129.356 742.44 128.989 742.428 126.41 740.661C125.647 740.142 124.98 739.729 123.876 739.748C121.056 739.802 118.816 738.785 116.342 738.224C115.437 738.02 114.761 737.417 114.055 736.979C113.29 736.505 112.336 736.096 111.29 736.175C106.861 736.506 102.388 735.604 97.9476 735.789C95.3897 735.894 92.7442 735.456 90.1469 734.908C83.7231 733.567 77.0739 733.185 70.5551 733.629C65.4096 733.982 60.2059 734.286 55.2523 735.145C51.7227 735.758 47.9892 735.104 44.3656 734.961C40.4162 734.808 36.4632 734.398 32.5043 734.077C31.4082 733.984 30.3882 733.963 29.5863 734.371C28.4049 734.967 26.9453 735.131 25.347 735.23C18.6068 735.627 11.7188 735.465 4.94666 735.725C4.43501 735.748 3.8839 735.746 3.37732 735.691C-1.4294 735.226 -6.05285 735.4 -10.7184 735.907C-13.1847 736.175 -16.0153 736.071 -18.566 735.751C-23.5863 735.115 -28.4882 734.857 -33.5553 734.946C-37.4582 735.021 -41.4814 734.74 -45.3932 734.321C-49.0815 733.917 -52.7361 733.615 -56.4381 733.422C-59.3262 733.27 -62.2065 732.683 -65.0953 732.542C-68.7979 732.36 -72.453 732.07 -76.1383 731.621C-78.4677 731.348 -80.9295 731.224 -83.2428 731.333C-90.1421 731.663 -96.9217 730.769 -103.735 730.086C-104.769 729.986 -105.819 729.795 -106.824 729.562C-110.845 728.621 -114.898 727.857 -119.189 727.627C-120.49 727.555 -121.776 727.237 -123.069 727.042C-124.625 726.808 -126.195 726.449 -127.742 726.384C-133.297 726.128 -138.797 725.339 -144.308 725.03C-150.429 724.694 -156.408 724.041 -162.246 722.793C-163.252 722.572 -164.278 722.338 -165.312 722.238C-168.984 721.891 -172.528 721.149 -176.128 720.638C-178.211 720.347 -180.311 719.999 -182.385 719.889C-184.785 719.757 -187.097 719.519 -189.415 719.068C-191.168 718.732 -193.037 718.589 -194.881 718.393C-196.503 718.221 -197.784 717.826 -199.046 717.141C-201.371 715.86 -204.102 714.868 -207.205 714.243C-209.804 713.729 -212.104 712.987 -213.816 711.69C-214.283 711.336 -214.953 710.969 -215.659 710.834C-218.197 710.324 -219.34 709.052 -220.823 708.005C-222.325 706.934 -223.514 705.76 -223.176 704.326C-223.03 703.641 -223.573 702.879 -223.73 702.152C-224.012 700.835 -224.315 699.527 -223.278 698.317C-223.057 698.063 -222.731 697.748 -222.858 697.505C-223.99 695.439 -221.041 694.037 -220.78 692.206C-219.203 691.165 -220.07 690.057 -220.978 688.957C-221.091 688.827 -221.123 688.681 -221.104 688.691C-220.374 687.82 -219.632 687.083 -219.132 686.298C-218.79 685.738 -218.39 685.237 -217.434 684.974C-216.666 684.765 -216.215 684.414 -216.349 683.969C-216.751 682.61 -216.261 681.353 -215.409 680.165C-214.264 678.559 -213.727 676.891 -213.674 675.125C-213.637 674.545 -213.498 673.972 -213.278 673.415C-212.547 671.581 -211.617 669.814 -208.993 668.684C-208.241 667.153 -209.941 665.678 -209.093 664.254C-208.84 663.811 -209.574 663.159 -209.823 662.595C-210 662.18 -210.455 661.636 -210.172 661.352C-208.861 660.025 -209.601 658.532 -209.428 657.121C-209.233 655.364 -208.271 653.757 -207.31 652.15C-206.6 650.953 -205.347 649.868 -204.354 648.723C-203.692 647.948 -202.971 647.221 -201.536 646.798C-199.165 646.11 -198.157 644.741 -196.538 643.681C-196.091 643.396 -195.935 642.891 -195.969 642.475C-196.009 641.823 -195.516 641.451 -194.635 641.093C-193.211 640.523 -191.745 639.946 -190.576 639.226C-189.598 638.616 -188.915 637.843 -188.294 637.076C-188.006 636.736 -187.931 636.203 -188.85 635.909C-190.11 635.515 -191.079 635.027 -190.739 634.176C-189.94 632.234 -189.361 630.233 -188.179 628.371C-187.542 627.359 -185.859 626.582 -184.467 625.574C-186.044 622.819 -183.339 620.742 -180.795 618.643C-180.536 618.424 -180.015 618.267 -179.56 618.173C-178.196 617.902 -177.565 617.316 -177.496 616.559C-177.33 614.945 -175.914 613.558 -175.448 612.031C-174.979 610.46 -174.532 608.921 -173.379 607.494C-173.033 604.045 -170.097 601.254 -166.841 598.562C-165.698 597.606 -165.139 596.544 -164.578 595.438C-162.965 592.271 -162.04 589.016 -161.743 585.687C-161.647 584.528 -161.472 583.386 -160.588 582.334C-159.723 581.27 -159.585 580.102 -160.183 578.933C-160.872 577.589 -160.565 576.31 -160.177 575.047C-159.56 573.071 -158.739 571.119 -157.98 569.163C-157.881 568.89 -157.739 568.596 -157.479 568.366C-156.659 567.669 -155.458 567.074 -155.02 566.308C-154.673 565.669 -154.869 564.929 -154.174 564.29C-153.545 563.715 -152.885 562.973 -153.027 562.325C-153.321 560.873 -153.047 559.468 -152.894 558.056C-152.876 557.777 -152.772 557.436 -153.002 557.197C-155.091 555.115 -154.541 552.9 -154.993 550.743C-155.256 549.45 -156.146 548.07 -154.846 546.899C-153.59 545.782 -154.843 544.335 -153.321 543.201C-152.335 542.469 -152.118 541.341 -151.994 540.363C-151.909 539.686 -152.699 538.952 -152.837 538.237C-152.959 537.603 -153.477 537.099 -154.204 536.66C-155.206 536.058 -155.45 535.427 -155.38 534.647C-155.072 531.465 -155.089 528.261 -153.889 525.169C-153.62 524.47 -153.612 523.73 -153.566 523.017C-153.449 521.21 -152.344 519.59 -150.223 518.359C-147.191 516.605 -145.317 514.452 -143.204 512.382C-142.331 511.508 -141.499 510.643 -140.072 510.029C-138.182 509.21 -137.549 507.94 -136.598 506.803C-136.311 506.463 -136.441 505.962 -136.578 505.55C-136.764 504.956 -136.952 504.395 -136.267 503.901C-135.967 503.674 -135.465 503.483 -135.387 503.23C-134.926 501.782 -133.244 500.702 -132.203 499.437C-131.295 498.341 -131.589 496.9 -130.777 495.698C-130.056 494.647 -129.293 493.587 -128.332 492.607C-127.479 491.733 -126.589 490.905 -126.541 489.844C-126.483 488.325 -123.859 487.507 -123.519 486.04C-123.436 485.698 -122.616 485.336 -121.954 485.188C-119.881 484.694 -118.888 483.862 -118.562 482.606C-118.24 481.418 -115.93 479.472 -114.382 478.888C-113.588 478.592 -113.503 478.227 -113.823 477.814C-114.236 477.262 -114.816 476.755 -115.389 476.158C-114.8 474.599 -114.326 473.012 -113.738 471.442C-115.366 471.388 -116.999 471.305 -118.64 471.173C-120.448 471.035 -122.37 471.055 -124.12 471.235C-127.229 471.558 -130.397 471.315 -133.545 471.332C-135.343 471.34 -136.571 470.842 -137.379 469.929C-137.736 469.532 -138.029 469.095 -138.534 468.754C-138.786 468.578 -139.512 468.465 -139.906 468.536C-140.609 468.65 -141.261 468.892 -141.872 469.126C-142.734 469.452 -143.628 469.653 -144.745 469.567C-146.857 469.406 -148.949 469.245 -151.064 469.128C-152.142 469.068 -153.156 468.968 -154.066 468.585C-156.124 467.721 -158.495 467.484 -160.862 467.19C-163.209 466.899 -165.645 466.7 -167.851 466.173C-172.124 465.162 -176.152 465.471 -180.209 465.889C-181.712 466.043 -183.15 466.415 -184.685 466.454C-188.615 466.557 -192.507 466.696 -196.282 467.181C-199.149 467.544 -201.622 466.772 -203.455 465.634C-205.443 464.406 -207.215 463.003 -208.216 461.425C-208.873 460.399 -208.938 459.397 -207.808 458.52C-206.787 457.724 -205.706 456.954 -204.764 456.13C-204.392 455.8 -204.132 455.349 -204.205 454.962C-204.394 453.984 -203.425 453.329 -202.656 452.626C-200.261 450.444 -198.853 448.086 -198.383 445.443C-197.708 441.718 -196.749 438.025 -195.891 434.325C-195.091 430.845 -195.904 427.341 -197.741 423.883C-198.881 421.722 -199.53 419.542 -200.158 417.354C-200.496 416.173 -200.406 415.014 -199.67 413.938C-198.332 411.956 -196.994 409.974 -197.27 407.733C-195.895 405.003 -194.48 402.276 -193.165 399.529C-192.436 398.027 -191.604 396.511 -191.32 394.952C-190.579 390.649 -189.676 386.357 -189.828 381.975C-189.929 379.322 -189.307 376.813 -186.805 374.572C-184.83 372.796 -183.54 369.319 -182.992 365.92C-182.471 362.609 -182.011 359.303 -181.55 355.987C-181.282 354.103 -180.675 352.311 -179.579 350.546C-178.598 348.951 -178.38 347.185 -177.479 345.573C-176.578 343.961 -174.973 342.492 -174.153 340.862C-173.333 339.233 -172.793 337.536 -171.771 335.934C-171.189 335.014 -171.108 333.966 -170.95 332.97C-170.471 329.946 -170.014 326.932 -169.637 323.901C-169.418 322.125 -168.806 320.547 -166.301 319.326C-166.014 319.186 -165.737 319.035 -165.469 318.876C-166.282 318.754 -167.081 318.611 -167.851 318.427C-172.124 317.416 -176.152 317.724 -180.209 318.143C-181.712 318.297 -183.15 318.669 -184.685 318.708C-188.615 318.811 -192.507 318.95 -196.282 319.435C-199.149 319.798 -201.622 319.025 -203.455 317.888C-205.443 316.659 -207.215 315.257 -208.216 313.679C-208.873 312.653 -208.938 311.651 -207.808 310.773C-206.787 309.977 -205.706 309.208 -204.764 308.384C-204.392 308.054 -204.132 307.602 -204.205 307.216C-204.394 306.238 -203.425 305.583 -202.656 304.88C-200.261 302.698 -198.853 300.34 -198.383 297.697C-197.708 293.972 -196.749 290.279 -195.891 286.579C-195.091 283.098 -195.904 279.595 -197.741 276.137C-198.881 273.976 -199.53 271.796 -200.158 269.607C-200.496 268.427 -200.406 267.268 -199.67 266.192C-198.332 264.21 -196.994 262.228 -197.27 259.987C-195.895 257.257 -194.48 254.529 -193.165 251.783C-192.436 250.281 -191.604 248.765 -191.32 247.206C-190.579 242.903 -189.676 238.611 -189.828 234.229C-189.929 231.576 -189.307 229.067 -186.805 226.826C-184.83 225.049 -183.54 221.573 -182.992 218.174C-182.471 214.862 -182.011 211.557 -181.55 208.241C-181.282 206.357 -180.675 204.565 -179.579 202.8C-178.598 201.205 -178.38 199.439 -177.479 197.827C-176.578 196.215 -174.973 194.746 -174.153 193.116C-173.333 191.487 -172.793 189.79 -171.771 188.188C-171.189 187.268 -171.108 186.22 -170.95 185.224C-170.471 182.2 -170.014 179.186 -169.637 176.155C-169.418 174.379 -168.806 172.801 -166.301 171.58C-164.837 170.863 -163.618 169.892 -162.785 168.891C-161.142 166.932 -158.419 165.525 -155.793 164.045C-154.575 163.354 -153 162.813 -152.041 162.023C-150.71 160.926 -149.079 160.176 -146.858 159.719C-144.949 159.327 -143.153 158.814 -142.172 157.746C-135.493 154.85 -131.267 150.903 -127.553 146.727C-126.547 145.593 -125.381 144.516 -124.295 143.411C-123.807 142.922 -122.934 142.461 -122.915 141.947C-122.801 139.95 -120.769 138.491 -119.277 136.891C-115.445 132.757 -112.837 128.361 -110.929 123.755C-108.518 117.921 -106.249 112.075 -104.625 106.113C-104.198 104.554 -103.448 103.042 -102.678 101.543C-102.415 101.036 -101.784 100.535 -101.063 100.198C-99.5586 99.4952 -99.2791 98.5305 -99.3024 97.5088C-99.3265 96.4982 -99.6158 95.4781 -99.8024 94.4551C-99.9192 93.8522 -99.634 93.336 -99.1451 92.8242C-98.7004 92.354 -98.3115 91.8121 -98.1881 91.2725C-97.6048 89.0082 -96.1959 86.8965 -95.0094 84.7568C-94.7227 84.2184 -93.9724 83.7599 -93.8287 83.2217C-92.5191 78.693 -90.2412 74.3281 -89.7184 69.6719C-88.8303 61.8715 -87.5368 54.1133 -86.4059 46.3428C-86.1072 44.3259 -85.871 42.315 -84.9244 40.3701C-84.3917 39.29 -84.4005 38.0895 -84.1901 36.9512C-83.0939 31.2179 -82.0396 25.4923 -80.8824 19.7637C-80.747 19.068 -80.5386 18.2208 -79.7496 17.7881C-78.063 16.8413 -77.7969 15.5171 -76.8531 14.4014C-75.1235 12.3705 -73.515 10.3297 -69.9449 9.06738C-68.1809 8.44022 -67.4247 7.37701 -66.5485 6.3457C-65.7374 5.36561 -64.0911 4.94307 -62.1022 5.10645C-59.7264 5.28828 -57.3791 5.57918 -55.0348 5.9043C-49.3958 6.68334 -43.9775 6.62755 -38.7906 5.58984C-38.3134 5.49195 -37.7805 5.4655 -37.3024 5.35645C-30.8795 3.92016 -24.1381 3.12488 -16.9479 3.12598C-14.3536 3.12278 -11.644 2.94854 -9.35706 2.42871C-6.73729 1.83341 -3.56103 2.50292 -1.23694 1.50391C1.36352 1.42272 3.96788 1.29637 6.58435 1.27246C7.64697 1.26427 8.45133 1.69559 9.29431 2.15234C11.1571 3.15789 11.6088 3.12543 13.3304 2.51758C15.6831 1.67767 16.6246 1.66055 18.8353 2.65918C19.9008 3.1442 20.7963 3.71685 22.266 3.72852C23.8382 3.73676 25.5238 3.86536 26.6771 3.21387C28.0218 2.46494 29.6534 2.2421 31.5912 2.27832C33.9578 2.31373 36.3148 2.21452 38.6771 2.30566C48.5146 2.67747 58.0532 2.16312 67.3275 0.833008C69.5999 0.502594 71.8789 0.352477 74.307 0.650391C75.6226 0.807112 76.9462 0.862978 78.2601 1.04199C83.8813 1.78602 89.19 1.55328 94.6107 0.925781Z" fill="black"/>
</g>
<defs>
<clipPath id="clip0_5285_15013">
<rect width="1686" height="773" fill="white"/>
</clipPath>
</defs>
</svg>
