<svg width="3000" height="773" viewBox="0 0 3000 773" fill="none" xmlns="http://www.w3.org/2000/svg">
<g clip-path="url(#clip0_5952_8579)">
<mask id="mask0_5952_8579" style="mask-type:luminance" maskUnits="userSpaceOnUse" x="0" y="0" width="3000" height="773">
<path d="M3000 0H0V773H3000V0Z" fill="white"/>
</mask>
<g mask="url(#mask0_5952_8579)">
<path d="M168.346 0.925772C181.806 0.0476524 195.646 -0.421154 209.948 0.507803C216.971 0.966861 224.021 0.989428 231.012 0.88671C240.847 0.738071 250.628 0.990992 260.341 1.98046C262.171 2.15997 264.073 2.33089 265.923 2.35448C273 2.4347 279.9 2.75397 286.852 3.46776C292.443 4.04438 298.076 3.78286 303.626 3.59569C306.84 3.48733 309.998 3.26418 313.349 3.47558C319.582 3.8781 325.443 3.53643 331.311 3.16112C347.589 2.13524 364.012 1.65305 381.199 2.75097C392.368 3.46675 403.651 3.87402 414.916 4.42577C419.646 4.6628 424.083 5.16792 428.249 6.06444C431.464 6.74068 435.025 7.27416 438.521 7.76073C442.978 8.3784 447.324 9.02557 451.382 9.90624C453.359 10.3387 455.546 10.8251 457.777 10.9883C468.18 11.7272 476.838 14.0611 487.167 14.7969C492.496 15.1717 497.128 15.8416 501.023 17.1299C502.341 17.5789 503.889 17.9595 505.436 18.3398C520.235 22.0027 518.066 21.6514 533.658 22.4453C541.562 22.8525 549.391 23.5481 557.334 23.9346C564.373 24.2822 571.427 24.5403 578.429 24.3818C584.115 24.2566 589.688 24.6985 595.272 25.0508C597.074 25.1619 599.003 25.4243 600.48 25.7793C608.185 27.635 617.242 28.9209 622.895 31.1592C628.377 31.4622 633.244 31.4924 637.603 32.0273C641.429 32.4945 645.124 32.586 648.63 32.4678C651.952 32.3529 655.11 32.3994 658.357 32.5615C669.87 33.1687 680.861 32.8008 691.171 31.5742C695.162 31.0959 698.97 30.8896 703.325 31.2002C705.628 31.3665 708.023 31.4021 710.368 31.5254C715.165 31.7878 719.824 31.7422 723.95 31.0791C728.112 30.4064 732.594 30.3294 737.384 30.3896C744.423 30.4683 751.382 30.3536 758.43 30.3877C762.171 30.4029 765.941 30.4749 769.695 30.6699C783.77 31.3986 797.802 32.1707 811.87 32.9551C814.178 33.088 816.551 33.2793 818.806 33.5332C827.148 34.4636 828.057 34.4586 834.982 34.3193C841.361 34.1901 844.923 33.132 846.799 31.3857C847.507 30.7215 847.822 30.0064 848.601 29.3564C848.849 29.143 849.861 28.9289 850.664 28.9072C852.454 28.8385 854.386 28.798 856.188 28.9092C866.955 29.6413 875.333 28.4663 882.696 26.4629C883.713 26.1929 884.592 25.8721 885.402 25.5371C887.406 24.7154 890.226 24.2869 893.546 24.1943C900.003 24.0237 906.407 23.7166 913.053 24.0137C916.341 24.1551 919.738 24.3009 922.881 24.1895C928.47 23.9816 934.014 24.0972 939.681 24.3857C941.559 24.4777 943.542 24.5851 945.3 24.4814C954.822 23.9607 964.608 23.9112 974.21 23.5957C976.475 23.5138 978.89 23.3935 980.824 23.0732C989.605 21.5904 999.642 21.0352 1009.02 19.9814C1017.03 19.0708 1025.48 18.3918 1034.32 18.1328C1037.09 18.0504 1040.07 18.0671 1042.47 17.7559C1052.13 16.5013 1063.37 16.6814 1072.9 15.3203C1079.58 14.3633 1086.79 14.001 1094.48 14.332C1094.95 14.3522 1095.42 14.3728 1095.89 14.3818C1099.13 14.3419 1102.6 14.4795 1105.58 14.2266C1116.62 13.289 1129.07 14.1721 1139.54 12.5713C1142.4 12.1339 1145.48 11.9197 1148.73 11.8018C1155.67 11.5511 1162.23 10.9355 1167.88 9.72167C1172.12 8.80534 1176.85 8.44854 1182.24 8.66894C1183.65 8.72955 1185.14 8.76077 1186.42 8.65917C1198.47 7.75389 1211.18 7.8071 1223.41 7.15624C1235.2 6.53129 1246.73 5.63733 1258.37 4.84862C1263.83 4.47851 1268.62 3.73199 1273.35 2.90429C1276.59 2.33752 1280.03 2.16054 1283.95 2.23925C1289.1 2.34852 1294.2 2.23222 1299.33 2.22851C1301.65 2.22769 1303.98 2.22674 1306.3 2.2705C1308.18 2.30676 1310.12 2.51258 1311.94 2.46776C1321.25 2.20667 1330.65 2.79065 1339.98 2.90038C1343.32 2.94308 1346.5 3.06943 1349.77 3.32226C1352.54 3.53107 1355.42 3.71049 1358.19 3.70604C1362.91 3.70753 1367.46 3.93664 1372.16 4.39647C1375.78 4.74286 1379.65 4.90973 1383.32 4.92187C1391.27 4.95024 1399.15 4.79536 1407.16 5.17382C1409.01 5.25308 1410.96 5.2814 1412.76 5.19042C1417.41 4.9644 1422.07 5.1536 1426.76 5.37792C1431.96 5.62401 1437.12 5.62257 1442.02 5.17187C1446.44 4.76782 1451 4.63874 1455.69 4.63866C1458.01 4.63785 1460.49 4.63217 1462.59 4.41991C1470.96 3.56935 1480.16 4.0095 1488.73 3.52636C1490.49 3.42268 1492.47 3.58639 1494.32 3.62108C1497.15 3.67546 1500.03 3.84416 1502.73 3.73632C1509.2 3.4766 1515.71 3.4985 1522.3 3.66991C1523.71 3.70824 1525.13 3.70252 1526.51 3.68358C1527.89 3.6758 1529.42 3.71851 1530.67 3.58202C1540.6 2.48471 1551.91 2.98204 1561.83 1.88476C1573.72 0.568958 1586.21 0.635498 1599.04 1.47851C1604.62 1.84196 1610.26 2.06254 1615.85 2.39257C1621.91 2.7428 1627.98 3.28423 1634.05 3.47851C1641.62 3.72534 1649.04 4.24601 1656.9 4.95409C1664.9 7.53997 1674.74 9.51019 1685.19 11.1816C1688.64 11.7335 1692.01 12.3934 1695.02 13.1621C1698.19 13.9594 1701.69 14.4121 1705.3 14.8477C1706.19 14.9534 1707.12 15.0608 1708.06 15.1123C1731.88 16.3832 1731.83 16.4487 1744.75 17.8789C1749.7 18.4277 1754.92 18.7531 1760.05 18.9961C1776.91 19.7999 1793.7 20.8361 1810.55 21.7959C1816.57 22.1446 1822.46 22.9255 1828.42 23.54C1829.23 23.6315 1830.07 23.8688 1830.66 24.0957C1832.67 24.8655 1835.16 25.2306 1838.13 25.2578C1839.04 25.2632 1840.05 25.307 1840.91 25.4111C1846.6 26.1151 1851.62 27.4074 1857.95 27.5791C1864.04 27.7399 1870.14 27.9799 1876.21 28.2744C1878.24 28.3614 1880.02 28.3153 1881.48 27.9971C1884.41 27.3717 1888.81 27.5952 1891.12 26.6299C1896.07 26.394 1900.87 26.0174 1906.05 26.2285C1910.27 26.3993 1914.8 26.9979 1918.58 26.499C1922.31 26.0099 1926.94 26.5331 1930.3 25.5684C1931.71 25.1692 1934.7 25.3316 1936.9 25.1797C1940.32 24.9566 1943.36 25.1777 1946.17 25.9482C1948.2 26.5174 1950.69 26.6699 1952.79 26.4131C1957.49 25.8417 1962.95 26.3558 1967.54 25.7129C1977.86 26.011 1988.18 26.2532 1998.49 26.6182C2002.72 26.7666 2006.85 26.8552 2011.1 26.9033C2018.86 27.0019 2025.69 26.2417 2032.53 25.5264C2038.68 24.8834 2044.73 24.416 2051.42 24.748C2053.54 24.8509 2055.02 24.7015 2056.33 24.3438C2058.01 23.8884 2059.22 23.2007 2061.76 23.2314C2065.5 23.269 2066.28 21.8904 2069.8 21.874C2072.6 21.86 2075.59 22.0445 2078.17 21.8525C2088.04 21.1006 2098.51 21.4382 2108.52 20.9727C2111.19 20.841 2114.09 20.8983 2116.89 21.0068C2122.63 21.2205 2128.15 21.0543 2133.42 20.5635C2137.83 20.1483 2142.26 19.9011 2146.99 19.8691C2149.75 19.8535 2152.7 19.7788 2155.12 19.4453C2164.27 18.1801 2175.09 18.2979 2184.02 16.9453C2189.72 16.08 2195.39 15.2591 2201.6 14.7529C2204.2 14.5401 2206.76 14.1691 2208.93 13.7021C2220.62 11.2009 2234.66 10.3359 2248.17 9.11229C2249.45 8.99961 2250.93 8.93902 2252.3 8.99804C2257.1 9.20475 2261.55 9.13863 2265.64 8.38476C2267.1 8.12231 2269.16 8.13274 2271 8.08788C2274.68 7.98858 2278.58 8.10096 2282.08 7.82519C2288.84 7.27551 2295.91 7.45512 2302.79 7.23632C2309.66 7.02709 2316.1 6.18411 2323.33 6.47265C2324.23 6.51149 2325.2 6.44031 2326.07 6.3662C2336.16 5.48838 2346.81 5.13991 2356.83 4.22558C2367.38 3.24537 2378.13 2.64213 2389.34 2.53026C2392.58 2.50144 2395.82 2.38322 2398.91 2.15722C2407.06 1.54402 2415.36 1.51906 2423.88 2.22167C2425.27 2.33798 2426.67 2.43218 2428.1 2.44823C2444.32 2.57469 2459.61 4.56589 2475.12 6.11913C2476.92 6.29711 2478.58 6.65995 2480.25 6.98925C2491.39 9.1948 2502.7 11.2727 2514.96 12.7529C2519.36 13.2784 2523.15 14.3162 2528.06 14.4941C2529.77 14.5561 2531.51 15.0341 2533.06 15.4033C2535.76 16.0578 2538.56 16.7051 2540.96 17.4697C2544.13 18.4691 2547.51 19.2977 2551.62 19.833C2553.58 20.0857 2554.31 20.6328 2555.12 21.1953C2555.69 21.5671 2556.9 22.0226 2558.02 22.1377C2562.19 22.5297 2565.73 23.1085 2569.2 24.0312C2572.65 24.9411 2577.35 25.0653 2581.32 24.5742C2585.23 24.0927 2589.25 24.1424 2593.42 24.041C2602.67 23.8341 2611.99 24.2458 2621.26 24.2744C2626.53 24.2881 2631.55 24.7848 2635.85 25.9453C2639.68 26.9727 2644 27.5057 2648.83 27.8477C2656.57 28.4046 2656.9 28.6103 2661.81 31.209C2665.96 31.7681 2670.28 32.4703 2674.77 32.9209C2684.88 33.9386 2685.53 33.9555 2690.09 35.7539C2691.42 36.2825 2692.62 36.7024 2694.57 36.6973C2699.59 36.6778 2703.56 37.7231 2707.95 38.3154C2709.56 38.5303 2710.75 39.1411 2711.99 39.5869C2713.35 40.0709 2715.02 40.4914 2716.89 40.4258C2724.77 40.1487 2732.72 41.1063 2740.62 40.9756C2745.18 40.9024 2749.88 41.3738 2754.48 41.9531C2765.87 43.3738 2777.7 43.8374 2789.31 43.4736C2798.47 43.184 2807.74 42.9434 2816.57 42.1465C2822.86 41.5766 2829.48 42.2763 2835.94 42.4639C2842.95 42.6651 2849.98 43.1242 2857.01 43.4941C2858.97 43.6003 2860.78 43.6339 2862.22 43.2363C2864.32 42.6548 2866.94 42.5081 2869.79 42.4287C2881.78 42.1155 2894.04 42.3629 2906.09 42.1865C2906.99 42.1697 2907.97 42.1781 2908.88 42.2393C2917.42 42.7636 2925.66 42.6467 2933.97 42.1973C2938.36 41.9603 2943.4 42.0984 2947.92 42.4502C2956.83 43.1476 2965.55 43.4663 2974.57 43.4395C2981.51 43.4132 2988.67 43.7429 2995.62 44.21C3002.17 44.66 3008.67 45.0068 3015.25 45.2451C3020.39 45.4324 3025.5 46.0563 3030.64 46.2324C3037.22 46.4596 3043.72 46.7945 3050.27 47.2891C3054.41 47.5903 3058.77 47.7457 3062.9 47.665C3075.18 47.42 3087.22 48.3967 3099.32 49.1641C3101.17 49.2767 3103.02 49.4808 3104.82 49.7256C3111.94 50.7161 3119.15 51.5301 3126.78 51.8135C3129.09 51.9018 3131.37 52.2344 3133.67 52.4453C3136.42 52.6987 3139.22 53.0764 3141.96 53.1611C3151.83 53.4851 3161.6 54.3431 3171.41 54.7197C3182.3 55.1318 3192.92 55.857 3203.27 57.1768C3205.05 57.4105 3206.89 57.6568 3208.72 57.7695C3215.25 58.1623 3221.53 58.9487 3227.92 59.5039C3231.62 59.82 3235.36 60.1938 3239.04 60.3301C3243.31 60.4912 3247.42 60.7568 3251.53 61.2363C3254.64 61.5944 3257.97 61.7601 3261.25 61.9795C3264.13 62.1707 3266.39 62.5821 3268.63 63.2832C3272.74 64.592 3277.56 65.6185 3283.08 66.2812C3287.69 66.8272 3291.76 67.5962 3294.79 68.9141C3295.6 69.2744 3296.8 69.6503 3298.04 69.7939C3302.54 70.3352 3304.55 71.6213 3307.17 72.6865C3309.82 73.7756 3311.9 74.9637 3311.28 76.3936C3311 77.0766 3311.94 77.8465 3312.21 78.5752C3312.69 79.8955 3313.2 81.2063 3311.32 82.4033C3310.93 82.6551 3310.34 82.9661 3310.55 83.2109C3312.53 85.2907 3307.24 86.6557 3306.74 88.4834C3303.91 89.5049 3305.43 90.6235 3307.03 91.7344C3307.22 91.8663 3307.28 92.0147 3307.24 92.002C3305.92 92.8642 3304.59 93.591 3303.68 94.3701C3303.06 94.9262 3302.33 95.4222 3300.62 95.6738C3299.25 95.8726 3298.45 96.219 3298.68 96.666C3299.36 98.0291 3298.47 99.2794 3296.92 100.457C3294.84 102.049 3293.86 103.71 3293.72 105.476C3293.65 106.055 3293.38 106.626 3292.97 107.181C3291.64 109.006 3289.95 110.76 3285.25 111.858C3283.88 113.38 3286.87 114.877 3285.34 116.29C3284.88 116.73 3286.16 117.39 3286.6 117.958C3286.9 118.375 3287.69 118.924 3287.19 119.205C3284.82 120.516 3286.1 122.017 3285.76 123.426C3285.39 125.18 3283.63 126.775 3281.89 128.37C3280.6 129.559 3278.34 130.627 3276.55 131.761C3275.36 132.527 3274.06 133.245 3271.49 133.65C3267.26 134.309 3265.44 135.665 3262.54 136.706C3261.74 136.985 3261.44 137.488 3261.49 137.905C3261.55 138.558 3260.68 138.924 3259.09 139.271C3256.55 139.822 3253.93 140.382 3251.83 141.088C3250.07 141.685 3248.84 142.45 3247.72 143.209C3247.21 143.545 3247.06 144.077 3248.68 144.383C3250.93 144.793 3252.63 145.292 3252.01 146.14C3250.55 148.072 3249.47 150.065 3247.33 151.912C3246.17 152.916 3243.17 153.672 3240.66 154.663C3243.4 157.438 3238.54 159.481 3233.97 161.549C3233.51 161.764 3232.58 161.915 3231.76 162.003C3229.32 162.257 3228.2 162.836 3228.06 163.592C3227.72 165.203 3225.18 166.573 3224.31 168.094C3223.45 169.659 3222.62 171.192 3220.53 172.604C3219.84 176.049 3214.56 178.804 3208.7 181.455C3206.65 182.398 3205.62 183.453 3204.61 184.552C3201.67 187.698 3199.95 190.942 3199.34 194.268C3199.15 195.425 3198.81 196.565 3197.22 197.605C3195.66 198.659 3195.39 199.824 3196.42 201.001C3197.38 202.096 3197.19 203.141 3196.71 204.167C3198.9 204.395 3201.1 204.645 3203.27 204.923C3205.05 205.157 3206.89 205.403 3208.72 205.516C3215.25 205.908 3221.53 206.695 3227.92 207.25C3231.62 207.566 3235.36 207.94 3239.04 208.076C3243.31 208.237 3247.42 208.503 3251.53 208.982C3254.64 209.34 3257.97 209.506 3261.25 209.726C3264.13 209.917 3266.39 210.328 3268.63 211.029C3272.74 212.338 3277.56 213.365 3283.08 214.027C3287.69 214.573 3291.76 215.342 3294.79 216.66C3295.6 217.021 3296.8 217.396 3298.04 217.54C3302.54 218.081 3304.55 219.367 3307.17 220.433C3309.82 221.522 3311.9 222.71 3311.28 224.14C3311 224.823 3311.94 225.593 3312.21 226.321C3312.69 227.642 3313.2 228.952 3311.32 230.149C3310.93 230.401 3310.34 230.712 3310.55 230.957C3312.53 233.037 3307.24 234.402 3306.74 236.229C3303.91 237.251 3305.43 238.37 3307.03 239.48C3307.22 239.612 3307.28 239.761 3307.24 239.748C3305.92 240.61 3304.59 241.337 3303.68 242.116C3303.06 242.672 3302.33 243.168 3300.62 243.42C3299.25 243.619 3298.45 243.965 3298.68 244.412C3299.36 245.775 3298.47 247.025 3296.92 248.203C3294.84 249.795 3293.86 251.457 3293.72 253.222C3293.65 253.801 3293.38 254.373 3292.97 254.927C3291.64 256.752 3289.95 258.506 3285.25 259.604C3283.88 261.126 3286.87 262.623 3285.34 264.036C3284.88 264.476 3286.16 265.136 3286.6 265.704C3286.9 266.121 3287.69 266.671 3287.19 266.951C3284.82 268.262 3286.1 269.763 3285.76 271.172C3285.39 272.926 3283.63 274.521 3281.89 276.116C3280.6 277.305 3278.34 278.373 3276.55 279.507C3275.36 280.274 3274.06 280.991 3271.49 281.396C3267.26 282.055 3265.44 283.411 3262.54 284.452C3261.74 284.731 3261.44 285.235 3261.49 285.651C3261.55 286.304 3260.68 286.67 3259.09 287.017C3256.55 287.568 3253.93 288.128 3251.83 288.834C3250.07 289.431 3248.84 290.196 3247.72 290.955C3247.21 291.291 3247.06 291.823 3248.68 292.129C3250.93 292.539 3252.63 293.038 3252.01 293.886C3250.55 295.818 3249.47 297.811 3247.33 299.658C3246.17 300.662 3243.17 301.418 3240.66 302.409C3243.4 305.184 3238.54 307.228 3233.97 309.295C3233.51 309.51 3232.58 309.661 3231.76 309.749C3229.32 310.003 3228.2 310.582 3228.06 311.338C3227.72 312.949 3225.18 314.319 3224.31 315.84C3223.45 317.405 3222.62 318.938 3220.53 320.351C3219.84 323.795 3214.56 326.55 3208.7 329.201C3206.65 330.144 3205.62 331.199 3204.61 332.298C3201.67 335.444 3199.95 338.688 3199.34 342.014C3199.15 343.171 3198.81 344.311 3197.22 345.352C3195.66 346.405 3195.39 347.57 3196.42 348.747C3197.62 350.099 3197.05 351.375 3196.33 352.633C3195.18 354.601 3193.68 356.543 3192.28 358.489C3192.1 358.761 3191.85 359.053 3191.39 359.279C3189.91 359.967 3187.76 360.547 3186.96 361.309C3186.32 361.943 3186.65 362.685 3185.41 363.315C3184.27 363.883 3183.08 364.617 3183.33 365.266C3183.81 366.721 3183.29 368.123 3182.99 369.533C3182.95 369.812 3182.76 370.151 3183.17 370.393C3186.83 372.501 3185.8 374.709 3186.57 376.871C3187.01 378.168 3188.56 379.557 3186.21 380.712C3183.95 381.814 3186.16 383.276 3183.42 384.392C3181.65 385.111 3181.25 386.237 3181 387.213C3180.84 387.889 3182.22 388.633 3182.46 389.349C3182.65 389.985 3183.56 390.495 3184.86 390.942C3186.62 391.556 3187.05 392.191 3186.9 392.97C3186.28 396.149 3186.25 399.353 3184.04 402.43C3183.54 403.126 3183.51 403.865 3183.42 404.578C3183.17 406.383 3181.16 407.989 3177.37 409.193C3171.92 410.91 3168.54 413.04 3164.73 415.084C3163.17 415.947 3161.67 416.801 3159.11 417.397C3155.73 418.194 3154.57 419.456 3152.86 420.581C3152.35 420.917 3152.56 421.42 3152.79 421.834C3153.11 422.43 3153.43 422.994 3152.21 423.479C3151.67 423.702 3150.78 423.887 3150.62 424.139C3149.79 425.581 3146.76 426.64 3144.88 427.893C3143.24 428.976 3143.74 430.421 3142.26 431.613C3141.87 431.935 3141.44 432.256 3141.01 432.576C3142.7 432.584 3144.38 432.59 3146.05 432.573C3149.25 432.543 3151.44 433.025 3152.9 433.929C3153.54 434.322 3154.07 434.756 3154.98 435.091C3155.43 435.264 3156.73 435.367 3157.42 435.291C3158.68 435.168 3159.84 434.918 3160.91 434.677C3162.44 434.34 3164.02 434.128 3166.01 434.2C3169.77 434.336 3173.51 434.471 3177.28 434.562C3179.18 434.608 3181 434.695 3182.62 435.067C3186.3 435.906 3190.53 436.115 3194.75 436.379C3198.93 436.642 3203.27 436.809 3207.21 437.31C3214.82 438.268 3221.99 437.909 3229.2 437.441C3231.87 437.269 3234.41 436.88 3237.15 436.821C3244.13 436.67 3251.05 436.482 3257.76 435.951C3262.86 435.552 3267.28 436.294 3270.57 437.409C3274.13 438.613 3277.31 439.994 3279.13 441.56C3280.32 442.577 3280.46 443.578 3278.47 444.47C3276.67 445.278 3274.75 446.06 3273.1 446.896C3272.44 447.231 3271.99 447.686 3272.13 448.071C3272.49 449.047 3270.78 449.714 3269.43 450.427C3265.21 452.638 3262.76 455.013 3261.97 457.661C3260.87 461.395 3259.23 465.099 3257.79 468.81C3256.44 472.3 3257.97 475.793 3261.32 479.229C3263.4 481.375 3264.59 483.546 3265.76 485.727C3266.39 486.903 3266.26 488.063 3264.96 489.147C3262.63 491.146 3260.3 493.145 3260.84 495.382C3258.45 498.129 3256 500.874 3253.72 503.636C3252.46 505.147 3251 506.674 3250.53 508.236C3249.31 512.548 3247.79 516.85 3248.17 521.23C3248.4 523.882 3247.35 526.398 3242.95 528.669C3239.48 530.47 3237.26 533.963 3236.35 537.368C3235.5 540.686 3234.75 543.996 3234.02 547.317C3233.58 549.205 3232.54 551.004 3230.62 552.783C3228.91 554.39 3228.56 556.158 3226.99 557.781C3225.43 559.405 3222.62 560.894 3221.19 562.533C3219.77 564.173 3218.84 565.876 3217.06 567.491C3216.05 568.418 3215.93 569.466 3215.66 570.464C3214.88 573.493 3214.13 576.512 3213.52 579.548C3213.17 581.327 3212.12 582.913 3207.69 584.164C3205.11 584.899 3202.95 585.886 3201.49 586.897C3198.61 588.876 3193.81 590.316 3189.16 591.828C3187.01 592.534 3184.22 593.094 3182.53 593.896C3180.2 595.009 3177.3 595.779 3173.36 596.264C3169.96 596.679 3166.78 597.214 3165.07 598.294C3153.26 601.272 3145.82 605.271 3139.31 609.493C3137.53 610.639 3135.48 611.73 3133.58 612.849C3132.72 613.344 3131.17 613.815 3131.16 614.329C3131 616.328 3127.42 617.811 3124.79 619.43C3118.06 623.611 3113.52 628.039 3110.23 632.668C3106.07 638.532 3102.15 644.405 3099.39 650.387C3098.68 651.951 3097.38 653.471 3096.03 654.979C3095.59 655.489 3094.47 655.999 3093.2 656.345C3090.53 657.066 3090.05 658.034 3090.12 659.056C3090.2 660.066 3090.73 661.082 3091.09 662.103C3091.3 662.704 3090.8 663.223 3089.95 663.741C3089.16 664.217 3088.49 664.764 3088.27 665.305C3087.3 667.576 3084.84 669.705 3082.78 671.859C3082.28 672.401 3080.94 672.868 3080.69 673.408C3078.47 677.953 3074.52 682.346 3073.68 687.009C3072.28 694.819 3070.16 702.593 3068.31 710.377C3067.83 712.397 3067.46 714.411 3065.8 716.367C3064.88 717.454 3064.93 718.654 3064.57 719.795C3062.76 725.541 3061 731.279 3059.07 737.021C3058.84 737.719 3058.49 738.568 3057.1 739.011C3054.11 739.978 3053.67 741.306 3052.01 742.434C3048.99 744.486 3046.17 746.545 3039.84 747.852C3036.73 748.5 3035.39 749.573 3033.86 750.615C3032.44 751.605 3029.52 752.048 3025.98 751.909C3021.74 751.757 3017.56 751.494 3013.38 751.198C3003.35 750.489 2993.7 750.611 2984.5 751.713C2983.65 751.817 2982.7 751.85 2981.85 751.965C2970.46 753.48 2958.47 754.359 2945.68 754.446C2941.07 754.481 2936.25 754.688 2932.19 755.236C2927.54 755.864 2921.89 755.234 2917.78 756.262C2913.15 756.375 2908.51 756.533 2903.86 756.589C2901.97 756.61 2900.53 756.189 2899.02 755.742C2895.68 754.76 2894.88 754.798 2891.83 755.427C2887.65 756.296 2885.98 756.326 2882.03 755.354C2880.12 754.883 2878.52 754.321 2875.91 754.327C2873.1 754.338 2870.11 754.23 2868.06 754.896C2865.69 755.661 2862.79 755.904 2859.34 755.892C2855.12 755.885 2850.94 756.014 2846.73 755.952C2829.22 755.702 2812.26 756.333 2795.78 757.777C2791.76 758.136 2787.7 758.314 2783.38 758.046C2781.03 757.905 2778.68 757.866 2776.33 757.703C2766.32 757.028 2756.87 757.326 2747.24 758.021C2733.81 758.992 2719.98 759.557 2705.66 758.728C2698.63 758.317 2691.57 758.343 2684.59 758.494C2674.75 758.711 2664.96 758.526 2655.23 757.604C2653.4 757.437 2651.49 757.278 2649.64 757.268C2642.56 757.236 2635.66 756.965 2628.7 756.3C2623.1 755.762 2617.46 756.062 2611.92 756.288C2608.7 756.419 2605.55 756.664 2602.21 756.476C2595.96 756.116 2590.11 756.498 2584.25 756.914C2567.99 758.053 2551.58 758.649 2534.38 757.67C2523.18 757.032 2511.89 756.702 2500.62 756.229C2495.89 756.024 2491.44 755.55 2487.24 754.683C2484.02 754.029 2480.44 753.52 2476.94 753.058C2472.47 752.471 2468.11 751.854 2464.04 751.002C2462.05 750.583 2459.84 750.112 2457.62 749.964C2447.19 749.297 2438.49 747.024 2428.15 746.359C2422.81 746.021 2418.17 745.383 2414.23 744.122C2412.9 743.682 2411.35 743.313 2409.8 742.943C2394.91 739.383 2397.1 739.719 2381.48 739.033C2373.58 738.681 2365.73 738.039 2357.78 737.708C2350.73 737.409 2343.67 737.199 2336.67 737.406C2331 737.571 2325.41 737.168 2319.82 736.854C2318.01 736.756 2316.09 736.507 2314.59 736.162C2306.85 734.36 2297.76 733.136 2292.06 730.938C2286.58 730.672 2281.71 730.677 2277.33 730.172C2273.51 729.731 2269.8 729.665 2266.3 729.808C2262.99 729.945 2259.82 729.921 2256.57 729.781C2245.05 729.254 2234.07 729.698 2223.79 730.996C2219.8 731.502 2216 731.735 2211.64 731.454C2209.32 731.304 2206.94 731.285 2204.59 731.178C2199.79 730.949 2195.12 731.026 2191.01 731.718C2186.87 732.419 2182.38 732.527 2177.6 732.5C2170.55 732.47 2163.59 732.634 2156.55 732.648C2152.81 732.659 2149.04 732.612 2145.28 732.443C2131.19 731.812 2117.15 731.138 2103.06 730.451C2100.75 730.334 2098.38 730.159 2096.12 729.921C2087.76 729.048 2086.85 729.06 2079.93 729.247C2073.54 729.42 2070.02 730.503 2068.17 732.262C2067.47 732.931 2067.17 733.648 2066.41 734.304C2066.17 734.519 2065.16 734.74 2064.36 734.768C2062.58 734.849 2060.64 734.901 2058.84 734.803C2048.06 734.145 2039.7 735.379 2032.38 737.434C2031.37 737.711 2030.5 738.037 2029.7 738.378C2027.72 739.213 2024.91 739.661 2021.58 739.776C2015.14 739.992 2008.74 740.344 2002.08 740.093C1998.79 739.974 1995.39 739.851 1992.26 739.984C1986.67 740.231 1981.12 740.155 1975.44 739.905C1973.58 739.826 1971.58 739.732 1969.82 739.848C1960.32 740.434 1950.53 740.552 1940.94 740.934C1938.68 741.031 1936.26 741.168 1934.34 741.502C1925.59 743.046 1915.57 743.67 1906.21 744.789C1898.22 745.755 1889.79 746.492 1880.96 746.812C1878.18 746.914 1875.21 746.918 1872.81 747.246C1863.18 748.568 1851.94 748.465 1842.44 749.892C1835.78 750.895 1828.59 751.307 1820.89 751.029C1820.41 751.012 1819.95 750.996 1819.47 750.99C1816.23 751.053 1812.76 750.938 1809.79 751.212C1798.77 752.226 1786.3 751.429 1775.87 753.103C1773.02 753.56 1769.94 753.796 1766.69 753.937C1759.76 754.235 1753.22 754.895 1747.59 756.147C1743.38 757.093 1738.65 757.483 1733.26 757.3C1731.85 757.249 1730.36 757.229 1729.08 757.34C1717.05 758.328 1704.34 758.362 1692.12 759.098C1680.35 759.804 1668.83 760.778 1657.22 761.647C1651.76 762.055 1646.99 762.835 1642.28 763.695C1639.05 764.284 1635.62 764.485 1631.7 764.434C1626.55 764.36 1621.45 764.513 1616.32 764.552C1614 764.569 1611.67 764.585 1609.35 764.558C1607.47 764.534 1605.53 764.342 1603.7 764.399C1594.41 764.725 1584.99 764.205 1575.66 764.16C1572.32 764.141 1569.14 764.038 1565.86 763.808C1563.09 763.618 1560.2 763.458 1557.44 763.481C1552.71 763.513 1548.16 763.315 1543.45 762.888C1539.82 762.566 1535.95 762.426 1532.28 762.439C1524.32 762.466 1516.46 762.675 1508.43 762.353C1506.59 762.286 1504.63 762.272 1502.83 762.375C1498.19 762.633 1493.53 762.476 1488.83 762.284C1483.62 762.074 1478.46 762.112 1473.58 762.597C1469.17 763.031 1464.61 763.192 1459.92 763.225C1457.6 763.242 1455.12 763.264 1453.03 763.491C1444.68 764.4 1435.46 764.022 1426.9 764.564C1425.14 764.68 1423.17 764.531 1421.32 764.509C1418.49 764.474 1415.6 764.326 1412.9 764.452C1406.43 764.757 1399.93 764.78 1393.34 764.654C1391.92 764.626 1390.5 764.641 1389.12 764.67C1387.74 764.687 1386.22 764.655 1384.97 764.8C1375.06 765.966 1363.74 765.547 1353.84 766.713C1341.99 768.111 1329.49 768.131 1316.65 767.377C1311.06 767.052 1305.41 766.87 1299.82 766.579C1293.75 766.271 1287.67 765.772 1281.59 765.62C1274.02 765.426 1266.6 764.956 1258.72 764.303C1250.66 761.772 1240.78 759.87 1230.29 758.271C1226.83 757.744 1223.45 757.107 1220.41 756.359C1217.23 755.584 1213.72 755.155 1210.1 754.744C1209.21 754.645 1208.27 754.544 1207.34 754.499C1183.49 753.393 1183.54 753.328 1170.58 751.987C1165.63 751.473 1160.4 751.183 1155.26 750.976C1138.39 750.289 1121.57 749.368 1104.71 748.525C1098.68 748.218 1092.77 747.48 1086.81 746.906C1085.98 746.82 1085.14 746.588 1084.55 746.365C1082.53 745.609 1080.02 745.261 1077.05 745.255C1076.14 745.256 1075.13 745.219 1074.27 745.121C1068.57 744.457 1063.52 743.2 1057.18 743.072C1051.09 742.954 1044.98 742.755 1038.91 742.503C1036.88 742.43 1035.09 742.488 1033.64 742.816C1030.73 743.462 1026.33 743.27 1024.03 744.251C1019.1 744.521 1014.3 744.93 1009.12 744.755C1004.89 744.613 1000.34 744.046 996.578 744.571C992.85 745.086 988.224 744.595 984.877 745.583C983.487 745.992 980.489 745.85 978.29 746.018C974.884 746.264 971.822 746.064 969.002 745.312C966.961 744.757 964.47 744.623 962.368 744.895C957.687 745.498 952.222 745.022 947.642 745.696C937.318 745.47 926.987 745.298 916.671 745.005C912.436 744.886 908.302 744.827 904.055 744.809C896.29 744.764 889.478 745.571 882.672 746.333C876.528 747.019 870.478 747.528 863.793 747.242C861.66 747.154 860.188 747.314 858.875 747.681C857.224 748.147 856.018 748.843 853.478 748.83C849.738 748.818 848.998 750.203 845.471 750.244C842.671 750.278 839.676 750.113 837.108 750.323C827.245 751.143 816.781 750.878 806.77 751.413C804.101 751.563 801.199 751.526 798.413 751.437C792.66 751.263 787.153 751.468 781.898 751.995C777.489 752.441 773.062 752.718 768.334 752.782C765.571 752.817 762.619 752.913 760.219 753.263C751.096 754.591 740.277 754.548 731.363 755.963C725.703 756.867 720.048 757.727 713.847 758.276C711.242 758.507 708.692 758.897 706.53 759.379C694.902 761.961 680.882 762.922 667.402 764.239C666.117 764.361 664.656 764.431 663.283 764.382C658.473 764.208 654.03 764.306 649.946 765.088C648.498 765.36 646.429 765.364 644.607 765.422C640.925 765.547 637.012 765.462 633.526 765.762C626.776 766.358 619.71 766.227 612.817 766.493C605.959 766.75 599.539 767.639 592.302 767.4C591.398 767.368 590.445 767.445 589.564 767.525C579.505 768.473 568.852 768.895 558.861 769.879C548.318 770.932 537.599 771.609 526.391 771.799C523.155 771.85 519.905 771.991 516.825 772.238C508.687 772.908 500.398 772.989 491.866 772.346C490.462 772.239 489.055 772.156 487.64 772.149C471.409 772.135 456.082 770.249 440.525 768.804C438.728 768.638 437.06 768.287 435.391 767.97C424.197 765.842 412.841 763.841 400.546 762.446C396.137 761.951 392.331 760.941 387.409 760.797C385.708 760.747 383.946 760.28 382.389 759.922C379.665 759.286 376.87 758.659 374.45 757.911C371.258 756.934 367.863 756.128 363.745 755.621C361.776 755.382 361.039 754.841 360.196 754.284C359.621 753.916 358.402 753.469 357.288 753.361C353.117 752.998 349.55 752.444 346.059 751.546C342.601 750.66 337.889 750.568 333.945 751.087C330.037 751.596 326.007 751.573 321.852 751.703C312.598 751.974 303.267 751.627 294.003 751.662C288.735 751.685 283.704 751.223 279.368 750.093C275.527 749.092 271.188 748.589 266.359 748.28C258.608 747.777 258.268 747.574 253.299 745.01C249.148 744.479 244.793 743.807 240.302 743.388C230.171 742.44 229.518 742.428 224.929 740.661C223.571 740.142 222.384 739.729 220.42 739.748C215.402 739.802 211.416 738.785 207.014 738.224C205.404 738.02 204.201 737.417 202.945 736.979C201.583 736.505 199.886 736.096 198.025 736.175C190.144 736.506 182.185 735.604 174.284 735.789C169.732 735.894 165.025 735.456 160.404 734.908C148.973 733.567 137.142 733.185 125.543 733.629C116.387 733.982 107.128 734.286 98.3135 735.145C92.0331 735.758 85.3898 735.104 78.9422 734.961C71.9148 734.808 64.8809 734.398 57.8366 734.077C55.8862 733.984 54.0713 733.963 52.6444 734.371C50.5423 734.967 47.9452 735.131 45.1012 735.23C33.108 735.627 20.8518 735.465 8.80168 735.725C7.89127 735.748 6.91063 735.746 6.00924 735.691C-2.54364 735.226 -10.7704 735.4 -19.0721 735.907C-23.4605 736.175 -28.4972 736.071 -33.0358 735.751C-41.9687 735.115 -50.691 734.857 -59.7072 734.946C-66.6518 735.021 -73.8106 734.74 -80.771 734.321C-87.3339 733.917 -93.8367 733.615 -100.424 733.422C-105.563 733.27 -110.688 732.683 -115.828 732.542C-122.416 732.36 -128.92 732.07 -135.478 731.621C-139.622 731.348 -144.003 731.224 -148.119 731.333C-160.395 731.663 -172.459 730.769 -184.582 730.086C-186.422 729.986 -188.29 729.795 -190.079 729.562C-197.233 728.621 -204.445 727.857 -212.08 727.627C-214.395 727.555 -216.684 727.237 -218.984 727.042C-221.753 726.808 -224.546 726.449 -227.299 726.384C-237.183 726.128 -246.97 725.339 -256.776 725.03C-267.667 724.694 -278.306 724.041 -288.694 722.793C-290.484 722.572 -292.31 722.338 -294.15 722.238C-300.683 721.891 -306.99 721.149 -313.395 720.638C-317.102 720.347 -320.838 719.999 -324.529 719.889C-328.799 719.757 -332.913 719.519 -337.038 719.068C-340.157 718.732 -343.482 718.589 -346.764 718.393C-349.65 718.221 -351.929 717.826 -354.175 717.141C-358.312 715.86 -363.171 714.868 -368.692 714.243C-373.317 713.729 -377.409 712.987 -380.456 711.69C-381.287 711.336 -382.479 710.969 -383.735 710.834C-388.251 710.324 -390.285 709.052 -392.924 708.005C-395.596 706.934 -397.712 705.76 -397.111 704.326C-396.851 703.641 -397.817 702.879 -398.096 702.152C-398.598 700.835 -399.137 699.527 -397.292 698.317C-396.899 698.063 -396.319 697.748 -396.545 697.505C-398.559 695.439 -393.312 694.037 -392.847 692.206C-390.041 691.165 -391.584 690.057 -393.2 688.957C-393.401 688.827 -393.458 688.681 -393.424 688.691C-392.125 687.82 -390.804 687.083 -389.915 686.298C-389.306 685.738 -388.595 685.237 -386.893 684.974C-385.527 684.765 -384.724 684.414 -384.963 683.969C-385.678 682.61 -384.806 681.353 -383.29 680.165C-381.253 678.559 -380.297 676.891 -380.203 675.125C-380.137 674.545 -379.89 673.972 -379.498 673.415C-378.198 671.581 -376.543 669.814 -371.874 668.684C-370.536 667.153 -373.561 665.678 -372.052 664.254C-371.602 663.811 -372.908 663.159 -373.351 662.595C-373.666 662.18 -374.475 661.636 -373.972 661.352C-371.639 660.025 -372.956 658.532 -372.648 657.121C-372.301 655.364 -370.589 653.757 -368.879 652.15C-367.616 650.953 -365.386 649.868 -363.619 648.723C-362.442 647.948 -361.159 647.221 -358.605 646.798C-354.386 646.11 -352.593 644.741 -349.712 643.681C-348.917 643.396 -348.639 642.891 -348.699 642.475C-348.771 641.823 -347.893 641.451 -346.326 641.093C-343.792 640.523 -341.184 639.946 -339.103 639.226C-337.363 638.616 -336.148 637.843 -335.043 637.076C-334.53 636.736 -334.397 636.203 -336.032 635.909C-338.274 635.515 -339.998 635.027 -339.393 634.176C-337.972 632.234 -336.942 630.233 -334.838 628.371C-333.705 627.359 -330.71 626.582 -328.233 625.574C-331.039 622.819 -326.226 620.742 -321.7 618.643C-321.239 618.424 -320.312 618.267 -319.502 618.173C-317.075 617.902 -315.952 617.316 -315.829 616.559C-315.534 614.945 -313.014 613.558 -312.185 612.031C-311.351 610.46 -310.555 608.921 -308.504 607.494C-307.888 604.045 -302.664 601.254 -296.87 598.562C-294.837 597.606 -293.842 596.544 -292.844 595.438C-289.974 592.271 -288.328 589.016 -287.799 585.687C-287.628 584.528 -287.317 583.386 -285.744 582.334C-284.205 581.27 -283.959 580.102 -285.023 578.933C-286.249 577.589 -285.703 576.31 -285.013 575.047C-283.915 573.071 -282.454 571.119 -281.103 569.163C-280.927 568.89 -280.675 568.596 -280.212 568.366C-278.753 567.669 -276.616 567.074 -275.837 566.308C-275.219 565.669 -275.568 564.929 -274.331 564.29C-273.212 563.715 -272.038 562.973 -272.29 562.325C-272.813 560.873 -272.326 559.468 -272.054 558.056C-272.022 557.777 -271.837 557.436 -272.246 557.197C-275.963 555.115 -274.984 552.9 -275.788 550.743C-276.256 549.45 -277.84 548.07 -275.527 546.899C-273.292 545.782 -275.522 544.335 -272.813 543.201C-271.059 542.469 -270.673 541.341 -270.452 540.363C-270.301 539.686 -271.707 538.952 -271.952 538.237C-272.169 537.603 -273.091 537.099 -274.385 536.66C-276.167 536.058 -276.602 535.427 -276.477 534.647C-275.929 531.465 -275.959 528.261 -273.824 525.169C-273.345 524.47 -273.331 523.73 -273.249 523.017C-273.041 521.21 -271.075 519.59 -267.301 518.359C-261.906 516.605 -258.571 514.452 -254.812 512.382C-253.258 511.508 -251.778 510.643 -249.239 510.029C-245.876 509.21 -244.749 507.94 -243.057 506.803C-242.547 506.463 -242.778 505.962 -243.022 505.55C-243.353 504.956 -243.687 504.395 -242.468 503.901C-241.934 503.674 -241.041 503.483 -240.902 503.23C-240.082 501.782 -237.089 500.702 -235.237 499.437C-233.621 498.341 -234.144 496.9 -232.7 495.698C-231.417 494.647 -230.059 493.587 -228.349 492.607C-226.831 491.733 -225.248 490.905 -225.162 489.844C-225.059 488.325 -220.39 487.507 -219.785 486.04C-219.637 485.698 -218.178 485.336 -217 485.188C-213.312 484.694 -211.545 483.862 -210.965 482.606C-210.392 481.418 -206.281 479.472 -203.527 478.888C-202.114 478.592 -201.963 478.227 -202.532 477.814C-203.267 477.262 -204.299 476.755 -205.319 476.158C-204.271 474.599 -203.427 473.012 -202.381 471.442C-205.278 471.388 -208.183 471.305 -211.103 471.173C-214.321 471.035 -217.74 471.055 -220.854 471.235C-226.386 471.558 -232.023 471.315 -237.625 471.332C-240.824 471.34 -243.009 470.842 -244.447 469.929C-245.082 469.532 -245.603 469.095 -246.502 468.754C-246.95 468.578 -248.242 468.465 -248.943 468.536C-250.194 468.65 -251.354 468.892 -252.441 469.126C-253.975 469.452 -255.566 469.653 -257.554 469.567C-261.312 469.406 -265.034 469.245 -268.797 469.128C-270.716 469.068 -272.52 468.968 -274.139 468.585C-277.801 467.721 -282.02 467.484 -286.232 467.19C-290.408 466.899 -294.742 466.7 -298.667 466.173C-306.271 465.162 -313.438 465.471 -320.657 465.889C-323.331 466.043 -325.89 466.415 -328.621 466.454C-335.614 466.557 -342.539 466.696 -349.256 467.181C-354.358 467.544 -358.758 466.772 -362.02 465.634C-365.557 464.406 -368.71 463.003 -370.491 461.425C-371.66 460.399 -371.776 459.397 -369.765 458.52C-367.949 457.724 -366.025 456.954 -364.349 456.13C-363.687 455.8 -363.224 455.349 -363.354 454.962C-363.691 453.984 -361.966 453.329 -360.598 452.626C-356.337 450.444 -353.831 448.086 -352.995 445.443C-351.794 441.718 -350.087 438.025 -348.561 434.325C-347.137 430.845 -348.584 427.341 -351.853 423.883C-353.881 421.722 -355.036 419.542 -356.153 417.354C-356.755 416.173 -356.595 415.014 -355.285 413.938C-352.904 411.956 -350.523 409.974 -351.014 407.733C-348.568 405.003 -346.05 402.276 -343.71 399.529C-342.413 398.027 -340.933 396.511 -340.427 394.952C-339.109 390.649 -337.502 386.357 -337.772 381.975C-337.952 379.322 -336.845 376.813 -332.393 374.572C-328.879 372.796 -326.584 369.319 -325.609 365.92C-324.682 362.609 -323.863 359.303 -323.043 355.987C-322.566 354.103 -321.486 352.311 -319.536 350.546C-317.79 348.951 -317.402 347.185 -315.799 345.573C-314.196 343.961 -311.34 342.492 -309.881 340.862C-308.422 339.233 -307.461 337.536 -305.643 335.934C-304.607 335.014 -304.463 333.966 -304.182 332.97C-303.329 329.946 -302.516 326.932 -301.845 323.901C-301.456 322.125 -300.367 320.547 -295.909 319.326C-295.399 319.186 -294.906 319.035 -294.429 318.876C-295.876 318.754 -297.297 318.611 -298.667 318.427C-306.271 317.416 -313.438 317.724 -320.657 318.143C-323.331 318.297 -325.89 318.669 -328.621 318.708C-335.614 318.811 -342.539 318.95 -349.256 319.435C-354.358 319.798 -358.758 319.025 -362.02 317.888C-365.557 316.659 -368.71 315.257 -370.491 313.679C-371.66 312.653 -371.776 311.651 -369.765 310.773C-367.949 309.977 -366.025 309.208 -364.349 308.384C-363.687 308.054 -363.224 307.602 -363.354 307.216C-363.691 306.238 -361.966 305.583 -360.598 304.88C-356.337 302.698 -353.831 300.34 -352.995 297.697C-351.794 293.972 -350.087 290.279 -348.561 286.579C-347.137 283.098 -348.584 279.595 -351.853 276.137C-353.881 273.976 -355.036 271.796 -356.153 269.607C-356.755 268.427 -356.595 267.268 -355.285 266.192C-352.904 264.21 -350.523 262.228 -351.014 259.987C-348.568 257.257 -346.05 254.529 -343.71 251.783C-342.413 250.281 -340.933 248.765 -340.427 247.206C-339.109 242.903 -337.502 238.611 -337.772 234.229C-337.952 231.576 -336.845 229.067 -332.393 226.826C-328.879 225.049 -326.584 221.573 -325.609 218.174C-324.682 214.862 -323.863 211.557 -323.043 208.241C-322.566 206.357 -321.486 204.565 -319.536 202.8C-317.79 201.205 -317.402 199.439 -315.799 197.827C-314.196 196.215 -311.34 194.746 -309.881 193.116C-308.422 191.487 -307.461 189.79 -305.643 188.188C-304.607 187.268 -304.463 186.22 -304.182 185.224C-303.329 182.2 -302.516 179.186 -301.845 176.155C-301.456 174.379 -300.367 172.801 -295.909 171.58C-293.304 170.863 -291.135 169.892 -289.653 168.891C-286.73 166.932 -281.885 165.525 -277.212 164.045C-275.045 163.354 -272.242 162.813 -270.536 162.023C-268.167 160.926 -265.265 160.176 -261.313 159.719C-257.917 159.327 -254.721 158.814 -252.975 157.746C-241.091 154.85 -233.571 150.903 -226.963 146.727C-225.173 145.593 -223.098 144.516 -221.166 143.411C-220.297 142.922 -218.744 142.461 -218.71 141.947C-218.507 139.95 -214.892 138.491 -212.237 136.891C-205.418 132.757 -200.778 128.361 -197.383 123.755C-193.093 117.921 -189.055 112.075 -186.166 106.113C-185.406 104.554 -184.071 103.042 -182.701 101.543C-182.233 101.036 -181.111 100.535 -179.828 100.198C-177.151 99.4952 -176.653 98.5305 -176.695 97.5088C-176.738 96.4982 -177.253 95.4781 -177.585 94.4551C-177.792 93.8522 -177.285 93.336 -176.415 92.8242C-175.624 92.354 -174.932 91.8121 -174.712 91.2725C-173.674 89.0082 -171.167 86.8965 -169.056 84.7568C-168.546 84.2184 -167.211 83.7599 -166.955 83.2217C-164.625 78.693 -160.572 74.3281 -159.642 69.6719C-158.061 61.8715 -155.76 54.1133 -153.747 46.3428C-153.216 44.3259 -152.796 42.315 -151.111 40.3701C-150.163 39.29 -150.179 38.0895 -149.805 36.9512C-147.854 31.2179 -145.978 25.4923 -143.919 19.7637C-143.678 19.068 -143.307 18.2208 -141.903 17.7881C-138.902 16.8413 -138.429 15.5171 -136.75 14.4014C-133.672 12.3705 -130.81 10.3297 -124.457 9.06737C-121.319 8.44021 -119.973 7.377 -118.414 6.34569C-116.971 5.3656 -114.041 4.94306 -110.502 5.10644C-106.275 5.28827 -102.098 5.57917 -97.9269 5.90429C-87.8931 6.68333 -78.252 6.62754 -69.0226 5.58983C-68.1735 5.49194 -67.2253 5.46549 -66.3746 5.35644C-54.9459 3.92015 -42.9506 3.12487 -30.1566 3.12597C-25.5404 3.12277 -20.7191 2.94853 -16.6498 2.4287C-11.9883 1.8334 -6.33657 2.50291 -2.20118 1.5039C2.42597 1.42271 7.06006 1.29636 11.7157 1.27245C13.6065 1.26426 15.0377 1.69558 16.5377 2.15233C19.8523 3.15788 20.656 3.12542 23.7193 2.51757C27.9056 1.67766 29.5809 1.66054 33.5145 2.65917C35.4104 3.14419 37.0039 3.71684 39.619 3.72851C42.4165 3.73675 45.4158 3.86535 47.4679 3.21386C49.8606 2.46493 52.7638 2.24209 56.2119 2.27831C60.4229 2.31372 64.6169 2.21451 68.8203 2.30565C86.3247 2.67746 103.297 2.16311 119.8 0.832999C123.843 0.502585 127.898 0.352468 132.219 0.650382C134.56 0.807103 136.915 0.862969 139.253 1.04198C149.255 1.78601 158.701 1.55327 168.346 0.925772Z" fill="black"/>
</g>
</g>
<defs>
<clipPath id="clip0_5952_8579">
<rect width="3000" height="773" fill="white"/>
</clipPath>
</defs>
</svg>
