<svg xmlns="http://www.w3.org/2000/svg" width="1437" height="87" viewBox="0 0 1437 87" fill="none">
  <path d="M730.836 18.7539C731.351 18.8109 731.45 19.1146 731.377 19.4258C731.285 19.8372 731.055 20.3461 731.326 20.6543C731.597 20.9737 732.369 21.2044 732.97 21.2969C734.928 21.6005 736.986 22.1409 738.864 21.9844C740.915 21.8095 742.654 23.0914 744.695 22.3574C745.024 22.2427 746 22.5897 746.375 22.8779C747.295 23.5928 748.251 24.1412 749.767 24.0654C750.197 24.0421 750.714 24.0213 751.074 24.1416C752.479 24.5997 753.778 25.2893 755.237 25.5811C756.92 25.9116 758.727 25.877 759.969 26.957C760.224 27.1866 761.24 27.1657 761.826 27.0791C762.723 26.9551 763.587 26.7971 764.355 27.2178C765.637 27.9075 767.062 28.1757 768.696 28.248C772.034 28.4055 775.387 28.6089 778.705 28.9336C783.364 29.3907 788.023 29.8136 792.701 30.1035C795.573 30.2723 798.425 30.6649 801.278 30.9785C801.485 30.9946 801.707 31.1007 801.826 31.2041C802.481 31.7968 803.339 31.9576 804.34 31.9775H806.613C808.452 31.9903 810.297 32.0364 812.143 32.0635C813.072 32.0855 813.935 31.9385 814.612 31.541C815.706 30.8853 816.759 30.6196 817.882 31.5625C820.753 31.8319 823.605 32.2574 826.503 31.8232C827.797 31.6304 829.123 31.5616 830.45 31.459C831.105 31.4075 831.912 31.5496 832.414 31.3604C833.989 30.7608 835.829 30.8491 837.503 30.5312C838.107 30.4115 838.851 30.1826 839.113 29.8535C840.532 28.0876 843.731 28.3535 845.827 27.375C846.053 27.2689 846.687 27.4291 847.047 27.5605C847.629 27.7645 848.207 28.3038 848.689 28.2705C850.568 28.1363 851.934 28.9175 853.547 29.3135C854.209 28.7592 854.87 28.2042 855.515 27.6719C856.014 27.6502 856.463 27.5612 856.875 27.6045C860.485 27.992 863.965 27.7836 867.334 26.9023C870.444 26.082 873.786 25.916 877.11 25.749C878.661 25.6629 880.26 25.745 881.761 25.5459C883.968 25.263 886.156 25.1479 888.409 25.2461C889.992 25.3172 891.544 25.1751 892.81 24.501C894.024 23.848 895.434 23.9484 896.563 24.4111C899.799 25.7398 903.326 25.8683 906.904 25.998C909.365 26.0788 911.807 26.2374 914.267 26.374C918.068 26.5761 921.855 26.6325 925.646 26.376C928.505 26.1868 931.364 26.1199 933.365 24.5244C933.574 24.3507 934.178 24.2765 934.538 24.3408C935.809 24.561 937.192 24.1689 938.388 24.8232C938.866 25.0916 939.586 25.2535 940.223 25.291C943.559 25.5044 946.897 25.6736 950.234 25.8311C952.918 25.9618 955.375 25.025 958.108 25.291C958.383 25.3087 958.784 24.9614 959.011 24.7432C959.255 24.5142 959.312 24.1908 959.556 23.9619C960.044 23.5264 961.318 23.5454 961.827 24.0381C962.32 24.5192 962.657 25.0196 963.652 25.2109C967.773 25.9906 972.062 25.8131 976.22 26.3701C976.804 26.4511 977.497 26.1769 978.118 26.0352C978.999 25.8325 979.757 25.7941 980.473 26.3477C981.069 26.8088 981.962 26.9536 982.891 26.998C986.245 27.156 989.582 27.3576 992.937 27.4932C996.997 27.6567 1000.93 28.119 1004.74 29.126C1007.67 29.8998 1010.66 30.5072 1013.88 30.416C1015.21 30.3693 1016.65 30.4485 1017.87 30.7568C1022.71 31.9671 1027.74 32.7243 1032.61 33.8125C1035.15 34.387 1037.6 35.1379 1040.3 35.3809C1041.39 35.4848 1042.45 35.823 1043.5 36.0938C1045.59 36.6352 1047.73 37.055 1049.99 37.2314C1053.15 37.4855 1056.1 38.2266 1058.75 39.4072C1065.27 42.3229 1072.66 43.4815 1080.2 44.2979C1083.11 44.6127 1085.92 45.0596 1088.69 45.6953C1089.96 45.9825 1091.26 46.2487 1092.57 46.3691C1094.8 46.5787 1096.99 46.8536 1099.11 47.3848C1100.37 47.6939 1101.72 47.7823 1103.05 47.959C1105.02 48.2294 1107 48.4995 1108.97 48.7588C1110.74 48.9908 1112.48 49.3007 1114.25 49.4434C1118.22 49.7612 1122.14 50.5468 1126.22 50.085C1127.46 49.9358 1128.89 50.2273 1130.19 50.4482C1131.96 50.7473 1133.72 50.8777 1135.51 50.6855C1138.68 50.3362 1141.72 51.1801 1144.81 51.3096C1147.91 51.439 1151.03 50.9319 1154.14 51.5869C1155.89 51.9526 1157.66 51.9721 1159.46 51.8135C1160.33 51.7338 1161.28 51.645 1162.12 51.7656C1167.23 52.4903 1172.3 52.7227 1177.36 51.915C1179.69 52.4397 1181.75 51.7953 1183.8 51.3076C1185.48 50.9115 1187.12 50.47 1188.71 49.9824C1190.37 49.4854 1192.08 49.3132 1193.9 49.3789C1195.9 49.4375 1197.91 49.4738 1199.84 49.5195C1200.52 48.9879 1201.06 48.5319 1201.66 48.1328C1201.92 47.9602 1202.37 47.9034 1202.74 47.7891C1205.19 49.6914 1205.37 49.1818 1207.14 47.8604C1207.44 47.6438 1207.66 47.3919 1207.96 47.1865C1208.72 46.657 1209.98 46.8099 1210.48 47.6602C1210.91 48.3631 1211.54 48.6237 1212.45 48.5225C1215.5 48.2037 1218.47 47.5816 1221.69 47.9932C1223.39 48.2124 1224.63 47.6049 1225.42 46.6064C1225.9 46.0029 1226.24 45.1389 1227.68 45.3408C1228.81 45.5018 1229.75 44.6976 1230.87 45.2158C1232.22 45.8402 1233.59 46.2526 1235.13 45.5518C1236.16 45.8109 1237.15 46.2591 1238.18 46.2949C1239.71 46.3536 1241.28 46.1673 1242.82 46.0137C1250.37 45.2876 1257.94 45.4116 1265.5 46.2842C1266.83 46.4386 1268.18 46.6049 1269.42 46.9248C1275.56 48.5125 1281.99 49.1128 1288.42 49.7461C1290.39 49.9495 1292.43 49.897 1294.42 50.0449C1295.28 50.0989 1296.42 50.1819 1296.89 50.5508C1298.24 51.5664 1299.92 51.7518 1301.73 51.8506C1304.84 52.0139 1307.97 52.1778 1311.1 52.2969C1318.33 52.5803 1325.29 53.695 1331.94 55.5967C1335.28 56.5479 1338.58 57.4423 1342.26 57.4404C1343.14 57.4389 1344.08 57.5287 1344.89 57.749C1348.3 58.6907 1351.9 58.7537 1355.46 58.9277C1368.41 59.5819 1381.37 60.2362 1394.32 60.8232C1396.54 60.9318 1398.67 60.8704 1400.64 61.8447C1401.5 62.2562 1402.73 62.4646 1403.82 62.5127C1407.41 62.6875 1410.88 63.3177 1414.38 63.8145C1417.2 64.2055 1419.76 64.4675 1420.78 62.1221C1420.97 61.6461 1422.56 61.505 1423.12 61.7979C1424.35 62.4306 1425.57 63.0967 1426.81 63.7188C1428.3 64.4693 1429.75 64.5033 1430.91 63.5811C1432.57 62.279 1434.23 61.7929 1436.45 63.0752C1436.63 63.0731 1436.82 63.0789 1437 63.0898V87H0V34.001C0.766111 34.07 1.57699 34.0312 2.42188 33.8467C5.58157 33.1505 8.85753 32.7925 12.167 32.4688C13.4596 32.3429 14.6534 31.8907 15.9131 31.6523C19.3131 31.0066 22.6947 30.4726 26.3506 31.2412C28.2385 31.6437 30.3033 31.7042 32.2979 31.8633C34.3097 32.0228 36.3226 32.1266 38.1025 32.873C38.8897 33.2046 39.7499 33.2468 40.6621 33.2461C42.4524 33.2439 44.225 33.2866 46.0146 33.3291C46.9611 33.3516 47.7051 33.1009 48.416 32.7266C48.9189 32.4591 49.4566 32.1811 50.0439 32.0273C50.3723 31.9347 50.9903 32.0053 51.2119 32.167C51.6551 32.4793 51.9252 32.8989 52.2471 33.2754C52.9753 34.1422 54.0365 34.5702 55.5527 34.4609C58.2063 34.2669 60.8909 34.33 63.4971 33.833C64.9641 33.5549 66.5847 33.4255 68.1162 33.4619C73.2783 33.6068 78.3114 33.123 83.3945 32.752C87.1164 32.4827 90.9397 32.3615 94.5547 33.5986C96.1651 34.151 98.0065 34.2169 99.8145 34.1816C103.637 34.1271 107.404 34.317 111.075 35.209C112.31 35.5066 113.704 35.5513 115.028 35.6387C117.488 35.7977 119.857 36.2342 122.244 36.6709C124.819 37.1456 127.556 37.1651 130.185 37.5293C131.696 37.744 133.188 38.1713 134.576 38.6514C136.444 39.2881 138.42 39.5253 140.415 39.6621C142.41 39.7877 144.424 39.7569 146.438 39.8047C148.967 39.8648 151.331 39.4741 153.409 38.5957C156.214 37.4105 159.169 36.5528 162.481 36.0391C164.81 35.6696 167.008 34.9052 168.863 33.9209C171.256 32.6589 173.547 31.294 175.667 29.8467C177.144 28.8311 178.229 27.5598 180.728 27.3955C181.313 27.3647 182.042 27.0357 182.339 26.6963C183.476 25.4046 185.562 25.1639 187.424 24.9287C189.631 24.6458 191.703 24.2248 193.759 23.6924C194.657 23.4568 195.549 23.6572 196.267 24.043C197.326 24.6047 198.247 25.2528 198.613 26.1445C199.08 27.2732 199.477 28.4006 199.943 29.5293C200.593 31.0983 202.934 32.3833 205.257 32.4385C206.375 32.465 207.513 32.3468 208.613 32.4512C210.831 32.6603 213.007 32.209 215.256 32.6201C217.763 33.0821 219.502 34.274 221.538 35.1719C225.08 36.7314 228.831 38.0953 231.78 40.1885C232.241 40.5123 232.805 40.7831 233.387 40.998C236.127 42.002 238.902 42.9955 241.678 43.9668C242.055 44.0985 242.537 44.0658 242.966 44.1318C246.144 44.5874 246.3 44.5464 247.525 45.5703C249.84 47.5141 252.766 48.7796 256.425 49.3359C257.284 49.4681 258.141 49.6899 258.981 49.8887C263.666 50.9612 268.387 51.8661 273.323 52.1846C277.193 52.4329 280.866 53.191 284.03 54.6855C286.664 55.9329 289.651 56.5633 292.461 57.4795C294.757 58.227 297.199 58.4522 299.66 58.4883C301.45 58.5196 303.225 58.3611 304.999 58.2803C308.771 58.1016 312.546 57.7778 316.333 57.7783C321.704 57.7829 327.052 58.1779 332.253 59.2627C338.775 60.6359 345.471 60.672 352.165 60.8086C354.548 60.2616 357.037 60.7901 359.466 60.6689C361.895 60.5478 364.37 60.7968 366.83 60.9111C371.303 61.118 375.759 61.3352 380.231 61.542C381.332 61.5905 382.485 61.6631 383.57 61.5771C384.415 61.5189 385.296 61.3047 385.988 60.9971C387.062 60.5196 387.932 59.8476 389.006 59.3701C389.525 59.1366 390.333 59.189 390.827 59.5918C391.236 59.9256 391.575 60.3022 391.779 60.4971L391.812 60.5547C395.891 60.6068 399.306 60.1281 402.438 58.9395C403.442 58.561 404.357 58.3818 405.45 58.9775C405.895 59.2116 406.739 59.1981 407.394 59.1689C413.405 58.9093 419.432 58.7394 425.394 58.2998C428.099 58.0958 431.231 58.2154 433.098 56.4043C433.412 56.11 434.257 55.9626 434.877 55.9326C437.219 55.8429 439.004 55.0352 440.822 54.2178C443.334 53.0926 445.914 52.014 448.866 51.3799C450.152 50.5275 451.999 51.3421 453.297 50.8701C455.719 49.9888 458.352 50.0182 461.005 49.9023C463.21 49.8094 465.401 49.481 467.54 49.1406C473.803 48.1381 480.064 47.2473 486.604 47.3467C489.357 47.3897 491.927 47.037 493.993 45.7783C494.653 45.3806 495.48 45.2553 496.427 45.2666C500.988 45.2967 505.15 44.3218 509.245 43.2119C512.908 42.2147 516.471 41.0251 520.252 40.2207C524.43 39.3363 528.811 38.7922 533.106 38.1006C538.613 38.2313 543.554 36.9515 548.491 35.9287C549.436 34.8223 550.259 33.8019 551.185 32.8291C551.516 32.4794 552.089 32.2249 552.574 31.957C552.696 31.8818 552.988 31.8444 553.143 31.8926C553.314 31.9414 553.45 32.1012 553.552 32.2266C554.313 33.1388 553.059 34.2606 554.509 35.2227C555.267 35.1848 556.179 35.2061 557.007 35.0693C561.302 34.3889 565.632 33.7429 569.878 32.916C573.485 32.2193 576.993 31.3185 580.499 30.4629C581.311 30.2586 581.937 29.8151 582.715 29.543C583.061 29.4283 583.716 29.3326 583.921 29.4492C585.697 30.4526 587.361 29.6313 588.966 29.3564C589.69 29.2395 590.438 28.7096 590.789 28.2373C591.262 27.6115 591.239 26.8174 591.661 26.168C591.995 25.6618 592.655 25.2521 593.194 24.8066C593.577 24.4805 594.507 24.4471 594.934 24.7588C595.206 24.9553 595.46 25.2854 595.389 25.4961C595.138 26.183 594.733 26.844 594.45 27.4072C595.164 28.0948 596.074 28.1949 596.92 28.0361C600.51 27.339 604.184 26.7897 607.607 25.7197C610.961 24.6816 614.367 23.589 618.359 23.7061C619.151 23.7249 620.102 23.4341 620.727 23.0801C623.017 21.782 625.674 21.286 628.703 21.3467C630.699 21.3829 632.715 21.3194 634.712 21.2998C636.261 21.2807 637.844 21.3851 639.378 21.2539C640.429 21.1559 641.415 20.7654 642.262 20.5508C643.134 20.9738 643.815 21.5263 644.588 21.623C649.881 22.2629 655.193 22.8251 660.504 23.376C661.604 23.4915 662.742 23.3734 663.524 24.0625C667.28 25.0906 671.108 25.8744 675.203 25.9717C676.666 26.0064 677.756 25.6525 678.797 25.0625C679.074 24.9127 679.523 24.8782 679.902 24.7979C680.209 25.0063 680.551 25.1938 680.823 25.4238C681.998 26.3904 683.389 26.602 684.93 25.9346C686.004 25.4571 686.933 25.5126 687.906 26.0723C688.231 26.2588 688.677 26.359 689.088 26.4805C689.996 26.7479 690.722 26.5977 691.35 25.998C691.838 25.5402 692.258 25.0473 692.678 24.5879C693.072 24.6755 693.383 24.6822 693.484 24.7852C695.15 26.3113 697.173 26.8851 699.803 25.9639C701.204 25.4719 702.601 25.2703 704.268 25.4775C706.089 25.6996 707.783 25.2031 709.323 24.6025C710.448 24.1598 711.472 23.6033 712.597 23.1494C713.151 22.9167 713.753 22.9977 714.438 23.1816C715.193 23.3784 716.177 23.2124 716.914 23.4199C718.457 23.8477 719.478 23.4693 720.4 22.7646C720.975 22.3201 721.599 21.9324 722.63 22.0908C725.498 22.5278 727.269 21.4748 728.802 20.1924C729.185 19.855 729.329 19.3883 729.729 19.0625C729.956 18.8779 730.492 18.7122 730.836 18.7539ZM1.17383 0C1.15085 0.339165 1.11635 0.679058 1.06836 1.01953C0.718271 3.47451 0.331907 5.92913 0 8.3877V0H1.17383Z" fill="white"/>
</svg>