<svg width="1322" height="7" viewBox="0 0 1322 7" fill="none" xmlns="http://www.w3.org/2000/svg">
<path d="M1212.22 6.18167C1215.21 6.45224 1205.24 6.27488 1211.86 6.67896C1210.48 6.70626 1209.09 6.73442 1207.71 6.76172C1207.36 6.61207 1207 6.46278 1206.65 6.31313C1208.5 6.26906 1210.36 6.225 1212.22 6.18094C1212.22 6.18118 1212.22 6.18143 1212.22 6.18167ZM1214.76 4.30749C1213.06 4.73433 1207.66 4.84813 1213.49 5.24202C1213.95 5.09553 1214.43 4.94908 1214.89 4.80259C1216.92 4.9162 1218.95 5.02979 1220.98 5.14278C1221.71 5.08693 1222.43 5.03102 1223.16 4.9758C1224.09 5.23035 1225.01 5.4856 1225.94 5.74077C1225.11 5.70352 1224.28 5.66561 1223.45 5.62835C1220.2 5.83507 1217.3 5.8916 1212.88 5.93009C1213.27 5.99033 1213.66 6.05003 1214.05 6.11026C1211.81 6.00781 1209.56 5.90511 1207.33 5.80266C1209.27 5.70209 1211.44 5.59025 1213.24 5.49652C1210.36 5.09739 1205.29 5.31953 1202.65 5.40278C1199.05 5.51641 1199.86 5.32662 1197.2 5.40607C1196.77 5.41849 1196.72 5.56725 1195.88 5.56976C1191.63 5.58156 1183.38 5.50271 1188.2 5.1556C1195.2 5.20031 1201.16 4.92157 1208.02 5.0234C1206.21 4.62204 1209.82 4.48546 1214.76 4.30749ZM1086.28 5.58551C1088.4 5.39057 1092.71 5.46924 1095.64 5.60455C1095.64 5.60455 1095.65 5.60455 1095.65 5.60455C1096.29 5.63436 1097.75 5.89341 1095.65 5.88286C1092.22 5.86477 1090.57 5.45698 1088.77 5.73382C1087.97 5.68228 1087.12 5.63642 1086.28 5.58551ZM1078.84 5.60968C1076.73 5.50971 1077.69 5.20243 1080.32 5.2856C1080.32 5.28535 1080.32 5.28511 1080.32 5.28486C1081.42 5.31964 1079.26 5.56251 1083.2 5.31599C1084 5.50778 1084.79 5.68226 1085.59 5.86784C1084.62 5.87095 1083.74 5.87598 1082.73 5.87846C1083.41 5.56322 1080.94 5.70886 1078.84 5.60968ZM1184.65 5.32917C1184.32 5.61277 1185.71 5.61098 1188.06 5.80779C1185.84 5.79847 1183.61 5.78854 1181.4 5.77922C1182.49 5.62902 1183.57 5.47938 1184.65 5.32917ZM1236.89 5.37312C1236.9 5.37312 1236.9 5.37312 1236.9 5.37312C1237.63 5.32841 1238.36 5.28354 1239.08 5.23946C1239.52 5.34067 1239.95 5.44145 1240.38 5.54266C1242.96 5.44766 1245.55 5.35266 1248.12 5.25703C1247.81 5.56621 1243.19 5.5159 1240.64 5.73198C1236.86 5.63884 1235.03 5.45937 1234.79 5.19734C1235.49 5.25569 1236.18 5.31477 1236.89 5.37312ZM617.843 4.14051C616.982 4.22618 616.132 4.31191 615.271 4.39758C616.416 4.43668 617.551 4.46652 618.705 4.51183C621.724 4.13931 622.007 4.46883 625.962 4.44592C638.085 4.37513 634.868 3.79654 645.817 4.64403C637.027 4.60371 640.405 5.00193 635.105 5.30867C634.007 5.07519 639.259 4.54861 635.7 4.43932C629.569 4.68642 623.673 4.91656 616.87 5.07613C617.068 5.11649 617.266 5.15699 617.465 5.19734C618.544 5.17188 619.613 5.14627 620.692 5.12081C619.528 5.22886 618.39 5.33597 617.207 5.44526C618.702 5.20001 614.892 5.33704 615.402 5.05526C615.629 4.92983 617.313 4.75581 618.307 4.63597C615.743 4.57078 613.113 4.51107 610.52 4.44775C611.864 4.34781 613.206 4.24777 614.54 4.14783C615.637 4.14473 616.726 4.14251 617.823 4.13941C617.83 4.13978 617.836 4.14014 617.843 4.14051ZM65.9548 5.44452C69.2103 5.15267 75.1261 5.10438 78.2396 5.42914C74.1419 5.43411 70.0525 5.43956 65.9548 5.44452ZM1234.54 4.98129C1234.91 5.0309 1235.26 5.07998 1235.63 5.1296C1234.01 5.22148 1232.37 5.31273 1230.74 5.40461C1230.43 5.26123 1230.11 5.11782 1229.79 4.97506C1231.37 4.97693 1232.96 4.97943 1234.54 4.98129ZM1130.42 5.14095C1131.61 5.13227 1131.72 5.13697 1133.2 5.15743C1133.2 5.15731 1133.2 5.15718 1133.19 5.15706C1133.78 5.1647 1138.7 5.24845 1138.15 5.35883C1135.71 5.3607 1133.11 5.35883 1130.61 5.35883C1130.53 5.28622 1130.52 5.21418 1130.42 5.14095ZM1159.16 5.2054C1159.16 5.20564 1159.17 5.20589 1159.17 5.20613C1160.06 5.2229 1160.9 5.25704 1161.82 5.26326C1158.52 5.43699 1157.99 5.12529 1155 5.21346C1152 5.30225 1150.14 5.47423 1147.6 5.0472C1148.54 4.98325 1149.56 4.89175 1150.54 4.81724C1154.8 4.98798 1155.94 4.8273 1159.36 4.65904C1159.29 4.84157 1159.23 5.02287 1159.16 5.2054ZM671.813 5.00436C672.627 4.79326 673.534 5.0004 673.629 5.00289C673.627 5.00314 673.625 5.00338 673.624 5.00363C680.832 4.80812 672.686 5.12048 679.489 5.1534C678.477 5.20616 677.481 5.26188 676.478 5.31526C674.927 5.21345 673.327 5.09809 671.813 5.00436ZM906.026 5.02413C906.093 5.08561 906.172 5.14722 906.238 5.2087C902.15 5.19441 901.107 5.43642 897.71 5.21602C900.483 5.15145 903.254 5.08735 906.026 5.0234C906.026 5.02365 906.026 5.02389 906.026 5.02413ZM1109.81 4.69383C1114.35 4.57647 1117.7 4.52476 1122.05 4.71104C1122.06 4.71128 1122.06 4.71153 1122.06 4.71177C1122.32 4.72324 1121.1 4.85185 1121.43 4.88425C1122.33 4.86501 1123.25 4.83544 1124.16 4.81247C1124.28 4.91547 1124.4 5.01844 1124.53 5.12081C1121.97 5.09163 1119.41 5.06247 1116.85 5.03329C1117.23 5.09352 1117.62 5.15323 1117.99 5.21346C1115.82 5.2445 1113.65 5.27543 1111.47 5.30647C1112.23 5.13763 1112.99 4.96875 1113.73 4.79929C1112.43 4.76391 1111.12 4.72983 1109.81 4.69383ZM837.966 4.35144C838.685 4.4185 837.353 4.53098 838.47 4.58873C839.587 4.64575 841.646 4.5206 841.163 4.70994C839.659 4.73538 838.08 4.76455 836.549 4.79124C841.479 5.13266 846.398 4.82371 846.473 5.24531C841.742 5.13603 837.851 5.1868 833.271 5.30354C833.46 4.96888 838.041 4.67952 835.157 4.36535C836.084 4.36101 837.057 4.35466 837.956 4.35217C837.959 4.35193 837.962 4.35168 837.966 4.35144ZM1300.76 0.78472C1303.57 0.810179 1309.98 0.673599 1313.52 0.868578C1314.39 0.916629 1317.29 1.53906 1317.28 1.6211C1317.19 1.89742 1313.65 1.93503 1317.45 2.1151C1316.17 2.11697 1314.93 2.12734 1313.66 2.13231C1313.89 2.31798 1314.12 2.50315 1314.33 2.68819C1315.88 2.66025 1317.42 2.63216 1318.96 2.6036C1319.04 2.66507 1319.12 2.72669 1319.19 2.78816C1313.65 2.7894 1316.92 3.02667 1314.04 3.24773C1316.69 3.35948 1319.36 3.47069 1322 3.58243C1320.48 3.56877 1318.68 3.55866 1317.34 3.54252C1317.16 3.85731 1320.36 3.78226 1320.91 3.8406C1324.01 4.1703 1308.25 4.0039 1306.96 4.46203C1309.48 4.51293 1312.12 4.56261 1314.69 4.6129C1313.95 4.6694 1313.21 4.72594 1312.47 4.78245C1306.63 4.46647 1300.08 4.35453 1293.28 4.15772C1292.67 4.17075 1292.05 4.18413 1291.44 4.19654C1291.62 4.33868 1291.79 4.48028 1291.97 4.62242C1291.05 4.63919 1290.11 4.65582 1289.18 4.67259C1291.91 4.20444 1288.13 4.21082 1283.56 3.92519C1285.99 3.76067 1288.99 3.86041 1288.78 3.55387C1280.44 3.78972 1270.66 3.45641 1262.54 3.72269C1260.53 3.78849 1260.53 4.18394 1255.8 4.14747C1255.96 4.104 1255.98 4.02553 1256.09 3.9684C1247.89 4.15779 1242.92 4.27101 1234.4 4.07789C1234.89 4.22002 1235.38 4.36274 1235.87 4.50487C1237.68 4.43408 1239.49 4.36217 1241.29 4.29138C1242.52 4.52608 1240.7 4.62966 1246.09 4.62718C1250.51 4.62532 1247.88 4.52169 1249.08 4.45214C1250.71 4.3572 1252.14 4.54397 1253.89 4.43786C1255.24 4.35651 1253.78 4.16286 1257.31 4.21192C1255.89 4.46278 1254.44 4.72183 1253.01 4.9758C1252.15 4.91929 1251.3 4.86191 1250.43 4.80478C1251.31 4.73772 1252.16 4.67154 1253.03 4.60448C1249.97 4.72493 1247.07 4.83855 1243.9 4.96335C1244.93 4.60071 1241.65 4.73667 1239.87 4.77952C1237.1 4.84651 1239.48 4.59693 1237.66 4.63853C1235.84 4.68078 1233.88 4.9596 1230.6 4.89999C1232.36 4.73857 1229.97 4.59382 1230.43 4.44482C1230.89 4.29582 1234.37 4.26283 1231.03 4.10023C1224.61 4.2238 1231.58 4.79122 1227.24 4.88315C1222.04 4.99367 1220.8 4.06873 1222.35 3.86989C1223.57 3.71341 1227.77 3.74488 1229 3.58902C1221.48 3.30775 1221.41 3.86303 1220.13 3.9717C1215.45 4.36721 1218.59 3.31156 1213.06 3.69339C1213.16 3.49598 1213.24 3.31842 1213.35 3.12909C1212.39 3.1651 1211.76 3.21296 1210.6 3.24151C1214.01 3.62615 1211.22 3.60966 1209.79 3.61026C1207.54 3.61151 1211.02 3.79912 1210.42 3.84756C1208.81 3.97717 1206.27 3.91831 1207.83 4.08778C1207.13 4.00892 1206.37 3.92983 1205.65 3.85158C1203.02 3.94985 1196.84 4.7738 1202.72 4.60741C1202.17 4.91354 1200.27 4.7664 1198.78 4.71983C1197.3 4.6733 1197.33 4.86826 1196.02 4.83225C1190.83 4.68818 1194.22 4.35469 1195.05 4.09327C1188.19 4.27334 1194.9 4.39247 1185.02 4.51293C1184.06 4.72591 1188.63 4.95318 1184.82 5.07613C1184.12 4.70612 1181.32 4.44032 1175.86 4.31738C1175.33 4.40245 1174.8 4.48828 1174.27 4.57335C1171.29 4.23183 1172.82 3.87669 1167.3 4.30017C1170.26 3.52089 1168.23 4.01944 1163.29 3.70218C1162.28 3.63822 1164.6 3.47654 1163.2 3.39458C1162.56 3.35761 1161.02 3.47965 1159.47 3.38542C1158.72 3.33885 1155.18 3.03838 1152.73 3.18109C1154.52 3.55863 1149.87 3.8798 1153.86 4.19214C1146.48 4.11515 1141.31 4.29641 1149.58 3.78164C1147.71 3.66739 1145.84 3.55362 1143.96 3.43998C1142.66 3.53002 1141.34 3.61935 1140.02 3.70877C1139.82 3.39848 1140.02 3.31143 1134.88 3.36601C1137.11 3.29278 1139.33 3.21832 1141.58 3.14447C1141.65 3.08181 1141.96 3.01668 1141.89 2.95588C1139.14 3.07505 1131.41 3.12635 1129.54 3.20892C1127.66 3.2915 1131.28 3.31411 1130.74 3.39421C1126.25 4.05475 1126.61 3.56758 1123.38 3.68094C1121.49 3.748 1126.01 3.82082 1124.99 3.84939C1121.24 3.95408 1119.5 3.60302 1116.17 3.59855C1117.35 3.79781 1118.52 4.00017 1119.68 4.2013C1116.19 4.19074 1112.29 4.18897 1109.05 4.25293C1107.77 4.2779 1108.74 4.4261 1108.53 4.43603C1107.5 4.48695 1103.3 4.5676 1102.85 4.56822C1099.5 4.56941 1099.41 4.36414 1096.15 4.3529C1097.43 4.33552 1098.63 4.31986 1099.88 4.3031C1100.45 3.97031 1101.03 3.63754 1101.59 3.30413C1098.41 3.27991 1095.22 3.2562 1092.02 3.23199C1094.36 3.34312 1096.7 3.45372 1099.04 3.56486C1095.39 3.83372 1091.73 4.10319 1088.08 4.37268C1086.18 4.20751 1084.28 4.04238 1082.38 3.87722C1077.22 3.92079 1078.26 4.59125 1075.8 4.00392C1074.28 4.05357 1072.76 4.1032 1071.24 4.15223C1071.45 4.06843 1071.67 3.98446 1071.89 3.90065C1070.05 3.95219 1068.22 4.00339 1066.38 4.05555C1068.31 4.35233 1070.2 4.66464 1072.11 4.95273C1068.5 5.01722 1068.43 4.76545 1067.89 4.70262C1066.46 4.5362 1063.63 4.76067 1062.49 4.60667C1062.11 4.55381 1065.65 4.38806 1064.43 4.1969C1064.19 4.15985 1059.45 3.45717 1056.42 3.61942C1056.48 3.74671 1056.71 3.9028 1056.84 4.04127C1052.77 4.11859 1050.7 3.45412 1051.24 3.26787C1049.07 3.39826 1045.9 3.40916 1045.46 3.61283C1044.35 3.61779 1043.25 3.62251 1042.14 3.62747C1043.3 3.13145 1038.68 3.22215 1038.38 3.64871C1040.28 3.65927 1042.18 3.67038 1044.08 3.68094C1042.65 4.20377 1048.43 4.51936 1036.4 4.03505C1034.1 3.76307 1040.49 4.0721 1038.61 3.86843C1035.36 3.74988 1032.3 3.84907 1029.21 3.6597C1025.36 3.42313 1030.09 3.1956 1021.12 3.49674C1040.91 4.25119 1018.41 4.0064 1009.12 4.24048C1006.56 3.49533 998.712 3.25932 987.905 3.481C989.031 3.68838 992.431 3.58154 994.39 3.64981C996.349 3.71811 994.23 3.84114 996.67 3.93801C999.11 4.03484 1004.29 4.1665 1006.77 4.31299C1004.67 4.43036 994.343 4.70786 1001.17 4.37451C996.074 4.16902 993.68 3.95785 987.36 3.91933C985.468 4.24283 985.607 4.44427 979.448 4.45361C983.091 4.00407 976.091 3.69164 977.632 3.22723C982.001 3.33539 979.559 3.78678 982.085 4.00282C982.344 4.02442 986.414 3.91126 987.36 3.91933C983.253 3.51385 981.833 3.36292 984.36 2.88044C981.454 2.92267 979.647 2.86209 979.382 3.09247C978.777 2.99253 978.168 2.8925 977.572 2.79256C976.626 2.79504 975.775 2.8043 974.773 2.80244C976.153 3.14995 973.478 2.93602 971.576 3.09357C969.673 3.25129 972.225 3.52561 967.001 3.52934C968.743 3.61068 970.335 3.68047 972.019 3.75747C968.651 3.84688 965.272 3.93685 961.903 4.02626C964.269 4.23859 969.396 4.55398 969.256 4.83335C967.704 4.72788 962.389 4.91324 961.807 4.92087C959.555 4.94943 960.782 4.77324 960.612 4.7689C957.073 4.68328 954.159 4.74327 952.816 4.47631C950.156 4.59676 948.151 4.52809 945.332 4.5349C943.78 4.53863 944.081 4.73471 943.173 4.69749C937.136 4.44913 942.888 4.19574 931.242 4.67808C932.651 4.81467 934.042 4.95441 935.452 5.09225C934.137 5.14378 932.829 5.19561 931.514 5.24715C930.634 5.22231 929.762 5.19728 928.881 5.17244C928.9 4.87628 928.923 4.57949 928.942 4.28333C927.977 4.26718 927.008 4.2515 926.042 4.23535C927.698 4.20617 929.358 4.17702 931.015 4.14783C931.166 4.09572 931.307 4.04358 931.458 3.99147C928.998 3.91075 926.546 3.8293 924.085 3.74795C924.038 3.85098 923.992 3.95473 923.944 4.05775C918.399 3.91431 918.267 3.8271 912.996 4.11085C908.936 4.10774 905.63 4.53851 903.283 4.71983C902.441 4.66209 901.598 4.60362 900.746 4.54589C900.207 4.63158 899.662 4.7169 899.122 4.80259C898.053 4.68338 896.969 4.56414 895.9 4.44555C895.304 4.71614 894.996 4.80062 899.168 4.8956C897.739 5.23214 890.393 5.08368 887.402 4.97067C885.134 4.88491 887.651 4.6042 887.367 4.57006C886.42 4.45405 882.681 4.55415 881.896 4.5349C878.574 4.45481 876.247 4.46883 873.247 4.40673C872.663 4.39431 871.03 4.2164 870.892 4.21082C869.813 4.18039 867.15 4.09392 866.847 4.09144C851.226 3.95864 867.917 4.73048 853.392 4.64915C853.827 4.75094 854.228 4.85204 854.653 4.95382C853.556 4.96003 852.447 4.96593 851.35 4.97213C849.959 4.88707 851.642 4.73236 848.879 4.85715C849.059 4.73172 849.239 4.60624 849.429 4.48144C848.227 4.54912 847.068 4.61626 845.838 4.68394C843.908 4.24867 836.86 4.14982 837.361 3.63883C837.531 3.46496 842.528 3.28656 839.887 3.10089C837.742 3.06434 839.194 3.27199 838.319 3.28289C831.997 3.35864 832.364 3.06758 829.781 3.1452C829.374 3.26994 828.946 3.39713 828.53 3.52311C827.556 3.48649 826.579 3.44987 825.595 3.41325C825.368 3.49708 825.131 3.581 824.904 3.66483C825.822 3.67041 826.856 3.67608 827.698 3.68167C826.524 4.00635 815.738 4.1522 819.851 3.87539C821.526 3.76301 824.594 3.81075 822.655 3.42717C819.769 3.48243 816.494 3.53889 813.457 3.59415C813.362 3.51156 813.274 3.42883 813.179 3.34624C809.086 3.3997 812.809 3.7299 812.801 3.90688C811.865 3.91184 810.919 3.9162 809.982 3.92116C809.585 3.84114 809.208 3.75738 808.792 3.67984C808.754 3.80719 808.229 4.10318 805.438 3.9933C803.644 3.92178 806.47 3.6005 803.048 3.64505C803.304 3.84372 804.54 4.08568 800.728 4.14967C800.35 3.94232 799.826 3.75237 799.533 3.53446C794.793 3.73366 792.636 3.41346 787.072 3.64505C783.542 3.7916 778.706 4.31182 776.426 3.51029C773.844 3.48919 774.663 3.6888 773.899 3.73367C770.294 3.94604 767.612 3.56597 766.94 3.54362C762.655 3.40032 760.734 3.53188 757.242 3.35246C757.431 3.50087 757.534 3.64135 757.686 3.78604C760.885 3.56373 762.505 3.57417 766.99 3.62198C765.486 3.65178 763.981 3.68227 762.477 3.71207C762.723 3.8325 762.966 3.95295 763.203 4.07277C777.077 3.59836 773.84 4.3479 762.209 4.51183C761.206 4.28895 760.167 4.06666 759.174 3.84316C752.455 4.18095 749.293 3.88771 741.694 3.81753C740.791 3.8095 737.501 3.93789 736.087 3.94423C736.11 3.94509 736.134 3.94594 736.157 3.94679C735.278 4.15727 736.469 4.25413 736.611 4.44225C735.845 4.46584 735.078 4.48934 734.312 4.51293C732.6 4.36953 733.202 4.25174 729.833 4.28589C730.288 4.42869 730.736 4.57153 731.19 4.71433C727.499 4.7193 725.084 4.56415 721.648 4.63121C722.226 4.57719 722.796 4.52301 723.373 4.46899C715.897 4.33113 721.847 3.49154 716.197 3.90944C715.838 3.8362 715.487 3.76224 715.128 3.689C717.456 3.67099 719.784 3.65354 722.102 3.63553C722.149 3.53187 722.201 3.42866 722.239 3.325C719.75 3.35605 717.249 3.38806 714.76 3.41911C716.577 3.34956 718.404 3.27993 720.221 3.21038C717.335 3.16071 714.448 3.11101 711.562 3.06134C714.627 3.44252 710.654 3.48913 711.401 3.8666C706.291 3.5524 702.277 3.13822 694.356 3.40336C692.785 3.45618 693.638 3.71997 689.182 3.39897C690.26 3.81868 684.677 4.01563 685.394 4.41479C686.946 4.39555 688.555 4.38344 690.059 4.35986C688.346 4.2214 688.062 3.84049 690.664 3.72745C693.986 3.58339 698.83 3.84738 698.632 3.4246C699.957 3.44447 701.188 3.45619 702.475 3.47294C701.945 3.57782 701.427 3.68336 700.906 3.78823C704.567 3.62381 706.868 3.67728 708.627 3.94167C704.265 4.00251 699.913 4.06271 695.551 4.12293C696.194 4.14091 696.845 4.15904 697.487 4.1764C694.185 4.44651 697.591 4.70236 691.431 4.76011C691.469 4.63657 691.499 4.51295 691.537 4.38879C689.294 4.71914 683.153 4.71735 685.112 5.09737C683.257 4.98064 682.879 4.90682 681.829 5.11165C676.936 4.82291 673.794 4.45778 675.535 4.02186C673.719 4.09202 671.901 4.16227 670.094 4.23243C671.144 4.35162 672.195 4.47027 673.246 4.58946C670.085 4.58201 666.901 4.57469 663.75 4.56786C663.447 4.21521 669.833 4.46087 667.991 4.14564C667.622 4.08236 665.921 4.2179 665.474 4.18226C660.762 3.79668 668.16 4.07525 666.77 3.77981C659.748 3.68853 665.367 3.19349 655.696 3.60953C655.44 3.50772 655.166 3.40385 654.929 3.30266C651.572 3.29655 651.844 3.52652 648.958 3.56998C647.151 3.59702 644.883 3.19319 642.887 3.46818C642.531 3.51888 645.888 4.01246 638.832 3.99074C633.355 3.9739 635.635 3.6251 632.674 3.5015C629.712 3.37793 622.936 3.86159 620.939 3.31328C622.491 3.3859 624.467 3.42508 626.189 3.48466C626.889 3.37787 627.571 3.27224 628.262 3.16607C624.325 3.30392 620.256 3.14145 617.606 3.39604C612.354 3.0067 606.479 3.36801 608.07 3.80764C609.798 3.74426 607.918 3.55255 610.319 3.67471C610.565 3.77717 610.824 3.87913 611.07 3.98158C606.982 3.96916 604.143 3.97204 606.007 3.6597C605.373 3.65225 604.745 3.64481 604.111 3.63736C603.997 3.86339 603.896 4.09026 603.783 4.31628C603.026 4.34174 602.266 4.36699 601.509 4.39245C600.667 4.3428 599.823 4.29258 598.972 4.24231C600.117 3.88464 602.067 3.87283 595.613 3.67288C595.594 3.79645 595.567 3.91953 595.548 4.0431C590.144 3.88601 590.002 3.58667 583.218 3.59781C588.422 3.16879 591.27 3.92929 591.251 3.06866C592.557 3.12517 593.874 3.18244 595.18 3.23894C595.378 3.11413 595.575 2.98914 595.765 2.86433C588.753 2.93016 577.105 3.75099 572.41 3.20672C571.843 3.27314 571.273 3.33088 570.696 3.40227C566.096 3.07378 564.11 3.81125 559.445 3.38652C558.963 3.34195 559.971 2.64908 553.897 2.67391C554.049 2.76396 554.127 2.91552 554.25 3.02912C552.935 2.97387 551.627 2.91606 550.322 2.85957C550.085 2.94274 549.837 3.02588 549.601 3.10968C551.844 3.14197 554.08 3.1748 556.323 3.20709C554.46 3.23564 552.584 3.26422 550.72 3.29277C553.152 3.42871 554.248 3.43016 552.783 3.64798C550.673 3.66102 548.559 3.67486 546.449 3.6879C546.232 3.74371 546.016 3.80017 545.798 3.85598C546.82 4.02238 547.853 4.18512 548.875 4.354C543.376 4.21802 538.596 4.21063 534.376 3.88344C533.657 3.82818 536.2 3.61139 531.3 3.80691C531.224 3.69209 531.092 3.59886 531.007 3.49272C525.007 3.81437 523.036 3.71836 516.781 3.48612C520.831 3.70284 517.217 3.56189 516.186 3.67801C515.479 3.75801 518.238 3.74619 517.925 3.82998C517.613 3.91318 514.029 4.24914 517.093 4.28955C524.608 3.60091 526.654 4.42424 536.307 4.09327C534.822 4.18207 533.325 4.27106 531.839 4.35986C532.539 4.42004 533.165 4.47465 533.922 4.53856C528.538 4.40384 531.156 4.49136 528.945 4.59752C526.73 4.7037 522.705 4.79391 520.008 4.82309C519.159 4.83226 520.055 4.67781 518.137 4.66343C516.831 4.6535 513.263 4.88247 512.439 4.61253C511.899 4.43682 517.633 3.95296 509.705 3.95412C508.213 3.78185 512.014 3.83536 512.096 3.8146C512.787 3.60968 507.913 3.45561 505.661 3.61209C505.478 3.62559 507.257 3.78527 505.323 3.84792C500.733 3.99757 498.082 3.81445 495.111 3.56669C494.789 3.85729 490.927 4.20436 486.119 4.09693C485.873 4.1801 485.639 4.26399 485.393 4.34778C486.139 4.30376 486.886 4.26033 487.632 4.21631C488.446 4.26847 489.308 4.30644 490.103 4.36792C485.268 4.43938 484.585 4.83988 482.266 4.98642C474.333 5.48698 479.141 4.42812 480.572 4.24561C481.603 4.3195 482.601 4.40199 483.623 4.47961C483.509 4.37839 483.394 4.2764 483.29 4.17457C471.414 4.17766 481.481 3.51754 475.453 3.32939C473.901 3.82737 469.474 3.87536 463.834 3.55936C463.21 3.56185 462.583 3.56248 461.958 3.56559C461.854 3.6382 461.856 3.74918 461.686 3.79702C454.891 3.88147 453.68 3.11458 453.037 3.04193C450.179 2.71971 447.954 3.16555 447.111 3.16937C443.563 3.18489 442.531 2.98693 439.153 3.07196C435.52 3.16384 438.005 3.31574 436.899 3.4517C436.013 3.55968 433.146 3.57891 431.962 3.69083C432.433 3.59929 432.956 3.50953 433.425 3.41765C429.659 3.29286 426.582 3.17123 422.305 3.1408C417.479 3.81057 413.373 2.68076 415.038 3.59708C419.088 3.6598 421.353 3.76422 423.52 3.9977C420.861 4.02749 418.201 4.05652 415.542 4.08631C414.766 3.98575 414.216 3.88774 413.298 3.7853C411.311 3.99887 406.705 3.90722 404.896 3.96987C396.426 4.26357 399.047 4.62785 391.315 4.01564C396.888 3.95599 396.879 3.65864 402.405 3.69961C401.213 3.48725 398.404 3.53125 400.221 3.27666C394.875 3.33937 396.603 3.56667 394.523 3.76846C392.728 3.94242 389.114 3.95216 389.318 4.17823C388.949 4.05393 388.663 3.93361 388.295 3.80947C384.832 3.81071 381.369 3.81079 377.906 3.81204C379.382 3.68228 380.858 3.55228 382.334 3.42314C381.218 3.37413 380.101 3.32531 378.985 3.2763C370.468 3.67991 355.781 2.94019 358.127 3.95412C354.021 3.98641 353.507 3.85924 351.274 3.66739C351.028 3.74436 350.789 3.80839 350.543 3.89406C347.893 3.81348 345.86 4.10248 343.523 4.02736C341.186 3.95281 340.606 3.67984 340.265 4.13868C338.751 4.00706 337.246 3.89773 335.741 3.77542C334.833 3.87966 333.927 3.98269 333.028 4.08631C331.609 4.03168 330.186 3.97726 328.767 3.92263C328.008 4.14166 322.427 4.04724 319.967 4.19434C317.631 3.95824 317.695 3.21486 312.201 3.34807C312.342 3.53244 312.482 3.71628 312.624 3.90065C311.366 3.86216 310.105 3.82379 308.837 3.7853C308.761 3.72513 308.696 3.66495 308.62 3.60477C309.263 3.62339 309.898 3.64192 310.541 3.66116C309.983 3.55933 309.436 3.45796 308.887 3.35613C306.966 3.50699 305.043 3.65787 303.113 3.80874C305.715 3.92297 308.318 4.03727 310.92 4.1515C307.655 4.28686 305.382 4.15184 302.543 4.30273C300.074 4.04819 300.985 3.90151 301.988 3.62528C301.071 3.64886 300.142 3.67163 299.225 3.69522C299.83 3.41895 298.278 3.25433 303.642 3.27666C303.274 3.19786 302.897 3.12273 302.538 3.04083C301.658 3.05325 301.087 2.98664 300.122 3.01703C297.492 3.10024 295.475 3.5855 295.654 3.75564C295.751 3.84477 298.345 3.67432 298.241 3.80032C297.985 4.10756 292.034 3.96962 300.617 4.2782C297.768 4.4738 297.132 4.32629 293.99 4.26978C294.236 4.37216 294.475 4.4739 294.711 4.57628C293.255 4.52911 291.796 4.4821 290.339 4.43493C292.364 3.90901 281.623 3.71147 291.292 3.25139C288.435 3.2278 285.587 3.20409 282.739 3.17926C283.326 3.12524 283.913 3.07178 284.499 3.01776C285.786 3.04632 287.065 3.07442 288.352 3.10235C286.838 3.00365 285.322 2.90554 283.808 2.80684C280.231 2.92917 278.829 3.1173 277.192 3.34953C281.355 3.519 279.995 3.28751 283.238 3.24151C283.125 3.38858 283.275 3.52386 282.991 3.67838C281.315 3.37374 275.847 3.59536 274.58 3.61026C270.721 3.65551 273.747 3.3562 271.165 3.3499C268.582 3.34369 265.535 3.52185 263.424 3.22503C263.462 3.39139 263.631 3.56352 263.782 3.715C259.76 3.76964 260.563 3.5731 260.146 3.54764C253.503 3.12914 249.898 3.48246 242.299 3.52531C243.264 3.57684 244.239 3.62336 245.214 3.67178C239.481 4.02501 243.343 3.91685 248.321 4.03358C243.655 3.99819 240.983 4.29901 237.69 4.38842C234.397 4.47769 228.75 4.32319 226.686 4.20276C231.408 4.00903 236.502 4.13679 241.744 4.08338C241.148 3.91391 240.569 3.77048 239.954 3.58426C236.765 3.93996 234.918 3.70213 233.867 3.65494C230.783 3.51653 230.88 3.82183 229.016 3.49345C229.091 3.60642 229.147 3.7014 229.223 3.80691C222.854 3.75972 215.984 3.56001 211.839 3.97719C211.461 3.70586 211.175 3.44445 210.74 3.16754C208.043 3.37178 205.734 3.16263 203.463 3.21038C201.201 3.25819 202.062 3.47747 199.403 3.56193C198.911 3.57745 197.886 3.4402 196.675 3.54142C195.452 3.64317 190.941 4.39972 190.401 3.7388C188.121 3.73569 185.963 3.71152 183.73 3.70035C185.906 3.66309 188.083 3.62701 190.25 3.58976C188.396 3.42957 186.552 3.26986 184.698 3.10968C184.461 3.2525 184.224 3.3979 183.997 3.53886C179 3.71272 175.374 3.47921 170.33 3.53446C169.488 3.54378 171.475 3.82614 167.738 3.75418C164 3.68215 161.226 3.15513 154.858 3.35869C154.536 3.36925 152.651 3.77288 150.37 3.49345C149.851 3.43012 152.035 3.33641 150.844 3.25323C149.652 3.17002 144.331 3.1016 143.915 2.90351C143.972 2.97366 144.304 3.04634 144.465 3.11773C143.556 3.15126 142.639 3.1848 141.721 3.21771C141.636 3.09415 141.544 2.97042 141.459 2.84748C136.235 3.13497 133.536 3.60395 125.795 3.44877C127.972 3.62821 130.149 3.80837 132.316 3.98781C132.912 3.86175 133.509 3.73485 134.096 3.6088C137.663 3.65909 141.24 3.70902 144.807 3.7593C145.394 3.61586 145.971 3.47283 146.557 3.32939C147.504 3.34802 148.44 3.36607 149.387 3.38469C149.15 3.48838 148.911 3.59153 148.665 3.69522C150.539 3.66977 152.414 3.64377 154.278 3.61832C150.484 4.2304 143.681 3.56626 144.172 4.07826C143.33 3.99882 142.487 3.91883 141.646 3.83877C141.276 4.08703 139.564 4.01558 136.547 3.97646C137.238 4.09878 138.001 4.21945 138.635 4.34302C135.701 4.17041 130.497 4.18717 127.459 4.12074C126.125 4.09156 127.458 3.91156 127.061 3.8904C125.026 3.77987 121.137 4.09394 120.324 4.0691C115.46 3.92129 112.299 3.32586 106.99 3.71829C112.469 3.81516 109.488 3.77425 111.438 3.9922C112.048 4.06054 119.127 4.20309 110.263 4.13978C109.224 4.13186 93.1398 3.72046 98.4268 3.4052C95.8243 3.50579 93.7867 3.62211 91.4019 3.72891C85.5723 2.89807 87.5899 3.67858 89.2838 4.10829C88.328 4.11015 87.4187 4.11451 86.4345 4.11451C88.526 3.66308 77.8707 3.63505 74.2556 3.86294C73.0444 3.93869 76.4313 4.08319 73.6303 4.1515C72.2965 4.11984 70.7834 4.07885 69.374 4.04347C71.418 4.32909 67.4065 4.43916 67.4627 4.72972C64.8983 4.4708 62.9368 3.922 64.3461 3.62455C62.2266 3.74499 60.0962 3.86528 57.9767 3.98634C58.9609 4.05527 59.9579 4.12359 60.942 4.19251C54.0147 4.00995 45.1075 4.42536 43.6596 3.81497C42.7417 3.81931 41.814 3.82307 40.896 3.82742C40.6121 3.93049 40.3378 4.03377 40.0538 4.13685C35.9003 4.04745 31.7561 3.95746 27.6026 3.86806C31.301 3.80409 32.1813 3.65738 36.0598 3.77652C34.5652 3.65796 33.0428 3.53876 31.5765 3.42021C25.7376 3.73937 24.9411 3.94914 16.1499 3.85415C15.7525 3.8498 9.11005 3.58215 8.88293 3.55607C7.84237 3.43685 9.42191 3.26367 8.95858 3.20342C7.67153 3.03452 -0.149248 2.61043 0.00216951 2.54647C1.91384 1.76159 28.2271 1.75118 35.3437 1.71082C109.159 1.29232 181.348 1.85222 254.7 1.7566C255.454 1.75512 255.125 1.63925 255.446 1.63429C257.443 1.60519 259.403 1.78577 260.141 1.79322C261.718 1.80857 260.85 1.64173 262.002 1.64161C273.907 1.64347 285.142 1.74158 297.056 1.71302C297.832 1.71116 297.04 1.84464 298.403 1.82105C299.106 1.80813 301.308 1.60333 302.896 1.60023C308.442 1.58968 313.1 1.65534 318.948 1.65223C322.147 1.65038 326.945 1.66779 330.522 1.66468C332.101 1.66336 333.747 1.56967 335.308 1.56654C337.522 1.5622 337.07 1.75212 337.411 1.76392C338.906 1.81545 339.113 1.60699 340.532 1.61195C343.172 1.62189 343.315 1.76106 346.664 1.74927C349.059 1.74058 354.539 1.63069 357.557 1.5984C364.617 1.75983 373.513 1.69574 380.1 1.64234C383.998 1.61069 384.36 1.80555 385.95 1.80493C391.551 1.80116 395.802 1.55228 401.064 1.5442C408.046 1.53369 414.234 1.69826 420.999 1.71009C422.096 1.71195 421.844 1.53341 422.92 1.52882C426.904 1.51206 431.999 1.47956 435.548 1.50502C439.503 1.533 440.962 1.79216 444.832 1.73938C445.967 1.72371 446.299 1.49648 448.201 1.4673C451.238 1.42143 454.569 1.62181 456.688 1.64417C459.593 1.67398 457.067 1.44248 460.985 1.47353C461.146 1.47487 461.732 1.64035 462.573 1.63246C465.024 1.6101 464.781 1.47979 468.368 1.4922C468.712 1.49392 473.467 1.6516 473.94 1.65223C476.722 1.65471 482.324 1.70992 483.971 1.6764C489.857 1.55718 485.223 1.30828 490.229 1.84851C492.434 1.71628 494.62 1.58226 496.957 1.45375C495.397 1.5736 501.726 1.74653 502.171 1.73536C505.85 1.6453 503.659 1.4351 508.324 1.46987C502.163 1.95545 514.342 1.53245 517.058 1.52004C530.136 1.45982 542.024 1.581 555.168 1.57789C559.569 1.57662 565.465 1.47397 570.121 1.47646C571.206 1.47661 570.386 1.59152 571.341 1.59401C572.294 1.59571 571.237 1.4667 572.325 1.47353C579.091 1.51825 584.392 1.76167 590.59 1.45742C590.892 1.50141 590.883 1.53617 591.382 1.58449C596.455 1.31191 606.223 1.67847 609.895 1.72877C615.638 1.80696 617.105 1.62272 621.277 1.65992C626.794 1.7096 635.078 2.06953 631.378 1.47536C635.163 1.45674 638.807 1.4516 642.629 1.50685C643.055 1.51312 642.762 1.66414 642.932 1.66724C644.01 1.68893 644.362 1.55371 645.09 1.5475C647.066 1.5308 643.842 1.6927 646.659 1.64747C648.145 1.62325 648.988 1.50532 653.114 1.50282C677.984 1.48978 704.984 1.53202 730.479 1.55189C732.23 1.55314 731.077 1.40709 733.273 1.4164C740.9 1.44872 754.553 1.69451 761.13 1.66102C767.707 1.62749 766.223 1.41392 770.339 1.32449C771.134 1.3071 770.482 1.42882 771.201 1.43068C776.037 1.44187 781.802 1.63172 785.72 1.66029C788.311 1.67943 788.104 1.48794 789.901 1.47426C792.579 1.45439 795.335 1.64785 796.764 1.65406C803.482 1.68134 808.101 1.52552 814.375 1.60499C814.129 1.56285 813.967 1.52384 813.759 1.48232C821.187 1.48915 828.606 1.49599 836.034 1.50282C835.684 1.46433 835.346 1.4255 834.995 1.38638C843.711 1.4075 842.716 1.82477 841.95 0.943648C842.584 0.912607 843.256 0.876627 843.861 0.848072C843.615 1.30196 848.887 1.63412 855.596 1.74964C856.088 1.75833 859.39 1.31578 859.03 1.83862C859.892 1.71071 860.405 1.62254 861.133 1.51015C862.553 1.66844 863.991 1.82486 865.41 1.98254C866.176 1.95895 866.953 1.93618 867.72 1.91259C867.833 1.81014 867.746 1.70376 867.992 1.60316C871.55 1.58764 878.847 1.7143 881.658 1.7013C888.643 1.66839 895.753 1.39138 901.185 1.69068C903.831 1.66017 901.203 1.45907 905.139 1.48451C905.583 1.58633 906.002 1.68391 906.465 1.78882C909.681 1.33393 910.353 1.61065 914.761 1.7057C917.742 1.77027 919.693 1.65909 922.532 1.68079C923.251 1.68638 923.15 1.8199 923.642 1.81555C925.29 1.80178 929.992 1.61801 931.156 1.61305C941.697 1.56462 950.754 1.58524 960.794 1.63429C961.873 1.63926 960.474 1.50749 961.59 1.51308C963.387 1.52185 962.33 1.72433 963.371 1.73426C966.273 1.76083 966.296 1.54732 970.345 1.53615C983.679 1.49954 999.009 1.65992 1012.94 1.6742C1013.37 1.6742 1013.35 1.54911 1013.82 1.54787C1016.91 1.54175 1020.03 1.71085 1022.83 1.70899C1027.47 1.70651 1030.97 1.53077 1035.56 1.53139C1044.53 1.53201 1052.54 1.62199 1061.77 1.62696C1069.32 1.63131 1075.88 1.61462 1084.16 1.61525C1120.33 1.61773 1157.24 1.22066 1193.66 1.43178C1194.58 1.43737 1194.2 1.54789 1194.49 1.54311C1197.17 1.49529 1197.41 1.34617 1198.37 1.65846C1201.79 1.59691 1202.87 1.36229 1207.01 1.37905C1209.21 1.38784 1207.57 1.75148 1211.3 1.56398C1214.66 1.39447 1210.95 1.19518 1220.96 1.39883C1221.22 1.40442 1222.53 1.62608 1224.61 1.56837C1226.7 1.51125 1224.28 1.35253 1229.31 1.30471C1241.13 1.19295 1256.09 1.38455 1269.83 1.32559C1270.7 1.32186 1278.99 1.20336 1280.63 1.14872C1283.8 1.04254 1283.13 0.877821 1287.25 0.837452C1290.43 0.806404 1293.05 0.99299 1296.79 0.955732C1297.23 0.951204 1297.95 0.759279 1300.76 0.78472ZM604.121 4.51256C603.345 4.70087 601.944 5.39399 597.252 5.18306C596.807 5.16319 599.208 4.68654 596.617 4.6107C599.153 4.56041 601.623 4.54412 604.121 4.51183C604.121 4.51207 604.121 4.51232 604.121 4.51256ZM1321.1 5.2043C1317.59 5.16953 1314.07 5.13508 1310.56 5.1003C1312.98 5.01648 1315.41 4.93281 1317.82 4.84836C1318.92 4.96694 1320 5.08572 1321.1 5.2043ZM884.044 4.87509C884.047 4.87509 884.051 4.87509 884.054 4.87509C880.363 4.96451 876.67 5.0541 872.979 5.14351C873.367 5.07769 873.756 5.01159 874.144 4.94577C877.058 4.84209 879.974 4.73855 882.879 4.63487C883.267 4.71496 883.656 4.79501 884.044 4.87509ZM913.203 4.17823C915.559 4.25647 914.982 4.38842 916.279 4.51696C916.279 4.51671 916.279 4.51647 916.279 4.51622C916.621 4.54969 918.215 4.57897 918.831 4.58397C918.604 4.50138 918.31 4.41985 918.064 4.33789C923.562 4.13794 934.315 4.84846 920.394 5.13472C920.602 5.03043 920.801 4.92666 921.009 4.82236C914.091 4.85154 906.379 4.62531 913.203 4.17823ZM548.496 4.81284C542.591 5.15436 540.698 5.22637 533.534 4.99228C534.546 4.89547 535.558 4.79869 536.57 4.70188C537.752 4.80062 538.927 4.89867 540.11 4.9974C540.113 4.9974 540.116 4.9974 540.12 4.9974C540.357 4.89371 540.594 4.78983 540.821 4.68614C543.376 4.72836 545.941 4.77062 548.496 4.81284ZM1139.25 4.42504C1140.9 5.10714 1140.42 4.71066 1135.72 4.86447C1134.09 4.91788 1135.68 5.03722 1134.67 5.05709C1129.2 5.16563 1128.76 4.70863 1129.98 4.47082C1133.08 4.45467 1136.2 4.43995 1139.24 4.42504C1139.24 4.42504 1139.25 4.42504 1139.25 4.42504ZM1281.13 4.28333C1281.13 4.28333 1281.13 4.28333 1281.14 4.28333C1281.28 4.4497 1279.07 4.49445 1281.56 4.65208C1279.67 4.65146 1277.78 4.65014 1275.88 4.64952C1276.43 4.63402 1277 4.61924 1277.56 4.60374C1277.07 4.54662 1276.58 4.48876 1276.08 4.43163C1275.41 4.62287 1274.79 4.51171 1272.8 4.44775C1273.35 4.65203 1273.9 4.85647 1274.44 5.06075C1272.14 4.99991 1269.82 4.93886 1267.51 4.87802C1267.48 4.82654 1267.45 4.77497 1267.42 4.72349C1266.55 4.78929 1265.69 4.8558 1264.82 4.9216C1264.59 4.86014 1264.36 4.79923 1264.12 4.73777C1263.07 4.78433 1262.02 4.83085 1260.97 4.87802C1260.65 4.72914 1262.96 4.66479 1258.86 4.70262C1260.12 4.54988 1261.38 4.39761 1262.64 4.24488C1268.8 4.25729 1274.97 4.27029 1281.13 4.28333ZM1096.48 4.63487C1103.27 4.60631 1101.35 4.71421 1099.78 5.05196C1098.69 4.91291 1097.58 4.77392 1096.48 4.63487ZM746.909 4.33423C744.941 4.5646 742.964 4.79268 740.948 5.01498C736.936 5.14352 732.922 4.72362 735.94 4.55907C739.574 4.36163 743.37 4.5826 746.909 4.33423ZM655.519 4.43676C660.428 4.54359 655.81 4.81733 654.702 4.9769C653.344 4.72044 651.45 4.74306 648.409 4.71324C651.265 4.69661 654.707 4.41862 655.519 4.43603C655.519 4.43627 655.519 4.43652 655.519 4.43676ZM825.913 4.59313C827.88 4.58624 829.837 4.5219 831.596 4.60008C831.066 4.82037 827.547 4.61996 830.063 4.9465C828.805 4.95209 827.545 4.9575 826.296 4.96371C827.09 4.82842 826.022 4.7273 825.918 4.59386C825.917 4.59361 825.914 4.59337 825.913 4.59313ZM1030.74 4.8945C1026.88 4.6337 1026.15 4.7453 1022.26 4.92599C1021.71 4.71365 1026.35 4.35796 1029.25 4.27966C1029.74 4.48456 1030.24 4.6896 1030.74 4.8945ZM117.464 4.78574C118.391 4.51508 125.231 4.47979 128.629 4.5598C128.225 4.59994 127.819 4.64062 127.414 4.68138C124.102 4.71615 120.776 4.75097 117.464 4.78574ZM646.961 4.69493C647.47 4.70285 647.953 4.70877 648.409 4.71324C647.902 4.71618 647.413 4.71158 646.961 4.69493ZM441.388 3.52018C443.005 3.265 438.197 3.17926 444.035 3.27923C444.035 3.27898 444.035 3.27874 444.035 3.27849C447.896 3.34431 448.749 3.36189 452.326 3.38176C451.038 3.70957 443.781 3.82675 453.783 3.89443C453.915 3.89473 453.653 3.69967 455.251 3.72635C455.744 3.73464 457.323 3.89473 459.724 3.9413C460.5 3.9562 466.332 4.00558 458.383 4.00868C458.619 4.23719 458.192 4.46849 458.211 4.69017C455.108 4.75459 452.724 4.30714 449.441 4.31811C444.568 4.3355 442.087 4.78797 441.151 4.19434C445.249 4.04849 452.286 4.04499 453.203 4.40197C457.168 4.40632 458.306 4.11384 455.11 3.96913C441.416 4.15293 451.35 3.53499 439.36 3.76846C439.218 3.85102 438.725 3.93987 438.801 4.01747C435.141 3.72693 440.81 3.61145 441.388 3.52018ZM470.022 4.1515C467.656 4.32599 465.298 4.50187 462.941 4.67698C462.942 4.39259 464.241 4.13739 467.969 3.97719C468.65 4.03551 469.341 4.09379 470.022 4.1515ZM271.004 4.2262C270.663 4.38081 269.755 4.5225 269.093 4.66966C268.374 4.53926 251.339 4.41417 260.005 4.28626C261.264 4.26763 268.941 4.54102 271.004 4.2262ZM1057.55 4.6616C1055.54 4.5579 1053.54 4.45404 1051.55 4.35034C1054.62 4.28456 1057.7 4.21705 1060.77 4.15003C1059.69 4.32051 1058.63 4.49112 1057.55 4.6616ZM714.25 4.06288C715.098 4.06868 712.283 4.28132 715.622 4.24781C713.133 4.38379 710.802 4.4989 708.37 4.62681C707.641 4.52622 706.905 4.42603 706.176 4.32544C705.609 4.39002 705.03 4.45421 704.462 4.51879C704.803 4.37224 705.106 4.22912 705.465 4.08009C709.563 4.39429 710.503 4.03804 714.25 4.06288ZM836.095 3.48979C836.832 3.80827 830.898 3.99767 836.735 4.0486C835.628 4.25784 833.848 4.3676 830.432 4.38623C829.883 4.3062 829.336 4.22676 828.787 4.14674C828.712 4.36088 827.833 4.44047 825.913 4.59313C825.911 4.59288 825.91 4.59264 825.908 4.59239C820.714 4.6079 821.025 4.5365 819.776 4.18445C825.274 4.38316 825.438 4.06151 829.186 3.87026C831.76 3.73875 835.12 3.79831 836.095 3.48979ZM289.154 4.22254C285.266 4.49139 288.755 4.74215 281.857 4.45654C282.301 4.38823 282.748 4.3205 283.193 4.2522C285.18 4.24165 287.167 4.23185 289.154 4.22254ZM855.284 4.58141C854.839 4.0884 851.178 3.70463 850.553 4.5067C854.121 4.67001 852.378 4.21569 855.284 4.58141ZM657.194 3.66483C664.054 3.68783 662.757 4.24427 659.937 4.52245C659.502 4.42123 659.067 4.31984 658.641 4.21924C657.439 4.26519 656.237 4.31124 655.035 4.35656C655.754 4.12619 656.474 3.8952 657.194 3.66483ZM976.23 4.03981C970.988 4.39189 981.89 4.23562 978.227 4.45544C975.303 4.63115 971.45 4.27639 972.907 4.05409C973.92 4.04788 975.047 4.04353 976.22 4.03981C976.223 4.03981 976.227 4.03981 976.23 4.03981ZM945.891 4.14051C946.752 4.51669 945.511 4.40704 949.654 4.33935C950.836 4.3201 960.236 4.46139 956.29 4.14967C952.931 4.14967 949.383 4.14424 945.891 4.14051ZM577.892 4.21521C577.829 4.0514 585.067 3.69169 585.996 3.78164C585.996 3.7814 585.996 3.78115 585.996 3.78091C588.504 4.02618 580.869 4.06103 584.181 4.39758C576.847 4.10144 574.653 4.81775 575.164 3.87392C579.484 3.83252 577.439 4.02708 577.892 4.21521ZM27.6581 4.01454C27.6547 4.01454 27.6514 4.01454 27.648 4.01454C28.1341 4.02224 32.1392 4.26267 31.6522 4.34595C26.8358 4.27454 27.6941 4.11629 23.2102 4.37634C22.9643 4.29258 22.7537 4.21134 22.489 4.12696C24.2682 4.07729 25.2544 3.97666 27.6581 4.01454ZM252.587 3.89589C254.357 3.85305 257.586 4.03059 259.602 4.02003C253.186 4.70183 245.518 4.06605 252.587 3.89589ZM1214.77 4.30676C1214.77 4.30701 1214.76 4.30725 1214.76 4.30749C1214.76 4.30712 1214.76 4.30677 1214.76 4.3064C1214.76 4.30652 1214.77 4.30664 1214.77 4.30676ZM389.722 4.30493C389.494 4.26067 389.365 4.22223 389.318 4.18848C389.318 4.18531 389.318 4.18213 389.318 4.17896C389.442 4.2204 389.573 4.26231 389.722 4.30493ZM562.849 4.26465C559.834 4.03619 569.878 3.67297 573.126 3.75967C572.899 3.86395 572.864 3.95848 572.335 4.07826C569.713 3.80822 563.35 4.30315 562.849 4.26465ZM791.852 4.18079C783.912 4.17458 794.246 3.27252 794.671 3.9922C794.656 4.00615 792.057 4.17956 791.852 4.18079ZM625.463 4.17017C627.486 3.89706 623.421 3.82454 629.921 3.87173C630.299 3.94247 630.677 4.01338 631.056 4.08412C629.192 4.11267 627.327 4.14162 625.463 4.17017ZM739.839 2.99652C729.846 3.14865 720.288 3.41703 726.797 4.17017C727.554 4.14598 728.321 4.12259 729.077 4.0984C729.19 3.73096 731.981 3.93153 736.066 3.9435C736.649 3.79762 738.914 3.76389 739.339 3.63993C740.161 3.4003 737.558 3.23183 739.839 2.99652ZM1161.73 3.59452C1161.57 3.65723 1161.41 3.72028 1161.25 3.78237C1159.67 3.85316 1158.09 3.92361 1156.51 3.9944C1156.76 3.87404 1157.02 3.75369 1157.27 3.63333C1158.76 3.6203 1160.24 3.60719 1161.72 3.59415C1161.73 3.59427 1161.73 3.5944 1161.73 3.59452ZM479.76 3.37627C478.852 4.06658 482.025 3.93944 488.459 3.59049C485.563 3.51908 482.656 3.44767 479.76 3.37627ZM900.419 3.2763C900.627 3.47241 900.831 3.66792 901.049 3.86404C904.465 3.65974 903.831 3.43515 902.194 3.17559C901.598 3.20909 901.014 3.2428 900.419 3.2763ZM949.628 3.1928C948.211 3.15189 948.934 3.31023 948.786 3.30706C945.2 3.22385 944.694 3.15121 940.294 3.27044C939.754 3.31203 939.224 3.35577 938.685 3.3986C940.719 3.80955 942.196 3.58557 946.502 3.82705C945.726 3.68609 944.953 3.54494 944.177 3.40336C946.571 3.43316 948.954 3.46255 951.348 3.49235C951.632 3.44888 951.916 3.40582 952.2 3.36235C951.349 3.30648 950.47 3.2437 949.628 3.1928ZM1180.01 3.77285C1182.34 3.789 1184.68 3.80578 1187 3.82192C1187.09 3.72072 1187.17 3.61882 1187.26 3.51762C1184.84 3.60267 1182.42 3.6878 1180.01 3.77285ZM431.962 3.69083C431.778 3.72673 431.598 3.76285 431.438 3.79959C431.453 3.75481 431.655 3.71986 431.962 3.69083ZM21.5157 3.45939C18.8758 3.38862 15.0717 3.43509 12.176 3.42021C12.4037 3.67411 19.7634 3.60393 22.3478 3.75784C22.7631 3.71228 22.6316 3.48918 21.5157 3.45939ZM666.685 3.68716C667.347 3.56051 668.009 3.43445 668.661 3.30779C670.261 3.32145 671.864 3.33587 673.472 3.34953C673.52 3.24584 673.566 3.14124 673.614 3.03754C666.527 3.17226 668.161 2.87323 664.652 2.57833C665.334 2.94773 666.003 3.31715 666.685 3.68716ZM1254.08 3.11517C1248.96 3.18534 1247.14 3.31639 1250.03 3.62747C1251.84 3.55609 1253.66 3.48464 1255.46 3.41325C1255 3.31392 1254.53 3.2145 1254.08 3.11517ZM338.722 3.45646C334.438 3.5727 334.366 3.15521 330.179 3.38835C332.421 3.46533 334.663 3.54317 336.896 3.62015C337.499 3.56572 338.118 3.5109 338.722 3.45646ZM548.844 2.30991C547.037 2.16468 543.658 2.85506 538.577 2.34543C537.366 2.49754 536.607 2.64282 535.566 2.79182C534.96 2.62975 534.272 2.46561 533.695 2.30479C533.692 2.30479 533.688 2.30479 533.685 2.30479C529.076 2.35943 532.064 2.56269 531.96 2.7347C531.911 2.806 528.491 2.68681 529.56 2.84199C531.405 3.10838 538.301 2.9552 538.319 3.27996C535.897 3.17382 531.166 3.26251 532.565 3.47917C534.098 3.71697 538.557 3.31844 541.396 3.51579C537.327 2.99673 545.73 3.15706 546.686 3.5557C551.616 3.24958 547.085 3.1247 542.031 3.13897C545.116 2.83347 540.575 2.99853 539.827 2.74458C543.008 2.59129 553.926 2.71907 548.844 2.30991ZM781.459 2.87275C778.051 2.89245 772.727 2.71783 770.394 2.97565C769.035 3.12586 774.372 3.24218 770.692 3.47807C774.012 3.45507 774.77 3.36292 774.202 3.15618C774.959 3.13136 775.724 3.10715 776.481 3.08295C776.831 3.12328 777.19 3.16309 777.54 3.20342C777.938 3.11836 778.337 3.03398 778.725 2.94892C779.529 2.96567 780.342 2.98245 781.146 2.99982C781.241 2.95705 781.401 2.91983 781.459 2.87275ZM215.707 3.46928C216.653 3.4668 217.59 3.46433 218.536 3.46122C218.432 3.41087 218.308 3.35844 218.188 3.30669C218.103 3.2658 218.017 3.22491 217.931 3.18402C218.48 3.33011 222.987 3.57293 224.886 3.41691C225.84 3.33864 223.668 3.06077 227.715 3.01227C224.782 3.02656 222.065 3.06448 219.217 3.08807C219.473 3.00549 219.718 2.92202 219.974 2.83943C219.972 2.83931 219.97 2.83918 219.969 2.83906C219.023 2.82044 218.065 2.80092 217.119 2.7823C216.646 3.01143 216.18 3.24015 215.707 3.46928ZM897.645 2.8885C894.418 3.05057 893.338 3.13473 894.861 3.39677C894.865 3.3969 894.868 3.39702 894.871 3.39714C896.073 3.28104 897.275 3.16499 898.477 3.04889C898.202 2.99549 897.929 2.9419 897.645 2.8885ZM404.165 2.82588C397.304 3.82124 412.755 3.21107 409.813 2.87202C409.681 2.8565 404.809 2.93579 404.165 2.82588ZM655.933 3.35869C657.816 3.35062 659.703 3.34333 661.596 3.33525C661.161 3.21292 660.715 3.09102 660.28 2.96869C658.832 3.09847 657.381 3.22891 655.933 3.35869ZM1231.79 2.66329C1229.81 2.39007 1224.72 2.29108 1222.23 2.58822C1223.54 2.62299 1224.85 2.65781 1226.15 2.69258C1223.68 2.72672 1221.24 2.7643 1218.75 2.79658C1218.62 3.17723 1221.49 2.9564 1225.8 3.06134C1226.47 3.07826 1230.74 3.55075 1232.22 3.19464C1232.52 3.12144 1227.97 3.07167 1231.13 2.85884C1229.75 2.84209 1228.56 2.8458 1227.25 2.8365C1227.16 2.74584 1227.06 2.65508 1226.96 2.56442C1228.57 2.59724 1230.18 2.63046 1231.79 2.66329ZM761.619 2.90241C756.939 2.88141 756.361 3.0335 755.386 3.3023C757.563 3.27187 759.74 3.24191 761.917 3.21148C761.813 3.10867 761.723 3.00584 761.619 2.90241ZM1189.95 2.57614C1187.39 2.53217 1188.49 2.75096 1187.46 2.79256C1183.56 2.94901 1180.9 2.79264 1177.05 2.8907C1177.3 2.84847 1177.54 2.809 1177.78 2.76802C1177.78 2.76802 1177.78 2.76802 1177.77 2.76802C1159.54 2.58362 1169.12 3.07981 1180.03 2.99909C1180.28 3.08043 1180.53 3.16188 1180.79 3.24261C1185.67 3.10041 1190.17 2.96359 1189.95 2.57614ZM465.12 2.79182C464.912 2.74091 466.681 2.41733 463.36 2.56881C460.73 3.04125 465.044 2.80676 466.124 2.98847C465.225 3.0338 464.305 3.0779 463.415 3.12323C468.791 3.25673 469.575 3.1444 467.616 2.79915C467.476 2.77594 465.329 2.84258 465.12 2.79182ZM429.794 2.55892C429.055 3.25502 435.839 2.942 435.593 2.72591C434.657 2.71729 433.929 2.83515 432.935 2.78303C431.933 2.73088 431.676 2.56829 429.794 2.55892ZM624.147 2.7292C623.948 2.7261 621.951 2.43354 622.15 2.66256C624.62 3.20465 629.596 2.85572 628.726 2.66695C627.08 2.67629 625.982 2.75763 624.147 2.72847C624.147 2.72872 624.147 2.72896 624.147 2.7292ZM1262.66 2.49924C1262.57 2.47981 1257.59 2.36222 1256.95 2.4714C1256.42 2.59433 1256.15 2.72608 1255.75 2.85334C1258.5 2.73536 1264.05 2.82524 1262.65 2.49924C1262.66 2.49924 1262.66 2.49924 1262.66 2.49924Z" fill="black"/>
</svg>
