<svg xmlns="http://www.w3.org/2000/svg" version="1.1" xmlns:xlink="http://www.w3.org/1999/xlink" width="163" height="163"><svg width="163" height="163" viewBox="0 0 163 163" fill="none" xmlns="http://www.w3.org/2000/svg">
<g filter="url(#filter0_d_4043_52014)">
<path d="M102.931 151.072C106.491 149.288 127.734 136.782 135.441 130.694C151.888 113.333 150.153 60.7371 135.041 43.8204C119.929 26.9038 84.019 15.3479 61.7965 6.44575C56.8482 4.46652 18.6775 7.3333 11.1216 22.9187C5.07875 35.3798 3.42341 86.476 4.31338 113.342C3.86839 117.345 5.02535 128.297 13.2042 140.049C18.6152 147.823 61.1468 152.723 65.1516 152.856C69.1476 152.989 99.3798 152.856 102.931 151.072Z" fill="black"></path>
<path d="M107.24 146.081C110.775 144.297 131.87 131.791 139.523 125.703C155.854 108.342 154.131 55.746 139.125 38.8293C124.119 21.9126 112.551 14.546 66.3929 1.44575C61.4793 -0.533484 23.5755 2.3333 16.0725 17.9187C10.0718 30.3798 8.42806 81.476 9.31181 108.342C8.86993 112.345 10.0188 123.297 18.1404 135.049C23.5136 142.823 65.7478 147.723 69.7246 147.856C73.6926 147.989 103.713 147.856 107.24 146.072V146.081Z" fill="#CCE03D"></path>
<path d="M149.846 122.794C144.396 95.5427 117.129 62.9636 125.49 50.7897C122.623 50.914 118.478 49.6443 118.167 45.7373C134.996 30.0116 137.491 36.4492 110.738 25.8826C98.5514 22.0555 87.5717 19.8622 77.8968 19.1519C65.639 18.255 55.4759 19.7201 47.6117 23.2187C35.5403 28.5908 30.3123 37.1685 29.8063 50.914C29.2472 66.1336 36.2415 85.7486 51.8101 108.116C41.6648 117.129 19.1906 136.868 19.1906 136.868C22.9096 141.193 57.1357 148.722 71.8256 149.468C79.3525 149.85 95.4891 149.974 111.36 147.737C118.531 146.724 150.858 124.312 149.846 122.785V122.794Z" fill="#010201"></path>
<path d="M67.9024 97.0966C58.7778 94.2197 53.3723 89.4513 47.8603 79.9857C42.5524 70.8664 50.7361 62.2177 58.9553 56.6147C68.9143 49.8307 79.2549 47.7796 90.7671 52.2371C104.605 57.6004 101.303 77.7836 93.6784 87.2315C88.1132 94.1309 77.0358 99.9736 67.9113 97.0966H67.9024Z" fill="#010201"></path>
<path d="M84.829 63.2655C87.332 63.0524 90.1014 63.3099 88.5126 66.5243C87.6516 68.2647 81.2076 72.0741 79.2193 73.2639C74.7014 75.9722 64.565 81.9037 59.4346 81.1756C55.5735 80.6251 56.7274 75.5726 58.7867 73.4149C62.772 69.2415 79.0063 63.7717 84.8201 63.2744L84.829 63.2655Z" fill="#010201"></path>
<path d="M37.9635 85.0471C37.9635 85.0471 55.3339 87.1959 63.4732 92.5769C71.6215 97.9579 73.7606 97.8514 73.7606 97.8514C73.7606 97.8514 47.4875 116.099 42.4192 119.322C37.351 122.545 33.3568 125.414 33.3568 125.414L26.5222 122.474L37.9635 85.0382V85.0471Z" fill="#010201"></path>
<path d="M157.057 118.847C151.594 91.4571 130.47 59.5158 138.852 47.2801C138.852 47.2801 132.552 44.5224 130.541 43.7638C128.157 42.8624 126.261 43.3711 127.454 41.5148C129.82 37.82 141.637 34.1251 141.637 34.1251C127.658 18.8997 94.745 11.8939 85.0196 11.8939C70.0801 11.8939 62.4635 15.2584 54.58 18.7748C29.0698 30.1537 27.655 62.9071 57.3472 105.692C47.177 114.75 26.089 133.01 26.089 133.01C29.8172 137.357 64.1274 144.925 78.8534 145.674C86.3988 146.058 102.575 146.183 118.485 143.934C125.674 142.917 158.08 120.391 157.066 118.856L157.057 118.847Z" fill="#35C4D7"></path>
<path d="M87.0794 60.9497C89.4971 60.737 92.1721 60.9941 90.6374 64.2036C89.8058 65.9413 83.5813 69.7448 81.6609 70.9329C77.2969 73.637 67.5058 79.5595 62.5503 78.8325C58.8208 78.2828 59.9353 73.2381 61.9244 71.0836C65.774 66.9166 81.4551 61.4551 87.0708 60.9586L87.0794 60.9497Z" fill="#010201"></path>
<path d="M75.2162 92.1418C66.0916 89.2649 60.6861 84.4965 55.1741 75.0309C49.8662 65.9116 60.4021 55.2206 66.2692 51.6599C72.1362 48.0992 96.146 41.1377 97.9478 42.2298C113.17 51.509 108.617 72.8199 100.992 82.2767C95.427 89.1761 84.3497 95.0188 75.2251 92.1418H75.2162Z" fill="#FAA211"></path>
<path d="M94.1932 60.353C96.6963 60.1399 99.4301 61.2232 99.4301 61.2232C98.5691 62.9636 90.5718 69.1527 88.5836 70.3425C84.0657 73.0508 72.1007 78.9291 66.9704 78.2009C66.9704 78.2009 66.0916 72.6512 68.1509 70.4935C72.1362 66.3201 88.3705 60.8503 94.1844 60.353H94.1932Z" fill="#020100"></path>
<path d="M41.3294 76.8939C41.3294 76.8939 59.3684 78.9695 68.7778 85.7174C78.1872 92.4653 74.2883 92.2798 74.2883 92.2798C74.2883 92.2798 51.1461 112.789 45.289 116.843C39.432 120.888 33.9821 126.894 33.9821 126.894L26.089 123.211L41.3381 76.8939H41.3294Z" fill="#010201"></path>
</g>
<defs>
<filter id="SvgjsFilter1005" x="-2" y="0" width="165" height="165" filterUnits="userSpaceOnUse" color-interpolation-filters="sRGB">
<feFlood flood-opacity="0" result="BackgroundImageFix"></feFlood>
<feColorMatrix in="SourceAlpha" type="matrix" values="0 0 0 0 0 0 0 0 0 0 0 0 0 0 0 0 0 0 127 0" result="hardAlpha"></feColorMatrix>
<feOffset dx="-2" dy="2"></feOffset>
<feComposite in2="hardAlpha" operator="out"></feComposite>
<feColorMatrix type="matrix" values="0 0 0 0 0 0 0 0 0 0 0 0 0 0 0 0 0 0 1 0"></feColorMatrix>
<feBlend mode="normal" in2="BackgroundImageFix" result="effect1_dropShadow_4043_52014"></feBlend>
<feBlend mode="normal" in="SourceGraphic" in2="effect1_dropShadow_4043_52014" result="shape"></feBlend>
</filter>
</defs>
</svg><style>@media (prefers-color-scheme: light) { :root { filter: none; } }
@media (prefers-color-scheme: dark) { :root { filter: none; } }
</style></svg>