<svg width="406" height="16" viewBox="0 0 406 16" fill="none" xmlns="http://www.w3.org/2000/svg">
<path d="M372.29 14.068C373.207 14.7439 370.145 14.3021 372.179 15.3113C371.755 15.3797 371.328 15.4504 370.904 15.5188C370.797 15.1448 370.686 14.7716 370.579 14.3975C371.148 14.2871 371.718 14.1766 372.29 14.0661C372.29 14.0667 372.29 14.0674 372.29 14.068ZM373.065 9.38211C372.543 10.4495 370.886 10.7349 372.677 11.7186C372.819 11.3523 372.965 10.9861 373.107 10.6198C373.729 10.9035 374.355 11.1872 374.977 11.4693C375.201 11.3296 375.424 11.1897 375.647 11.0515C375.933 11.6877 376.215 12.3257 376.5 12.9635C376.247 12.8705 375.991 12.7758 375.738 12.6828C374.739 13.2001 373.849 13.342 372.492 13.4389C372.612 13.5894 372.731 13.7386 372.85 13.8891C372.161 13.6334 371.473 13.377 370.787 13.1213C371.382 12.8695 372.048 12.5896 372.6 12.3549C371.716 11.3576 370.158 11.9138 369.348 12.1223C368.243 12.407 368.493 11.9324 367.673 12.1315C367.543 12.1626 367.528 12.5345 367.269 12.5409C365.964 12.5711 363.43 12.3753 364.912 11.5068C367.059 11.6174 368.891 10.9195 370.998 11.173C370.44 10.1699 371.55 9.82785 373.065 9.38211ZM333.61 12.5984C334.261 12.1107 335.586 12.3067 336.485 12.6445C336.486 12.6445 336.487 12.6445 336.488 12.6445C336.685 12.7189 337.133 13.3663 336.488 13.3402C335.436 13.2956 334.927 12.2764 334.375 12.9688C334.128 12.8401 333.869 12.7256 333.61 12.5984ZM331.324 12.6601C330.679 12.4105 330.971 11.6422 331.779 11.8496C331.779 11.849 331.779 11.8484 331.779 11.8478C332.116 11.9345 331.455 12.5421 332.663 11.9251C332.911 12.4045 333.154 12.8405 333.398 13.3044C333.102 13.3123 332.832 13.325 332.522 13.3314C332.73 12.5432 331.969 12.9077 331.324 12.6601ZM363.821 11.9413C363.72 12.6504 364.145 12.6456 364.869 13.1373C364.186 13.1143 363.503 13.0899 362.823 13.067C363.157 12.6913 363.488 12.317 363.821 11.9413ZM379.865 12.0425C379.866 12.0425 379.867 12.0425 379.868 12.0425C380.092 11.9306 380.316 11.8183 380.537 11.708C380.671 11.961 380.803 12.2128 380.937 12.4658C381.728 12.2278 382.522 11.9899 383.313 11.7504C383.217 12.5234 381.798 12.3984 381.016 12.9391C379.854 12.7068 379.294 12.2584 379.218 11.6034C379.433 11.7492 379.647 11.8968 379.865 12.0425ZM189.747 9.06346C189.482 9.27777 189.221 9.49225 188.957 9.70655C189.309 9.80411 189.657 9.87853 190.012 9.99162C190.938 9.0598 191.026 9.88357 192.24 9.82563C195.963 9.64665 194.975 8.2007 198.338 10.3176C195.639 10.2183 196.677 11.2133 195.05 11.981C194.712 11.3975 196.324 10.0802 195.231 9.80754C193.348 10.4263 191.538 11.0026 189.449 11.4027C189.51 11.5035 189.571 11.6047 189.632 11.7056C189.963 11.6418 190.292 11.5776 190.623 11.5137C190.266 11.784 189.916 12.052 189.553 12.3254C190.012 11.7121 188.842 12.0553 188.998 11.3507C189.068 11.0371 189.585 10.6018 189.89 10.302C189.102 10.1395 188.294 9.99064 187.498 9.83276C187.911 9.58271 188.323 9.33237 188.732 9.08232C189.069 9.07438 189.403 9.06865 189.74 9.06072C189.742 9.06163 189.744 9.06255 189.747 9.06346ZM20.2577 12.4148C21.2571 11.6847 23.0738 11.563 24.0304 12.3744C22.772 12.3875 21.5161 12.4017 20.2577 12.4148ZM379.141 11.0633C379.255 11.1873 379.364 11.3099 379.478 11.4339C378.978 11.6639 378.475 11.8923 377.976 12.1223C377.88 11.7639 377.781 11.4054 377.682 11.0485C378.168 11.0529 378.656 11.0589 379.141 11.0633ZM347.166 11.4797C347.531 11.4578 347.564 11.4696 348.019 11.5204C348.019 11.5201 348.018 11.5198 348.018 11.5195C348.198 11.5385 349.709 11.7471 349.54 12.0231C348.791 12.0282 347.991 12.024 347.223 12.0244C347.2 11.8429 347.195 11.6628 347.166 11.4797ZM355.992 11.6361C355.993 11.6367 355.994 11.6373 355.995 11.6379C356.268 11.6797 356.527 11.7649 356.809 11.7803C355.795 12.2152 355.634 11.436 354.713 11.6569C353.792 11.8794 353.223 12.3096 352.441 11.2425C352.731 11.0825 353.044 10.8535 353.343 10.6671C354.651 11.0932 355.003 10.6914 356.052 10.2701C356.032 10.7265 356.012 11.1797 355.992 11.6361ZM206.323 11.2141C206.572 10.6863 206.851 11.204 206.88 11.2102C206.88 11.2108 206.879 11.2114 206.879 11.212C209.092 10.7221 206.591 11.5043 208.68 11.5855C208.369 11.7176 208.063 11.857 207.756 11.9906C207.279 11.7364 206.788 11.4482 206.323 11.2141ZM278.252 11.2248C278.272 11.3785 278.297 11.5325 278.317 11.6862C277.062 11.6512 276.742 12.2563 275.698 11.7059C276.549 11.544 277.401 11.3833 278.252 11.223C278.252 11.2236 278.252 11.2242 278.252 11.2248ZM340.837 10.3653C342.229 10.0712 343.259 9.94133 344.596 10.4063C344.597 10.4069 344.598 10.4075 344.599 10.4081C344.676 10.4368 344.303 10.7585 344.404 10.8394C344.68 10.7912 344.965 10.7171 345.243 10.6596C345.281 10.917 345.317 11.1744 345.355 11.4303C344.571 11.3578 343.785 11.2853 342.998 11.2128C343.114 11.3633 343.233 11.5125 343.35 11.663C342.681 11.741 342.016 11.8187 341.347 11.8966C341.58 11.4744 341.811 11.0521 342.041 10.6283C341.64 10.5401 341.238 10.4551 340.837 10.3653ZM257.349 9.55434C257.57 9.72188 257.161 10.0033 257.504 10.1475C257.847 10.2898 258.479 9.97664 258.331 10.4501C257.869 10.5139 257.385 10.5871 256.914 10.6541C258.429 11.5068 259.939 10.7336 259.963 11.7876C258.51 11.5152 257.315 11.6428 255.908 11.9354C255.966 11.0987 257.373 10.3745 256.486 9.58959C256.771 9.57858 257.07 9.56253 257.346 9.55617C257.347 9.55556 257.348 9.55495 257.349 9.55434ZM399.474 0.560942C400.334 0.624126 402.305 0.281611 403.393 0.768475C403.66 0.888457 404.552 2.44405 404.547 2.64917C404.522 3.33998 403.434 3.43459 404.599 3.88413C404.207 3.88901 403.827 3.91515 403.438 3.92778C403.508 4.39191 403.577 4.85479 403.644 5.31737C404.118 5.24726 404.592 5.17679 405.066 5.10513C405.089 5.2588 405.113 5.41282 405.136 5.56649C403.433 5.57052 404.439 6.16315 403.555 6.71627C404.369 6.9952 405.189 7.27278 406 7.55171C405.532 7.51781 404.98 7.49282 404.567 7.45269C404.512 8.23971 405.497 8.05155 405.666 8.1973C406.616 9.02104 401.778 8.60764 401.383 9.75318C402.156 9.88003 402.967 10.0038 403.757 10.1291C403.53 10.2705 403.301 10.4119 403.074 10.5533C401.281 9.76433 399.27 9.48557 397.18 8.99468C396.992 9.02736 396.802 9.0609 396.617 9.09203C396.672 9.44735 396.724 9.80132 396.78 10.1566C396.495 10.1987 396.207 10.2405 395.922 10.2825C396.761 9.1117 395.598 9.12828 394.194 8.41496C394.941 8.00325 395.862 8.25212 395.798 7.4858C393.235 8.0768 390.233 7.24515 387.74 7.91218C387.121 8.07704 387.124 9.06565 385.668 8.97525C385.718 8.86656 385.726 8.67037 385.758 8.52754C383.241 9.00237 381.714 9.28624 379.098 8.80485C379.25 9.16009 379.398 9.51682 379.55 9.87206C380.105 9.69479 380.661 9.51471 381.213 9.33744C381.591 9.92399 381.033 10.1832 382.689 10.1761C384.046 10.1708 383.238 9.91211 383.607 9.73805C384.107 9.50042 384.546 9.96712 385.083 9.70155C385.499 9.49796 385.049 9.01407 386.133 9.13613C385.697 9.76353 385.253 10.4114 384.815 11.0465C384.55 10.9054 384.287 10.7621 384.023 10.6194C384.29 10.4516 384.553 10.286 384.82 10.1182C383.879 10.4199 382.989 10.7044 382.016 11.0169C382.332 10.1102 381.326 10.4506 380.78 10.558C379.929 10.7259 380.658 10.1016 380.1 10.2059C379.542 10.3118 378.94 11.0092 377.932 10.8607C378.472 10.4569 377.737 10.0954 377.878 9.72283C378.021 9.35026 379.087 9.2672 378.062 8.86126C376.092 9.17124 378.231 10.5886 376.9 10.8192C375.302 11.0963 374.92 8.78419 375.397 8.28686C375.771 7.89545 377.061 7.97343 377.439 7.58358C375.128 6.88163 375.109 8.26985 374.714 8.54173C373.279 9.53129 374.242 6.89164 372.542 7.84713C372.574 7.35359 372.599 6.90969 372.631 6.43633C372.338 6.52651 372.143 6.64626 371.789 6.71783C372.834 7.67888 371.979 7.63812 371.54 7.63986C370.848 7.64334 371.917 8.1118 371.734 8.23299C371.24 8.55728 370.458 8.41057 370.938 8.83397C370.723 8.63693 370.49 8.43933 370.269 8.24385C369.461 8.48994 367.562 10.5509 369.37 10.1339C369.202 10.8993 368.617 10.5318 368.16 10.4156C367.704 10.2995 367.713 10.7869 367.312 10.6971C365.716 10.3378 366.759 9.50349 367.012 8.84982C364.905 9.30112 366.968 9.59784 363.932 9.90062C363.639 10.4332 365.042 11.0007 363.874 11.3087C363.658 10.3837 362.798 9.7197 361.121 9.41327C360.958 9.62603 360.796 9.84069 360.633 10.0535C359.717 9.20014 360.185 8.31204 358.491 9.37166C359.399 7.42297 358.775 8.66967 357.257 7.87734C356.949 7.71761 357.661 7.31304 357.23 7.10835C357.035 7.01604 356.562 7.32141 356.086 7.08608C355.853 6.96979 354.766 6.21918 354.013 6.57636C354.566 7.51991 353.136 8.32363 354.363 9.10382C352.096 8.91254 350.51 9.36657 353.049 8.07827C352.474 7.79294 351.898 7.50883 351.322 7.22506C350.921 7.45037 350.517 7.67391 350.113 7.89767C350.051 7.12197 350.113 6.90432 348.533 7.04163C349.218 6.85817 349.901 6.67167 350.589 6.48666C350.612 6.33 350.708 6.16713 350.685 6.01513C349.842 6.31353 347.467 6.44304 346.892 6.64977C346.317 6.85655 347.428 6.91246 347.263 7.11281C345.883 8.7649 345.992 7.54691 345.002 7.83085C344.421 7.99882 345.809 8.18013 345.498 8.2517C344.345 8.51405 343.809 7.6367 342.787 7.62606C343.15 8.12403 343.511 8.62974 343.866 9.13236C342.793 9.10655 341.598 9.10277 340.601 9.2632C340.21 9.32584 340.506 9.69617 340.442 9.72103C340.125 9.8485 338.835 10.0508 338.698 10.0525C337.67 10.056 337.64 9.54282 336.641 9.51527C337.033 9.47161 337.402 9.43225 337.785 9.39014C337.959 8.55807 338.137 7.72605 338.311 6.89243C337.331 6.83242 336.352 6.77366 335.369 6.71366C336.087 6.9911 336.808 7.26723 337.526 7.54467C336.404 8.21743 335.283 8.89173 334.161 9.56604C333.577 9.15344 332.995 8.74093 332.411 8.32833C330.824 8.43811 331.145 10.1141 330.391 8.64618C329.923 8.77056 329.456 8.89487 328.988 9.01771C329.055 8.80817 329.121 8.5982 329.188 8.38866C328.624 8.51781 328.06 8.64612 327.497 8.77682C328.09 9.51845 328.671 10.2989 329.259 11.0188C328.149 11.1806 328.128 10.5512 327.962 10.3942C327.523 9.97843 326.652 10.5401 326.303 10.1553C326.185 10.0232 327.272 9.60821 326.897 9.13052C326.824 9.03793 325.367 7.28201 324.439 7.68813C324.456 8.00636 324.528 8.39654 324.566 8.7427C323.317 8.93667 322.679 7.27584 322.845 6.81013C322.179 7.13646 321.207 7.16423 321.07 7.67347C320.73 7.68607 320.393 7.69803 320.053 7.71064C320.406 6.47038 318.988 6.69789 318.896 7.76436C319.48 7.79043 320.065 7.8179 320.649 7.84398C320.208 9.1513 321.984 9.93931 318.289 8.73052C317.583 8.05095 319.545 8.82248 318.969 8.31361C317.969 8.01778 317.031 8.26626 316.08 7.79334C314.897 7.20256 316.352 6.63294 313.597 7.38729C319.675 9.27012 312.764 8.66188 309.911 9.24862C309.125 7.38618 306.714 6.79743 303.396 7.35342C303.742 7.8717 304.786 7.60402 305.387 7.77439C305.989 7.9448 305.338 8.25274 306.088 8.49449C306.838 8.73618 308.43 9.06446 309.189 9.43027C308.546 9.72406 305.374 10.4195 307.472 9.585C305.905 9.07212 305.17 8.5446 303.229 8.44934C302.648 9.25841 302.691 9.76199 300.8 9.78634C301.918 8.6619 299.768 7.88199 300.24 6.72069C301.582 6.99039 300.833 8.11925 301.609 8.65895C301.689 8.71289 302.938 8.42933 303.229 8.44934C301.967 7.43632 301.531 7.05924 302.306 5.85262C301.414 5.95866 300.859 5.80753 300.778 6.38351C300.592 6.13375 300.404 5.88378 300.221 5.63403C299.931 5.6404 299.669 5.66368 299.362 5.65921C299.786 6.52775 298.964 5.99338 298.38 6.38755C297.796 6.78217 298.58 7.46755 296.976 7.47773C297.511 7.6808 298 7.85502 298.517 8.04724C297.483 8.27131 296.445 8.49681 295.411 8.72088C296.138 9.25131 297.713 10.0389 297.67 10.7374C297.193 10.474 295.561 10.9383 295.383 10.9574C294.691 11.0292 295.068 10.5885 295.015 10.5777C293.929 10.3642 293.034 10.5147 292.621 9.84751C291.804 10.1491 291.188 9.97773 290.322 9.99523C289.846 10.0048 289.939 10.4949 289.66 10.4021C287.805 9.78215 289.571 9.14773 285.995 10.3555C286.428 10.6968 286.856 11.0459 287.289 11.3902C286.885 11.5193 286.484 11.6491 286.08 11.7781C285.809 11.7162 285.541 11.6538 285.271 11.5918C285.276 10.8514 285.283 10.1094 285.288 9.369C284.992 9.3288 284.694 9.28976 284.398 9.24955C284.906 9.17632 285.416 9.10317 285.925 9.02993C285.971 8.89962 286.015 8.76926 286.061 8.63895C285.305 8.43754 284.552 8.23433 283.796 8.03137C283.782 8.28894 283.768 8.54832 283.753 8.80589C282.05 8.44822 282.009 8.2302 280.391 8.94045C279.144 8.93336 278.129 10.0108 277.409 10.4645C277.15 10.3203 276.891 10.1743 276.63 10.0301C276.464 10.2444 276.297 10.4578 276.131 10.6721C275.803 10.3742 275.47 10.0763 275.141 9.78003C274.958 10.4566 274.864 10.6678 276.145 10.9046C275.707 11.7462 273.451 11.3763 272.532 11.0942C271.835 10.8802 272.608 10.178 272.521 10.0927C272.23 9.80285 271.082 10.0537 270.84 10.0057C269.82 9.80604 269.105 9.84148 268.184 9.68674C268.005 9.65577 267.503 9.21128 267.461 9.19735C267.129 9.12146 266.311 8.90573 266.218 8.89957C261.421 8.57015 266.548 10.497 262.087 10.2961C262.221 10.5505 262.344 10.8032 262.474 11.0575C262.138 11.0732 261.797 11.0882 261.46 11.1039C261.033 10.8914 261.549 10.5044 260.701 10.8168C260.756 10.5032 260.811 10.1895 260.869 9.87744C260.5 10.0468 260.145 10.2149 259.767 10.3843C259.173 9.29644 257.009 9.05047 257.162 7.77291C257.214 7.33822 258.748 6.89138 257.937 6.42765C257.278 6.33664 257.725 6.85552 257.456 6.88291C255.514 7.07334 255.627 6.34563 254.834 6.5401C254.709 6.85202 254.578 7.17006 254.45 7.48508C254.151 7.3937 253.851 7.3023 253.548 7.21092C253.479 7.42053 253.406 7.63036 253.337 7.83997C253.619 7.85379 253.936 7.86779 254.195 7.88162C253.834 8.69353 250.522 9.05993 251.785 8.36721C252.299 8.08599 253.241 8.20484 252.646 7.2462C251.759 7.38483 250.754 7.52653 249.821 7.66518C249.792 7.45873 249.764 7.2519 249.735 7.04545C248.478 7.17978 249.622 8.00466 249.62 8.44711C249.332 8.45968 249.042 8.47071 248.754 8.48328C248.632 8.2833 248.516 8.07396 248.388 7.88018C248.377 8.19855 248.216 8.93863 247.359 8.66438C246.808 8.48588 247.675 7.6822 246.624 7.79416C246.703 8.29078 247.083 8.89549 245.912 9.05607C245.796 8.53777 245.635 8.06298 245.545 7.51826C244.089 8.01704 243.426 7.2169 241.718 7.7968C240.634 8.16377 239.15 9.4651 238.448 7.46167C237.655 7.40935 237.907 7.90822 237.672 8.02053C236.565 8.55204 235.741 7.60232 235.535 7.54655C234.219 7.18901 233.629 7.51824 232.556 7.07027C232.615 7.44126 232.647 7.79244 232.693 8.15413C233.675 7.59784 234.173 7.62366 235.551 7.74245C235.089 7.81719 234.626 7.89366 234.165 7.96841C234.24 8.26944 234.315 8.57055 234.388 8.87003C238.648 7.68171 237.655 9.55611 234.084 9.96786C233.775 9.41083 233.456 8.85528 233.15 8.29669C231.087 9.14227 230.116 8.40971 227.782 8.2355C227.505 8.21559 226.494 8.53711 226.06 8.55319C226.067 8.55532 226.075 8.55745 226.082 8.55959C225.812 9.08591 226.178 9.32788 226.222 9.79816C225.987 9.85726 225.751 9.91612 225.516 9.97523C224.99 9.61701 225.175 9.32245 224.14 9.40837C224.28 9.7653 224.418 10.1223 224.557 10.4793C223.424 10.4923 222.682 10.1048 221.627 10.273C221.804 10.1379 221.979 10.0023 222.156 9.86718C219.86 9.52379 221.686 7.42382 219.952 8.46951C219.841 8.28646 219.734 8.10162 219.623 7.91857C220.338 7.87317 221.053 7.82915 221.765 7.78375C221.779 7.5246 221.795 7.26655 221.806 7.0074C221.042 7.08543 220.274 7.16589 219.51 7.24392C220.068 7.06975 220.629 6.89536 221.187 6.72119C220.3 6.59749 219.414 6.47372 218.527 6.35002C219.469 7.30245 218.249 7.41964 218.479 8.36319C216.909 7.57853 215.676 6.54375 213.243 7.20793C212.761 7.34024 213.024 7.99955 211.654 7.1978C211.986 8.24689 210.272 8.74019 210.493 9.73797C210.969 9.68961 211.463 9.65908 211.925 9.59988C211.399 9.254 211.311 8.30178 212.11 8.01874C213.13 7.65806 214.618 8.31723 214.557 7.26032C214.964 7.30976 215.342 7.33885 215.737 7.38053C215.574 7.64281 215.415 7.90674 215.256 8.16902C216.38 7.75735 217.086 7.89064 217.627 8.55133C216.288 8.70416 214.951 8.85538 213.611 9.00665C213.809 9.0515 214.009 9.09669 214.206 9.13999C213.192 9.81583 214.239 10.4549 212.347 10.6003C212.358 10.2914 212.368 9.98236 212.379 9.67196C211.691 10.4982 209.805 10.4947 210.407 11.4445C209.837 11.153 209.721 10.9685 209.399 11.4807C207.896 10.7597 206.93 9.84736 207.464 8.75729C206.906 8.93298 206.348 9.10891 205.793 9.2846C206.116 9.58242 206.439 9.87885 206.762 10.1767C205.791 10.1586 204.813 10.1408 203.845 10.1242C203.752 9.24265 205.714 9.85575 205.147 9.06798C205.034 8.90985 204.512 9.24897 204.375 9.15994C202.927 8.19678 205.199 8.89198 204.772 8.15361C202.616 7.92657 204.341 6.68804 201.371 7.72975C201.292 7.47525 201.208 7.21564 201.135 6.9627C200.104 6.94797 200.188 7.52287 199.302 7.63199C198.747 7.69988 198.049 6.69067 197.437 7.37849C197.328 7.5053 198.359 8.73869 196.192 8.68555C194.51 8.64437 195.21 7.77198 194.301 7.46349C193.391 7.15505 191.31 8.3653 190.696 6.99487C191.173 7.17617 191.78 7.27379 192.309 7.42245C192.524 7.15537 192.733 6.89117 192.945 6.62564C191.736 6.9709 190.486 6.56541 189.673 7.20232C188.059 6.22985 186.256 7.13408 186.745 8.2329C187.275 8.07415 186.698 7.59521 187.435 7.90021C187.511 8.15632 187.591 8.41116 187.666 8.66726C186.411 8.63689 185.539 8.64455 186.111 7.86339C185.916 7.84487 185.723 7.82639 185.529 7.80786C185.494 8.37295 185.463 8.94013 185.429 9.50522C185.196 9.56899 184.963 9.63225 184.73 9.69602C184.472 9.57204 184.213 9.44662 183.951 9.32109C184.302 8.42672 184.901 8.39687 182.919 7.89807C182.913 8.207 182.905 8.5147 182.899 8.82363C181.24 8.4318 181.195 7.68347 179.112 7.71245C180.71 6.63902 181.585 8.53981 181.578 6.38825C181.98 6.5293 182.384 6.67224 182.785 6.8133C182.846 6.50123 182.906 6.18872 182.964 5.87666C180.811 6.04241 177.235 8.0964 175.792 6.7365C175.618 6.90264 175.443 7.04708 175.266 7.22565C173.853 6.4052 173.244 8.24921 171.811 7.18815C171.663 7.07679 171.971 5.34446 170.106 5.40754C170.153 5.63264 170.177 6.01154 170.215 6.2955C169.811 6.1576 169.409 6.01329 169.008 5.87228C168.936 6.08026 168.86 6.28815 168.787 6.49767C169.476 6.57803 170.163 6.65973 170.852 6.74008C170.28 6.81177 169.704 6.88354 169.131 6.95523C169.878 7.29468 170.215 7.29811 169.765 7.84291C169.117 7.87586 168.468 7.91079 167.82 7.94374C167.753 8.0833 167.687 8.22449 167.62 8.36406C167.935 8.77989 168.252 9.18656 168.566 9.6086C166.877 9.26956 165.409 9.25189 164.113 8.43461C163.892 8.29658 164.672 7.75417 163.168 8.24378C163.144 7.95675 163.104 7.72369 163.077 7.45835C161.235 8.26348 160.63 8.02378 158.708 7.44422C159.953 7.98534 158.843 7.63357 158.526 7.92403C158.309 8.12415 159.156 8.09415 159.06 8.30367C158.965 8.51172 157.864 9.35222 158.805 9.45274C161.112 7.7299 161.742 9.78788 164.706 8.95886C164.25 9.1811 163.79 9.40383 163.334 9.62607C163.549 9.77641 163.742 9.91282 163.974 10.0725C162.32 9.73657 163.125 9.95494 162.446 10.2207C161.766 10.4865 160.53 10.7127 159.701 10.7861C159.44 10.8092 159.716 10.4229 159.127 10.3873C158.726 10.3627 157.63 10.9357 157.376 10.261C157.211 9.82177 158.971 8.61118 156.536 8.61538C156.078 8.18496 157.245 8.31809 157.27 8.26619C157.482 7.75378 155.985 7.36941 155.294 7.76099C155.238 7.79476 155.784 8.19367 155.19 8.35062C153.781 8.7255 152.966 8.26813 152.053 7.64922C151.955 8.37579 150.769 9.24409 149.293 8.97632C149.217 9.18427 149.145 9.39405 149.07 9.60355C149.299 9.49338 149.528 9.38469 149.758 9.27452C150.008 9.40478 150.272 9.49956 150.517 9.65312C149.032 9.83258 148.822 10.834 148.111 11.2007C145.675 12.4534 147.15 9.80544 147.589 9.34893C147.906 9.53349 148.213 9.73953 148.527 9.93341C148.492 9.68039 148.456 9.42545 148.424 9.17087C144.777 9.18057 147.868 7.52861 146.016 7.05924C145.54 8.30443 144.18 8.42515 142.448 7.63608C142.256 7.6424 142.064 7.64409 141.872 7.65196C141.84 7.83349 141.841 8.11096 141.789 8.23059C139.702 8.44284 139.329 6.52582 139.131 6.34429C138.253 5.53921 137.571 6.65417 137.312 6.66386C136.222 6.70326 135.905 6.20852 134.868 6.42166C133.752 6.65196 134.515 7.03129 134.176 7.37139C133.904 7.64147 133.023 7.69003 132.66 7.97002C132.804 7.7411 132.965 7.5166 133.109 7.28683C131.952 6.97548 131.007 6.67191 129.693 6.59656C128.212 8.27178 126.95 5.44793 127.462 7.73846C128.706 7.89458 129.402 8.15525 130.068 8.73859C129.251 8.81353 128.434 8.88652 127.618 8.96145C127.379 8.71016 127.21 8.46523 126.928 8.2093C126.318 8.74354 124.903 8.51519 124.348 8.67209C121.747 9.40776 122.553 10.318 120.177 8.78878C121.889 8.63872 121.886 7.89536 123.583 7.99688C123.216 7.46617 122.354 7.57664 122.912 6.93986C121.27 7.09752 121.801 7.66548 121.162 8.1703C120.611 8.6055 119.501 8.63044 119.564 9.19558C119.451 8.88491 119.363 8.58413 119.249 8.27386C118.186 8.27754 117.122 8.27831 116.059 8.28199C116.512 7.95734 116.965 7.63211 117.418 7.30901C117.076 7.18667 116.732 7.0648 116.39 6.94246C113.775 7.9529 109.263 6.10604 109.985 8.64047C108.724 8.72187 108.566 8.40403 107.88 7.92478C107.804 8.11726 107.731 8.27736 107.655 8.49159C106.842 8.29057 106.218 9.0134 105.5 8.82598C104.782 8.64001 104.603 7.95767 104.499 9.10483C104.034 8.77604 103.572 8.50295 103.11 8.19742C102.831 8.45817 102.553 8.71592 102.277 8.97511C101.841 8.83875 101.404 8.70296 100.968 8.5666C100.735 9.1143 99.0211 8.87919 98.2657 9.24734C97.5481 8.65747 97.5668 6.79901 95.8795 7.13295C95.9233 7.59386 95.9665 8.05343 96.0103 8.51434C95.6238 8.41832 95.2365 8.32261 94.847 8.22659C94.8237 8.07616 94.8035 7.92572 94.7802 7.7753C94.9778 7.82175 95.1728 7.86796 95.3703 7.91596C95.1987 7.66146 95.0307 7.40814 94.8619 7.15364C94.2723 7.53112 93.6818 7.90864 93.0892 8.28613C93.8884 8.57127 94.6879 8.85659 95.4872 9.14173C94.4846 9.48069 93.7866 9.14351 92.9149 9.52121C92.1561 8.88525 92.436 8.51841 92.7436 7.82766C92.4618 7.88678 92.1767 7.94386 91.895 8.00297C92.0805 7.31219 91.6036 6.9009 93.2511 6.95585C93.1377 6.75891 93.0221 6.57115 92.9116 6.36646C92.6414 6.39765 92.466 6.23123 92.1697 6.30735C91.3619 6.51581 90.7431 7.7293 90.7985 8.15462C90.8284 8.37741 91.6249 7.95088 91.5931 8.26588C91.5147 9.03404 89.687 8.69016 92.3232 9.46019C91.4487 9.94966 91.2531 9.58098 90.2881 9.44023C90.3638 9.69615 90.4373 9.95045 90.51 10.2064C90.0626 10.0887 89.6145 9.97141 89.167 9.85372C89.7883 8.53858 86.4893 8.04652 89.4582 6.89472C88.5806 6.83622 87.706 6.7774 86.8314 6.71579C87.0114 6.58066 87.1916 6.4469 87.3717 6.31177C87.7669 6.38296 88.1598 6.45297 88.555 6.52261C88.09 6.27611 87.6242 6.03107 87.1592 5.78457C86.0608 6.09098 85.6304 6.56156 85.1279 7.14241C86.4067 7.56539 85.9886 6.98689 86.9848 6.87134C86.9502 7.23904 86.9963 7.57721 86.9095 7.96355C86.3943 7.20224 84.7154 7.7572 84.326 7.79466C83.141 7.90843 84.0699 7.15963 83.2772 7.14432C82.4837 7.12922 81.5482 7.57511 80.8997 6.83342C80.9115 7.24932 80.9636 7.67961 81.0103 8.05828C79.7751 8.19555 80.0213 7.70408 79.8934 7.6405C77.8526 6.59533 76.746 7.47924 74.4123 7.58761C74.7087 7.71628 75.0083 7.83242 75.3077 7.95332C73.5475 8.83733 74.7334 8.5663 76.2622 8.85731C74.8293 8.76959 74.0092 9.52208 72.9979 9.74617C71.9867 9.96987 70.2522 9.58456 69.6182 9.28384C71.0682 8.79871 72.6326 9.11727 74.2427 8.9829C74.0594 8.55931 73.8813 8.20083 73.6922 7.73539C72.7133 8.62517 72.1456 8.03089 71.8229 7.91309C70.8755 7.56759 70.9057 8.33081 70.3328 7.51017C70.3562 7.79257 70.3733 8.03002 70.3967 8.29378C68.4408 8.17686 66.3308 7.67872 65.0584 8.72236C64.9417 8.0441 64.8537 7.39063 64.7196 6.69841C63.8917 7.20947 63.1822 6.68697 62.4848 6.80673C61.7903 6.92663 62.055 7.47468 61.2385 7.68626C61.0874 7.72515 60.7725 7.38221 60.4006 7.63545C60.0251 7.89003 58.6408 9.78215 58.4742 8.12993C57.7739 8.12254 57.111 8.06248 56.4252 8.03491C57.0935 7.94141 57.7621 7.85085 58.4276 7.75735C57.8578 7.3572 57.2915 6.95823 56.7217 6.55808C56.6493 6.91516 56.5766 7.27871 56.507 7.63114C54.9727 8.06662 53.8588 7.48345 52.3099 7.62241C52.0512 7.64584 52.6618 8.35143 51.5141 8.17213C50.3661 7.99269 49.5135 6.67558 47.558 7.18554C47.4592 7.21199 46.8806 8.22138 46.1798 7.52318C46.0203 7.36494 46.6911 7.13031 46.3251 6.92255C45.9588 6.71473 44.3247 6.54455 44.1966 6.04941C44.2141 6.22477 44.3162 6.40643 44.3657 6.58488C44.0868 6.66883 43.8051 6.75285 43.5233 6.83526C43.497 6.52639 43.4686 6.21706 43.4423 5.90975C41.8384 6.62934 41.01 7.80221 38.6326 7.41556C39.3013 7.8638 39.9702 8.31383 40.6359 8.76207C40.8188 8.44684 41.0021 8.12949 41.1821 7.81425C42.2777 7.93939 43.3763 8.06361 44.4719 8.18874C44.6519 7.83005 44.8287 7.47238 45.0087 7.11368C45.2993 7.16008 45.5871 7.20505 45.8777 7.25145C45.8051 7.51072 45.732 7.76862 45.6566 8.0279C46.2319 7.96395 46.8079 7.89866 47.3803 7.83472C46.2157 9.36553 44.1258 7.70631 44.2772 8.98623C44.0185 8.78778 43.7596 8.58793 43.5009 8.38793C43.3879 9.00864 42.8621 8.8303 41.9353 8.73299C42.1476 9.0387 42.3821 9.34022 42.577 9.64904C41.6758 9.21802 40.0776 9.26078 39.1446 9.0952C38.7348 9.02247 39.1439 8.57226 39.022 8.51942C38.3969 8.24344 37.203 9.02925 36.9531 8.96729C35.4591 8.59857 34.4875 7.11051 32.8576 8.09247C34.5406 8.33374 33.625 8.23195 34.224 8.77651C34.4115 8.94725 36.5857 9.30246 33.8634 9.14565C33.5442 9.12601 28.6041 8.10017 30.2274 7.31115C29.4283 7.56307 28.8027 7.85419 28.0704 8.1216C26.279 6.04547 26.8996 7.99642 27.4205 9.07039C27.1269 9.0752 26.8477 9.08626 26.5454 9.08642C27.1871 7.95749 23.9147 7.88918 22.8048 8.4595C22.4329 8.64909 23.4733 9.00978 22.6132 9.18101C22.2035 9.10208 21.7387 8.99986 21.3059 8.91164C21.934 9.62535 20.7021 9.90119 20.7198 10.6276C19.9319 9.98071 19.3288 8.60904 19.7612 7.86517C19.1104 8.16662 18.4563 8.46771 17.8056 8.77072C18.1079 8.94286 18.4142 9.1135 18.7165 9.28564C16.5888 8.83039 13.8539 9.8704 13.4084 8.34464C13.1265 8.35566 12.8416 8.36521 12.5597 8.37622C12.4726 8.63397 12.3885 8.8922 12.3015 9.14995C11.0257 8.92714 9.75291 8.70285 8.4772 8.48004C9.61291 8.31951 9.88309 7.95257 11.0744 8.24977C10.6152 7.95364 10.1475 7.65588 9.69702 7.35975C7.90426 8.15863 7.65992 8.68317 4.95994 8.44715C4.83786 8.43635 2.79755 7.76831 2.72776 7.70315C2.40804 7.40529 2.8929 6.97206 2.75052 6.82153C2.35503 6.39949 -0.0473864 5.34056 -0.000970756 5.18064C0.585064 3.21811 8.66611 3.18774 10.8516 3.08566C33.5205 2.02719 55.6914 3.41499 78.2183 3.16378C78.4499 3.15996 78.3486 2.87035 78.4474 2.85789C79.0604 2.78481 79.6628 3.23593 79.8895 3.25443C80.3738 3.29255 80.1069 2.8756 80.4608 2.87511C84.1169 2.8778 87.5673 3.12121 91.2263 3.04783C91.4646 3.04304 91.2215 3.37689 91.64 3.31767C91.856 3.28526 92.532 2.77291 93.0197 2.7649C94.7227 2.7376 96.1534 2.90097 97.9494 2.89224C98.9318 2.88707 100.406 2.9298 101.504 2.92145C101.989 2.91789 102.494 2.68339 102.974 2.67531C103.654 2.66407 103.515 3.13896 103.62 3.1684C104.079 3.29697 104.142 2.77579 104.578 2.78796C105.389 2.81236 105.433 3.16029 106.462 3.13025C107.197 3.10812 108.88 2.83249 109.807 2.75127C111.975 3.15368 114.707 2.99199 116.73 2.8574C117.927 2.77761 118.038 3.26472 118.527 3.2629C120.247 3.25254 121.552 2.62963 123.168 2.60858C125.312 2.58113 127.213 2.99153 129.29 3.01999C129.627 3.02446 129.55 2.57814 129.88 2.56651C131.104 2.52393 132.668 2.44185 133.758 2.50491C134.973 2.5742 135.421 3.22187 136.61 3.08928C136.958 3.04992 137.06 2.48177 137.644 2.40852C138.577 2.29332 139.6 2.79373 140.251 2.8493C141.143 2.92333 140.367 2.345 141.57 2.42197C141.62 2.42529 141.8 2.8389 142.058 2.81903C142.811 2.76273 142.736 2.43698 143.838 2.46744C143.943 2.47167 145.404 2.86508 145.549 2.86658C146.404 2.87233 148.124 3.00941 148.63 2.92534C150.437 2.62631 149.014 2.00483 150.552 3.35458C151.229 3.02365 151.9 2.68822 152.617 2.36658C152.139 2.66645 154.083 3.09774 154.219 3.06972C155.349 2.84396 154.676 2.31883 156.108 2.40498C154.217 3.61997 157.957 2.56045 158.791 2.52896C162.807 2.37626 166.458 2.67723 170.495 2.66729C171.846 2.66338 173.657 2.40579 175.087 2.41123C175.42 2.41142 175.169 2.69885 175.462 2.7049C175.755 2.709 175.43 2.38665 175.764 2.40354C177.842 2.51423 179.47 3.1219 181.373 2.36024C181.466 2.47016 181.463 2.55706 181.617 2.67778C183.174 1.9955 186.175 2.91028 187.302 3.03541C189.066 3.22995 189.517 2.7691 190.798 2.86142C192.492 2.98469 195.037 3.88316 193.9 2.39834C195.062 2.35116 196.181 2.33771 197.355 2.47521C197.486 2.4908 197.396 2.86841 197.448 2.87614C197.78 2.93017 197.887 2.59207 198.111 2.57642C198.718 2.53434 197.728 2.93964 198.593 2.82609C199.049 2.7653 199.308 2.47032 200.575 2.46341C208.213 2.42669 216.505 2.52782 224.335 2.57327C224.872 2.57609 224.518 2.21116 225.193 2.23408C227.535 2.31362 231.728 2.92583 233.748 2.84101C235.768 2.7561 235.312 2.22241 236.576 1.99816C236.82 1.95456 236.62 2.25897 236.841 2.26351C238.326 2.29068 240.097 2.76435 241.3 2.83511C242.096 2.88253 242.032 2.40385 242.584 2.36936C243.406 2.31924 244.253 2.80243 244.692 2.81772C246.755 2.88481 248.173 2.49449 250.1 2.69213C250.025 2.58682 249.975 2.48932 249.911 2.38555C252.192 2.40139 254.471 2.41728 256.752 2.43313C256.644 2.33694 256.54 2.23992 256.433 2.14218C259.109 2.19355 258.804 3.23688 258.568 1.03421C258.762 0.956501 258.969 0.866439 259.155 0.79495C259.08 1.92971 260.699 2.75924 262.76 3.04692C262.911 3.06858 263.924 1.96165 263.815 3.26882C264.079 2.94889 264.236 2.72837 264.46 2.44728C264.896 2.84278 265.338 3.2336 265.774 3.62755C266.009 3.56845 266.248 3.51141 266.483 3.45231C266.518 3.19614 266.491 2.93021 266.566 2.67868C267.659 2.63929 269.9 2.95473 270.764 2.92177C272.909 2.83833 275.092 2.14463 276.761 2.89199C277.573 2.81526 276.766 2.31296 277.974 2.37591C278.111 2.63037 278.24 2.87426 278.382 3.13646C279.369 1.99869 279.576 2.69039 280.93 2.92727C281.845 3.08821 282.445 2.80994 283.316 2.86373C283.537 2.87759 283.506 3.2114 283.657 3.20045C284.164 3.16575 285.607 2.70555 285.965 2.69294C289.202 2.57014 291.983 2.62017 295.067 2.74113C295.398 2.75338 294.968 2.42419 295.311 2.43798C295.863 2.45961 295.539 2.96597 295.858 2.99063C296.75 3.05658 296.757 2.52281 298 2.4942C302.095 2.40047 306.803 2.79889 311.081 2.83229C311.215 2.83222 311.207 2.51949 311.352 2.5163C312.299 2.5005 313.258 2.92273 314.118 2.91762C315.545 2.91065 316.618 2.47072 318.027 2.47151C320.782 2.47158 323.244 2.69521 326.078 2.70611C328.397 2.71573 330.411 2.67293 332.954 2.67311C344.062 2.67333 355.397 1.67454 366.581 2.19633C366.865 2.21014 366.75 2.48651 366.836 2.4745C367.662 2.35452 367.735 1.98166 368.029 2.76223C369.081 2.6078 369.412 2.02107 370.682 2.06229C371.359 2.08389 370.854 2.99327 371.999 2.5239C373.032 2.09958 371.891 1.60197 374.966 2.10942C375.047 2.12337 375.448 2.67729 376.087 2.53268C376.729 2.38951 375.986 1.99312 377.532 1.87275C381.162 1.5914 385.757 2.06792 389.976 1.91823C390.241 1.90877 392.788 1.61115 393.29 1.47426C394.263 1.20829 394.06 0.796611 395.323 0.695009C396.3 0.616863 397.106 1.08289 398.254 0.98913C398.388 0.977737 398.611 0.497803 399.474 0.560942ZM185.533 9.99586C185.295 10.4668 184.866 12.1998 183.424 11.6732C183.288 11.6236 184.024 10.4316 183.228 10.2425C184.007 10.1163 184.766 10.0752 185.533 9.99403C185.533 9.99464 185.533 9.99525 185.533 9.99586ZM405.726 11.6065C404.648 11.5202 403.566 11.4346 402.488 11.3483C403.232 11.1383 403.977 10.9287 404.718 10.7172C405.055 11.0135 405.389 11.3103 405.726 11.6065ZM271.501 10.8559C271.502 10.8559 271.503 10.8559 271.504 10.8559C270.37 11.08 269.236 11.3046 268.103 11.5287C268.222 11.3641 268.341 11.1988 268.46 11.0342C269.355 10.7745 270.251 10.5152 271.143 10.2555C271.262 10.4556 271.381 10.6557 271.501 10.8559ZM280.455 9.10886C281.178 9.30408 281.001 9.63405 281.4 9.95518C281.4 9.95457 281.4 9.95395 281.4 9.95334C281.505 10.0369 281.994 10.1099 282.184 10.1223C282.114 9.91586 282.024 9.71208 281.948 9.50721C283.636 9.00643 286.939 10.781 282.664 11.4989C282.728 11.2381 282.789 10.9787 282.853 10.7179C280.728 10.792 278.36 10.2277 280.455 9.10886ZM168.45 10.7558C166.637 11.6106 166.056 11.7909 163.855 11.2068C164.166 10.9647 164.477 10.7225 164.787 10.4803C165.151 10.727 165.512 10.9719 165.875 11.2186C165.876 11.2186 165.877 11.2186 165.878 11.2186C165.951 10.9593 166.023 10.6995 166.093 10.4403C166.878 10.5454 167.666 10.6506 168.45 10.7558ZM349.877 9.68848C350.383 11.3935 350.237 10.4023 348.793 10.7876C348.293 10.9214 348.781 11.2195 348.47 11.2694C346.791 11.5416 346.656 10.3992 347.03 9.80445C347.981 9.76358 348.941 9.72624 349.874 9.68848C349.875 9.68848 349.876 9.68848 349.877 9.68848ZM393.448 9.31071C393.449 9.31071 393.45 9.3107 393.451 9.3107C393.495 9.72661 392.818 9.83886 393.582 10.2325C393.001 10.2313 392.42 10.2283 391.836 10.2271C392.007 10.1882 392.182 10.1512 392.353 10.1123C392.202 9.9696 392.051 9.82505 391.899 9.68231C391.693 10.1605 391.501 9.88271 390.891 9.72314C391.06 10.2338 391.228 10.7448 391.397 11.2554C390.688 11.1037 389.976 10.9514 389.267 10.7997C389.258 10.671 389.249 10.5421 389.241 10.4134C388.973 10.578 388.709 10.7445 388.442 10.9091C388.369 10.7555 388.299 10.6032 388.226 10.4496C387.904 10.5662 387.581 10.6827 387.258 10.8008C387.16 10.4286 387.871 10.2674 386.611 10.3626C386.997 9.98057 387.382 9.59968 387.772 9.21764C389.664 9.24767 391.556 9.27913 393.448 9.31071ZM336.742 10.2201C338.826 10.1476 338.239 10.4177 337.757 11.2623C337.42 10.9149 337.079 10.5676 336.742 10.2201ZM229.384 9.52639C228.78 10.1026 228.173 10.6732 227.555 11.2293C226.322 11.5513 225.089 10.5022 226.016 10.0903C227.132 9.5961 228.298 10.1479 229.384 9.52639ZM201.318 9.79785C202.826 10.0641 201.407 10.7492 201.068 11.1483C200.65 10.5074 200.069 10.5643 199.134 10.4902C200.012 10.4482 201.068 9.75264 201.318 9.79602C201.318 9.79663 201.318 9.79724 201.318 9.79785ZM253.648 10.1606C254.252 10.143 254.853 9.98183 255.393 10.177C255.23 10.7278 254.149 10.2274 254.923 11.0433C254.536 11.0575 254.149 11.0712 253.766 11.087C254.009 10.7486 253.681 10.496 253.649 10.1624C253.649 10.1618 253.648 10.1612 253.648 10.1606ZM316.553 10.8801C315.367 10.2287 315.142 10.5078 313.948 10.9602C313.779 10.4295 315.203 9.53947 316.095 9.34324C316.246 9.85541 316.398 10.3679 316.553 10.8801ZM36.0759 10.7594C36.3603 10.0826 38.4607 9.99319 39.5045 10.1927C39.3803 10.2931 39.2557 10.3949 39.1314 10.4968C38.1143 10.5843 37.093 10.6719 36.0759 10.7594ZM198.69 10.4447C198.846 10.4644 198.994 10.4791 199.134 10.4902C198.979 10.4977 198.829 10.4862 198.69 10.4447ZM135.554 7.54184C136.051 6.90362 134.574 6.69008 136.367 6.93902C136.367 6.93841 136.367 6.9378 136.367 6.93719C137.553 7.1011 137.815 7.1449 138.913 7.19398C138.518 8.01373 136.29 8.30787 139.362 8.47541C139.402 8.47614 139.321 7.98853 139.812 8.05496C139.964 8.07562 140.449 8.47558 141.186 8.59161C141.425 8.62874 143.216 8.7512 140.774 8.76028C140.847 9.33152 140.717 9.90982 140.723 10.464C139.77 10.6256 139.037 9.50736 138.029 9.53534C136.532 9.57962 135.771 10.7112 135.483 9.22728C136.741 8.86198 138.902 8.85205 139.184 9.74437C140.402 9.75458 140.751 9.02319 139.769 8.66195C135.564 9.12372 138.614 7.57721 134.932 8.16287C134.889 8.3693 134.737 8.5915 134.761 8.78549C133.636 8.05976 135.377 7.77011 135.554 7.54184ZM144.349 9.11539C143.623 9.55201 142.899 9.99212 142.175 10.4303C142.175 9.71931 142.574 9.08109 143.719 8.67996C143.928 8.82565 144.14 8.97125 144.349 9.11539ZM83.2288 9.33509C83.1244 9.72168 82.8456 10.076 82.6424 10.4441C82.4214 10.1182 77.1896 9.80827 79.851 9.48705C80.2375 9.44027 82.5956 10.1225 83.2288 9.33509ZM324.786 10.2934C324.169 10.0345 323.555 9.77516 322.942 9.51624C323.886 9.35128 324.831 9.18201 325.775 9.01395C325.444 9.44033 325.116 9.86702 324.786 10.2934ZM219.354 8.85342C219.614 8.86779 218.75 9.39985 219.776 9.31551C219.011 9.6559 218.296 9.94404 217.549 10.2642C217.325 10.0129 217.099 9.76252 216.875 9.51116C216.701 9.6727 216.523 9.83327 216.349 9.99481C216.453 9.62839 216.546 9.27053 216.656 8.8979C217.915 9.68273 218.203 8.79194 219.354 8.85342ZM256.773 7.40052C257 8.19662 255.178 8.6711 256.971 8.79744C256.631 9.32074 256.084 9.59542 255.035 9.64256C254.867 9.44259 254.698 9.24408 254.53 9.04411C254.507 9.57947 254.237 9.7786 253.648 10.1606C253.647 10.1599 253.647 10.1593 253.646 10.1587C252.051 10.1983 252.146 10.0198 251.762 9.13989C253.451 9.63575 253.501 8.83161 254.652 8.35285C255.442 8.02364 256.474 8.17198 256.773 7.40052ZM88.8028 9.32294C87.6091 9.9957 88.681 10.622 86.562 9.90914C86.6985 9.7383 86.8357 9.56891 86.9722 9.39808C87.5824 9.37136 88.1926 9.34655 88.8028 9.32294ZM262.668 10.1264C262.53 8.89395 261.406 7.93515 261.215 9.94042C262.311 10.3481 261.775 9.21258 262.668 10.1264ZM201.831 7.86774C203.938 7.92411 203.54 9.31542 202.675 10.0113C202.541 9.75837 202.407 9.50495 202.276 9.25354C201.907 9.36861 201.538 9.48391 201.169 9.59744C201.389 9.02139 201.61 8.44378 201.831 7.86774ZM299.811 8.75238C298.201 9.63345 301.549 9.24097 300.425 9.79112C299.527 10.2309 298.343 9.34462 298.79 8.78863C299.101 8.77294 299.447 8.76189 299.808 8.75238C299.809 8.75238 299.81 8.75238 299.811 8.75238ZM290.494 9.00916C290.759 9.94946 290.377 9.67554 291.649 9.50564C292.013 9.45732 294.9 9.80897 293.687 9.03032C292.656 9.03088 291.566 9.01789 290.494 9.00916ZM177.477 9.25683C177.458 8.8473 179.68 7.94682 179.966 8.17156C179.966 8.17095 179.966 8.17034 179.966 8.16973C180.736 8.7825 178.391 8.87089 179.409 9.7117C177.156 8.97256 176.483 10.7637 176.639 8.40405C177.966 8.29983 177.338 8.78656 177.477 9.25683ZM8.49443 8.84623C8.4934 8.84623 8.49237 8.84623 8.49133 8.84623C8.64062 8.86541 9.87096 9.4658 9.7215 9.67408C8.24224 9.49637 8.50563 9.10059 7.12891 9.75146C7.0533 9.5421 6.98851 9.33904 6.9071 9.12813C7.45343 9.00365 7.75616 8.75193 8.49443 8.84623ZM77.5723 8.51238C78.1157 8.40497 79.1077 8.84829 79.7268 8.82157C77.7572 10.5271 75.4016 8.93894 77.5723 8.51238ZM373.069 9.38028C373.068 9.38089 373.066 9.3815 373.065 9.38211C373.065 9.38119 373.066 9.38029 373.066 9.37937C373.067 9.37967 373.068 9.37998 373.069 9.38028ZM119.688 9.51227C119.618 9.40166 119.579 9.30557 119.564 9.22122C119.564 9.21328 119.564 9.20535 119.564 9.19741C119.602 9.30099 119.643 9.40575 119.688 9.51227ZM172.857 9.38291C171.931 8.81225 175.015 7.90255 176.013 8.11876C175.944 8.37949 175.933 8.61584 175.77 8.91536C174.965 8.24071 173.011 9.47907 172.857 9.38291ZM243.187 9.13536C240.748 9.12115 243.92 6.86427 244.052 8.66342C244.047 8.69828 243.25 9.13226 243.187 9.13536ZM192.087 9.13635C192.708 8.45325 191.459 8.27261 193.455 8.3895C193.572 8.56629 193.688 8.7435 193.804 8.92029C193.232 8.99199 192.659 9.06465 192.087 9.13635ZM227.211 6.1833C224.142 6.56527 221.208 7.2378 223.208 9.11958C223.44 9.05897 223.675 9.00037 223.908 8.93977C223.942 8.02115 224.799 8.52212 226.054 8.55136C226.233 8.18657 226.928 8.10187 227.059 7.79189C227.311 7.19268 226.511 6.77194 227.211 6.1833ZM356.78 7.60845C356.731 7.76527 356.683 7.9229 356.633 8.07817C356.148 8.2554 355.661 8.43178 355.176 8.60902C355.254 8.30808 355.333 8.00716 355.411 7.70623C355.867 7.6734 356.321 7.64036 356.777 7.60753C356.778 7.60784 356.779 7.60814 356.78 7.60845ZM147.339 7.17571C147.061 8.90164 148.035 8.58326 150.011 7.70982C149.121 7.53178 148.228 7.35375 147.339 7.17571ZM276.527 6.85615C276.591 7.3464 276.655 7.83515 276.722 8.32539C277.771 7.81409 277.575 7.25272 277.072 6.6041C276.889 6.68794 276.71 6.77231 276.527 6.85615ZM291.64 6.63927C291.205 6.53722 291.427 6.93296 291.381 6.92504C290.28 6.71762 290.125 6.53611 288.773 6.8349C288.608 6.93898 288.445 7.04841 288.279 7.15559C288.905 8.1826 289.358 7.62243 290.681 8.22541C290.442 7.87314 290.205 7.52039 289.966 7.16658C290.701 7.24068 291.433 7.31375 292.169 7.38785C292.256 7.27914 292.343 7.17143 292.43 7.06272C292.169 6.92319 291.899 6.76638 291.64 6.63927ZM362.393 8.05126C363.108 8.09124 363.826 8.1328 364.541 8.17278C364.567 7.91975 364.592 7.665 364.618 7.41197C363.877 7.625 363.134 7.83824 362.393 8.05126ZM132.66 7.97002C132.603 8.0598 132.548 8.15013 132.499 8.242C132.504 8.13007 132.566 8.04266 132.66 7.97002ZM6.60729 7.45937C5.79646 7.28287 4.62823 7.39968 3.73892 7.36296C3.80918 7.99768 6.06934 7.821 6.86324 8.20535C6.99071 8.09139 6.95003 7.53365 6.60729 7.45937ZM204.746 7.92201C204.949 7.60525 205.152 7.29 205.352 6.97324C205.844 7.00713 206.336 7.04292 206.83 7.07681C206.844 6.81755 206.858 6.55605 206.873 6.2968C204.696 6.63478 205.198 5.88694 204.12 5.15027C204.33 6.07365 204.536 6.99708 204.746 7.92201ZM385.14 6.3948C383.568 6.57106 383.011 6.899 383.897 7.67623C384.452 7.49746 385.01 7.31853 385.565 7.13977C385.423 6.89153 385.28 6.64304 385.14 6.3948ZM104.025 7.39954C102.709 7.69085 102.687 6.64712 101.401 7.23068C102.09 7.42276 102.778 7.61698 103.464 7.80907C103.649 7.67289 103.839 7.53573 104.025 7.39954ZM168.554 4.49839C167.999 4.13559 166.962 5.86212 165.401 4.58889C165.029 4.96935 164.796 5.33269 164.477 5.70536C164.29 5.30029 164.079 4.89005 163.901 4.48808C163.9 4.48808 163.899 4.48808 163.898 4.48808C162.483 4.62545 163.401 5.13311 163.369 5.56314C163.354 5.74141 162.304 5.44399 162.632 5.83177C163.199 6.49744 165.317 6.11335 165.323 6.92524C164.579 6.6603 163.126 6.88281 163.556 7.42422C164.027 8.01848 165.396 7.02141 166.268 7.5143C165.018 6.21734 167.599 6.61677 167.893 7.61321C169.406 6.84709 168.015 6.53564 166.463 6.57217C167.41 5.8079 166.015 6.22129 165.785 5.58656C166.762 5.2028 170.115 5.52045 168.554 4.49839ZM239.993 5.86698C238.946 5.91679 237.311 5.48113 236.595 6.12606C236.178 6.50181 237.817 6.79172 236.687 7.38205C237.707 7.32401 237.939 7.09352 237.765 6.57676C237.997 6.51458 238.232 6.45392 238.465 6.39329C238.572 6.49408 238.682 6.59352 238.79 6.69431C238.912 6.48159 239.035 6.27057 239.154 6.05785C239.401 6.0996 239.65 6.1414 239.897 6.1847C239.926 6.07776 239.976 5.98468 239.993 5.86698ZM66.2456 7.45195C66.5361 7.44558 66.8239 7.43925 67.1144 7.43134C67.0824 7.30548 67.0441 7.17441 67.0073 7.04506C66.981 6.94285 66.9546 6.84063 66.9282 6.73842C67.0968 7.10357 68.4814 7.70988 69.0643 7.31951C69.3573 7.12368 68.6898 6.42937 69.9326 6.30744C69.0319 6.34365 68.1976 6.4389 67.323 6.49835C67.4014 6.29184 67.4766 6.08312 67.555 5.87661C67.5545 5.87631 67.554 5.876 67.5534 5.8757C67.2629 5.8293 66.9689 5.78067 66.6783 5.73427C66.5333 6.30718 66.3906 6.87904 66.2456 7.45195ZM275.675 5.88711C274.684 6.29282 274.352 6.50341 274.821 7.15826C274.822 7.15857 274.823 7.15887 274.824 7.15918C275.193 6.86873 275.562 6.5784 275.931 6.28796C275.846 6.1545 275.762 6.02057 275.675 5.88711ZM124.122 5.81225C122.016 8.30178 126.761 6.7738 125.857 5.92667C125.816 5.88788 124.32 6.08692 124.122 5.81225ZM201.443 7.1026C202.022 7.08211 202.601 7.06357 203.183 7.04307C203.049 6.73732 202.912 6.43264 202.778 6.12689C202.333 6.45158 201.888 6.77791 201.443 7.1026ZM378.294 5.26878C377.685 4.58605 376.122 4.33942 375.359 5.08269C375.76 5.16941 376.162 5.25624 376.563 5.34295C375.804 5.42871 375.055 5.52306 374.291 5.60417C374.251 6.55581 375.131 6.00326 376.456 6.2649C376.662 6.3071 377.974 7.48762 378.427 6.59707C378.518 6.41404 377.122 6.29036 378.092 5.75776C377.667 5.71612 377.301 5.7256 376.901 5.70256C376.871 5.47592 376.842 5.24903 376.81 5.0224C377.306 5.1042 377.799 5.18699 378.294 5.26878ZM233.9 5.94442C232.463 5.89268 232.285 6.27301 231.986 6.94516C232.655 6.86873 233.324 6.79346 233.992 6.71703C233.96 6.46003 233.932 6.20296 233.9 5.94442ZM365.446 5.05782C364.658 4.94833 364.996 5.49513 364.679 5.59928C363.482 5.99106 362.665 5.60058 361.483 5.84636C361.561 5.74075 361.633 5.64205 361.709 5.53955C361.708 5.53955 361.707 5.53955 361.706 5.53955C356.105 5.08156 359.047 6.32046 362.398 6.11685C362.477 6.32017 362.552 6.52375 362.631 6.72552C364.13 6.36923 365.513 6.02643 365.446 5.05782ZM142.842 5.71702C142.778 5.58976 143.321 4.78053 142.301 5.15978C141.494 6.34131 142.818 5.75438 143.15 6.20847C142.874 6.32194 142.592 6.43234 142.319 6.54581C143.97 6.87869 144.211 6.59772 143.609 5.73492C143.566 5.67693 142.906 5.84388 142.842 5.71702ZM131.992 5.14062C131.767 6.88097 133.85 6.09731 133.774 5.55712C133.486 5.53574 133.263 5.83051 132.958 5.70038C132.65 5.57016 132.571 5.16372 131.992 5.14062ZM191.681 5.53415C191.62 5.52642 191.006 4.79536 191.067 5.36786C191.826 6.72269 193.354 5.84954 193.087 5.37776C192.581 5.40137 192.244 5.60491 191.681 5.53232C191.681 5.53293 191.681 5.53354 191.681 5.53415ZM387.776 4.85353C387.746 4.805 386.217 4.51184 386.019 4.7849C385.857 5.09231 385.776 5.42171 385.654 5.73995C386.497 5.44454 388.203 5.66831 387.772 4.85354C387.773 4.85354 387.774 4.85354 387.776 4.85353Z" fill="black" fill-opacity="0.2"/>
</svg>
